<svg width="168" height="33" viewBox="0 0 168 33" fill="none" xmlns="http://www.w3.org/2000/svg">
<g clip-path="url(#clip0_1022_3989)">
<mask id="mask0_1022_3989" style="mask-type:luminance" maskUnits="userSpaceOnUse" x="0" y="0" width="168" height="33">
<path d="M167.912 0H0.24707V33H167.912V0Z" fill="white"/>
</mask>
<g mask="url(#mask0_1022_3989)">
<path d="M0.72168 31.6992C1.71744 29.267 2.09032 27.8603 2.09032 24.5382V13.9153C2.09032 10.5552 1.71321 9.18652 0.72168 6.75432V6.68652H9.62846V6.75432C8.63693 9.18652 8.22168 10.6272 8.22168 13.9153V18.5764H18.0564V13.9153C18.0564 10.5891 17.6793 9.18652 16.6539 6.75432V6.68652H25.5607V6.75432C24.603 9.18652 24.192 10.6272 24.192 13.9153V24.5382C24.192 27.8264 24.603 29.267 25.5607 31.6992V31.767H16.6539V31.6992C17.6793 29.267 18.0564 27.8603 18.0564 24.5382V19.3645H8.22168V24.5382C8.22168 27.8264 8.6327 29.267 9.62846 31.6992V31.767H0.72168V31.6992Z" fill="white"/>
<path d="M33.0012 32.2797C30.0563 32.2797 28.3741 30.1187 28.3741 26.8305V19.0509C28.3741 16.9958 27.8614 16.1356 27.0732 15.178V15.0763H33.8571V26.8644C33.8571 28.2712 34.5054 29.4365 36.0521 29.4365C37.1834 29.4365 38.0054 28.7161 38.5521 27.7543V19.017C38.5521 16.9619 38.0732 16.0678 37.2512 15.1441V15.0763H44.069V24.6356C44.069 28.4746 44.5478 29.3983 45.7809 30.6356V30.7034L38.7215 32.2458V28.5127L38.6199 28.4788C37.8656 29.9195 36.0139 32.2839 32.997 32.2839" fill="white"/>
<path d="M54.9337 31.767H47.7726V31.6992C48.2854 30.0212 48.5947 28.6484 48.5947 25.7373V21.8645C48.5947 19.3263 48.082 17.856 46.8828 16.4153V16.3475L53.976 14.3602V17.7882L54.1116 17.8221C54.9676 16.3136 56.7854 14.534 59.6286 14.534C62.0947 14.534 63.8404 15.767 64.3235 17.7882L64.4252 17.8221C65.315 16.3136 67.1328 14.534 69.976 14.534C72.8193 14.534 74.7726 16.3179 74.7726 19.1611V25.7077C74.7726 28.6187 75.0481 30.0255 75.5947 31.7035V31.7712H68.4676V31.7035C69.0184 30.0255 69.2896 28.5509 69.2896 25.7755V19.4026C69.2896 18.1018 68.743 17.106 67.3023 17.106C66.1371 17.106 65.0777 17.7924 64.4252 18.8899V25.7119C64.4252 28.6229 64.6964 30.0297 65.2811 31.7077V31.7755H58.1201V31.7077C58.7006 30.0297 58.9421 28.5551 58.9421 25.7797V19.4068C58.9421 18.106 58.3955 17.1102 56.9548 17.1102C55.7896 17.1102 54.726 17.7967 54.1116 18.8941V25.7501C54.1116 28.5933 54.3532 30.034 54.9337 31.7119V31.7797V31.767Z" fill="white"/>
<path d="M90.5692 24.1569C90.5353 19.3264 89.2005 17.3052 86.6624 17.3052C85.5989 17.3052 84.7429 17.6484 84.1624 18.0594V26.3179C84.1624 30.2247 85.8065 31.6654 87.3488 31.6654C89.6794 31.6654 90.5692 28.6145 90.5692 24.1611M81.0438 30.5679L78.9887 31.8688H78.6455V12.5764C78.6455 10.0086 78.1666 8.56791 76.9336 7.12723V7.05943L84.1624 5.07214V17.2374H84.2641C85.2599 15.8984 87.0395 14.5298 89.6073 14.5298C93.6497 14.5298 96.2895 17.9577 96.2895 23.0976C96.2895 28.2374 93.3065 32.2798 86.9675 32.2798C84.2599 32.2798 82.2726 31.4916 81.0395 30.5679" fill="white"/>
<path d="M110.819 23.4407C110.819 18.5763 109.722 15.1822 107.289 15.1822C104.857 15.1822 103.76 18.5763 103.76 23.4407C103.76 28.3051 104.857 31.6314 107.289 31.6314C109.722 31.6314 110.819 28.3094 110.819 23.4407ZM98.0732 23.4407C98.0732 18.678 102.255 14.5339 107.294 14.5339C112.332 14.5339 116.51 18.678 116.51 23.4407C116.51 28.2034 112.327 32.2839 107.294 32.2839C102.26 32.2839 98.0732 28.2077 98.0732 23.4407Z" fill="white"/>
<path d="M118.357 31.6993C118.836 30.3306 119.179 29.1272 119.179 26.3857V12.5764C119.179 10.0086 118.7 8.56791 117.463 7.12723V7.05943L124.696 5.07214V26.3857C124.696 29.0594 125.039 30.3264 125.518 31.6993V31.7671H118.357V31.6993Z" fill="white"/>
<path d="M139.399 28.2035V18.7797C139.09 16.3136 138.133 15.1484 136.658 15.1484C134.497 15.1484 133.027 17.5806 133.027 22.8263C133.027 27.3136 134.26 29.4747 136.488 29.4747C137.62 29.4747 138.751 28.9577 139.404 28.2077M133.777 32.2797C129.87 32.2797 127.336 28.9535 127.336 24.1908C127.336 19.017 130.421 14.5255 136.349 14.5255C137.548 14.5255 138.577 14.695 139.399 14.9704V12.606C139.399 10.0001 138.921 8.56363 137.683 7.12296V7.05516L144.916 5.06787V24.5679C144.916 28.4069 145.531 29.3984 146.662 30.6314V30.6992L139.501 32.2416V28.8814H139.433C138.404 30.6314 136.518 32.2755 133.777 32.2755" fill="white"/>
<path d="M161.192 29.0594C161.192 27.4831 162.493 26.1823 164.07 26.1823C165.646 26.1823 166.951 27.4831 166.951 29.0594C166.951 30.6356 165.65 31.9365 164.07 31.9365C162.489 31.9365 161.192 30.6356 161.192 29.0594Z" fill="white"/>
<path d="M159.48 29.5043C159.446 29.5382 158.726 30.0848 157.527 30.0848C156.154 30.0848 155.061 29.4365 155.061 27.3772V19.356H159.137V18.6018H155.061V11.2035H154.684L149.544 14.4196V27.5086C149.544 30.9365 151.497 32.2713 154.273 32.2713C157.048 32.2713 158.832 30.9365 159.586 29.5976L159.485 29.4959L159.48 29.5043Z" fill="white"/>
<path d="M34.0736 10.7034C35.1753 10.7034 36.1287 10.3602 36.8575 9.70768V7.56362C36.1584 8.39836 35.2812 8.86023 34.3702 8.86023C32.8363 8.86023 31.7346 7.59328 31.7346 5.64413C31.7346 3.69497 32.7939 2.42802 34.3406 2.42802C35.2643 2.42802 36.1287 2.88989 36.8406 3.72463V1.57633C36.0948 0.919549 35.1584 0.580566 34.0694 0.580566C31.3745 0.580566 29.5439 2.63565 29.5439 5.64413C29.5439 8.6526 31.3745 10.7034 34.0694 10.7034M41.205 9.54243H41.3363L41.4126 10.5551H43.4084C43.2897 10.017 43.2304 9.40684 43.2304 8.50006V5.80514C43.2304 4.27124 42.2177 3.3348 40.599 3.3348C39.6456 3.3348 38.6329 3.66108 37.9465 4.25853V5.98735C38.6923 5.19921 39.527 4.77972 40.2558 4.77972C40.8533 4.77972 41.2092 5.06362 41.2092 5.52548C41.2092 6.01701 40.8194 6.34328 39.8109 6.56785C38.3236 6.91108 37.4719 7.6526 37.4719 8.80091C37.4719 9.94921 38.3067 10.7077 39.3914 10.7077C40.1372 10.7077 40.7897 10.3221 41.2092 9.54667M41.2473 6.83057V7.94921C41.2473 8.79667 40.7728 9.30514 40.1456 9.30514C39.7134 9.30514 39.3999 9.02124 39.3999 8.58904C39.3999 8.12718 39.7304 7.84328 40.3067 7.60599C40.7685 7.41108 41.0228 7.1865 41.2431 6.83057M46.4084 10.5551C46.349 9.95768 46.2728 9.08057 46.2728 8.38141V0.728872H44.099C44.205 1.87718 44.2346 2.7543 44.2346 3.48311V10.5551H46.4084ZM51.7219 10.5551V7.10175H53.0609C54.9507 7.10175 56.1584 5.83904 56.1584 3.87294C56.1584 1.90684 54.9211 0.733109 52.9719 0.733109H49.5609V10.5594H51.7219V10.5551ZM52.8999 2.48311C53.6456 2.48311 54.1372 3.03396 54.1372 3.89836C54.1372 4.76277 53.6626 5.32633 52.8999 5.32633H51.7261V2.48311H52.8999ZM59.6584 3.3348C57.6329 3.3348 56.4126 4.80938 56.4126 7.02548C56.4126 9.24158 57.6456 10.7034 59.6584 10.7034C61.6711 10.7034 62.9041 9.21616 62.9041 7.02548C62.9041 4.8348 61.6668 3.3348 59.6584 3.3348ZM59.6584 4.9704C60.4634 4.9704 60.9253 5.6865 60.9253 7.02548C60.9253 8.36446 60.4634 9.09328 59.6584 9.09328C58.8533 9.09328 58.3956 8.36446 58.3956 7.02548C58.3956 5.6865 58.8406 4.9704 59.6584 4.9704ZM66.027 10.5551C65.9677 9.95768 65.8914 9.08057 65.8914 8.38141V0.728872H63.7177C63.8236 1.87718 63.8533 2.7543 63.8533 3.48311V10.5551H66.027ZM67.9084 13.1568H70.0355L73.5058 3.48311H71.2134L70.0948 8.08057H69.9889L68.8575 3.48311H66.5355L68.9761 10.2712L67.9041 13.1568H67.9084Z" fill="white"/>
</g>
</g>
<defs>
<clipPath id="clip0_1022_3989">
<rect width="167.665" height="33" fill="white" transform="translate(0.24707)"/>
</clipPath>
</defs>
</svg>
