<svg width="226" height="57" viewBox="0 0 226 57" fill="none" xmlns="http://www.w3.org/2000/svg">
<g clip-path="url(#clip0_1022_3888)">
<path d="M25.7977 18.6631H19.2129V19.7691H25.7977V18.6631Z" fill="white"/>
<path d="M4.65137 17.601L5.03957 16.8685C5.42045 16.1361 5.8526 15.2791 6.79015 15.7771C6.98785 15.8754 7.14132 16.0445 7.22003 16.2508C7.29875 16.4571 7.29694 16.6855 7.21498 16.8905C7.32484 16.7147 7.56656 16.7074 7.74967 16.722L9.36108 16.8905L8.96555 17.6229L7.69107 17.4618C7.39077 17.4179 7.24427 17.4618 7.09778 17.7328L6.98059 17.9525L8.38691 18.685L8.03533 19.3589L4.65137 17.601ZM6.45322 17.7035L6.57041 17.4838C6.7462 17.1542 6.90002 16.7513 6.48252 16.5243C6.06501 16.2972 5.83795 16.6634 5.66216 17.0004L5.54497 17.2201L6.45322 17.7035Z" fill="white"/>
<path d="M7.24414 13.2209L7.84476 12.4885L10.9724 13.2209L8.77498 11.3898L9.24375 10.8331L12.1736 13.2795L11.5803 14.012L8.44537 13.2795L10.6428 15.1107L10.1813 15.6674L7.24414 13.2209Z" fill="white"/>
<path d="M11.0898 9.04585L12.8258 7.62488L13.2067 8.09365L12.064 9.02388L12.6573 9.75634L13.7047 8.90668L14.0856 9.37546L13.0382 10.2398L13.7194 11.0821L14.8767 10.1372L15.2575 10.606L13.5143 12.0196L11.0898 9.04585Z" fill="white"/>
<path d="M14.8545 6.28444L15.521 5.90356L17.1031 8.72353L18.3849 7.99107L18.6853 8.51844L16.7369 9.60981L14.8545 6.28444Z" fill="white"/>
<path d="M18.7578 4.32887L19.4903 4.06519L20.589 7.10489L21.9733 6.60682L22.1784 7.17814L20.0836 7.9106L18.7578 4.32887Z" fill="white"/>
<path d="M24.874 2.65883L25.6065 2.59291L25.7823 4.79028C25.8409 5.44217 26.0826 5.85235 26.6612 5.8084C27.2399 5.76446 27.3937 5.31033 27.3497 4.65844L27.1666 2.46106L27.8991 2.40247L28.0968 4.84888C28.1847 5.87432 27.65 6.3138 26.6759 6.42367C25.7017 6.53354 25.1011 6.13069 25.0205 5.10524L24.874 2.65883Z" fill="white"/>
<path d="M30.5655 2.49768L31.4884 2.62952L32.5358 5.66191L32.9167 2.81264L33.6491 2.90786L33.1364 6.71665L32.2135 6.59213L31.1661 3.52312L30.7852 6.36507L30.0527 6.26985L30.5655 2.49768Z" fill="white"/>
<path d="M36.0005 3.50842L36.733 3.73548L35.583 7.39778L34.8506 7.17072L36.0005 3.50842Z" fill="white"/>
<path d="M38.6739 4.41675L39.4063 4.78298L38.9156 7.91058L41.1129 5.65461L41.7868 5.99154L38.9668 8.84813L38.1318 8.43063L38.6739 4.41675Z" fill="white"/>
<path d="M43.6769 7.24402L45.4421 8.62837L45.0686 9.09714L43.9039 8.19622L43.3253 8.92868L44.3874 9.76368L44.0138 10.2398L42.9517 9.40478L42.2852 10.2544L43.4571 11.17L43.0689 11.6534L41.3037 10.2764L43.6769 7.24402Z" fill="white"/>
<path d="M47.214 10.2837L47.756 10.899C48.2907 11.5142 48.9499 12.2247 48.1516 12.9279C47.9903 13.0777 47.7784 13.161 47.5583 13.161C47.3382 13.161 47.1262 13.0777 46.965 12.9279C47.0152 13.0134 47.0417 13.1107 47.0417 13.2099C47.0417 13.309 47.0152 13.4064 46.965 13.4919L46.2325 14.9568L45.6758 14.3195L46.2765 13.1916C46.4156 12.9205 46.4376 12.7741 46.2252 12.5323L45.9981 12.3346L44.8262 13.3893L44.3281 12.818L47.214 10.2837ZM46.4816 11.9391L46.6427 12.1222C46.8917 12.4078 47.214 12.6935 47.5729 12.3785C47.9318 12.0636 47.6755 11.7266 47.4264 11.441L47.258 11.2872L46.4816 11.9391Z" fill="white"/>
<path d="M50.7956 16.3704C50.762 16.1122 50.6773 15.8632 50.5466 15.638C50.5155 15.573 50.4716 15.515 50.4175 15.4674C50.3634 15.4198 50.3002 15.3836 50.2318 15.3611C50.1634 15.3385 50.0912 15.33 50.0194 15.336C49.9476 15.3421 49.8778 15.3626 49.8141 15.3963C49.2355 15.7332 50.3268 17.0223 49.2208 17.6742C48.4884 18.1064 47.8877 17.6742 47.4995 17.0443C47.3323 16.7609 47.2065 16.4551 47.126 16.136L47.7632 15.8431C47.7682 16.1429 47.8461 16.4371 47.9903 16.7C48.1441 16.9491 48.4664 17.2054 48.7227 17.0223C49.36 16.6561 48.2466 15.3816 49.3453 14.7297C49.4884 14.6418 49.6489 14.5861 49.8157 14.5665C49.9825 14.5469 50.1516 14.5638 50.3112 14.6161C50.4708 14.6683 50.6171 14.7547 50.7399 14.8692C50.8628 14.9837 50.9593 15.1236 51.0227 15.2791C51.185 15.538 51.3014 15.8229 51.3669 16.1214L50.7956 16.3704Z" fill="white"/>
<path d="M28.4927 57C22.8559 57.0015 17.3453 55.3314 12.6577 52.201C7.9701 49.0706 4.31604 44.6204 2.1576 39.4133C-0.000834176 34.2061 -0.566702 28.4759 0.531556 22.9471C1.62981 17.4184 4.34287 12.3395 8.32764 8.35265C12.3124 4.36583 17.3899 1.65016 22.9181 0.549062C28.4463 -0.552037 34.1768 0.010885 39.3851 2.16664C44.5933 4.3224 49.0454 7.97417 52.1782 12.6602C55.311 17.3462 56.9839 22.8559 56.9854 28.4927C56.9699 36.046 53.9635 43.2858 48.6239 48.6281C43.2842 53.9705 36.046 56.9807 28.4927 57ZM28.4927 1.33309C23.1175 1.33309 17.8631 2.9272 13.394 5.91379C8.92486 8.90039 5.44188 13.1453 3.38556 18.1116C1.32923 23.0779 0.79195 28.5425 1.84166 33.8142C2.89137 39.0858 5.48093 43.9278 9.28278 47.7276C13.0846 51.5274 17.928 54.1144 23.2002 55.1612C28.4725 56.2081 33.9368 55.6679 38.902 53.6089C43.8672 51.5499 48.1102 48.0646 51.0944 43.5939C54.0786 39.1232 55.6698 33.8679 55.6669 28.4927C55.6592 21.2887 52.7935 14.3821 47.6988 9.28875C42.6041 4.19544 35.6967 1.33158 28.4927 1.32576V1.33309Z" fill="white"/>
<path d="M28.4928 49.9025C24.2583 49.9025 20.119 48.6468 16.5982 46.2943C13.0773 43.9417 10.3332 40.598 8.71274 36.6859C7.09228 32.7737 6.6683 28.4689 7.4944 24.3158C8.3205 20.1628 10.3596 16.3479 13.3538 13.3537C16.348 10.3595 20.1629 8.32038 24.316 7.49428C28.4691 6.66818 32.7739 7.09216 36.686 8.71262C40.5981 10.3331 43.9419 13.0772 46.2944 16.598C48.6469 20.1189 49.9026 24.2582 49.9026 28.4927C49.8968 34.1691 47.6392 39.6114 43.6254 43.6253C39.6115 47.6391 34.1693 49.8967 28.4928 49.9025ZM28.4928 8.41597C24.5202 8.41597 20.6369 9.59407 17.334 11.8013C14.031 14.0084 11.4568 17.1456 9.93688 20.8159C8.41698 24.4862 8.01967 28.5248 8.79522 32.4209C9.57076 36.317 11.4843 39.8956 14.2938 42.7042C17.1034 45.5127 20.6827 47.4249 24.5791 48.199C28.4755 48.9732 32.514 48.5744 36.1837 47.0531C39.8535 45.5319 42.9897 42.9565 45.1956 39.6528C47.4016 36.349 48.5783 32.4652 48.5768 28.4927C48.5691 23.1691 46.4504 18.0659 42.6854 14.3023C38.9203 10.5386 33.8164 8.42178 28.4928 8.41597Z" fill="white"/>
<path d="M28.5075 48.4888L28.2365 48.3716C27.6945 48.1372 14.8838 42.512 14.8838 32.3527V14.0413H42.0873V32.675C42.0873 42.4241 29.3059 48.1299 28.7639 48.3716L28.5075 48.4888ZM16.2169 15.4036V32.3527C16.2169 40.8932 26.691 46.1743 28.5075 47.0019C30.3167 46.1376 40.7689 40.798 40.7689 32.6457V15.4036H16.2169Z" fill="white"/>
<path d="M22.4934 24.7718L22.1711 24.5814C22.1125 24.5814 20.7062 23.7317 19.7833 23.1165C19.4583 22.949 19.1774 22.7071 18.9636 22.4105C18.7498 22.1139 18.609 21.7711 18.5527 21.4098C18.5527 21.3 18.5527 19.7325 18.5527 16.7294V16.0629H26.5072V16.7294C26.5072 19.7325 26.5072 21.3073 26.5072 21.4025C26.4683 21.7626 26.341 22.1076 26.1365 22.4066C25.932 22.7057 25.6568 22.9495 25.3353 23.1165C24.3904 23.7464 22.8889 24.5814 22.823 24.5814L22.4934 24.7718ZM19.8712 17.3886C19.8712 19.0733 19.8712 21.1535 19.8712 21.3146C19.8712 21.4757 20.0543 21.6955 20.5157 22.0031C21.153 22.4279 22.0392 22.9626 22.508 23.241C23.0061 22.97 23.9729 22.4279 24.5809 22.0031C24.7567 21.8859 25.1595 21.5929 25.1668 21.3585C25.1742 21.1242 25.1668 19.0733 25.1668 17.3886H19.8712Z" fill="white"/>
<path d="M34.799 24.7425L34.4767 24.5521C34.4182 24.5521 33.0118 23.7024 32.0963 23.0872C31.771 22.9191 31.4896 22.6772 31.2746 22.3809C31.0596 22.0845 30.9171 21.7419 30.8584 21.3805C30.8584 21.278 30.8584 19.7032 30.8584 16.7001V16.0336H38.8129V16.7001C38.8129 19.7032 38.8129 21.278 38.8129 21.3732C38.774 21.7334 38.6466 22.0783 38.4421 22.3773C38.2377 22.6764 37.9625 22.9202 37.641 23.0872C36.6961 23.7171 35.1946 24.5521 35.1286 24.5521L34.799 24.7425ZM32.1768 17.3593C32.1768 19.044 32.1768 21.1168 32.1768 21.278C32.1768 21.4391 32.3599 21.6589 32.8287 22.0104C33.4586 22.4353 34.3449 22.97 34.8137 23.2483C35.3118 22.97 36.2786 22.4353 36.8865 22.0104C37.0623 21.8932 37.4652 21.6003 37.4725 21.3585C37.4798 21.1168 37.4725 19.0806 37.4725 17.3959L32.1768 17.3593Z" fill="white"/>
<path d="M41.6112 25.2478H14.9863V26.5662H41.6112V25.2478Z" fill="white"/>
<path d="M28.4633 41.4498C28.2946 41.442 28.1301 41.3941 27.9836 41.31C27.8371 41.226 27.7128 41.1082 27.621 40.9664C27.5739 40.8857 27.5048 40.82 27.4218 40.7772C27.3388 40.7344 27.2452 40.7162 27.1522 40.7247C26.5258 40.7266 25.8999 40.7608 25.2771 40.8272C24.6765 40.8785 23.9953 40.9444 23.0211 40.9664C22.0469 40.9884 21.3145 40.9664 21.2852 40.9664L20.6553 40.9298V28.478H21.3072H22.0396C22.4205 28.478 22.8893 28.478 23.5045 28.478C23.9587 28.478 24.4934 28.4121 25.1086 28.3461L26.222 28.1337C26.7793 28.0782 27.3417 28.1029 27.892 28.207C28.1021 28.2541 28.3061 28.3254 28.4999 28.4194C28.6915 28.3262 28.893 28.255 29.1005 28.207C29.6607 28.1029 30.2328 28.0783 30.7998 28.1337L31.9351 28.2509C32.5504 28.3168 33.0851 28.3754 33.5392 28.3828C34.1252 28.3828 34.594 28.3828 35.0042 28.3828H35.7366H36.3885V40.8346L35.7659 40.8712C35.7659 40.8712 34.9895 40.9151 34.0227 40.8712C33.0558 40.8272 32.3746 40.7833 31.7667 40.732C31.1343 40.6618 30.4985 40.6275 29.8623 40.6295C29.764 40.6232 29.666 40.6446 29.5793 40.6912C29.4925 40.7378 29.4206 40.8078 29.3715 40.8932C29.2803 41.0558 29.1489 41.1924 28.9899 41.2898C28.8309 41.3873 28.6496 41.4424 28.4633 41.4498ZM27.1522 39.3916C27.3962 39.3856 27.6389 39.4293 27.8655 39.52C28.0922 39.6106 28.298 39.7464 28.4706 39.919C28.6485 39.7432 28.8605 39.6057 29.0936 39.515C29.3266 39.4243 29.5758 39.3823 29.8257 39.3916C30.4912 39.3945 31.1561 39.4311 31.818 39.5015C32.4259 39.5601 33.0558 39.6114 34.0153 39.6333C34.3962 39.6333 34.7478 39.6333 35.0261 39.6333V29.7525H34.7551C34.4109 29.7525 34.0227 29.7525 33.5319 29.7525C33.0412 29.7525 32.4698 29.6792 31.8253 29.6133L30.6973 29.4961C30.2697 29.4545 29.8384 29.4717 29.4155 29.5474C29.2408 29.5701 29.0786 29.6499 28.954 29.7744L28.5658 29.5693L28.1557 29.8037C28.009 29.6668 27.8258 29.5752 27.6283 29.54C27.2171 29.4692 26.7982 29.4544 26.3831 29.4961L25.1965 29.5986C24.552 29.6646 23.9953 29.7232 23.4826 29.7378C22.9698 29.7525 22.3985 29.7378 22.0176 29.7378V39.626C22.296 39.626 22.6402 39.626 23.0211 39.626C23.944 39.626 24.5813 39.5528 25.2185 39.4942C25.861 39.428 26.5063 39.3938 27.1522 39.3916Z" fill="white"/>
<path d="M28.9986 25.4823H27.8926V47.8736H28.9986V25.4823Z" fill="white"/>
<path d="M37.6341 21.0656L34.7116 19.1173L32.0308 21.0509L31.3789 20.1573L34.6896 17.7695L38.2494 20.1427L37.6341 21.0656Z" fill="white"/>
<path d="M33.7375 31.7521L32.0821 31.7082C31.8184 31.7082 31.5108 31.6715 31.1592 31.6349L30.5879 31.5763C30.4904 31.5694 30.3925 31.5694 30.2949 31.5763V30.8439C30.4241 30.8333 30.5539 30.8333 30.6831 30.8439L31.2544 30.9025C31.584 30.9391 31.8697 30.9684 32.1187 30.9757L33.7961 31.0197L33.7375 31.7521Z" fill="white"/>
<path d="M33.7375 33.8836L32.0821 33.847C31.8184 33.847 31.5181 33.847 31.1739 33.7664L30.5879 33.7078C30.4904 33.7007 30.3925 33.7007 30.2949 33.7078V32.9754C30.4242 32.9685 30.5538 32.9685 30.6831 32.9754L31.2691 33.034C31.5914 33.034 31.877 33.0999 32.1187 33.1072L33.7961 33.1512L33.7375 33.8836Z" fill="white"/>
<path d="M33.737 36.0224H32.9459H32.0597C31.7608 36.013 31.4625 35.9885 31.1661 35.9492L30.5654 35.8906C30.4679 35.8834 30.37 35.8834 30.2725 35.8906V35.1581C30.4018 35.1512 30.5314 35.1512 30.6607 35.1581L31.2613 35.2167C31.5762 35.2533 31.8546 35.2826 32.0963 35.2899H32.9826H33.7736L33.737 36.0224Z" fill="white"/>
<path d="M33.7375 38.1612L32.0821 38.1172C31.8184 38.1172 31.5108 38.0806 31.1592 38.044L30.5879 37.9854C30.4905 37.9748 30.3923 37.9748 30.2949 37.9854V37.2529C30.4241 37.2424 30.5539 37.2424 30.6831 37.2529L31.2618 37.3115C31.5841 37.3115 31.8697 37.3774 32.1187 37.3848H33.7961L33.7375 38.1612Z" fill="white"/>
<path d="M23.2041 31.7375V31.0051L24.8814 30.9611C25.1755 30.9516 25.4688 30.9272 25.7604 30.8879L26.3244 30.8366C26.4439 30.8295 26.5638 30.8295 26.6833 30.8366V31.5691C26.5931 31.5621 26.5025 31.5621 26.4123 31.5691L25.8483 31.6203C25.4894 31.6643 25.1817 31.6936 24.9107 31.7009L23.2041 31.7375Z" fill="white"/>
<path d="M23.2041 33.869V33.1731L24.8814 33.1292C25.1305 33.1292 25.4161 33.1292 25.7531 33.0559L26.3244 32.9973C26.4464 32.9903 26.5686 32.9903 26.6906 32.9973V33.7298C26.6004 33.7226 26.5098 33.7226 26.4196 33.7298L25.8556 33.7884C25.504 33.7884 25.1964 33.8616 24.9254 33.8616L23.2041 33.869Z" fill="white"/>
<path d="M23.2041 36.0077V35.2752L24.8814 35.2313C25.1632 35.225 25.4444 35.203 25.7238 35.1654L26.3244 35.1068C26.4438 35.0961 26.5639 35.0961 26.6833 35.1068V35.8392C26.5931 35.8323 26.5025 35.8323 26.4123 35.8392L25.8117 35.8978C25.4674 35.8978 25.1671 35.9637 24.9107 35.9711L23.2041 36.0077Z" fill="white"/>
<path d="M23.2041 38.1465V37.4141H24.5225H24.8814C25.1305 37.4141 25.4161 37.4141 25.7531 37.3408L26.3244 37.2822C26.4439 37.2749 26.5638 37.2749 26.6833 37.2822V38.0147H26.4123L25.841 38.0733C25.4894 38.0733 25.1817 38.1465 24.9107 38.1539H24.5518L23.2041 38.1465Z" fill="white"/>
<path d="M20.8018 30.214H19.3516V31.8034H20.8018V30.214Z" fill="white"/>
<path d="M20.8751 33.8982H19.3516V35.4876H20.8751V33.8982Z" fill="white"/>
<path d="M20.8018 37.187H19.3516V38.7764H20.8018V37.187Z" fill="white"/>
<path d="M37.4874 30.5289H36.0371V32.1184H37.4874V30.5289Z" fill="white"/>
<path d="M37.5606 34.2133H36.0371V35.8027H37.5606V34.2133Z" fill="white"/>
<path d="M37.4874 37.502H36.0371V39.0914H37.4874V37.502Z" fill="white"/>
<path d="M6.12382 25.7533C6.18212 26.04 6.20426 26.3328 6.18974 26.6249C6.11649 27.8481 5.45728 28.6612 4.14618 28.5806C3.86781 28.5874 3.59136 28.5327 3.33647 28.4206C3.08158 28.3085 2.85449 28.1417 2.67133 27.932C2.48816 27.7222 2.35341 27.4748 2.27664 27.2071C2.19988 26.9394 2.18297 26.6582 2.22713 26.3832C2.24819 26.0922 2.32009 25.8071 2.43955 25.5409L3.08411 25.6361C2.92528 25.8724 2.83875 26.1498 2.83508 26.4345C2.8227 26.6113 2.84753 26.7887 2.90798 26.9553C2.96843 27.1218 3.06315 27.2739 3.18601 27.4016C3.30888 27.5293 3.45716 27.6298 3.62129 27.6966C3.78542 27.7634 3.96173 27.7951 4.13885 27.7895C4.31536 27.82 4.49634 27.8123 4.6696 27.7668C4.84286 27.7214 5.00436 27.6394 5.1432 27.5262C5.28204 27.413 5.395 27.2714 5.47445 27.1109C5.55391 26.9504 5.598 26.7747 5.60377 26.5956C5.62133 26.3128 5.58402 26.0293 5.4939 25.7606L6.12382 25.7533Z" fill="white"/>
<path d="M3.12772 21.5783C3.18499 21.3272 3.29629 21.0915 3.45389 20.8878C3.61148 20.6841 3.81158 20.5172 4.04025 20.3986C4.26892 20.2801 4.52068 20.2129 4.77799 20.2015C5.0353 20.1902 5.29199 20.2351 5.53019 20.3331C5.78309 20.3821 6.02306 20.483 6.2349 20.6296C6.44674 20.7762 6.62583 20.9651 6.76084 21.1845C6.89585 21.4039 6.98383 21.6489 7.01921 21.9041C7.05458 22.1592 7.03659 22.419 6.96636 22.6668C6.89613 22.9146 6.7752 23.1452 6.61122 23.3439C6.44724 23.5425 6.2438 23.705 6.01377 23.8209C5.78374 23.9369 5.53214 24.0038 5.2749 24.0174C5.01766 24.0311 4.7604 23.9911 4.5194 23.9002C4.26447 23.8598 4.02151 23.764 3.80761 23.6196C3.59372 23.4751 3.4141 23.2855 3.28141 23.0642C3.14872 22.8428 3.06619 22.595 3.03964 22.3383C3.01309 22.0815 3.04315 21.8221 3.12772 21.5783ZM6.36519 22.4938C6.57761 21.7614 5.98431 21.278 5.31778 21.0948C4.65124 20.9117 3.91145 21.0143 3.70637 21.7394C3.50128 22.4645 4.07992 22.9553 4.73181 23.1384C5.3837 23.3215 6.15278 23.241 6.36519 22.4938Z" fill="white"/>
<path d="M52.4811 18.2821L52.7668 19.0146L49.2144 20.4795L48.9287 19.747L52.4811 18.2821Z" fill="white"/>
<path d="M53.1403 22.0837L52.8766 21.0289L53.4699 20.8824L54.2024 23.7317L53.6164 23.8709L53.3234 22.8161L50.1812 23.5925L49.998 22.8601L53.1403 22.0837Z" fill="white"/>
<path d="M52.2174 27.0277L54.4587 25.5188L54.51 26.4051L52.9498 27.4012L54.6125 28.2216L54.6565 29.0273L52.2613 27.8041L50.7451 27.8846L50.7012 27.1522L52.2174 27.0277Z" fill="white"/>
<path d="M6.72382 33.6638L7.30979 35.7074L6.73115 35.8758L6.35027 34.5647L5.44202 34.8284L5.80092 36.0736L5.22228 36.2421L4.86338 34.9969L3.24464 35.4583L3.03223 34.7259L6.72382 33.6638Z" fill="white"/>
<path d="M8.51848 38.3883C8.64571 38.6136 8.72228 38.864 8.74283 39.122C8.76338 39.38 8.72743 39.6393 8.63748 39.882C8.54752 40.1246 8.40574 40.3448 8.222 40.527C8.03826 40.7092 7.81699 40.8492 7.57361 40.9372C7.3512 41.0623 7.1056 41.1407 6.85185 41.1676C6.5981 41.1944 6.34154 41.1692 6.09787 41.0935C5.85419 41.0178 5.62854 40.8931 5.43473 40.7271C5.24092 40.5611 5.08302 40.3573 4.97071 40.1282C4.85839 39.8991 4.79402 39.6495 4.78154 39.3946C4.76906 39.1397 4.80873 38.885 4.89812 38.646C4.98751 38.407 5.12474 38.1888 5.30141 38.0046C5.47808 37.8205 5.69047 37.6744 5.92557 37.5752C6.14373 37.4355 6.38986 37.3453 6.64664 37.311C6.90341 37.2767 7.16458 37.2991 7.41177 37.3766C7.65896 37.4541 7.88615 37.5849 8.07736 37.7596C8.26857 37.9344 8.41914 38.149 8.51848 38.3883ZM5.50074 39.8532C5.845 40.5856 6.59943 40.5124 7.22203 40.2048C7.84462 39.8971 8.31339 39.3258 7.95448 38.6373C7.59558 37.9488 6.86312 37.9854 6.25518 38.2784C5.64724 38.5714 5.15649 39.1207 5.50074 39.8532Z" fill="white"/>
<path d="M10.1517 41.3912L10.6278 41.9919L8.89916 43.3689C8.38644 43.7791 8.1667 44.2039 8.54026 44.6653C8.91381 45.1268 9.37526 45.0242 9.88066 44.6141L11.6166 43.237L12.1 43.8377L10.1736 45.3612C9.37526 46.0057 8.70872 45.8153 8.06416 45.0462C7.41959 44.2771 7.42692 43.5813 8.23263 42.9148L10.1517 41.3912Z" fill="white"/>
<path d="M13.3019 45.0682L14.0343 45.6615L13.3458 48.8111L15.1623 46.6137L15.7337 47.0825L13.3019 50.0123L12.5694 49.419L13.2506 46.2695L11.4341 48.4668L10.8408 48.0347L13.3019 45.0682Z" fill="white"/>
<path d="M17.1983 47.998L18.1359 48.4741C19.176 49.0015 19.9304 49.8145 19.2419 51.1769C18.5534 52.5393 17.4547 52.4294 16.4073 51.9094L15.4697 51.4406L17.1983 47.998ZM16.4292 51.2355L16.8101 51.426C17.1181 51.5543 17.4633 51.561 17.7761 51.4448C18.0889 51.3287 18.346 51.0982 18.4956 50.8C18.6452 50.5017 18.6761 50.1579 18.5822 49.8377C18.4882 49.5175 18.2764 49.2449 17.9894 49.0748L17.6085 48.8843L16.4292 51.2355Z" fill="white"/>
<path d="M21.6373 49.9757L23.8346 50.5617L23.6735 51.1403L22.2086 50.7594L21.9595 51.675L23.278 52.0266L23.1242 52.6052L21.8277 52.2537L21.5494 53.2937L23.0143 53.682L22.8605 54.2679L20.6631 53.682L21.6373 49.9757Z" fill="white"/>
<path d="M25.4893 50.8401L26.5367 50.8987C27.7086 50.9646 28.7341 51.4187 28.6315 52.9349C28.529 54.4511 27.4889 54.7954 26.3169 54.7294L25.2695 54.6709L25.4893 50.8401ZM26.0679 54.1142H26.5001C26.8384 54.1162 27.1646 53.9881 27.4111 53.7563C27.6576 53.5246 27.8056 53.2069 27.8244 52.8691C27.8432 52.5313 27.7314 52.1992 27.5122 51.9415C27.2929 51.6838 26.983 51.5202 26.6466 51.4847H26.2217L26.0679 54.1142Z" fill="white"/>
<path d="M32.5435 50.5836L33.3931 50.4005L35.6711 53.8357L34.8361 54.0189L34.3307 53.2278L32.8145 53.5501L32.668 54.5023L31.9355 54.6708L32.5435 50.5836ZM33.1221 51.2502L32.917 52.9128L34.0084 52.6785L33.1221 51.2502Z" fill="white"/>
<path d="M36.5205 52.6858L37.253 52.4221L37.5167 53.1546L36.7842 53.4109L36.5205 52.6858Z" fill="white"/>
<path d="M37.4941 49.0455L38.417 48.5474C39.4498 47.9835 40.5485 47.815 41.2736 49.1847C41.9988 50.5544 41.2736 51.3821 40.2482 51.9241L39.3253 52.4222L37.4941 49.0455ZM39.6915 51.5212L40.0651 51.3235C40.3496 51.1457 40.5556 50.8663 40.6413 50.5419C40.727 50.2176 40.6858 49.8728 40.5261 49.5778C40.3665 49.2828 40.1004 49.0597 39.782 48.954C39.4636 48.8483 39.117 48.8679 38.8126 49.0089L38.439 49.214L39.6915 51.5212Z" fill="white"/>
<path d="M42.3877 49.756L43.0176 49.3165L43.4571 49.9538L42.8272 50.3932L42.3877 49.756Z" fill="white"/>
<path d="M43.9692 44.5042L44.4527 44.0281L47.1481 46.7602L46.6061 47.3022L44.5332 45.1927L44.4453 46.0204L43.8008 45.9325L43.9692 44.5042Z" fill="white"/>
<path d="M47.4049 43.4056C47.2445 43.5165 47.0542 43.5759 46.8592 43.5759C46.6643 43.5759 46.4739 43.5165 46.3136 43.4056C46.1935 43.3145 46.0947 43.1984 46.024 43.0653C45.9533 42.9322 45.9123 42.7853 45.9039 42.6349C45.8956 42.4844 45.92 42.3339 45.9756 42.1938C46.0311 42.0537 46.1165 41.9274 46.2257 41.8235C46.6212 41.2815 47.2072 40.9592 47.6906 41.3401C47.8478 41.4625 47.9656 41.6285 48.0294 41.8173C48.0932 42.006 48.1002 42.2094 48.0495 42.4021C48.2319 42.2742 48.4493 42.2055 48.6721 42.2055C48.8949 42.2055 49.1123 42.2742 49.2947 42.4021C49.4283 42.4984 49.5391 42.623 49.6191 42.767C49.6991 42.911 49.7464 43.0709 49.7576 43.2352C49.7688 43.3996 49.7436 43.5644 49.6839 43.7179C49.6241 43.8714 49.5312 44.0099 49.4119 44.1234C48.9651 44.724 48.3498 45.017 47.7199 44.5556C47.5536 44.424 47.4315 44.2447 47.37 44.0418C47.3085 43.8389 47.3104 43.622 47.3756 43.4203L47.4049 43.4056ZM47.588 42.6731C47.6228 42.5543 47.6234 42.428 47.5897 42.3088C47.556 42.1897 47.4894 42.0824 47.3976 41.9993C47.3493 41.9576 47.2926 41.9268 47.2314 41.9089C47.1702 41.891 47.1058 41.8864 47.0427 41.8954C46.9795 41.9044 46.9191 41.9269 46.8653 41.9612C46.8116 41.9955 46.7658 42.041 46.7311 42.0945C46.6794 42.1405 46.6381 42.197 46.6099 42.2601C46.5816 42.3232 46.567 42.3916 46.567 42.4607C46.567 42.5299 46.5816 42.5983 46.6099 42.6614C46.6381 42.7245 46.6794 42.7809 46.7311 42.827C47.0314 43.0101 47.3536 42.827 47.588 42.6731ZM48.9944 43.7792C49.0388 43.7262 49.072 43.6647 49.0917 43.5984C49.1115 43.5322 49.1174 43.4625 49.1092 43.3939C49.1009 43.3252 49.0787 43.259 49.0438 43.1993C49.009 43.1395 48.9622 43.0876 48.9065 43.0467C48.7628 42.9591 48.5933 42.9237 48.4266 42.9464C48.2598 42.9691 48.106 43.0484 47.9909 43.1712C47.9565 43.3017 47.9588 43.4392 47.9976 43.5684C48.0364 43.6977 48.1101 43.8137 48.2106 43.9037C48.27 43.9475 48.3376 43.9791 48.4094 43.9966C48.4811 44.0141 48.5556 44.0172 48.6286 44.0056C48.7015 43.994 48.7714 43.968 48.8342 43.9291C48.897 43.8903 48.9515 43.8393 48.9944 43.7792Z" fill="white"/>
<path d="M49.4629 37.8169C49.2811 37.963 49.1315 38.145 49.0234 38.3516C48.7304 38.9376 49.1772 39.4137 49.6826 39.692C49.6092 39.5664 49.5706 39.4236 49.5706 39.2782C49.5706 39.1327 49.6092 38.9899 49.6826 38.8643C49.7424 38.7222 49.8327 38.595 49.947 38.4915C50.0613 38.3881 50.1969 38.3109 50.3442 38.2655C50.4916 38.2201 50.6471 38.2076 50.7998 38.2288C50.9525 38.25 51.0987 38.3044 51.2281 38.3882C51.4 38.4436 51.5573 38.5369 51.6884 38.6611C51.8195 38.7853 51.9211 38.9373 51.9857 39.1059C52.0504 39.2745 52.0764 39.4555 52.0619 39.6355C52.0474 39.8155 51.9928 39.99 51.9019 40.1461C51.4259 41.0983 50.5249 40.8786 49.7046 40.5124C48.7743 40.0436 47.9027 39.2379 48.4521 38.1245C48.5736 37.8783 48.7372 37.6553 48.9355 37.4653L49.4629 37.8169ZM50.5396 40.0143C50.8619 40.1754 51.2134 40.1828 51.3819 39.8458C51.5504 39.5089 51.3013 39.2379 50.9937 39.1134C50.6861 38.9888 50.2612 38.9302 50.1221 39.2599C49.9829 39.5895 50.1953 39.8531 50.5396 40.0436V40.0143Z" fill="white"/>
<path d="M50.7447 33.7297L50.3199 35.1434L51.1036 35.3924C51.1124 35.2755 51.1345 35.16 51.1695 35.0482C51.2023 34.8838 51.2711 34.7288 51.3709 34.5941C51.4707 34.4595 51.5991 34.3487 51.7469 34.2695C51.8946 34.1904 52.0581 34.145 52.2255 34.1365C52.3928 34.128 52.56 34.1567 52.715 34.2205C52.895 34.2738 53.0614 34.3651 53.203 34.4883C53.3447 34.6114 53.4582 34.7635 53.536 34.9344C53.6138 35.1052 53.654 35.2907 53.6539 35.4784C53.6537 35.6661 53.6133 35.8516 53.5354 36.0223C53.4484 36.3113 53.328 36.5891 53.1765 36.85L52.5246 36.6303C52.7067 36.4311 52.8463 36.1968 52.9347 35.9418C52.9749 35.8503 52.9959 35.7516 52.9964 35.6516C52.997 35.5517 52.9771 35.4528 52.938 35.3608C52.8989 35.2689 52.8414 35.186 52.769 35.1171C52.6967 35.0482 52.611 34.9948 52.5172 34.9603C52.0411 34.8211 51.7848 35.1947 51.631 35.6122C51.5629 35.8352 51.5308 36.0676 51.5357 36.3007L49.5654 35.6708L50.1953 33.5686L50.7447 33.7297Z" fill="white"/>
<path d="M80.1452 31.2103L79.7285 32.1252C78.9736 32.5238 78.2941 32.7956 77.6902 32.9406C77.0923 33.0916 76.3434 33.167 75.4435 33.167C74.1631 33.167 73.0307 32.9647 72.0463 32.5601C71.2733 32.234 70.618 31.8021 70.0805 31.2646C69.543 30.7271 69.1293 30.1443 68.8394 29.5162C68.3985 28.568 68.178 27.5383 68.178 26.427C68.178 24.5246 68.8273 22.9725 70.1258 21.7706C71.4303 20.5627 73.2693 19.9588 75.6428 19.9588C76.4581 19.9588 77.1889 20.0192 77.8351 20.1399C78.4874 20.2607 79.2423 20.4751 80.0999 20.7831L80.1452 20.9009C80.0486 21.1848 79.9731 21.5411 79.9187 21.9699C79.8282 22.6524 79.7708 23.2835 79.7466 23.8633H79.04C79.0279 23.1989 78.9977 22.6675 78.9494 22.2689C78.5448 21.8461 78.0888 21.532 77.5815 21.3267C77.0802 21.1153 76.437 21.0096 75.6519 21.0096C74.2326 21.0096 73.0972 21.4596 72.2456 22.3594C71.3941 23.2533 70.9683 24.5035 70.9683 26.1099C70.9683 27.0823 71.1102 27.9308 71.3941 28.6556C71.6839 29.3803 72.0675 29.9812 72.5446 30.4584C73.0217 30.9294 73.5018 31.2737 73.985 31.4911C74.6433 31.781 75.4405 31.9259 76.3766 31.9259C76.9926 31.9259 77.5754 31.8565 78.125 31.7176C78.6746 31.5787 79.2725 31.3401 79.9187 31.0019L80.1452 31.2103ZM81.4044 28.574C81.4044 27.5473 81.5796 26.6988 81.9299 26.0284C82.2802 25.352 82.8056 24.8447 83.5062 24.5065C84.2068 24.1622 85.0221 23.9901 85.9522 23.9901C87.3473 23.9901 88.4072 24.3555 89.1319 25.0863C89.8627 25.817 90.2281 26.889 90.2281 28.3023C90.2281 29.1176 90.1224 29.8242 89.911 30.4221C89.6996 31.02 89.4158 31.5032 89.0595 31.8716C88.7031 32.234 88.3287 32.5087 87.9361 32.696C87.2657 33.01 86.5108 33.167 85.6713 33.167C84.3064 33.167 83.2525 32.7805 82.5097 32.0075C81.7729 31.2284 81.4044 30.0839 81.4044 28.574ZM83.9138 28.1392C83.9138 29.7457 84.1494 30.8902 84.6205 31.5726C84.9345 32.0256 85.3814 32.2521 85.9612 32.2521C86.4564 32.2521 86.849 32.0799 87.1389 31.7357C87.5254 31.2767 87.7187 30.3889 87.7187 29.0723C87.7187 28.1483 87.6402 27.3571 87.4832 26.6988C87.3322 26.0345 87.1057 25.5724 86.8037 25.3127C86.5078 25.053 86.1484 24.9232 85.7257 24.9232C85.3633 24.9232 85.0462 25.0198 84.7745 25.2131C84.5027 25.4003 84.2913 25.7204 84.1403 26.1734C83.9893 26.6203 83.9138 27.2756 83.9138 28.1392ZM96.7145 32.1524V32.85C96.032 32.8198 95.271 32.8047 94.4315 32.8047C93.4954 32.8047 92.5231 32.8198 91.5145 32.85V32.1524C91.9856 32.1524 92.3117 32.1192 92.4929 32.0528C92.5774 32.0226 92.6408 31.9712 92.6831 31.8988C92.7435 31.784 92.7767 31.5666 92.7828 31.2465L92.819 30.4402C92.8251 30.2711 92.8281 29.9963 92.8281 29.6158V28.4291C92.8281 27.8916 92.81 27.2393 92.7737 26.4723C92.7556 26.0858 92.7284 25.8684 92.6922 25.8201C92.662 25.7657 92.6107 25.7264 92.5382 25.7023C92.4234 25.66 92.0822 25.6298 91.5145 25.6117V24.9141C92.6137 24.7269 93.3354 24.588 93.6796 24.4974C94.0239 24.4068 94.4134 24.2619 94.8483 24.0626L95.0929 24.1713L95.0747 26.0012C95.4673 25.5966 95.7693 25.2614 95.9807 24.9957C96.2947 24.6212 96.5303 24.3827 96.6873 24.28C96.9047 24.135 97.1916 24.0626 97.5479 24.0626C97.7714 24.0626 97.9737 24.0988 98.1549 24.1713L98.1005 25.4577C98.0824 26.1583 98.0673 26.5599 98.0552 26.6626L97.6747 26.7803C97.5237 26.581 97.3788 26.4421 97.2399 26.3636C97.0164 26.2368 96.7718 26.1734 96.5061 26.1734C96.1498 26.1734 95.8418 26.2851 95.5821 26.5086C95.3284 26.726 95.1774 26.9494 95.1291 27.1789C95.1049 27.3118 95.0929 27.8221 95.0929 28.7099V29.6158L95.111 30.8479C95.117 31.3129 95.1321 31.5998 95.1563 31.7085C95.1865 31.8112 95.2499 31.8927 95.3465 31.9531C95.4432 32.0135 95.6515 32.0558 95.9716 32.0799L96.7145 32.1524ZM109.135 32.1524V32.85C108.313 32.8077 107.643 32.7866 107.123 32.7866C106.526 32.7866 106.006 32.8077 105.565 32.85L105.402 32.6869C105.414 32.5601 105.454 32.0377 105.52 31.1197L105.565 29.634V28.9183C105.565 27.8614 105.523 27.1669 105.438 26.8347C105.36 26.5025 105.194 26.2368 104.94 26.0375C104.687 25.8321 104.348 25.7295 103.926 25.7295C103.503 25.7295 103.153 25.8321 102.875 26.0375C102.597 26.2368 102.422 26.4391 102.349 26.6444C102.307 26.7652 102.289 27.2484 102.295 28.0939V29.6158C102.295 30.0567 102.307 30.5973 102.331 31.2374C102.337 31.5213 102.361 31.7085 102.404 31.7991C102.434 31.8655 102.473 31.9139 102.521 31.9441C102.594 31.9924 102.736 32.0377 102.947 32.0799C103.02 32.092 103.273 32.1162 103.708 32.1524V32.85C103.05 32.8258 102.244 32.8137 101.289 32.8137C100.184 32.8137 99.3265 32.8258 98.7165 32.85V32.1524C99.1876 32.1524 99.5137 32.1192 99.6949 32.0528C99.7795 32.0226 99.8429 31.9712 99.8852 31.8988C99.9456 31.784 99.9788 31.5666 99.9848 31.2465L100.021 30.4402C100.027 30.2711 100.03 29.9963 100.03 29.6158V28.4291C100.03 27.8916 100.012 27.2393 99.9758 26.4723C99.9576 26.0858 99.9305 25.8684 99.8942 25.8201C99.864 25.7657 99.8127 25.7264 99.7402 25.7023C99.6255 25.66 99.2842 25.6298 98.7165 25.6117V24.9141C99.8157 24.7269 100.537 24.588 100.882 24.4974C101.226 24.4068 101.615 24.2619 102.05 24.0626L102.295 24.1713V25.6298L103.944 24.3072C104.143 24.2287 104.309 24.1773 104.442 24.1532C104.581 24.123 104.771 24.1079 105.013 24.1079C105.659 24.1079 106.142 24.1803 106.462 24.3253C106.788 24.4702 107.063 24.6756 107.287 24.9413C107.51 25.201 107.667 25.4758 107.758 25.7657C107.848 26.0496 107.893 26.4965 107.893 27.1065C107.893 27.795 107.887 28.2328 107.875 28.42C107.869 28.4925 107.866 28.5801 107.866 28.6828L107.875 29.6158C107.881 30.6365 107.897 31.2676 107.921 31.5092C107.951 31.7508 108.005 31.9078 108.084 31.9803C108.168 32.0467 108.349 32.089 108.627 32.1071C108.73 32.1132 108.899 32.1283 109.135 32.1524ZM117.931 31.4549L117.532 32.3427C117.037 32.6446 116.527 32.8681 116.001 33.013C115.609 33.1157 115.162 33.167 114.661 33.167C114.063 33.167 113.534 33.0976 113.075 32.9587C112.622 32.8198 112.233 32.6295 111.907 32.388C111.587 32.1464 111.303 31.8504 111.055 31.5002C110.814 31.1499 110.638 30.7452 110.53 30.2862C110.421 29.8272 110.367 29.326 110.367 28.7824C110.367 27.9912 110.472 27.2846 110.684 26.6626C110.829 26.2277 110.998 25.9137 111.191 25.7204C111.312 25.5996 111.626 25.3731 112.133 25.041C112.64 24.7088 113.009 24.4914 113.238 24.3887C113.661 24.2015 114.159 24.1079 114.733 24.1079C115.542 24.1079 116.207 24.277 116.726 24.6152C117.246 24.9534 117.611 25.3852 117.822 25.9106C118.04 26.4361 118.148 27.0732 118.148 27.8221C118.148 27.9912 118.142 28.1543 118.13 28.3113C117.979 28.3596 117.75 28.414 117.442 28.4744C117.031 28.5529 116.753 28.5952 116.608 28.6012C116.155 28.6375 115.558 28.6586 114.815 28.6646C114.072 28.6707 113.661 28.6767 113.583 28.6828C113.504 28.6888 113.417 28.6918 113.32 28.6918H112.722C112.77 29.646 113.066 30.401 113.61 30.9566C114.153 31.5062 114.824 31.781 115.621 31.781C115.965 31.781 116.282 31.7448 116.572 31.6723C116.862 31.5938 117.243 31.4367 117.714 31.2012L117.931 31.4549ZM115.775 27.7044C115.799 26.7441 115.669 26.0707 115.385 25.6842C115.096 25.3037 114.721 25.1134 114.262 25.1134C113.791 25.1134 113.401 25.3127 113.093 25.7113C112.779 26.116 112.634 26.7803 112.659 27.7044C113.015 27.7587 113.61 27.7859 114.443 27.7859C114.975 27.7859 115.419 27.7587 115.775 27.7044ZM124.436 32.1252V32.85C123.681 32.8017 122.892 32.7775 122.071 32.7775C121.25 32.7775 120.326 32.8017 119.299 32.85V32.1343C119.873 32.1162 120.22 32.092 120.341 32.0618C120.431 32.0377 120.498 32.0045 120.54 31.9622C120.588 31.9139 120.622 31.8414 120.64 31.7448C120.682 31.5636 120.712 30.9928 120.73 30.0326C120.748 29.0723 120.758 28.2207 120.758 27.4779V24.4884C120.758 23.5402 120.736 22.6735 120.694 21.8884C120.67 21.4656 120.64 21.215 120.604 21.1365C120.579 21.0942 120.546 21.061 120.504 21.0368C120.431 20.9885 120.317 20.9523 120.16 20.9281C120.069 20.916 119.797 20.9009 119.344 20.8828V20.2124C120.093 20.1339 120.691 20.0494 121.138 19.9588C121.585 19.8621 122.186 19.696 122.941 19.4605L123.131 19.5692L123.059 21.3992C123.028 22.4259 123.01 23.6851 123.004 25.1769V27.496C123.004 28.3717 123.01 29.027 123.022 29.4618C123.046 30.5429 123.065 31.1982 123.077 31.4277C123.089 31.6511 123.11 31.7931 123.14 31.8535C123.158 31.8957 123.188 31.932 123.231 31.9622C123.285 32.0045 123.379 32.0377 123.512 32.0618C123.566 32.0739 123.874 32.095 124.436 32.1252ZM130.614 32.1252V32.85C129.859 32.8017 129.071 32.7775 128.249 32.7775C127.428 32.7775 126.504 32.8017 125.477 32.85V32.1343C126.051 32.1162 126.398 32.092 126.519 32.0618C126.61 32.0377 126.676 32.0045 126.718 31.9622C126.767 31.9139 126.8 31.8414 126.818 31.7448C126.86 31.5636 126.891 30.9928 126.909 30.0326C126.927 29.0723 126.936 28.2207 126.936 27.4779V24.4884C126.936 23.5402 126.915 22.6735 126.872 21.8884C126.848 21.4656 126.818 21.215 126.782 21.1365C126.758 21.0942 126.724 21.061 126.682 21.0368C126.61 20.9885 126.495 20.9523 126.338 20.9281C126.247 20.916 125.976 20.9009 125.523 20.8828V20.2124C126.272 20.1339 126.869 20.0494 127.316 19.9588C127.763 19.8621 128.364 19.696 129.119 19.4605L129.309 19.5692L129.237 21.3992C129.207 22.4259 129.189 23.6851 129.183 25.1769V27.496C129.183 28.3717 129.189 29.027 129.201 29.4618C129.225 30.5429 129.243 31.1982 129.255 31.4277C129.267 31.6511 129.288 31.7931 129.318 31.8535C129.337 31.8957 129.367 31.932 129.409 31.9622C129.463 32.0045 129.557 32.0377 129.69 32.0618C129.744 32.0739 130.052 32.095 130.614 32.1252ZM136.294 20.9281V20.1762L139.238 20.2305L140.461 20.2124L141.684 20.1852L142.019 20.1762V20.9281C141.367 20.9281 140.953 20.9855 140.778 21.1002C140.688 21.1546 140.627 21.2603 140.597 21.4173C140.513 21.7917 140.47 22.6161 140.47 23.8904V25.9922L140.479 27.0521C140.479 28.1573 140.491 28.8398 140.516 29.0995C140.57 29.6672 140.712 30.1262 140.941 30.4765C141.171 30.8207 141.521 31.1016 141.992 31.319C142.469 31.5304 143.073 31.636 143.804 31.636C144.644 31.636 145.311 31.4941 145.806 31.2103C146.307 30.9204 146.664 30.5459 146.875 30.0869C147.087 29.6279 147.192 28.7552 147.192 27.4688V25.6208C147.192 24.0263 147.189 23.054 147.183 22.7037C147.165 21.9427 147.123 21.4837 147.056 21.3267C147.014 21.2301 146.945 21.1576 146.848 21.1093C146.649 21.0066 146.214 20.9462 145.543 20.9281V20.1762C146.637 20.2185 147.286 20.2396 147.491 20.2396C147.546 20.2396 147.627 20.2366 147.736 20.2305L149.747 20.1762V20.9281C149.185 20.9281 148.832 20.9734 148.687 21.064C148.614 21.1123 148.554 21.2059 148.506 21.3448C148.464 21.4777 148.421 22.0877 148.379 23.1748C148.337 24.2619 148.316 25.1195 148.316 25.7476V27.8765C148.316 28.42 148.276 28.9817 148.198 29.5615C148.119 30.1413 147.959 30.6365 147.718 31.0472C147.482 31.4579 147.147 31.8293 146.712 32.1615C146.277 32.4936 145.761 32.7443 145.163 32.9134C144.565 33.0825 143.874 33.167 143.088 33.167C142.17 33.167 141.313 33.0432 140.516 32.7956C139.936 32.6144 139.462 32.3729 139.093 32.0709C138.725 31.7629 138.444 31.4216 138.251 31.0472C138.058 30.6667 137.94 30.3013 137.897 29.951C137.867 29.7336 137.852 29.1478 137.852 28.1936L137.861 26.4542V24.1532C137.861 23.3076 137.843 22.5467 137.807 21.8703C137.789 21.6045 137.753 21.4113 137.698 21.2905C137.668 21.224 137.592 21.1455 137.472 21.0549L136.294 20.9281ZM161.189 32.1524V32.85C160.367 32.8077 159.697 32.7866 159.177 32.7866C158.58 32.7866 158.06 32.8077 157.619 32.85L157.456 32.6869C157.468 32.5601 157.508 32.0377 157.574 31.1197L157.619 29.634V28.9183C157.619 27.8614 157.577 27.1669 157.492 26.8347C157.414 26.5025 157.248 26.2368 156.994 26.0375C156.741 25.8321 156.402 25.7295 155.98 25.7295C155.557 25.7295 155.207 25.8321 154.929 26.0375C154.651 26.2368 154.476 26.4391 154.403 26.6444C154.361 26.7652 154.343 27.2484 154.349 28.0939V29.6158C154.349 30.0567 154.361 30.5973 154.385 31.2374C154.391 31.5213 154.415 31.7085 154.458 31.7991C154.488 31.8655 154.527 31.9139 154.575 31.9441C154.648 31.9924 154.79 32.0377 155.001 32.0799C155.074 32.092 155.327 32.1162 155.762 32.1524V32.85C155.104 32.8258 154.298 32.8137 153.343 32.8137C152.238 32.8137 151.381 32.8258 150.771 32.85V32.1524C151.242 32.1524 151.568 32.1192 151.749 32.0528C151.834 32.0226 151.897 31.9712 151.939 31.8988C152 31.784 152.033 31.5666 152.039 31.2465L152.075 30.4402C152.081 30.2711 152.084 29.9963 152.084 29.6158V28.4291C152.084 27.8916 152.066 27.2393 152.03 26.4723C152.012 26.0858 151.985 25.8684 151.948 25.8201C151.918 25.7657 151.867 25.7264 151.794 25.7023C151.68 25.66 151.338 25.6298 150.771 25.6117V24.9141C151.87 24.7269 152.591 24.588 152.936 24.4974C153.28 24.4068 153.67 24.2619 154.104 24.0626L154.349 24.1713V25.6298L155.998 24.3072C156.197 24.2287 156.363 24.1773 156.496 24.1532C156.635 24.123 156.825 24.1079 157.067 24.1079C157.713 24.1079 158.196 24.1803 158.516 24.3253C158.842 24.4702 159.117 24.6756 159.341 24.9413C159.564 25.201 159.721 25.4758 159.812 25.7657C159.902 26.0496 159.948 26.4965 159.948 27.1065C159.948 27.795 159.941 28.2328 159.929 28.42C159.923 28.4925 159.92 28.5801 159.92 28.6828L159.929 29.6158C159.935 30.6365 159.951 31.2676 159.975 31.5092C160.005 31.7508 160.059 31.9078 160.138 31.9803C160.222 32.0467 160.404 32.089 160.681 32.1071C160.784 32.1132 160.953 32.1283 161.189 32.1524ZM164.685 19.7323C165.072 19.7323 165.398 19.8682 165.664 20.1399C165.936 20.4117 166.072 20.7379 166.072 21.1183C166.072 21.5049 165.936 21.834 165.664 22.1058C165.398 22.3776 165.072 22.5135 164.685 22.5135C164.305 22.5135 163.979 22.3776 163.707 22.1058C163.435 21.834 163.299 21.5049 163.299 21.1183C163.299 20.7379 163.432 20.4117 163.698 20.1399C163.97 19.8682 164.299 19.7323 164.685 19.7323ZM162.203 32.85V32.1796C162.88 32.1313 163.266 32.0799 163.363 32.0256C163.459 31.9652 163.52 31.8565 163.544 31.6995C163.604 31.3673 163.635 30.5127 163.635 29.1357C163.635 27.2454 163.607 26.1703 163.553 25.9106C163.529 25.7899 163.49 25.7113 163.435 25.6751C163.315 25.5966 162.904 25.5543 162.203 25.5483V24.8598C163.115 24.7631 163.804 24.6605 164.269 24.5518C164.734 24.4431 165.241 24.277 165.791 24.0535L166.008 24.1713C165.936 25.1134 165.899 25.9982 165.899 26.8256V29.9057C165.899 30.9566 165.924 31.5787 165.972 31.7719C165.996 31.8806 166.044 31.9531 166.117 31.9894C166.28 32.0679 166.675 32.1192 167.304 32.1434V32.85C166.446 32.8258 165.513 32.8137 164.504 32.8137C163.635 32.8137 162.868 32.8258 162.203 32.85ZM171.987 32.9224C171.679 32.083 171.311 31.1227 170.882 30.0416L169.686 27.0159C169.577 26.7441 169.375 26.276 169.079 25.6117C168.983 25.4003 168.883 25.2614 168.78 25.195C168.617 25.0983 168.351 25.047 167.983 25.041V24.3343C168.841 24.3525 169.68 24.3615 170.501 24.3615C171.275 24.3615 172.035 24.3525 172.784 24.3343V25.05C172.434 25.05 172.123 25.0742 171.851 25.1225C171.773 25.1406 171.712 25.1738 171.67 25.2221C171.634 25.2644 171.616 25.3158 171.616 25.3762L171.652 25.5392L172.005 26.6354L172.73 28.5287L173.083 29.4165C173.295 29.9601 173.434 30.3074 173.5 30.4584L174.089 29.0995L174.642 27.7497C175.004 26.8981 175.248 26.2609 175.375 25.8382C175.436 25.6268 175.466 25.4728 175.466 25.3762C175.466 25.2795 175.421 25.207 175.33 25.1587C175.239 25.1044 174.892 25.0651 174.288 25.041V24.3343C174.91 24.3525 175.493 24.3615 176.037 24.3615C176.556 24.3615 177.175 24.3525 177.894 24.3343V25.0591C177.441 25.1134 177.172 25.1587 177.087 25.195C177.009 25.2312 176.937 25.3037 176.87 25.4124C176.743 25.6057 176.481 26.1492 176.082 27.043L175.23 28.9636L174.868 29.7608C174.711 30.1111 174.539 30.5248 174.352 31.0019C173.989 31.9259 173.73 32.5661 173.573 32.9224H171.987ZM186.491 31.4549L186.092 32.3427C185.597 32.6446 185.087 32.8681 184.561 33.013C184.169 33.1157 183.722 33.167 183.221 33.167C182.623 33.167 182.094 33.0976 181.635 32.9587C181.182 32.8198 180.793 32.6295 180.467 32.388C180.146 32.1464 179.863 31.8504 179.615 31.5002C179.373 31.1499 179.198 30.7452 179.09 30.2862C178.981 29.8272 178.927 29.326 178.927 28.7824C178.927 27.9912 179.032 27.2846 179.244 26.6626C179.389 26.2277 179.558 25.9137 179.751 25.7204C179.872 25.5996 180.186 25.3731 180.693 25.041C181.2 24.7088 181.569 24.4914 181.798 24.3887C182.221 24.2015 182.719 24.1079 183.293 24.1079C184.102 24.1079 184.767 24.277 185.286 24.6152C185.805 24.9534 186.171 25.3852 186.382 25.9106C186.6 26.4361 186.708 27.0732 186.708 27.8221C186.708 27.9912 186.702 28.1543 186.69 28.3113C186.539 28.3596 186.31 28.414 186.002 28.4744C185.591 28.5529 185.313 28.5952 185.168 28.6012C184.715 28.6375 184.117 28.6586 183.375 28.6646C182.632 28.6707 182.221 28.6767 182.143 28.6828C182.064 28.6888 181.976 28.6918 181.88 28.6918H181.282C181.33 29.646 181.626 30.401 182.17 30.9566C182.713 31.5062 183.384 31.781 184.181 31.781C184.525 31.781 184.842 31.7448 185.132 31.6723C185.422 31.5938 185.802 31.4367 186.273 31.2012L186.491 31.4549ZM184.335 27.7044C184.359 26.7441 184.229 26.0707 183.945 25.6842C183.655 25.3037 183.281 25.1134 182.822 25.1134C182.351 25.1134 181.961 25.3127 181.653 25.7113C181.339 26.116 181.194 26.7803 181.218 27.7044C181.575 27.7587 182.17 27.7859 183.003 27.7859C183.535 27.7859 183.979 27.7587 184.335 27.7044ZM193.122 32.1524V32.85C192.44 32.8198 191.679 32.8047 190.839 32.8047C189.903 32.8047 188.931 32.8198 187.922 32.85V32.1524C188.393 32.1524 188.719 32.1192 188.901 32.0528C188.985 32.0226 189.049 31.9712 189.091 31.8988C189.151 31.784 189.185 31.5666 189.191 31.2465L189.227 30.4402C189.233 30.2711 189.236 29.9963 189.236 29.6158V28.4291C189.236 27.8916 189.218 27.2393 189.181 26.4723C189.163 26.0858 189.136 25.8684 189.1 25.8201C189.07 25.7657 189.018 25.7264 188.946 25.7023C188.831 25.66 188.49 25.6298 187.922 25.6117V24.9141C189.021 24.7269 189.743 24.588 190.087 24.4974C190.432 24.4068 190.821 24.2619 191.256 24.0626L191.501 24.1713L191.483 26.0012C191.875 25.5966 192.177 25.2614 192.388 24.9957C192.702 24.6212 192.938 24.3827 193.095 24.28C193.312 24.135 193.599 24.0626 193.956 24.0626C194.179 24.0626 194.381 24.0988 194.563 24.1713L194.508 25.4577C194.49 26.1583 194.475 26.5599 194.463 26.6626L194.083 26.7803C193.932 26.581 193.787 26.4421 193.648 26.3636C193.424 26.2368 193.18 26.1734 192.914 26.1734C192.558 26.1734 192.25 26.2851 191.99 26.5086C191.736 26.726 191.585 26.9494 191.537 27.1789C191.513 27.3118 191.501 27.8221 191.501 28.7099V29.6158L191.519 30.8479C191.525 31.3129 191.54 31.5998 191.564 31.7085C191.594 31.8112 191.658 31.8927 191.754 31.9531C191.851 32.0135 192.059 32.0558 192.379 32.0799L193.122 32.1524ZM195.559 29.9963H196.284C196.314 30.6728 196.344 31.0985 196.374 31.2737C196.646 31.6058 196.945 31.8535 197.271 32.0165C197.597 32.1736 197.972 32.2521 198.395 32.2521C198.962 32.2521 199.397 32.1162 199.699 31.8444C200.001 31.5726 200.152 31.2435 200.152 30.857C200.152 30.6033 200.101 30.3949 199.998 30.2319C199.902 30.0628 199.702 29.9088 199.4 29.7699C199.165 29.6853 198.712 29.5706 198.041 29.4256C197.377 29.2807 196.873 29.1206 196.528 28.9455C196.184 28.7703 195.915 28.5106 195.722 28.1664C195.529 27.8161 195.432 27.4084 195.432 26.9434C195.432 26.1099 195.746 25.4184 196.374 24.8688C197.003 24.3132 197.905 24.0354 199.083 24.0354C199.572 24.0354 200.022 24.0777 200.433 24.1622C200.844 24.2468 201.215 24.3736 201.547 24.5427L201.574 24.6333C201.538 24.8447 201.511 25.0591 201.493 25.2765C201.475 25.4939 201.448 26.0073 201.411 26.8166L200.714 26.8075C200.708 26.7411 200.699 26.6293 200.687 26.4723C200.669 26.2005 200.632 25.9378 200.578 25.6842C200.391 25.4426 200.158 25.2614 199.88 25.1406C199.609 25.0198 199.289 24.9594 198.92 24.9594C198.407 24.9594 198.008 25.0742 197.724 25.3037C197.446 25.5332 197.308 25.808 197.308 26.1281C197.308 26.4542 197.371 26.6958 197.498 26.8528C197.625 27.0098 197.812 27.1276 198.059 27.2061C198.307 27.2846 198.763 27.3873 199.427 27.5141C200.098 27.6349 200.548 27.7376 200.777 27.8221C201.109 27.949 201.375 28.109 201.574 28.3023C201.774 28.4955 201.925 28.7371 202.027 29.027C202.136 29.3109 202.19 29.6249 202.19 29.9692C202.19 30.869 201.84 31.627 201.14 32.243C200.445 32.859 199.467 33.167 198.204 33.167C197.782 33.167 197.371 33.1278 196.972 33.0493C196.574 32.9768 196.088 32.8409 195.514 32.6416L195.414 32.5057C195.463 32.0407 195.493 31.7115 195.505 31.5183L195.559 29.9963ZM205.941 19.7323C206.328 19.7323 206.654 19.8682 206.919 20.1399C207.191 20.4117 207.327 20.7379 207.327 21.1183C207.327 21.5049 207.191 21.834 206.919 22.1058C206.654 22.3776 206.328 22.5135 205.941 22.5135C205.56 22.5135 205.234 22.3776 204.963 22.1058C204.691 21.834 204.555 21.5049 204.555 21.1183C204.555 20.7379 204.688 20.4117 204.954 20.1399C205.225 19.8682 205.554 19.7323 205.941 19.7323ZM203.459 32.85V32.1796C204.135 32.1313 204.522 32.0799 204.618 32.0256C204.715 31.9652 204.775 31.8565 204.8 31.6995C204.86 31.3673 204.89 30.5127 204.89 29.1357C204.89 27.2454 204.863 26.1703 204.809 25.9106C204.784 25.7899 204.745 25.7113 204.691 25.6751C204.57 25.5966 204.159 25.5543 203.459 25.5483V24.8598C204.371 24.7631 205.059 24.6605 205.524 24.5518C205.989 24.4431 206.497 24.277 207.046 24.0535L207.264 24.1713C207.191 25.1134 207.155 25.9982 207.155 26.8256V29.9057C207.155 30.9566 207.179 31.5787 207.227 31.7719C207.252 31.8806 207.3 31.9531 207.372 31.9894C207.535 32.0679 207.931 32.1192 208.559 32.1434V32.85C207.701 32.8258 206.768 32.8137 205.76 32.8137C204.89 32.8137 204.123 32.8258 203.459 32.85ZM209.429 25.9559V25.5483L210.244 25.0319C210.377 24.9474 210.504 24.8568 210.625 24.7601V23.5462C210.625 23.1114 210.6 22.5738 210.552 21.9337C211.138 21.7404 211.518 21.6106 211.694 21.5441C211.724 21.532 212.107 21.3539 212.844 21.0096L213.08 21.1908L212.989 22.133L212.926 23.1748L212.844 24.7601H213.143C213.946 24.7601 214.553 24.7299 214.964 24.6695L214.81 25.8925C214.737 25.9046 214.671 25.9106 214.611 25.9106L213.723 25.8925H212.844V28.9183C212.844 29.8484 212.853 30.398 212.871 30.5671C212.895 30.8509 212.995 31.0744 213.17 31.2374C213.351 31.3945 213.611 31.473 213.949 31.473C214.155 31.479 214.318 31.476 214.438 31.4639C214.565 31.4458 214.725 31.4156 214.919 31.3733L215.064 31.7448L214.737 32.0709C214.472 32.3427 214.239 32.5812 214.04 32.7866C213.804 32.8892 213.593 32.9557 213.406 32.9859C213.225 33.0221 213.037 33.0402 212.844 33.0402C212.143 33.0402 211.591 32.8621 211.186 32.5057C210.788 32.1434 210.588 31.6934 210.588 31.1559L210.625 28.1664V25.9288H210.38C210.048 25.9288 209.731 25.9378 209.429 25.9559ZM215.779 37.4702C215.882 37.0293 215.948 36.7213 215.979 36.5461L216.114 35.6311L216.35 35.5858C216.501 35.7429 216.673 35.8818 216.866 36.0026C217.102 36.1052 217.356 36.1566 217.627 36.1566C217.941 36.1566 218.231 36.0479 218.497 35.8304C218.763 35.6191 219.059 35.151 219.385 34.4263L219.747 33.5566L216.812 26.0284C216.637 25.5815 216.471 25.3067 216.314 25.204C216.157 25.0953 215.858 25.044 215.417 25.05V24.3343C216.009 24.3585 216.733 24.3706 217.591 24.3706C218.606 24.3706 219.509 24.3585 220.3 24.3343V25.05H220.091C219.717 25.044 219.457 25.0863 219.312 25.1769C219.222 25.2372 219.176 25.3158 219.176 25.4124C219.176 25.5211 219.207 25.654 219.267 25.811L219.711 27.034L221.034 30.4855L221.831 28.6012C222.61 26.7411 222.999 25.666 222.999 25.3762C222.999 25.3158 222.984 25.2674 222.954 25.2312C222.912 25.1829 222.836 25.1467 222.728 25.1225C222.51 25.0802 222.22 25.0561 221.858 25.05V24.3343C222.244 24.3585 222.731 24.3706 223.316 24.3706C224.029 24.3706 224.693 24.3585 225.31 24.3343V25.05H225.165C225.001 25.044 224.847 25.0742 224.703 25.1406C224.612 25.1769 224.53 25.2372 224.458 25.3218C224.392 25.4064 224.222 25.7385 223.951 26.3183C223.594 27.0793 223.307 27.7074 223.09 28.2026C222.414 29.7366 221.985 30.7211 221.804 31.1559L220.345 34.7162C219.898 35.7972 219.424 36.5673 218.923 37.0263C218.422 37.4913 217.812 37.7238 217.093 37.7238C216.857 37.7238 216.64 37.7057 216.441 37.6695C216.247 37.6332 216.027 37.5668 215.779 37.4702Z" fill="white"/>
</g>
<defs>
<clipPath id="clip0_1022_3888">
<rect width="225.451" height="57" fill="white"/>
</clipPath>
</defs>
</svg>
