<svg width="143" height="36" viewBox="0 0 143 36" fill="none" xmlns="http://www.w3.org/2000/svg">
<g clip-path="url(#clip0_1005_3366)">
<path d="M17.9939 36C14.4338 36.0009 10.9534 34.9461 7.99285 32.969C5.03226 30.9919 2.72443 28.1813 1.36121 24.8926C-0.00201739 21.6039 -0.359408 17.9848 0.334229 14.4929C1.02787 11.0011 2.74138 7.79335 5.25807 5.27536C7.77477 2.75737 10.9816 1.04221 14.4731 0.346776C17.9646 -0.348655 21.5839 0.00687473 24.8733 1.36841C28.1627 2.72994 30.9745 5.03632 32.9531 7.9959C34.9318 10.9555 35.9883 14.4353 35.9893 17.9954C35.9795 22.7659 34.0807 27.3384 30.7083 30.7125C27.3359 34.0867 22.7644 35.9878 17.9939 36ZM17.9939 0.84195C14.599 0.841951 11.2804 1.84876 8.45785 3.73503C5.63527 5.6213 3.43549 8.30229 2.13676 11.4389C0.838026 14.5755 0.498688 18.0268 1.16166 21.3563C1.82464 24.6858 3.46015 27.7439 5.86132 30.1438C8.26249 32.5436 11.3214 34.1775 14.6513 34.8387C17.9811 35.4998 21.4323 35.1586 24.5682 33.8582C27.7041 32.5578 30.3839 30.3566 32.2686 27.533C34.1534 24.7094 35.1584 21.3902 35.1566 17.9954C35.1517 13.4455 33.3417 9.08341 30.124 5.86658C26.9063 2.64975 22.5438 0.840997 17.9939 0.837324V0.84195Z" fill="#C41230"/>
<path d="M17.9946 31.5181C15.3202 31.5181 12.7059 30.725 10.4822 29.2392C8.25855 27.7534 6.52541 25.6416 5.50196 23.1707C4.47852 20.6999 4.21073 17.9811 4.73248 15.3581C5.25423 12.7351 6.54207 10.3257 8.43316 8.43462C10.3242 6.54354 12.7336 5.2557 15.3566 4.73395C17.9796 4.2122 20.6985 4.47998 23.1693 5.50343C25.6401 6.52687 27.7519 8.26002 29.2377 10.4837C30.7236 12.7074 31.5166 15.3217 31.5166 17.9961C31.5129 21.5812 30.0871 25.0185 27.5521 27.5535C25.017 30.0886 21.5798 31.5144 17.9946 31.5181ZM17.9946 5.31607C15.4856 5.31607 13.033 6.06013 10.9469 7.45414C8.86086 8.84815 7.23503 10.8295 6.2751 13.1476C5.31516 15.4657 5.06424 18.0164 5.55405 20.4771C6.04387 22.9378 7.25242 25.198 9.02687 26.9718C10.8013 28.7456 13.0619 29.9533 15.5228 30.4422C17.9837 30.9311 20.5343 30.6793 22.852 29.7185C25.1698 28.7577 27.1505 27.1312 28.5438 25.0446C29.937 22.958 30.6802 20.5051 30.6793 17.9961C30.6744 14.6338 29.3363 11.4108 26.9584 9.03374C24.5804 6.6567 21.3569 5.31974 17.9946 5.31607Z" fill="#C41230"/>
<path d="M18.0039 30.624L17.8327 30.55C17.4904 30.402 9.39941 26.8492 9.39941 20.4328V8.86768H26.5806V20.6364C26.5806 26.7937 18.5081 30.3974 18.1658 30.55L18.0039 30.624ZM10.2414 9.72812V20.4328C10.2414 25.8268 16.8566 29.1622 18.0039 29.6849C19.1465 29.1391 25.7479 25.7667 25.7479 20.6179V9.72812H10.2414Z" fill="#C41230"/>
<path d="M14.2046 15.6449L14.0011 15.5246C13.9641 15.5246 13.0759 14.988 12.493 14.5994C12.2877 14.4936 12.1104 14.3409 11.9753 14.1536C11.8403 13.9663 11.7514 13.7497 11.7158 13.5216C11.7158 13.4522 11.7158 12.4622 11.7158 10.5655V10.1445H16.7397V10.5655C16.7397 12.4622 16.7397 13.4568 16.7397 13.5169C16.7151 13.7444 16.6347 13.9623 16.5056 14.1511C16.3764 14.34 16.2026 14.494 15.9996 14.5994C15.4028 14.9973 14.4544 15.5246 14.4128 15.5246L14.2046 15.6449ZM12.5485 10.9818C12.5485 12.0458 12.5485 13.3596 12.5485 13.4614C12.5485 13.5632 12.6642 13.702 12.9556 13.8963C13.3581 14.1646 13.9178 14.5023 14.2139 14.6781C14.5285 14.5069 15.1391 14.1646 15.5231 13.8963C15.6341 13.8223 15.8885 13.6372 15.8932 13.4892C15.8978 13.3411 15.8932 12.0458 15.8932 10.9818H12.5485Z" fill="#C41230"/>
<path d="M21.9771 15.6269L21.7736 15.5066C21.7365 15.5066 20.8483 14.97 20.2701 14.5814C20.0646 14.4752 19.8869 14.3225 19.7512 14.1353C19.6154 13.9481 19.5254 13.7317 19.4883 13.5035C19.4883 13.4387 19.4883 12.4441 19.4883 10.5474V10.1265H24.5122V10.5474C24.5122 12.4441 24.5122 13.4387 24.5122 13.4989C24.4876 13.7263 24.4072 13.9442 24.278 14.1331C24.1489 14.3219 23.9751 14.4759 23.772 14.5814C23.1753 14.9792 22.2269 15.5066 22.1853 15.5066L21.9771 15.6269ZM20.321 10.9638C20.321 12.0278 20.321 13.337 20.321 13.4387C20.321 13.5405 20.4366 13.6793 20.7327 13.9013C21.1305 14.1696 21.6903 14.5073 21.9864 14.6831C22.3009 14.5073 22.9116 14.1696 23.2955 13.9013C23.4066 13.8273 23.661 13.6423 23.6656 13.4896C23.6702 13.337 23.6656 12.0509 23.6656 10.9869L20.321 10.9638Z" fill="#C41230"/>
<path d="M26.2806 15.9453H9.46484V16.778H26.2806V15.9453Z" fill="#C41230"/>
<path d="M17.9753 26.1784C17.8688 26.1735 17.7649 26.1432 17.6724 26.0901C17.5799 26.037 17.5013 25.9626 17.4433 25.8731C17.4136 25.8221 17.37 25.7806 17.3175 25.7536C17.2651 25.7266 17.206 25.715 17.1473 25.7204C16.7517 25.7216 16.3564 25.7432 15.963 25.7852C15.5837 25.8176 15.1534 25.8592 14.5382 25.8731C13.9229 25.887 13.4603 25.8731 13.4418 25.8731L13.0439 25.85V17.9857H13.4557H13.9183C14.1588 17.9857 14.4549 17.9857 14.8435 17.9857C15.1303 17.9857 15.468 17.944 15.8566 17.9024L16.5598 17.7682C16.9117 17.7332 17.2669 17.7487 17.6145 17.8145C17.7472 17.8443 17.8761 17.8893 17.9985 17.9486C18.1195 17.8898 18.2467 17.8448 18.3778 17.8145C18.7316 17.7488 19.0929 17.7332 19.451 17.7682L20.1681 17.8422C20.5567 17.8839 20.8944 17.9209 21.1812 17.9255C21.5513 17.9255 21.8473 17.9255 22.1064 17.9255H22.569H22.9807V25.7898L22.5875 25.8129C22.5875 25.8129 22.0971 25.8407 21.4865 25.8129C20.8759 25.7852 20.4456 25.7574 20.0617 25.7251C19.6623 25.6807 19.2607 25.6591 18.8589 25.6603C18.7968 25.6563 18.7349 25.6699 18.6801 25.6993C18.6254 25.7287 18.5799 25.7729 18.549 25.8268C18.4913 25.9296 18.4084 26.0158 18.308 26.0774C18.2075 26.1389 18.093 26.1737 17.9753 26.1784ZM17.1473 24.8785C17.3014 24.8747 17.4547 24.9023 17.5978 24.9595C17.7409 25.0168 17.871 25.1025 17.98 25.2116C18.0923 25.1005 18.2262 25.0137 18.3734 24.9564C18.5206 24.8991 18.6779 24.8726 18.8358 24.8785C19.2561 24.8803 19.6761 24.9034 20.0941 24.9479C20.478 24.9849 20.8759 25.0173 21.4819 25.0311C21.7224 25.0311 21.9445 25.0311 22.1203 25.0311V18.7906H21.9491C21.7317 18.7906 21.4865 18.7906 21.1766 18.7906C20.8666 18.7906 20.5058 18.7443 20.0987 18.7027L19.3863 18.6287C19.1162 18.6024 18.8438 18.6133 18.5767 18.6611C18.4664 18.6754 18.3639 18.7258 18.2853 18.8045L18.0401 18.6749L17.781 18.823C17.6884 18.7365 17.5727 18.6787 17.448 18.6564C17.1883 18.6117 16.9237 18.6023 16.6615 18.6287L15.9121 18.6934C15.505 18.7351 15.1534 18.7721 14.8296 18.7813C14.5058 18.7906 14.1449 18.7813 13.9044 18.7813V25.0265C14.0802 25.0265 14.2976 25.0265 14.5382 25.0265C15.121 25.0265 15.5235 24.9803 15.926 24.9432C16.3318 24.9015 16.7393 24.8798 17.1473 24.8785Z" fill="#C41230"/>
<path d="M16.2916 11.7871H12.1328V12.4856H16.2916V11.7871Z" fill="#C41230"/>
<path d="M18.3138 16.0933H17.6152V30.2351H18.3138V16.0933Z" fill="#C41230"/>
<path d="M23.769 13.3039L21.9232 12.0734L20.2301 13.2946L19.8184 12.7303L21.9093 11.2222L24.1576 12.721L23.769 13.3039Z" fill="#C41230"/>
<path d="M21.3071 20.0532L20.2616 20.0255C20.095 20.0255 19.9007 20.0024 19.6787 19.9792L19.3179 19.9422C19.2563 19.9378 19.1944 19.9378 19.1328 19.9422V19.4796C19.2144 19.4729 19.2964 19.4729 19.378 19.4796L19.7388 19.5166C19.947 19.5398 20.1274 19.5583 20.2847 19.5629L21.3441 19.5906L21.3071 20.0532Z" fill="#C41230"/>
<path d="M21.3071 21.3996L20.2616 21.3765C20.095 21.3765 19.9054 21.3765 19.6879 21.3256L19.3179 21.2886C19.2563 21.2841 19.1944 21.2841 19.1328 21.2886V20.826C19.2145 20.8217 19.2963 20.8217 19.378 20.826L19.7481 20.863C19.9516 20.863 20.132 20.9046 20.2847 20.9093L21.3441 20.937L21.3071 21.3996Z" fill="#C41230"/>
<path d="M21.3063 22.7508H20.8067H20.2469C20.0581 22.7448 19.8698 22.7294 19.6825 22.7045L19.3032 22.6675C19.2416 22.663 19.1798 22.663 19.1182 22.6675V22.2049C19.1998 22.2006 19.2817 22.2006 19.3633 22.2049L19.7427 22.2419C19.9416 22.265 20.1174 22.2836 20.2701 22.2882H20.8298H21.3294L21.3063 22.7508Z" fill="#C41230"/>
<path d="M21.3071 24.1021L20.2616 24.0743C20.095 24.0743 19.9007 24.0512 19.6787 24.0281L19.3179 23.991C19.2564 23.9844 19.1943 23.9844 19.1328 23.991V23.5284C19.2144 23.5218 19.2964 23.5218 19.378 23.5284L19.7435 23.5655C19.947 23.5655 20.1274 23.6071 20.2847 23.6117H21.3441L21.3071 24.1021Z" fill="#C41230"/>
<path d="M14.6543 20.044V19.5814L15.7137 19.5537C15.8994 19.5477 16.0847 19.5322 16.2688 19.5074L16.625 19.475C16.7005 19.4706 16.7762 19.4706 16.8517 19.475V19.9376C16.7947 19.9333 16.7375 19.9333 16.6805 19.9376L16.3243 19.97C16.0976 19.9978 15.9033 20.0163 15.7322 20.0209L14.6543 20.044Z" fill="#C41230"/>
<path d="M14.6553 21.3903V20.9508L15.7146 20.923C15.8719 20.923 16.0523 20.923 16.2651 20.8768L16.626 20.8398C16.703 20.8353 16.7802 20.8353 16.8573 20.8398V21.3024C16.8003 21.2978 16.7431 21.2978 16.6861 21.3024L16.3299 21.3394C16.1079 21.3394 15.9136 21.3856 15.7424 21.3856L14.6553 21.3903Z" fill="#C41230"/>
<path d="M14.6553 22.7415V22.2789L15.7146 22.2512C15.8926 22.2472 16.0702 22.2333 16.2466 22.2095L16.626 22.1725C16.7014 22.1658 16.7772 22.1658 16.8527 22.1725V22.6351C16.7957 22.6308 16.7385 22.6308 16.6815 22.6351L16.3021 22.6722C16.0847 22.6722 15.8951 22.7138 15.7331 22.7184L14.6553 22.7415Z" fill="#C41230"/>
<path d="M14.6553 24.0923V23.6297H15.488H15.7146C15.8719 23.6297 16.0523 23.6297 16.2651 23.5835L16.626 23.5464C16.7015 23.5418 16.7772 23.5418 16.8527 23.5464V24.009H16.6815L16.3207 24.0461C16.0986 24.0461 15.9043 24.0923 15.7331 24.0969H15.5065L14.6553 24.0923Z" fill="#C41230"/>
<path d="M13.1367 19.082H12.2207V20.0859H13.1367V19.082Z" fill="#C41230"/>
<path d="M13.1829 21.4097H12.2207V22.4135H13.1829V21.4097Z" fill="#C41230"/>
<path d="M13.1367 23.4858H12.2207V24.4897H13.1367V23.4858Z" fill="#C41230"/>
<path d="M23.6757 19.2812H22.7598V20.2851H23.6757V19.2812Z" fill="#C41230"/>
<path d="M23.722 21.6079H22.7598V22.6118H23.722V21.6079Z" fill="#C41230"/>
<path d="M23.6757 23.6851H22.7598V24.6889H23.6757V23.6851Z" fill="#C41230"/>
<path d="M3.86588 16.265C3.9027 16.4461 3.91668 16.631 3.90751 16.8155C3.86125 17.5881 3.44491 18.1016 2.61684 18.0507C2.44103 18.0549 2.26643 18.0204 2.10545 17.9496C1.94446 17.8788 1.80104 17.7735 1.68535 17.641C1.56967 17.5086 1.48457 17.3522 1.43608 17.1832C1.3876 17.0141 1.37692 16.8365 1.40481 16.6629C1.41811 16.479 1.46352 16.299 1.53897 16.1309L1.94606 16.191C1.84575 16.3402 1.79109 16.5154 1.78878 16.6952C1.78096 16.8069 1.79664 16.9189 1.83482 17.0241C1.873 17.1294 1.93282 17.2254 2.01042 17.306C2.08802 17.3867 2.18167 17.4502 2.28533 17.4924C2.38899 17.5346 2.50035 17.5546 2.61221 17.5511C2.72369 17.5703 2.838 17.5654 2.94742 17.5367C3.05685 17.508 3.15885 17.4562 3.24654 17.3847C3.33423 17.3133 3.40557 17.2238 3.45575 17.1224C3.50593 17.021 3.53378 16.9101 3.53743 16.797C3.54852 16.6184 3.52495 16.4393 3.46804 16.2696L3.86588 16.265Z" fill="#C41230"/>
<path d="M1.97463 13.6274C2.0108 13.4688 2.0811 13.32 2.18063 13.1914C2.28016 13.0627 2.40654 12.9573 2.55097 12.8824C2.69539 12.8075 2.85439 12.7651 3.01691 12.7579C3.17942 12.7508 3.34154 12.7791 3.49198 12.841C3.65171 12.8719 3.80326 12.9357 3.93706 13.0283C4.07085 13.1208 4.18397 13.2402 4.26923 13.3787C4.3545 13.5173 4.41007 13.6721 4.43241 13.8332C4.45476 13.9944 4.44339 14.1584 4.39903 14.3149C4.35468 14.4715 4.2783 14.6171 4.17474 14.7425C4.07117 14.868 3.94268 14.9706 3.7974 15.0438C3.65212 15.1171 3.49321 15.1593 3.33075 15.1679C3.16828 15.1766 3.0058 15.1513 2.85358 15.0939C2.69258 15.0684 2.53913 15.0079 2.40404 14.9167C2.26894 14.8254 2.1555 14.7057 2.0717 14.5659C1.9879 14.4261 1.93577 14.2696 1.919 14.1074C1.90223 13.9453 1.92122 13.7814 1.97463 13.6274ZM4.01935 14.2057C4.15351 13.7431 3.7788 13.4378 3.35782 13.3221C2.93685 13.2065 2.46962 13.2712 2.34009 13.7292C2.21056 14.1872 2.57602 14.4971 2.98774 14.6128C3.39946 14.7284 3.8852 14.6775 4.01935 14.2057Z" fill="#C41230"/>
<path d="M2.9375 11.1161L3.18268 10.6535C3.42324 10.1909 3.69617 9.64966 4.28831 9.96423C4.41318 10.0263 4.5101 10.1331 4.55982 10.2634C4.60953 10.3937 4.60839 10.5379 4.55662 10.6674C4.62601 10.5564 4.77867 10.5517 4.89432 10.561L5.91206 10.6674L5.66225 11.13L4.85731 11.0282C4.66765 11.0005 4.57513 11.0282 4.4826 11.1994L4.40859 11.3382L5.29679 11.8008L5.07474 12.2264L2.9375 11.1161ZM4.07551 11.1809L4.14953 11.0421C4.26055 10.8339 4.3577 10.5795 4.09401 10.4361C3.83033 10.2927 3.68692 10.524 3.5759 10.7368L3.50188 10.8756L4.07551 11.1809Z" fill="#C41230"/>
<path d="M4.57422 8.34989L4.95356 7.88729L6.92888 8.34989L5.54107 7.19338L5.83713 6.8418L7.68756 8.3869L7.31285 8.84951L5.33289 8.3869L6.72071 9.54342L6.42927 9.895L4.57422 8.34989Z" fill="#C41230"/>
<path d="M7.00391 5.71337L8.10028 4.81592L8.34084 5.11199L7.61917 5.6995L7.99388 6.1621L8.65541 5.62548L8.89597 5.92155L8.23444 6.46742L8.66466 6.99942L9.39558 6.40266L9.63613 6.69872L8.53513 7.59155L7.00391 5.71337Z" fill="#C41230"/>
<path d="M9.38086 3.96907L9.80183 3.72852L10.8011 5.50955L11.6106 5.04694L11.8003 5.38002L10.5698 6.0693L9.38086 3.96907Z" fill="#C41230"/>
<path d="M11.8457 2.73392L12.3083 2.56738L13.0022 4.4872L13.8765 4.17263L14.0061 4.53346L12.683 4.99606L11.8457 2.73392Z" fill="#C41230"/>
<path d="M15.71 1.679L16.1726 1.63737L16.2836 3.02519C16.3206 3.43691 16.4733 3.69596 16.8387 3.66821C17.2042 3.64045 17.3013 3.35364 17.2736 2.94192L17.1579 1.5541L17.6205 1.51709L17.7454 3.06219C17.8009 3.70984 17.4632 3.98741 16.848 4.0568C16.2327 4.12619 15.8534 3.87175 15.8025 3.22411L15.71 1.679Z" fill="#C41230"/>
<path d="M19.3043 1.57715L19.8872 1.66042L20.5487 3.57561L20.7893 1.77607L21.2519 1.83621L20.928 4.24176L20.3452 4.16312L19.6836 2.2248L19.4431 4.01971L18.9805 3.95957L19.3043 1.57715Z" fill="#C41230"/>
<path d="M22.7361 2.21582L23.1987 2.35923L22.4724 4.67226L22.0098 4.52885L22.7361 2.21582Z" fill="#C41230"/>
<path d="M24.4234 2.78906L24.886 3.02037L24.576 4.99569L25.9639 3.57087L26.3895 3.78367L24.6084 5.58783L24.0811 5.32414L24.4234 2.78906Z" fill="#C41230"/>
<path d="M27.5838 4.57471L28.6987 5.44903L28.4628 5.7451L27.7272 5.1761L27.3618 5.6387L28.0325 6.16607L27.7966 6.46677L27.1258 5.9394L26.7049 6.47602L27.445 7.05428L27.1998 7.3596L26.085 6.4899L27.5838 4.57471Z" fill="#C41230"/>
<path d="M29.8188 6.49414L30.1611 6.88273C30.4988 7.27132 30.9151 7.72005 30.4109 8.16415C30.3091 8.25877 30.1752 8.31136 30.0362 8.31136C29.8972 8.31136 29.7633 8.25877 29.6615 8.16415C29.6932 8.21814 29.7099 8.27963 29.7099 8.34225C29.7099 8.40488 29.6932 8.46636 29.6615 8.52036L29.1989 9.44557L28.8473 9.0431L29.2266 8.33069C29.3145 8.15952 29.3284 8.067 29.1942 7.91434L29.0508 7.78944L28.3107 8.45559L27.9961 8.09476L29.8188 6.49414ZM29.3562 7.53963L29.4579 7.65528C29.6152 7.8357 29.8188 8.01611 30.0454 7.81719C30.2721 7.61827 30.1102 7.40547 29.9529 7.22506L29.8465 7.12791L29.3562 7.53963Z" fill="#C41230"/>
<path d="M32.0804 10.3387C32.0591 10.1755 32.0057 10.0183 31.9231 9.87605C31.9034 9.83501 31.8757 9.79837 31.8415 9.76831C31.8074 9.73826 31.7675 9.71542 31.7243 9.70116C31.6811 9.6869 31.6354 9.68152 31.5901 9.68534C31.5448 9.68916 31.5007 9.7021 31.4605 9.72339C31.095 9.93619 31.7843 10.7504 31.0857 11.1621C30.6231 11.435 30.2438 11.1621 29.9986 10.7643C29.893 10.5853 29.8136 10.3921 29.7627 10.1906L30.1652 10.0056C30.1683 10.195 30.2175 10.3807 30.3086 10.5468C30.4057 10.7041 30.6093 10.866 30.7712 10.7504C31.1736 10.5191 30.4705 9.71414 31.1644 9.30242C31.2548 9.24691 31.3562 9.21174 31.4615 9.19934C31.5668 9.18695 31.6736 9.19763 31.7744 9.23064C31.8752 9.26365 31.9676 9.31821 32.0452 9.39052C32.1228 9.46282 32.1837 9.55115 32.2238 9.64937C32.3263 9.81289 32.3998 9.99286 32.4412 10.1814L32.0804 10.3387Z" fill="#C41230"/>
<path d="M33.145 11.5469L33.3254 12.0095L31.0818 12.9347L30.9014 12.4721L33.145 11.5469Z" fill="#C41230"/>
<path d="M33.5608 13.9472L33.3942 13.281L33.7689 13.1885L34.2315 14.988L33.8614 15.0759L33.6764 14.4098L31.6918 14.9001L31.5762 14.4375L33.5608 13.9472Z" fill="#C41230"/>
<path d="M32.9771 17.0702L34.3927 16.1172L34.4251 16.6769L33.4397 17.3061L34.4898 17.8242L34.5176 18.3331L33.0049 17.5605L32.0473 17.6114L32.0195 17.1488L32.9771 17.0702Z" fill="#C41230"/>
<path d="M4.24462 21.2612L4.61471 22.5519L4.24925 22.6583L4.00869 21.8302L3.43506 21.9968L3.66174 22.7832L3.29628 22.8896L3.0696 22.1032L2.04724 22.3946L1.91309 21.932L4.24462 21.2612Z" fill="#C41230"/>
<path d="M5.37917 24.2449C5.45953 24.3872 5.50788 24.5454 5.52086 24.7083C5.53384 24.8712 5.51113 25.035 5.45432 25.1883C5.39751 25.3416 5.30796 25.4806 5.19192 25.5957C5.07587 25.7108 4.93612 25.7992 4.7824 25.8548C4.64194 25.9338 4.48682 25.9833 4.32656 26.0003C4.1663 26.0172 4.00426 26.0013 3.85036 25.9535C3.69646 25.9056 3.55394 25.8269 3.43154 25.7221C3.30913 25.6172 3.2094 25.4885 3.13847 25.3438C3.06753 25.1991 3.02688 25.0415 3.019 24.8805C3.01111 24.7195 3.03617 24.5586 3.09262 24.4077C3.14908 24.2567 3.23575 24.1189 3.34733 24.0026C3.45891 23.8863 3.59305 23.7941 3.74154 23.7314C3.87933 23.6432 4.03478 23.5862 4.19695 23.5646C4.35912 23.5429 4.52407 23.557 4.68019 23.606C4.83631 23.6549 4.9798 23.7375 5.10056 23.8479C5.22133 23.9583 5.31643 24.0938 5.37917 24.2449ZM3.47323 25.1701C3.69065 25.6327 4.16714 25.5865 4.56035 25.3922C4.95357 25.1979 5.24964 24.837 5.02296 24.4022C4.79628 23.9673 4.33368 23.9905 3.94971 24.1755C3.56575 24.3606 3.2558 24.7075 3.47323 25.1701Z" fill="#C41230"/>
<path d="M6.41076 26.1411L6.71145 26.5205L5.6197 27.3902C5.29588 27.6492 5.1571 27.9175 5.39303 28.209C5.62895 28.5004 5.9204 28.4356 6.23959 28.1766L7.33597 27.3069L7.64129 27.6862L6.42464 28.6484C5.9204 29.0555 5.49942 28.9353 5.09233 28.4495C4.68524 27.9638 4.68986 27.5243 5.19873 27.1033L6.41076 26.1411Z" fill="#C41230"/>
<path d="M8.40006 28.4634L8.86267 28.8381L8.42782 30.8273L9.57508 29.4395L9.93591 29.7355L8.40006 31.586L7.93745 31.2113L8.36768 29.2221L7.22041 30.6099L6.8457 30.3369L8.40006 28.4634Z" fill="#C41230"/>
<path d="M10.8613 30.314L11.4534 30.6147C12.1103 30.9477 12.5868 31.4612 12.152 32.3217C11.7171 33.1821 11.0232 33.1127 10.3617 32.7843L9.76953 32.4882L10.8613 30.314ZM10.3755 32.3587L10.6161 32.479C10.8106 32.56 11.0286 32.5642 11.2262 32.4909C11.4237 32.4175 11.5861 32.272 11.6806 32.0836C11.7751 31.8952 11.7946 31.6781 11.7353 31.4759C11.676 31.2736 11.5422 31.1015 11.3609 30.994L11.1203 30.8737L10.3755 32.3587Z" fill="#C41230"/>
<path d="M13.6641 31.564L15.0519 31.9341L14.9501 32.2995L14.0249 32.059L13.8676 32.6372L14.7003 32.8593L14.6032 33.2247L13.7844 33.0027L13.6086 33.6596L14.5338 33.9047L14.4366 34.2748L13.0488 33.9047L13.6641 31.564Z" fill="#C41230"/>
<path d="M16.0968 32.1089L16.7583 32.1459C17.4985 32.1875 18.1461 32.4743 18.0814 33.4319C18.0166 34.3895 17.3597 34.607 16.6195 34.5653L15.958 34.5283L16.0968 32.1089ZM16.4622 34.1767H16.7352C16.9489 34.178 17.1549 34.0971 17.3106 33.9507C17.4663 33.8044 17.5597 33.6037 17.5716 33.3904C17.5835 33.177 17.5129 32.9673 17.3744 32.8045C17.236 32.6417 17.0402 32.5384 16.8277 32.516H16.5594L16.4622 34.1767Z" fill="#C41230"/>
<path d="M20.5519 31.9472L21.0886 31.8315L22.5273 34.0012L21.9999 34.1168L21.6807 33.6172L20.7231 33.8207L20.6306 34.4221L20.168 34.5285L20.5519 31.9472ZM20.9174 32.3682L20.7879 33.4183L21.4771 33.2702L20.9174 32.3682Z" fill="#C41230"/>
<path d="M23.0645 33.2744L23.5271 33.1079L23.6936 33.5705L23.231 33.7324L23.0645 33.2744Z" fill="#C41230"/>
<path d="M23.6797 30.9757L24.2626 30.6611C24.9148 30.3049 25.6088 30.1985 26.0667 31.0636C26.5247 31.9286 26.0667 32.4514 25.4191 32.7937L24.8362 33.1083L23.6797 30.9757ZM25.0675 32.5393L25.3034 32.4144C25.4831 32.3021 25.6133 32.1256 25.6674 31.9208C25.7215 31.7159 25.6955 31.4982 25.5946 31.3119C25.4938 31.1255 25.3257 30.9846 25.1247 30.9179C24.9236 30.8511 24.7046 30.8635 24.5124 30.9525L24.2764 31.0821L25.0675 32.5393Z" fill="#C41230"/>
<path d="M26.7705 31.4245L27.1683 31.147L27.4459 31.5494L27.0481 31.827L26.7705 31.4245Z" fill="#C41230"/>
<path d="M27.7695 28.1073L28.0748 27.8066L29.7772 29.5322L29.4349 29.8745L28.1257 28.5422L28.0702 29.0649L27.6631 29.0094L27.7695 28.1073Z" fill="#C41230"/>
<path d="M29.9383 27.4133C29.837 27.4833 29.7168 27.5208 29.5936 27.5208C29.4705 27.5208 29.3503 27.4833 29.249 27.4133C29.1732 27.3557 29.1108 27.2824 29.0661 27.1984C29.0214 27.1143 28.9955 27.0216 28.9903 26.9265C28.985 26.8315 29.0004 26.7364 29.0355 26.6479C29.0706 26.5595 29.1245 26.4797 29.1935 26.4141C29.4433 26.0717 29.8133 25.8682 30.1187 26.1087C30.218 26.1861 30.2924 26.2909 30.3326 26.4101C30.3729 26.5294 30.3774 26.6578 30.3453 26.7795C30.4605 26.6987 30.5978 26.6553 30.7386 26.6553C30.8793 26.6553 31.0166 26.6987 31.1318 26.7795C31.2162 26.8404 31.2862 26.919 31.3367 27.01C31.3872 27.1009 31.4171 27.2019 31.4242 27.3057C31.4312 27.4095 31.4153 27.5136 31.3776 27.6105C31.3398 27.7075 31.2812 27.7949 31.2058 27.8667C30.9236 28.246 30.535 28.431 30.1372 28.1396C30.0322 28.0565 29.9551 27.9433 29.9162 27.8151C29.8773 27.687 29.8786 27.55 29.9197 27.4225L29.9383 27.4133ZM30.0539 26.9507C30.0759 26.8756 30.0762 26.7959 30.0549 26.7206C30.0337 26.6453 29.9916 26.5776 29.9336 26.5251C29.9031 26.4988 29.8673 26.4793 29.8287 26.468C29.79 26.4567 29.7494 26.4538 29.7095 26.4595C29.6696 26.4652 29.6314 26.4793 29.5974 26.501C29.5635 26.5227 29.5346 26.5514 29.5127 26.5852C29.4801 26.6143 29.454 26.6499 29.4361 26.6898C29.4183 26.7297 29.409 26.7729 29.409 26.8165C29.409 26.8602 29.4183 26.9034 29.4361 26.9433C29.454 26.9831 29.4801 27.0188 29.5127 27.0478C29.7023 27.1635 29.9059 27.0478 30.0539 26.9507ZM30.9421 27.6492C30.9702 27.6158 30.9911 27.5769 31.0036 27.5351C31.0161 27.4932 31.0198 27.4493 31.0146 27.4059C31.0094 27.3625 30.9954 27.3207 30.9733 27.283C30.9513 27.2453 30.9218 27.2125 30.8866 27.1866C30.7958 27.1313 30.6888 27.1089 30.5835 27.1233C30.4782 27.1376 30.381 27.1877 30.3083 27.2653C30.2866 27.3477 30.2881 27.4345 30.3126 27.5161C30.3371 27.5977 30.3836 27.671 30.4471 27.7279C30.4846 27.7556 30.5273 27.7755 30.5726 27.7866C30.618 27.7976 30.665 27.7995 30.7111 27.7922C30.7572 27.7849 30.8013 27.7685 30.841 27.7439C30.8806 27.7194 30.915 27.6872 30.9421 27.6492Z" fill="#C41230"/>
<path d="M31.2385 23.8842C31.1237 23.9764 31.0292 24.0914 30.9609 24.2219C30.7759 24.5919 31.0581 24.8926 31.3772 25.0684C31.3309 24.9891 31.3065 24.8989 31.3065 24.8071C31.3065 24.7152 31.3309 24.625 31.3772 24.5457C31.415 24.4559 31.472 24.3756 31.5442 24.3102C31.6164 24.2449 31.7021 24.1962 31.7951 24.1675C31.8882 24.1388 31.9864 24.1309 32.0828 24.1443C32.1793 24.1577 32.2716 24.1921 32.3533 24.245C32.4619 24.28 32.5612 24.3389 32.6441 24.4173C32.7269 24.4958 32.791 24.5918 32.8319 24.6983C32.8727 24.8048 32.8891 24.9191 32.88 25.0328C32.8708 25.1465 32.8363 25.2567 32.7789 25.3552C32.4783 25.9566 31.9092 25.8179 31.3911 25.5866C30.8036 25.2905 30.2531 24.7816 30.6001 24.0785C30.6768 23.923 30.7802 23.7821 30.9054 23.6621L31.2385 23.8842ZM31.9185 25.272C32.122 25.3738 32.3441 25.3784 32.4505 25.1656C32.5569 24.9528 32.3996 24.7816 32.2053 24.703C32.011 24.6243 31.7427 24.5873 31.6548 24.7955C31.5669 25.0037 31.7011 25.1702 31.9185 25.2905V25.272Z" fill="#C41230"/>
<path d="M32.0485 21.3025L31.7802 22.1953L32.2752 22.3526C32.2807 22.2787 32.2947 22.2058 32.3168 22.1351C32.3375 22.0313 32.381 21.9334 32.444 21.8484C32.5071 21.7634 32.5882 21.6933 32.6815 21.6434C32.7748 21.5934 32.878 21.5647 32.9837 21.5593C33.0894 21.554 33.195 21.5721 33.2929 21.6124C33.4066 21.6461 33.5117 21.7037 33.6012 21.7815C33.6906 21.8593 33.7623 21.9554 33.8114 22.0633C33.8606 22.1712 33.886 22.2883 33.8859 22.4069C33.8858 22.5254 33.8603 22.6426 33.811 22.7504C33.7561 22.9329 33.6801 23.1084 33.5844 23.2732L33.1726 23.1344C33.2877 23.0085 33.3758 22.8606 33.4317 22.6995C33.457 22.6417 33.4703 22.5794 33.4707 22.5163C33.471 22.4532 33.4584 22.3907 33.4337 22.3326C33.409 22.2746 33.3727 22.2222 33.327 22.1787C33.2813 22.1352 33.2272 22.1015 33.168 22.0796C32.8673 21.9917 32.7054 22.2277 32.6083 22.4914C32.5653 22.6322 32.545 22.779 32.5481 22.9262L31.3037 22.5284L31.7016 21.2007L32.0485 21.3025Z" fill="#C41230"/>
<path d="M50.6178 20.462L50.3546 21.0398C49.8778 21.2916 49.4487 21.4632 49.0673 21.5548C48.6897 21.6501 48.2167 21.6978 47.6483 21.6978C46.8397 21.6978 46.1245 21.57 45.5027 21.3145C45.0145 21.1085 44.6006 20.8358 44.2611 20.4963C43.9217 20.1568 43.6604 19.7887 43.4773 19.392C43.1988 18.7932 43.0596 18.1428 43.0596 17.441C43.0596 16.2394 43.4697 15.2591 44.2898 14.5001C45.1137 13.7372 46.2751 13.3557 47.7742 13.3557C48.2891 13.3557 48.7507 13.3939 49.1588 13.4702C49.5708 13.5465 50.0476 13.6819 50.5892 13.8764L50.6178 13.9508C50.5568 14.1301 50.5091 14.3551 50.4748 14.6259C50.4176 15.057 50.3813 15.4556 50.3661 15.8217H49.9198C49.9122 15.4022 49.8931 15.0665 49.8626 14.8147C49.607 14.5477 49.319 14.3494 48.9986 14.2197C48.682 14.0862 48.2758 14.0194 47.7799 14.0194C46.8835 14.0194 46.1664 14.3036 45.6286 14.872C45.0908 15.4365 44.8219 16.2261 44.8219 17.2407C44.8219 17.8548 44.9115 18.3907 45.0908 18.8485C45.2739 19.3062 45.5161 19.6857 45.8174 19.9871C46.1188 20.2846 46.422 20.502 46.7272 20.6393C47.1429 20.8224 47.6464 20.914 48.2377 20.914C48.6267 20.914 48.9948 20.8701 49.3419 20.7824C49.689 20.6946 50.0667 20.544 50.4748 20.3304L50.6178 20.462ZM51.4131 18.797C51.4131 18.1485 51.5237 17.6126 51.745 17.1892C51.9662 16.762 52.2981 16.4416 52.7405 16.228C53.183 16.0106 53.698 15.9018 54.2854 15.9018C55.1665 15.9018 55.8359 16.1326 56.2936 16.5942C56.7552 17.0557 56.986 17.7328 56.986 18.6253C56.986 19.1403 56.9192 19.5865 56.7857 19.9642C56.6522 20.3418 56.4729 20.6469 56.2479 20.8796C56.0228 21.1085 55.7863 21.282 55.5384 21.4003C55.115 21.5986 54.6382 21.6978 54.108 21.6978C53.2459 21.6978 52.5803 21.4537 52.1112 20.9655C51.6458 20.4734 51.4131 19.7506 51.4131 18.797ZM52.998 18.5223C52.998 19.537 53.1468 20.2598 53.4443 20.6908C53.6426 20.9769 53.9249 21.1199 54.2911 21.1199C54.6039 21.1199 54.8518 21.0112 55.0349 20.7938C55.279 20.5039 55.4011 19.9432 55.4011 19.1117C55.4011 18.5281 55.3515 18.0284 55.2523 17.6126C55.157 17.193 55.0139 16.9012 54.8232 16.7372C54.6363 16.5732 54.4093 16.4912 54.1423 16.4912C53.9135 16.4912 53.7132 16.5522 53.5416 16.6743C53.3699 16.7925 53.2364 16.9947 53.1411 17.2807C53.0457 17.563 52.998 17.9769 52.998 18.5223ZM61.0826 21.057V21.4976C60.6516 21.4785 60.171 21.469 59.6408 21.469C59.0495 21.469 58.4354 21.4785 57.7984 21.4976V21.057C58.0959 21.057 58.3019 21.036 58.4164 20.9941C58.4698 20.975 58.5098 20.9426 58.5365 20.8968C58.5747 20.8243 58.5956 20.687 58.5994 20.4848L58.6223 19.9756C58.6261 19.8688 58.6281 19.6953 58.6281 19.455V18.7054C58.6281 18.3659 58.6166 17.954 58.5937 17.4696C58.5823 17.2254 58.5651 17.0881 58.5422 17.0576C58.5232 17.0233 58.4907 16.9985 58.445 16.9832C58.3725 16.9565 58.157 16.9375 57.7984 16.926V16.4854C58.4926 16.3672 58.9485 16.2795 59.1659 16.2223C59.3833 16.165 59.6293 16.0735 59.904 15.9476L60.0585 16.0163L60.047 17.172C60.2949 16.9165 60.4857 16.7048 60.6192 16.5369C60.8175 16.3004 60.9663 16.1498 61.0655 16.0849C61.2028 15.9934 61.384 15.9476 61.609 15.9476C61.7501 15.9476 61.8779 15.9705 61.9923 16.0163L61.958 16.8287C61.9466 17.2712 61.937 17.5249 61.9294 17.5897L61.6891 17.6641C61.5937 17.5382 61.5022 17.4505 61.4145 17.4009C61.2733 17.3208 61.1189 17.2807 60.951 17.2807C60.726 17.2807 60.5314 17.3513 60.3674 17.4924C60.2072 17.6298 60.1119 17.7709 60.0813 17.9158C60.0661 17.9998 60.0585 18.3221 60.0585 18.8828V19.455L60.0699 20.2331C60.0737 20.5268 60.0832 20.708 60.0985 20.7766C60.1176 20.8415 60.1576 20.893 60.2187 20.9311C60.2797 20.9693 60.4113 20.996 60.6134 21.0112L61.0826 21.057ZM68.9269 21.057V21.4976C68.4082 21.4709 67.9848 21.4575 67.6567 21.4575C67.2791 21.4575 66.9511 21.4709 66.6726 21.4976L66.5696 21.3946C66.5772 21.3145 66.602 20.9845 66.644 20.4047L66.6726 19.4664V19.0144C66.6726 18.3469 66.6459 17.9082 66.5925 17.6984C66.5429 17.4886 66.438 17.3208 66.2778 17.1949C66.1176 17.0652 65.904 17.0004 65.637 17.0004C65.37 17.0004 65.1488 17.0652 64.9733 17.1949C64.7978 17.3208 64.6872 17.4486 64.6414 17.5783C64.6147 17.6546 64.6033 17.9597 64.6071 18.4937V19.455C64.6071 19.7334 64.6147 20.0748 64.63 20.4791C64.6338 20.6584 64.6491 20.7766 64.6758 20.8339C64.6948 20.8758 64.7196 20.9063 64.7502 20.9254C64.7959 20.9559 64.8856 20.9845 65.0191 21.0112C65.0648 21.0189 65.225 21.0341 65.4997 21.057V21.4976C65.0839 21.4823 64.5747 21.4747 63.972 21.4747C63.274 21.4747 62.7323 21.4823 62.3471 21.4976V21.057C62.6446 21.057 62.8506 21.036 62.965 20.9941C63.0184 20.975 63.0585 20.9426 63.0852 20.8968C63.1233 20.8243 63.1443 20.687 63.1481 20.4848L63.171 19.9756C63.1748 19.8688 63.1767 19.6953 63.1767 19.455V18.7054C63.1767 18.3659 63.1653 17.954 63.1424 17.4696C63.1309 17.2254 63.1138 17.0881 63.0909 17.0576C63.0718 17.0233 63.0394 16.9985 62.9936 16.9832C62.9212 16.9565 62.7056 16.9375 62.3471 16.926V16.4854C63.0413 16.3672 63.4971 16.2795 63.7145 16.2223C63.932 16.165 64.178 16.0735 64.4526 15.9476L64.6071 16.0163V16.9375L65.6484 16.1021C65.7743 16.0525 65.8792 16.0201 65.9631 16.0048C66.0509 15.9858 66.171 15.9762 66.3236 15.9762C66.7317 15.9762 67.0369 16.022 67.239 16.1135C67.445 16.2051 67.6186 16.3348 67.7597 16.5026C67.9008 16.6666 68 16.8402 68.0572 17.0233C68.1144 17.2026 68.1431 17.4848 68.1431 17.8701C68.1431 18.3049 68.1392 18.5815 68.1316 18.6997C68.1278 18.7455 68.1259 18.8008 68.1259 18.8656L68.1316 19.455C68.1354 20.0996 68.145 20.4982 68.1602 20.6508C68.1793 20.8033 68.2136 20.9025 68.2632 20.9483C68.3166 20.9902 68.431 21.0169 68.6065 21.0284C68.6713 21.0322 68.7782 21.0417 68.9269 21.057ZM74.4826 20.6164L74.2308 21.1771C73.918 21.3679 73.5957 21.509 73.2639 21.6005C73.0159 21.6654 72.7337 21.6978 72.4171 21.6978C72.0395 21.6978 71.7057 21.6539 71.4158 21.5662C71.1297 21.4785 70.8837 21.3583 70.6777 21.2058C70.4756 21.0532 70.2963 20.8663 70.1399 20.645C69.9873 20.4238 69.8767 20.1682 69.808 19.8783C69.7394 19.5885 69.705 19.2719 69.705 18.9286C69.705 18.4289 69.7718 17.9826 69.9053 17.5897C69.9968 17.3151 70.1037 17.1167 70.2257 16.9947C70.302 16.9184 70.5003 16.7753 70.8208 16.5656C71.1412 16.3558 71.3738 16.2184 71.5188 16.1536C71.7858 16.0353 72.1005 15.9762 72.4629 15.9762C72.974 15.9762 73.3936 16.083 73.7216 16.2966C74.0496 16.5102 74.2804 16.783 74.4139 17.1148C74.5512 17.4467 74.6199 17.8491 74.6199 18.3221C74.6199 18.4289 74.6161 18.5319 74.6084 18.631C74.5131 18.6616 74.3681 18.6959 74.1736 18.734C73.9142 18.7836 73.7388 18.8103 73.6472 18.8141C73.3611 18.837 72.9835 18.8504 72.5143 18.8542C72.0452 18.858 71.7858 18.8618 71.7362 18.8656C71.6866 18.8694 71.6313 18.8713 71.5703 18.8713H71.1927C71.2232 19.474 71.4101 19.9508 71.7534 20.3017C72.0967 20.6489 72.5201 20.8224 73.0236 20.8224C73.241 20.8224 73.4412 20.7995 73.6243 20.7538C73.8074 20.7042 74.0477 20.605 74.3453 20.4562L74.4826 20.6164ZM73.1208 18.2477C73.1361 17.6412 73.0541 17.2159 72.8748 16.9718C72.6917 16.7315 72.4552 16.6113 72.1653 16.6113C71.8678 16.6113 71.6218 16.7372 71.4272 16.9889C71.2289 17.2445 71.1374 17.6641 71.1526 18.2477C71.3777 18.282 71.7534 18.2992 72.2798 18.2992C72.6154 18.2992 72.8958 18.282 73.1208 18.2477ZM78.5907 21.0398V21.4976C78.1139 21.467 77.6161 21.4518 77.0973 21.4518C76.5786 21.4518 75.995 21.467 75.3465 21.4976V21.0456C75.7089 21.0341 75.9282 21.0189 76.0045 20.9998C76.0617 20.9845 76.1037 20.9635 76.1304 20.9368C76.1609 20.9063 76.1819 20.8606 76.1933 20.7995C76.22 20.6851 76.2391 20.3246 76.2505 19.7181C76.262 19.1117 76.2677 18.5738 76.2677 18.1047V16.2165C76.2677 15.6177 76.2544 15.0703 76.2277 14.5744C76.2124 14.3074 76.1933 14.1491 76.1704 14.0995C76.1552 14.0728 76.1342 14.0519 76.1075 14.0366C76.0617 14.0061 75.9893 13.9832 75.8901 13.9679C75.8329 13.9603 75.6612 13.9508 75.3751 13.9393V13.5159C75.8481 13.4664 76.2257 13.413 76.508 13.3557C76.7903 13.2947 77.1698 13.1898 77.6466 13.0411L77.7668 13.1097L77.721 14.2655C77.7019 14.9139 77.6905 15.7092 77.6867 16.6514V18.1161C77.6867 18.6692 77.6905 19.083 77.6981 19.3577C77.7134 20.0405 77.7248 20.4543 77.7324 20.5993C77.7401 20.7404 77.7534 20.83 77.7725 20.8682C77.7839 20.8949 77.803 20.9178 77.8297 20.9368C77.864 20.9635 77.9232 20.9845 78.0071 20.9998C78.0414 21.0074 78.2359 21.0208 78.5907 21.0398ZM82.4928 21.0398V21.4976C82.016 21.467 81.5182 21.4518 80.9995 21.4518C80.4807 21.4518 79.8971 21.467 79.2487 21.4976V21.0456C79.611 21.0341 79.8303 21.0189 79.9066 20.9998C79.9639 20.9845 80.0058 20.9635 80.0325 20.9368C80.063 20.9063 80.084 20.8606 80.0954 20.7995C80.1222 20.6851 80.1412 20.3246 80.1527 19.7181C80.1641 19.1117 80.1698 18.5738 80.1698 18.1047V16.2165C80.1698 15.6177 80.1565 15.0703 80.1298 14.5744C80.1145 14.3074 80.0954 14.1491 80.0726 14.0995C80.0573 14.0728 80.0363 14.0519 80.0096 14.0366C79.9639 14.0061 79.8914 13.9832 79.7922 13.9679C79.735 13.9603 79.5633 13.9508 79.2773 13.9393V13.5159C79.7502 13.4664 80.1279 13.413 80.4101 13.3557C80.6924 13.2947 81.0719 13.1898 81.5487 13.0411L81.6689 13.1097L81.6231 14.2655C81.604 14.9139 81.5926 15.7092 81.5888 16.6514V18.1161C81.5888 18.6692 81.5926 19.083 81.6002 19.3577C81.6155 20.0405 81.6269 20.4543 81.6346 20.5993C81.6422 20.7404 81.6555 20.83 81.6746 20.8682C81.6861 20.8949 81.7051 20.9178 81.7318 20.9368C81.7662 20.9635 81.8253 20.9845 81.9092 20.9998C81.9435 21.0074 82.1381 21.0208 82.4928 21.0398ZM86.0802 13.9679V13.4931L87.9397 13.5274L88.7122 13.5159L89.4846 13.4988L89.6963 13.4931V13.9679C89.2843 13.9679 89.023 14.0042 88.9124 14.0767C88.8552 14.111 88.8171 14.1777 88.798 14.2769C88.7446 14.5134 88.7179 15.0341 88.7179 15.8389V17.1663L88.7236 17.8357C88.7236 18.5338 88.7312 18.9648 88.7465 19.1288C88.7808 19.4874 88.8705 19.7773 89.0154 19.9985C89.1604 20.2159 89.3816 20.3933 89.6791 20.5306C89.9804 20.6641 90.3619 20.7309 90.8234 20.7309C91.3536 20.7309 91.7751 20.6412 92.0879 20.462C92.4045 20.2789 92.6295 20.0424 92.763 19.7525C92.8966 19.4626 92.9633 18.9114 92.9633 18.0989V16.9317C92.9633 15.9247 92.9614 15.3106 92.9576 15.0894C92.9461 14.6088 92.9194 14.3189 92.8775 14.2197C92.8508 14.1587 92.8069 14.1129 92.7459 14.0824C92.62 14.0175 92.3454 13.9794 91.922 13.9679V13.4931C92.6124 13.5198 93.0224 13.5331 93.1521 13.5331C93.1864 13.5331 93.2379 13.5312 93.3066 13.5274L94.5768 13.4931V13.9679C94.2221 13.9679 93.9989 13.9966 93.9074 14.0538C93.8616 14.0843 93.8234 14.1434 93.7929 14.2311C93.7662 14.3151 93.7395 14.7003 93.7128 15.3869C93.6861 16.0735 93.6728 16.6151 93.6728 17.0118V18.3564C93.6728 18.6997 93.648 19.0544 93.5984 19.4206C93.5488 19.7868 93.4477 20.0996 93.2952 20.359C93.1464 20.6183 92.9347 20.8529 92.6601 21.0627C92.3854 21.2725 92.0593 21.4308 91.6817 21.5376C91.304 21.6444 90.8673 21.6978 90.3714 21.6978C89.7916 21.6978 89.25 21.6196 88.7465 21.4632C88.3803 21.3488 88.0809 21.1962 87.8482 21.0055C87.6155 20.811 87.4382 20.5955 87.3161 20.359C87.194 20.1187 87.1197 19.8879 87.093 19.6667C87.0739 19.5293 87.0643 19.1593 87.0643 18.5567L87.0701 17.4581V16.0048C87.0701 15.4708 87.0586 14.9902 87.0357 14.563C87.0243 14.3952 87.0014 14.2731 86.9671 14.1968C86.948 14.1549 86.9003 14.1053 86.824 14.0481L86.0802 13.9679ZM101.803 21.057V21.4976C101.284 21.4709 100.861 21.4575 100.533 21.4575C100.155 21.4575 99.8273 21.4709 99.5488 21.4976L99.4459 21.3946C99.4535 21.3145 99.4783 20.9845 99.5202 20.4047L99.5488 19.4664V19.0144C99.5488 18.3469 99.5221 17.9082 99.4687 17.6984C99.4192 17.4886 99.3143 17.3208 99.1541 17.1949C98.9939 17.0652 98.7802 17.0004 98.5132 17.0004C98.2462 17.0004 98.025 17.0652 97.8495 17.1949C97.6741 17.3208 97.5635 17.4486 97.5177 17.5783C97.491 17.6546 97.4795 17.9597 97.4834 18.4937V19.455C97.4834 19.7334 97.491 20.0748 97.5062 20.4791C97.5101 20.6584 97.5253 20.7766 97.552 20.8339C97.5711 20.8758 97.5959 20.9063 97.6264 20.9254C97.6722 20.9559 97.7618 20.9845 97.8953 21.0112C97.9411 21.0189 98.1013 21.0341 98.3759 21.057V21.4976C97.9602 21.4823 97.4509 21.4747 96.8483 21.4747C96.1502 21.4747 95.6086 21.4823 95.2233 21.4976V21.057C95.5208 21.057 95.7268 21.036 95.8413 20.9941C95.8947 20.975 95.9347 20.9426 95.9614 20.8968C95.9996 20.8243 96.0205 20.687 96.0243 20.4848L96.0472 19.9756C96.0511 19.8688 96.053 19.6953 96.053 19.455V18.7054C96.053 18.3659 96.0415 17.954 96.0186 17.4696C96.0072 17.2254 95.99 17.0881 95.9671 17.0576C95.9481 17.0233 95.9156 16.9985 95.8699 16.9832C95.7974 16.9565 95.5819 16.9375 95.2233 16.926V16.4854C95.9175 16.3672 96.3734 16.2795 96.5908 16.2223C96.8082 16.165 97.0542 16.0735 97.3289 15.9476L97.4834 16.0163V16.9375L98.5247 16.1021C98.6506 16.0525 98.7555 16.0201 98.8394 16.0048C98.9271 15.9858 99.0473 15.9762 99.1998 15.9762C99.608 15.9762 99.9131 16.022 100.115 16.1135C100.321 16.2051 100.495 16.3348 100.636 16.5026C100.777 16.6666 100.876 16.8402 100.933 17.0233C100.991 17.2026 101.019 17.4848 101.019 17.8701C101.019 18.3049 101.015 18.5815 101.008 18.6997C101.004 18.7455 101.002 18.8008 101.002 18.8656L101.008 19.455C101.012 20.0996 101.021 20.4982 101.036 20.6508C101.056 20.8033 101.09 20.9025 101.139 20.9483C101.193 20.9902 101.307 21.0169 101.483 21.0284C101.548 21.0322 101.654 21.0417 101.803 21.057ZM104.012 13.2127C104.256 13.2127 104.462 13.2985 104.63 13.4702C104.801 13.6418 104.887 13.8478 104.887 14.0881C104.887 14.3322 104.801 14.5401 104.63 14.7118C104.462 14.8834 104.256 14.9692 104.012 14.9692C103.771 14.9692 103.565 14.8834 103.394 14.7118C103.222 14.5401 103.136 14.3322 103.136 14.0881C103.136 13.8478 103.22 13.6418 103.388 13.4702C103.56 13.2985 103.768 13.2127 104.012 13.2127ZM102.444 21.4976V21.0742C102.871 21.0436 103.115 21.0112 103.176 20.9769C103.237 20.9388 103.276 20.8701 103.291 20.7709C103.329 20.5611 103.348 20.0214 103.348 19.1517C103.348 17.9578 103.331 17.2788 103.296 17.1148C103.281 17.0385 103.256 16.9889 103.222 16.9661C103.146 16.9165 102.886 16.8898 102.444 16.886V16.4511C103.02 16.3901 103.455 16.3252 103.748 16.2566C104.042 16.1879 104.363 16.083 104.71 15.9419L104.847 16.0163C104.801 16.6113 104.778 17.1701 104.778 17.6927V19.638C104.778 20.3017 104.794 20.6946 104.824 20.8167C104.839 20.8853 104.87 20.9311 104.916 20.954C105.019 21.0036 105.269 21.036 105.665 21.0513V21.4976C105.124 21.4823 104.534 21.4747 103.897 21.4747C103.348 21.4747 102.864 21.4823 102.444 21.4976ZM108.623 21.5433C108.429 21.0131 108.196 20.4066 107.925 19.7239L107.17 17.8129C107.101 17.6412 106.974 17.3456 106.787 16.926C106.726 16.7925 106.663 16.7048 106.598 16.6628C106.495 16.6018 106.327 16.5694 106.094 16.5656V16.1193C106.636 16.1307 107.166 16.1364 107.685 16.1364C108.173 16.1364 108.654 16.1307 109.127 16.1193V16.5713C108.906 16.5713 108.709 16.5865 108.537 16.617C108.488 16.6285 108.45 16.6495 108.423 16.68C108.4 16.7067 108.389 16.7391 108.389 16.7772L108.412 16.8802L108.635 17.5725L109.092 18.7684L109.316 19.3291C109.449 19.6724 109.537 19.8917 109.579 19.9871L109.951 19.1288L110.3 18.2763C110.529 17.7385 110.683 17.3361 110.763 17.069C110.801 16.9355 110.82 16.8383 110.82 16.7772C110.82 16.7162 110.792 16.6704 110.735 16.6399C110.677 16.6056 110.458 16.5808 110.077 16.5656V16.1193C110.469 16.1307 110.838 16.1364 111.181 16.1364C111.509 16.1364 111.9 16.1307 112.354 16.1193V16.577C112.068 16.6113 111.898 16.6399 111.845 16.6628C111.795 16.6857 111.749 16.7315 111.707 16.8001C111.627 16.9222 111.461 17.2655 111.209 17.83L110.672 19.043L110.443 19.5465C110.344 19.7677 110.235 20.029 110.117 20.3304C109.888 20.914 109.724 21.3183 109.625 21.5433H108.623ZM117.784 20.6164L117.532 21.1771C117.219 21.3679 116.897 21.509 116.565 21.6005C116.317 21.6654 116.035 21.6978 115.718 21.6978C115.34 21.6978 115.007 21.6539 114.717 21.5662C114.431 21.4785 114.185 21.3583 113.979 21.2058C113.777 21.0532 113.597 20.8663 113.441 20.645C113.288 20.4238 113.178 20.1682 113.109 19.8783C113.04 19.5885 113.006 19.2719 113.006 18.9286C113.006 18.4289 113.073 17.9826 113.206 17.5897C113.298 17.3151 113.405 17.1167 113.527 16.9947C113.603 16.9184 113.801 16.7753 114.122 16.5656C114.442 16.3558 114.675 16.2184 114.82 16.1536C115.087 16.0353 115.401 15.9762 115.764 15.9762C116.275 15.9762 116.695 16.083 117.023 16.2966C117.351 16.5102 117.581 16.783 117.715 17.1148C117.852 17.4467 117.921 17.8491 117.921 18.3221C117.921 18.4289 117.917 18.5319 117.909 18.631C117.814 18.6616 117.669 18.6959 117.475 18.734C117.215 18.7836 117.04 18.8103 116.948 18.8141C116.662 18.837 116.284 18.8504 115.815 18.8542C115.346 18.858 115.087 18.8618 115.037 18.8656C114.988 18.8694 114.932 18.8713 114.871 18.8713H114.494C114.524 19.474 114.711 19.9508 115.054 20.3017C115.398 20.6489 115.821 20.8224 116.325 20.8224C116.542 20.8224 116.742 20.7995 116.925 20.7538C117.108 20.7042 117.349 20.605 117.646 20.4562L117.784 20.6164ZM116.422 18.2477C116.437 17.6412 116.355 17.2159 116.176 16.9718C115.993 16.7315 115.756 16.6113 115.466 16.6113C115.169 16.6113 114.923 16.7372 114.728 16.9889C114.53 17.2445 114.438 17.6641 114.454 18.2477C114.679 18.282 115.054 18.2992 115.581 18.2992C115.916 18.2992 116.197 18.282 116.422 18.2477ZM121.972 21.057V21.4976C121.541 21.4785 121.06 21.469 120.53 21.469C119.939 21.469 119.325 21.4785 118.688 21.4976V21.057C118.985 21.057 119.191 21.036 119.305 20.9941C119.359 20.975 119.399 20.9426 119.426 20.8968C119.464 20.8243 119.485 20.687 119.489 20.4848L119.511 19.9756C119.515 19.8688 119.517 19.6953 119.517 19.455V18.7054C119.517 18.3659 119.506 17.954 119.483 17.4696C119.471 17.2254 119.454 17.0881 119.431 17.0576C119.412 17.0233 119.38 16.9985 119.334 16.9832C119.262 16.9565 119.046 16.9375 118.688 16.926V16.4854C119.382 16.3672 119.838 16.2795 120.055 16.2223C120.272 16.165 120.518 16.0735 120.793 15.9476L120.948 16.0163L120.936 17.172C121.184 16.9165 121.375 16.7048 121.508 16.5369C121.707 16.3004 121.855 16.1498 121.955 16.0849C122.092 15.9934 122.273 15.9476 122.498 15.9476C122.639 15.9476 122.767 15.9705 122.881 16.0163L122.847 16.8287C122.836 17.2712 122.826 17.5249 122.819 17.5897L122.578 17.6641C122.483 17.5382 122.391 17.4505 122.304 17.4009C122.162 17.3208 122.008 17.2807 121.84 17.2807C121.615 17.2807 121.421 17.3513 121.257 17.4924C121.096 17.6298 121.001 17.7709 120.97 17.9158C120.955 17.9998 120.948 18.3221 120.948 18.8828V19.455L120.959 20.2331C120.963 20.5268 120.972 20.708 120.988 20.7766C121.007 20.8415 121.047 20.893 121.108 20.9311C121.169 20.9693 121.3 20.996 121.503 21.0112L121.972 21.057ZM123.511 19.6953H123.969C123.988 20.1225 124.007 20.3914 124.026 20.502C124.197 20.7118 124.386 20.8682 124.592 20.9712C124.798 21.0703 125.035 21.1199 125.302 21.1199C125.66 21.1199 125.935 21.0341 126.126 20.8625C126.316 20.6908 126.412 20.4829 126.412 20.2388C126.412 20.0786 126.379 19.947 126.314 19.844C126.253 19.7372 126.128 19.6399 125.937 19.5522C125.788 19.4988 125.502 19.4263 125.079 19.3348C124.659 19.2433 124.34 19.1422 124.123 19.0316C123.906 18.9209 123.736 18.7569 123.614 18.5395C123.492 18.3183 123.431 18.0608 123.431 17.7671C123.431 17.2407 123.629 16.8039 124.026 16.4568C124.423 16.1059 124.993 15.9305 125.737 15.9305C126.046 15.9305 126.33 15.9572 126.589 16.0106C126.848 16.064 127.083 16.1441 127.293 16.2509L127.31 16.3081C127.287 16.4416 127.27 16.577 127.259 16.7143C127.247 16.8516 127.23 17.1759 127.207 17.687L126.766 17.6813C126.763 17.6393 126.757 17.5687 126.749 17.4696C126.738 17.2979 126.715 17.132 126.681 16.9718C126.562 16.8192 126.416 16.7048 126.24 16.6285C126.068 16.5522 125.866 16.5141 125.634 16.5141C125.309 16.5141 125.058 16.5865 124.878 16.7315C124.703 16.8764 124.615 17.05 124.615 17.2521C124.615 17.4581 124.655 17.6107 124.735 17.7099C124.815 17.809 124.934 17.8834 125.09 17.933C125.246 17.9826 125.534 18.0474 125.954 18.1275C126.377 18.2038 126.662 18.2687 126.806 18.3221C127.016 18.4022 127.184 18.5033 127.31 18.6253C127.436 18.7474 127.531 18.9 127.596 19.083C127.665 19.2623 127.699 19.4607 127.699 19.6781C127.699 20.2464 127.478 20.7251 127.035 21.1142C126.597 21.5033 125.979 21.6978 125.182 21.6978C124.915 21.6978 124.655 21.673 124.403 21.6234C124.152 21.5777 123.845 21.4918 123.482 21.366L123.419 21.2801C123.45 20.9864 123.469 20.7785 123.477 20.6565L123.511 19.6953ZM130.068 13.2127C130.312 13.2127 130.518 13.2985 130.686 13.4702C130.857 13.6418 130.943 13.8478 130.943 14.0881C130.943 14.3322 130.857 14.5401 130.686 14.7118C130.518 14.8834 130.312 14.9692 130.068 14.9692C129.827 14.9692 129.622 14.8834 129.45 14.7118C129.278 14.5401 129.192 14.3322 129.192 14.0881C129.192 13.8478 129.276 13.6418 129.444 13.4702C129.616 13.2985 129.824 13.2127 130.068 13.2127ZM128.5 21.4976V21.0742C128.927 21.0436 129.171 21.0112 129.232 20.9769C129.293 20.9388 129.332 20.8701 129.347 20.7709C129.385 20.5611 129.404 20.0214 129.404 19.1517C129.404 17.9578 129.387 17.2788 129.353 17.1148C129.337 17.0385 129.313 16.9889 129.278 16.9661C129.202 16.9165 128.943 16.8898 128.5 16.886V16.4511C129.076 16.3901 129.511 16.3252 129.805 16.2566C130.098 16.1879 130.419 16.083 130.766 15.9419L130.903 16.0163C130.857 16.6113 130.834 17.1701 130.834 17.6927V19.638C130.834 20.3017 130.85 20.6946 130.88 20.8167C130.896 20.8853 130.926 20.9311 130.972 20.954C131.075 21.0036 131.325 21.036 131.721 21.0513V21.4976C131.18 21.4823 130.59 21.4747 129.953 21.4747C129.404 21.4747 128.92 21.4823 128.5 21.4976ZM132.271 17.1434V16.886L132.786 16.5598C132.869 16.5064 132.95 16.4492 133.026 16.3882V15.6215C133.026 15.3469 133.011 15.0074 132.98 14.603C133.35 14.481 133.59 14.399 133.701 14.357C133.72 14.3494 133.962 14.2369 134.428 14.0194L134.576 14.1339L134.519 14.7289L134.479 15.3869L134.428 16.3882H134.616C135.124 16.3882 135.507 16.3691 135.766 16.331L135.669 17.1034C135.623 17.111 135.582 17.1148 135.543 17.1148L134.983 17.1034H134.428V19.0144C134.428 19.6018 134.433 19.9489 134.445 20.0557C134.46 20.235 134.523 20.3761 134.634 20.4791C134.748 20.5783 134.912 20.6279 135.126 20.6279C135.255 20.6317 135.358 20.6298 135.435 20.6222C135.515 20.6107 135.616 20.5916 135.738 20.5649L135.829 20.7995L135.623 21.0055C135.456 21.1771 135.309 21.3278 135.183 21.4575C135.034 21.5224 134.901 21.5643 134.782 21.5834C134.668 21.6063 134.55 21.6177 134.428 21.6177C133.985 21.6177 133.636 21.5052 133.381 21.2801C133.129 21.0513 133.003 20.7671 133.003 20.4276L133.026 18.5395V17.1263H132.871C132.662 17.1263 132.461 17.132 132.271 17.1434ZM136.281 24.4156C136.346 24.1371 136.388 23.9426 136.407 23.832L136.493 23.2541L136.642 23.2255C136.737 23.3247 136.846 23.4124 136.968 23.4887C137.117 23.5535 137.277 23.5859 137.449 23.5859C137.647 23.5859 137.83 23.5173 137.998 23.38C138.166 23.2465 138.353 22.9508 138.559 22.4931L138.787 21.9438L136.934 17.1892C136.823 16.9069 136.718 16.7334 136.619 16.6685C136.52 16.5999 136.331 16.5675 136.053 16.5713V16.1193C136.426 16.1345 136.884 16.1422 137.426 16.1422C138.067 16.1422 138.637 16.1345 139.137 16.1193V16.5713H139.005C138.768 16.5675 138.604 16.5942 138.513 16.6514C138.456 16.6895 138.427 16.7391 138.427 16.8001C138.427 16.8688 138.446 16.9527 138.484 17.0519L138.765 17.8243L139.6 20.0042L140.103 18.8141C140.596 17.6393 140.842 16.9603 140.842 16.7772C140.842 16.7391 140.832 16.7086 140.813 16.6857C140.786 16.6552 140.739 16.6323 140.67 16.617C140.533 16.5903 140.349 16.5751 140.121 16.5713V16.1193C140.365 16.1345 140.672 16.1422 141.042 16.1422C141.492 16.1422 141.911 16.1345 142.301 16.1193V16.5713H142.209C142.106 16.5675 142.009 16.5865 141.917 16.6285C141.86 16.6514 141.808 16.6895 141.763 16.7429C141.721 16.7963 141.614 17.0061 141.442 17.3723C141.217 17.8529 141.036 18.2496 140.899 18.5624C140.472 19.5312 140.201 20.153 140.086 20.4276L139.165 22.6762C138.883 23.359 138.583 23.8453 138.267 24.1352C137.95 24.4289 137.565 24.5758 137.111 24.5758C136.962 24.5758 136.825 24.5643 136.699 24.5414C136.577 24.5186 136.438 24.4766 136.281 24.4156Z" fill="#B61F24"/>
</g>
<defs>
<clipPath id="clip0_1005_3366">
<rect width="142.39" height="36" fill="white"/>
</clipPath>
</defs>
</svg>
