<svg width="90" height="37" viewBox="0 0 90 37" fill="none" xmlns="http://www.w3.org/2000/svg">
<g clip-path="url(#clip0_1022_4004)">
<path d="M9.9753 0.5H0.912109V1.17789L3.50144 2.2882V19.3043L0.912109 20.3843V21.0622H9.51258C12.5333 21.0622 14.5983 20.4762 16.3865 19.0578C18.7909 17.1463 20.1164 14.0629 20.1164 10.333C20.1164 7.46686 19.3456 5.18566 17.7433 3.3045C15.9562 1.24056 13.9517 0.5 9.9753 0.5ZM14.9075 17.7323C13.3971 19.3659 11.7938 19.9822 9.23579 19.9822H6.12211V1.57898H9.60555C12.5646 1.57898 14.2912 2.38011 15.6167 4.35319C16.7886 6.01813 17.3433 8.14579 17.3433 10.7038C17.3433 13.6932 16.5724 15.9441 14.9085 17.7323H14.9075Z" fill="white"/>
<path d="M55.5309 19.9822H47.1435V11.1049H54.2671L55.3147 14.0023H56.0239V7.2517H55.3147L54.2671 10.0259H47.1435V1.57898H55.346L56.7948 4.96945H57.5656V0.5H41.9346V1.20922L44.5239 2.2882V19.3043L41.9346 20.3843L39.2533 19.3043L33.2108 10.5816C36.4164 10.1189 38.2662 8.20742 38.2662 5.37158C38.2662 3.82989 37.6803 2.56604 36.6023 1.67194C35.492 0.716213 34.0193 0.5 31.4916 0.5H22.0732V1.17789L24.6636 2.2882V19.3043L22.0732 20.3843V21.0622H29.8715V20.3843L27.2822 19.3043V11.1049H30.4366L37.3105 21.0622H57.6899L58.1213 16.4684H57.3818L55.532 19.9822H55.5309ZM27.2812 10.0259V1.57898H31.4529C34.012 1.57898 35.491 3.08933 35.491 5.67867C35.491 8.268 33.8271 10.0249 31.3913 10.0249H27.2812V10.0259Z" fill="white"/>
<path d="M83.2892 0.5V1.17789L85.7553 2.2882L80.6998 16.8685L80.423 15.943L80.1452 15.1106L79.8057 14.0932L75.4292 0.5H74.227L68.4624 16.8998C68.1845 15.6976 68.031 15.143 67.6612 14.0024L63.9616 2.2882L66.4287 1.17789V0.5H58.9072V1.17789L61.2814 2.2882L67.4158 21.3693H68.4028L74.1978 5.06136L79.5007 21.3693H80.5797L87.485 2.2882L89.8894 1.17789V0.5H83.2933H83.2892Z" fill="white"/>
<path d="M3.50879 32.7575L3.51088 27.3647H5.03064L5.02855 32.5967C5.02855 34.3212 5.75866 35.1254 7.10294 35.1254C8.44722 35.1254 9.17838 34.3222 9.17942 32.5977L9.18151 27.3658H10.7013L10.6992 32.7732C10.6992 35.2278 9.25149 36.4843 7.10294 36.4833C4.96901 36.4833 3.50879 35.2257 3.50879 32.7554V32.7575Z" fill="white"/>
<path d="M20.7069 36.3423H19.5381L14.9516 29.8089L14.9495 36.3413H13.4883L13.4914 27.3679H14.9234L19.2467 33.5953L19.2487 27.37H20.71L20.7069 36.3434V36.3423Z" fill="white"/>
<path d="M25.4553 36.3443H23.9355L23.9387 27.371H25.4584L25.4553 36.3443Z" fill="white"/>
<path d="M30.7877 36.3454L27.4004 27.3721H28.9933L31.5335 34.3734L34.0779 27.3742H35.6269L32.2344 36.3465H30.7877V36.3454Z" fill="white"/>
<path d="M43.4302 27.3773V28.7216L39.06 28.7206V31.0885L43.0197 31.0895V32.4192L39.0589 32.4181V34.9897L43.4281 34.9908V36.3497L37.5674 36.3476L37.5705 27.3752L43.4302 27.3773Z" fill="white"/>
<path d="M47.8411 32.7127V36.3517H46.3203L46.3234 27.3794H49.787C51.6431 27.3815 52.8412 28.3163 52.8401 30.07C52.8401 31.5752 51.9627 32.4369 50.5453 32.6552L53.1451 36.3538H51.4206L48.9232 32.7137H47.8422L47.8411 32.7127ZM47.8411 31.4404H49.7557C50.7636 31.4404 51.3339 30.9004 51.3339 30.068C51.3339 29.2344 50.7647 28.6944 49.7557 28.6934H47.8411V31.4404Z" fill="white"/>
<path d="M55.0144 34.1175C55.8323 34.7755 56.811 35.1557 57.8639 35.1557C58.8864 35.1557 59.603 34.7912 59.603 33.9869C59.603 33.285 59.1507 33.0072 58.3464 32.7011L57.046 32.2332C55.848 31.7945 54.9424 31.1511 54.9424 29.6752C54.9424 28.0969 56.317 27.2352 57.9683 27.2352C58.9763 27.2352 59.8975 27.4984 60.613 27.9664V29.53C59.8672 28.9597 59.0494 28.5649 57.9976 28.5649C57.092 28.5649 56.4193 28.9148 56.4193 29.646C56.4193 30.304 56.8423 30.5662 57.5881 30.8304L59.0348 31.3569C60.4375 31.8687 61.0799 32.6583 61.0799 33.9587C61.0799 35.5955 59.6907 36.5011 57.8639 36.5C56.6658 36.5 55.6422 36.1491 55.0144 35.7104V34.1175Z" fill="white"/>
<path d="M65.3879 36.3558H63.8682L63.8713 27.3824H65.3911L65.3879 36.3558Z" fill="white"/>
<path d="M67.4796 27.3835L74.9614 27.3856V28.7299H71.9793L71.9772 36.358H70.4575L70.4595 28.7289H67.4785V27.3835H67.4796Z" fill="white"/>
<path d="M81.8002 27.3888H83.4077L80.1467 32.7806V36.3611H78.6405V32.7806L75.3994 27.3867H77.0508L79.4312 31.407L81.8002 27.3888Z" fill="white"/>
</g>
<defs>
<clipPath id="clip0_1022_4004">
<rect width="88.9743" height="36" fill="white" transform="translate(0.912109 0.5)"/>
</clipPath>
</defs>
</svg>
