<svg width="128" height="25" viewBox="0 0 128 25" fill="none" xmlns="http://www.w3.org/2000/svg">
<g clip-path="url(#clip0_1005_3336)">
<mask id="mask0_1005_3336" style="mask-type:luminance" maskUnits="userSpaceOnUse" x="0" y="0" width="128" height="25">
<path d="M127.019 0H0V25H127.019V0Z" fill="white"/>
</mask>
<g mask="url(#mask0_1005_3336)">
<path d="M0.359375 24.0145C1.11374 22.1719 1.39623 21.1061 1.39623 18.5894V10.5418C1.39623 7.99622 1.11053 6.95937 0.359375 5.11679V5.06543H7.10694V5.11679C6.35578 6.95937 6.04119 8.05079 6.04119 10.5418V14.0729H13.4918V10.5418C13.4918 8.0219 13.2061 6.95937 12.4292 5.11679V5.06543H19.1768V5.11679C18.4513 6.95937 18.1399 8.05079 18.1399 10.5418V18.5894C18.1399 21.0805 18.4513 22.1719 19.1768 24.0145V24.0658H12.4292V24.0145C13.2061 22.1719 13.4918 21.1061 13.4918 18.5894V14.67H6.04119V18.5894C6.04119 21.0805 6.35257 22.1719 7.10694 24.0145V24.0658H0.359375V24.0145Z" fill="#004C46"/>
<path d="M24.8141 24.4543C22.5831 24.4543 21.3087 22.8171 21.3087 20.3261V14.4324C21.3087 12.8755 20.9203 12.2239 20.3232 11.4984V11.4214H25.4626V20.3518C25.4626 21.4175 25.9537 22.3003 27.1254 22.3003C27.9825 22.3003 28.6052 21.7546 29.0193 21.0259V14.4067C29.0193 12.8499 28.6566 12.1725 28.0338 11.4727V11.4214H33.1988V18.6633C33.1988 21.5716 33.5616 22.2714 34.4957 23.2088V23.2601L29.1477 24.4286V21.6005L29.0707 21.5748C28.4993 22.6663 27.0965 24.4575 24.8109 24.4575" fill="#004C46"/>
<path d="M41.4292 24.0659H36.0042V24.0145C36.3926 22.7433 36.6269 21.7033 36.6269 19.4979V16.5639C36.6269 14.6411 36.2385 13.5272 35.3301 12.4358V12.3844L40.7037 10.8789V13.4759L40.8065 13.5015C41.4549 12.3587 42.832 11.0105 44.986 11.0105C46.8542 11.0105 48.1768 11.9446 48.5427 13.4759L48.6198 13.5015C49.2939 12.3587 50.671 11.0105 52.8249 11.0105C54.9789 11.0105 56.4587 12.362 56.4587 14.5159V19.4755C56.4587 21.6808 56.6674 22.7465 57.0815 24.0177V24.0691H51.6822V24.0177C52.0995 22.7465 52.3049 21.6294 52.3049 19.5268V14.6989C52.3049 13.7134 51.8908 12.959 50.7994 12.959C49.9166 12.959 49.1141 13.4791 48.6198 14.3105V19.4787C48.6198 21.684 48.8252 22.7497 49.2682 24.0209V24.0723H43.8432V24.0209C44.283 22.7497 44.4659 21.6326 44.4659 19.53V14.7021C44.4659 13.7166 44.0518 12.9622 42.9604 12.9622C42.0776 12.9622 41.2719 13.4823 40.8065 14.3137V19.5076C40.8065 21.6615 40.9894 22.7529 41.4292 24.0241V24.0755V24.0659Z" fill="#004C46"/>
<path d="M68.4257 18.3009C68.4 14.6414 67.3888 13.1102 65.466 13.1102C64.6603 13.1102 64.0119 13.3703 63.5721 13.6816V19.938C63.5721 22.8977 64.8176 23.9892 65.986 23.9892C67.7516 23.9892 68.4257 21.6779 68.4257 18.3041M61.2095 23.1577L59.6526 24.1432H59.3926V9.5278C59.3926 7.5825 59.0298 6.49108 58.0957 5.39966V5.34829L63.5721 3.84277V13.0589H63.6491C64.4035 12.0445 65.7517 11.0076 67.697 11.0076C70.7594 11.0076 72.7593 13.6046 72.7593 17.4984C72.7593 21.3922 70.4994 24.4546 65.6971 24.4546C63.6459 24.4546 62.1404 23.8575 61.2063 23.1577" fill="#004C46"/>
<path d="M83.7662 17.7583C83.7662 14.0731 82.9348 11.5019 81.0922 11.5019C79.2497 11.5019 78.4183 14.0731 78.4183 17.7583C78.4183 21.4435 79.2497 23.9634 81.0922 23.9634C82.9348 23.9634 83.7662 21.4467 83.7662 17.7583ZM74.1104 17.7583C74.1104 14.1502 77.2787 11.0107 81.0955 11.0107C84.9122 11.0107 88.0774 14.1502 88.0774 17.7583C88.0774 21.3664 84.909 24.4577 81.0955 24.4577C77.2819 24.4577 74.1104 21.3696 74.1104 17.7583Z" fill="#004C46"/>
<path d="M89.4771 24.0148C89.8399 22.978 90.0999 22.0663 90.0999 19.9894V9.5278C90.0999 7.5825 89.7371 6.49108 88.7998 5.39966V5.34829L94.2794 3.84277V19.9894C94.2794 22.015 94.5394 22.9748 94.9021 24.0148V24.0662H89.4771V24.0148Z" fill="#004C46"/>
<path d="M105.418 21.3663V14.2271C105.184 12.3589 104.459 11.4761 103.341 11.4761C101.704 11.4761 100.59 13.3187 100.59 17.2927C100.59 20.6922 101.525 22.3293 103.213 22.3293C104.07 22.3293 104.927 21.9377 105.422 21.3695M101.159 24.4544C98.1989 24.4544 96.2793 21.9345 96.2793 18.3264C96.2793 14.4069 98.6162 11.0042 103.107 11.0042C104.016 11.0042 104.796 11.1326 105.418 11.3413V9.55006C105.418 7.57587 105.056 6.48766 104.118 5.39624V5.34488L109.598 3.83936V18.6121C109.598 21.5204 110.063 22.2716 110.92 23.2057V23.257L105.495 24.4255V21.8799H105.444C104.664 23.2057 103.236 24.4512 101.159 24.4512" fill="#004C46"/>
<path d="M121.928 22.0146C121.928 20.8205 122.913 19.835 124.107 19.835C125.302 19.835 126.29 20.8205 126.29 22.0146C126.29 23.2087 125.305 24.1942 124.107 24.1942C122.91 24.1942 121.928 23.2087 121.928 22.0146Z" fill="#004C46"/>
<path d="M120.631 22.3521C120.605 22.3778 120.06 22.7919 119.151 22.7919C118.111 22.7919 117.283 22.3007 117.283 20.7406V14.664H120.371V14.0926H117.283V8.48779H116.997L113.104 10.9242V20.8401C113.104 23.4371 114.583 24.4482 116.686 24.4482C118.789 24.4482 120.14 23.4371 120.711 22.4227L120.634 22.3457L120.631 22.3521Z" fill="#004C46"/>
<path d="M25.6259 8.10879C26.4605 8.10879 27.1828 7.84878 27.7349 7.35443V5.73013C27.2053 6.36251 26.5408 6.71241 25.8506 6.71241C24.6886 6.71241 23.8539 5.7526 23.8539 4.27597C23.8539 2.79934 24.6565 1.83953 25.8281 1.83953C26.5279 1.83953 27.1828 2.18943 27.7221 2.82181V1.19431C27.1571 0.696747 26.4477 0.439941 25.6227 0.439941C23.5811 0.439941 22.1943 1.99682 22.1943 4.27597C22.1943 6.55512 23.5811 8.10879 25.6227 8.10879M31.0284 7.22923H31.128L31.1857 7.99644H32.6977C32.6078 7.58876 32.5629 7.12651 32.5629 6.43956V4.39795C32.5629 3.23591 31.7956 2.52648 30.5694 2.52648C29.8471 2.52648 29.0799 2.77366 28.5599 3.22628V4.53599C29.1249 3.93891 29.7573 3.62112 30.3094 3.62112C30.762 3.62112 31.0316 3.83619 31.0316 4.18609C31.0316 4.55846 30.7363 4.80563 29.9723 4.97577C28.8456 5.23578 28.2004 5.79754 28.2004 6.66747C28.2004 7.5374 28.8328 8.112 29.6545 8.112C30.2195 8.112 30.7139 7.81989 31.0316 7.23244M31.0605 5.17479V6.02225C31.0605 6.66426 30.701 7.04947 30.2259 7.04947C29.8985 7.04947 29.661 6.83439 29.661 6.50697C29.661 6.15707 29.9113 5.942 30.3479 5.76223C30.6978 5.61457 30.8904 5.44444 31.0573 5.17479M34.9704 7.99644C34.9255 7.54382 34.8677 6.87934 34.8677 6.34967V0.552294H33.2209C33.3012 1.42222 33.3236 2.08671 33.3236 2.63884V7.99644H34.9704ZM38.9958 7.99644V5.38023H40.0102C41.4419 5.38023 42.3568 4.42363 42.3568 2.93416C42.3568 1.44469 41.4194 0.555504 39.9428 0.555504H37.3587V7.99965H38.9958V7.99644ZM39.8882 1.88126C40.4532 1.88126 40.8256 2.29857 40.8256 2.95342C40.8256 3.60828 40.466 4.03522 39.8882 4.03522H38.999V1.88126H39.8882ZM45.0083 2.52648C43.4739 2.52648 42.5494 3.64359 42.5494 5.32245C42.5494 7.00132 43.4835 8.10879 45.0083 8.10879C46.5331 8.10879 47.4672 6.98206 47.4672 5.32245C47.4672 3.66285 46.5299 2.52648 45.0083 2.52648ZM45.0083 3.76557C45.6182 3.76557 45.9681 4.30807 45.9681 5.32245C45.9681 6.33683 45.6182 6.88897 45.0083 6.88897C44.3984 6.88897 44.0517 6.33683 44.0517 5.32245C44.0517 4.30807 44.3887 3.76557 45.0083 3.76557ZM49.833 7.99644C49.7881 7.54382 49.7303 6.87934 49.7303 6.34967V0.552294H48.0835C48.1638 1.42222 48.1862 2.08671 48.1862 2.63884V7.99644H49.833ZM51.2583 9.96742H52.8697L55.4988 2.63884H53.7621L52.9147 6.12176H52.8344L51.9773 2.63884H50.2182L52.0672 7.78136L51.2551 9.96742H51.2583Z" fill="#009779"/>
</g>
</g>
<defs>
<clipPath id="clip0_1005_3336">
<rect width="127.019" height="25" fill="white"/>
</clipPath>
</defs>
</svg>
