<svg width="92" height="17" viewBox="0 0 92 17" fill="none" xmlns="http://www.w3.org/2000/svg">
<g clip-path="url(#clip0_1005_3235)">
<path d="M10.4162 0.0439453V5.67905H5.81933V0.0439453H0.962891V16.6962H5.81933V10.2351H10.4162V16.6962H15.3167V0.0439453H10.4162Z" fill="#5F16A3"/>
<path d="M48.709 0.0439453V4.42372H53.0447V16.6962H57.9452V4.42372H62.2842V0.0439453H48.709Z" fill="#5F16A3"/>
<path d="M63.54 0.0444336V16.6967H75.9432V12.7936H68.4406V10.1915H74.5556V6.28843H68.4406V3.90347H75.6395V0.0444336H63.54Z" fill="#5F16A3"/>
<path d="M83.4447 10.8831C85.7432 10.8831 86.0468 11.5768 86.0468 13.7888C86.0125 14.778 86.099 15.7689 86.3063 16.7385H91.2069V16.2194C90.6437 16.2194 90.6861 15.4816 90.6861 13.3137C90.6861 9.97544 89.7328 9.54122 88.1706 8.88989C89.9058 8.36914 90.642 6.76448 90.642 4.81374C90.642 1.60441 89.0374 0.0878906 84.0503 0.0878906H77.0244V16.7402H81.8809V10.8847H83.4414L83.4447 10.8831ZM81.9706 3.90122H84.2691C85.3971 3.90122 86.2198 4.4644 86.2198 5.63648C86.2198 6.80855 85.3955 7.19707 83.9214 7.19707H82.0131V3.90122H81.969H81.9706Z" fill="#5F16A3"/>
<path d="M26.287 0.0440753V10.1047C26.243 11.8399 25.7239 13.0104 23.9886 13.0104C21.9954 13.0104 21.6902 11.6228 21.6902 9.97407V0H16.788V9.36681C16.7292 10.5536 16.8762 11.742 17.2222 12.8798C18.5233 17.129 22.4264 17 22.859 17C23.1789 16.9951 23.4972 16.9657 23.8123 16.9135C23.9004 16.907 23.987 16.8923 24.0719 16.8694C24.2433 16.8694 25.0693 16.698 26.2838 15.7414V16.7388H31.1435V0.0440753H26.287Z" fill="#5F16A3"/>
<path d="M42.6808 0.0439453V9.10713H42.8522L37.6072 0.0863882V0.0439453H32.9238V16.6962H37.6072V7.6755L42.7673 16.6962H47.3218V0.0439453H42.6808Z" fill="#5F16A3"/>
</g>
<defs>
<clipPath id="clip0_1005_3235">
<rect width="90.245" height="17" fill="white" transform="translate(0.962891)"/>
</clipPath>
</defs>
</svg>
