<svg width="123" height="23" viewBox="0 0 123 23" fill="none" xmlns="http://www.w3.org/2000/svg">
<g clip-path="url(#clip0_1022_3981)">
<path d="M12.9412 0.0596924V7.68366H6.72185V0.0596924H0.151367V22.5893H6.72185V13.8478H12.9412V22.5893H19.5713V0.0596924H12.9412Z" fill="white"/>
<path d="M64.75 0.0596924V5.98527H70.6159V22.5893H77.2461V5.98527H83.1164V0.0596924H64.75Z" fill="white"/>
<path d="M84.8145 0.0596924V22.5893H101.595V17.3086H91.4446V13.7881H99.7179V8.50745H91.4446V5.28074H101.184V0.0596924H84.8145Z" fill="white"/>
<path d="M111.746 14.7245C114.856 14.7245 115.266 15.6631 115.266 18.6557C115.22 19.9941 115.337 21.3347 115.617 22.6466H122.248V21.9443C121.486 21.9443 121.543 20.946 121.543 18.0131C121.543 13.4965 120.253 12.9091 118.14 12.0278C120.487 11.3233 121.483 9.15229 121.483 6.51306C121.483 2.17102 119.312 0.119263 112.565 0.119263H103.06V22.6488H109.63V14.7267H111.741L111.746 14.7245ZM109.752 5.27847H112.861C114.387 5.27847 115.5 6.04042 115.5 7.62617C115.5 9.21192 114.385 9.73756 112.391 9.73756H109.809V5.27847H109.749H109.752Z" fill="white"/>
<path d="M34.4146 0.0596313V13.671C34.355 16.0187 33.6526 17.6023 31.3049 17.6023C28.6083 17.6023 28.1953 15.725 28.1953 13.4943V0H21.563V12.6727C21.4835 14.2784 21.6822 15.8862 22.1504 17.4256C23.9107 23.1745 29.1913 23 29.7766 23C30.2095 22.9934 30.6402 22.9536 31.0664 22.8829C31.1857 22.8741 31.3027 22.8542 31.4176 22.8233C31.6495 22.8233 32.767 22.5914 34.4102 21.2972V22.6466H40.9851V0.0596313H34.4146Z" fill="white"/>
<path d="M56.5932 0.0596924V12.3216H56.8251L49.729 0.117115V0.0596924H43.3926V22.5893H49.729V10.3847L56.7102 22.5893H62.8721V0.0596924H56.5932Z" fill="white"/>
</g>
<defs>
<clipPath id="clip0_1022_3981">
<rect width="122.096" height="23" fill="white" transform="translate(0.151367)"/>
</clipPath>
</defs>
</svg>
