<svg width="48" height="48" viewBox="0 0 48 48" fill="none" xmlns="http://www.w3.org/2000/svg">
<path d="M5 24C5 15.0433 5 10.565 7.78248 7.78248C10.565 5 15.0433 5 24 5C32.9566 5 37.435 5 40.2176 7.78248C43 10.565 43 15.0433 43 24C43 32.9566 43 37.435 40.2176 40.2176C37.435 43 32.9566 43 24 43C15.0433 43 10.565 43 7.78248 40.2176C5 37.435 5 32.9566 5 24Z" stroke="url(#paint0_linear_1005_3220)" stroke-width="2"/>
<path d="M11 25L11.9491 24.3672C12.897 23.7354 13.3709 23.4194 13.8259 23.5606C14.2808 23.702 14.4923 24.2308 14.9154 25.2886L18 33L22.1766 20.4702C23.0566 17.8301 23.4966 16.5101 24.5442 15.755C25.5918 15 26.9832 15 29.766 15H37" stroke="url(#paint1_linear_1005_3220)" stroke-width="2" stroke-linecap="round" stroke-linejoin="round"/>
<path d="M34 24L31 27M31 27L28 30M31 27L34 30M31 27L28 24" stroke="url(#paint2_linear_1005_3220)" stroke-width="2" stroke-linecap="round" stroke-linejoin="round"/>
<defs>
<linearGradient id="paint0_linear_1005_3220" x1="24" y1="5" x2="24" y2="43" gradientUnits="userSpaceOnUse">
<stop stop-color="#84777E"/>
<stop offset="1" stop-color="#BA8D58"/>
</linearGradient>
<linearGradient id="paint1_linear_1005_3220" x1="24" y1="15" x2="24" y2="33" gradientUnits="userSpaceOnUse">
<stop stop-color="#84777E"/>
<stop offset="1" stop-color="#BA8D58"/>
</linearGradient>
<linearGradient id="paint2_linear_1005_3220" x1="31" y1="24" x2="31" y2="30" gradientUnits="userSpaceOnUse">
<stop stop-color="#84777E"/>
<stop offset="1" stop-color="#BA8D58"/>
</linearGradient>
</defs>
</svg>
