<svg width="48" height="48" viewBox="0 0 48 48" fill="none" xmlns="http://www.w3.org/2000/svg">
<path d="M4 10L17.826 17.8492C22.8774 20.717 25.1226 20.717 30.174 17.8492L44 10" stroke="url(#paint0_linear_1005_3202)" stroke-width="2" stroke-linejoin="round"/>
<path d="M21 39C20.0674 38.9878 19.1336 38.97 18.1977 38.9464C11.9007 38.7882 8.75216 38.709 6.48992 36.4368C4.22766 34.1646 4.16228 31.0974 4.03154 24.9628C3.9895 22.9902 3.98948 21.0294 4.03152 19.0569C4.16228 12.9223 4.22764 9.85496 6.4899 7.58278C8.75216 5.3106 11.9007 5.23146 18.1976 5.07316C22.0786 4.9756 25.9214 4.97562 29.8024 5.07318C36.0994 5.23148 39.2478 5.31064 41.51 7.58282C43.7724 9.85498 43.8378 12.9223 43.9684 19.0569C43.9878 19.965 43.9982 20.393 43.9998 21" stroke="url(#paint1_linear_1005_3202)" stroke-width="2" stroke-linecap="round" stroke-linejoin="round"/>
<path d="M38 34C38 35.6568 36.6568 37 35 37C33.3432 37 32 35.6568 32 34C32 32.3432 33.3432 31 35 31C36.6568 31 38 32.3432 38 34ZM38 34V35C38 36.6568 39.3432 38 41 38C42.6568 38 44 36.6568 44 35V34C44 29.0294 39.9706 25 35 25C30.0294 25 26 29.0294 26 34C26 38.9706 30.0294 43 35 43" stroke="url(#paint2_linear_1005_3202)" stroke-width="2" stroke-linecap="round" stroke-linejoin="round"/>
<defs>
<linearGradient id="paint0_linear_1005_3202" x1="24" y1="10" x2="24" y2="20.0001" gradientUnits="userSpaceOnUse">
<stop stop-color="#84777E"/>
<stop offset="1" stop-color="#BA8D58"/>
</linearGradient>
<linearGradient id="paint1_linear_1005_3202" x1="23.9999" y1="5" x2="23.9999" y2="39" gradientUnits="userSpaceOnUse">
<stop stop-color="#84777E"/>
<stop offset="1" stop-color="#BA8D58"/>
</linearGradient>
<linearGradient id="paint2_linear_1005_3202" x1="35" y1="25" x2="35" y2="43" gradientUnits="userSpaceOnUse">
<stop stop-color="#84777E"/>
<stop offset="1" stop-color="#BA8D58"/>
</linearGradient>
</defs>
</svg>
