<svg width="48" height="48" viewBox="0 0 48 48" fill="none" xmlns="http://www.w3.org/2000/svg">
<path d="M4 20H14" stroke="white" stroke-width="2" stroke-linecap="round" stroke-linejoin="round"/>
<path d="M30.8738 18.002V21.96M23.9258 25.0027H28.0144M39.912 25.0027H44.0006M39.912 30.9492H44.0006M23.9258 30.9492H28.0144M30.8738 34.0404V37.9984M36.902 34.0404V37.9984M36.8806 18.002V21.96M30.007 33.9371H37.9194C39.0198 33.9371 39.912 33.0416 39.912 31.9371V23.96C39.912 22.8554 39.0198 21.96 37.9194 21.96H30.007C28.9064 21.96 28.0144 22.8554 28.0144 23.96V31.9371C28.0144 33.0416 28.9064 33.9371 30.007 33.9371Z" stroke="white" stroke-width="2" stroke-linecap="round"/>
<path d="M4 34H14" stroke="white" stroke-width="2" stroke-linecap="round" stroke-linejoin="round"/>
<path d="M4 6H38" stroke="white" stroke-width="2" stroke-linecap="round" stroke-linejoin="round"/>
</svg>
