<svg width="48" height="48" viewBox="0 0 48 48" fill="none" xmlns="http://www.w3.org/2000/svg">
<path d="M5 16.3735C5.20812 12.1741 5.83074 9.55584 7.69328 7.69328C9.55584 5.83074 12.1741 5.20812 16.3735 5M43 16.3735C42.7918 12.1741 42.1692 9.55584 40.3068 7.69328C38.4442 5.83074 35.8258 5.20812 31.6264 5M31.6264 43C35.8258 42.7918 38.4442 42.1692 40.3068 40.3068C42.1692 38.4442 42.7918 35.8258 43 31.6264M16.3735 43C12.1741 42.7918 9.55584 42.1692 7.69328 40.3068C5.83074 38.4442 5.20812 35.8258 5 31.6264" stroke="url(#paint0_linear_1005_3195)" stroke-width="2" stroke-linecap="round" stroke-linejoin="round"/>
<path d="M5 24H43.0001" stroke="url(#paint1_linear_1005_3195)" stroke-width="2" stroke-linecap="round"/>
<path d="M12 24C12 17.3726 17.3726 12 24 12C24 15.3137 26.6862 18 30 18C31.351 18 32.5978 17.5534 33.6008 16.7999C35.1072 18.8055 36 21.2984 36 24M34.3946 30C32.3198 33.5868 28.4416 36 24 36C19.5583 36 15.6802 33.5868 13.6054 30" stroke="url(#paint2_linear_1005_3195)" stroke-width="2" stroke-linecap="round" stroke-linejoin="round"/>
<defs>
<linearGradient id="paint0_linear_1005_3195" x1="24" y1="5" x2="24" y2="43" gradientUnits="userSpaceOnUse">
<stop stop-color="#84777E"/>
<stop offset="1" stop-color="#BA8D58"/>
</linearGradient>
<linearGradient id="paint1_linear_1005_3195" x1="24" y1="24" x2="24" y2="25" gradientUnits="userSpaceOnUse">
<stop stop-color="#84777E"/>
<stop offset="1" stop-color="#BA8D58"/>
</linearGradient>
<linearGradient id="paint2_linear_1005_3195" x1="24" y1="12" x2="24" y2="36" gradientUnits="userSpaceOnUse">
<stop stop-color="#84777E"/>
<stop offset="1" stop-color="#BA8D58"/>
</linearGradient>
</defs>
</svg>
