<svg width="216" height="36" viewBox="0 0 216 36" fill="none" xmlns="http://www.w3.org/2000/svg">
<g clip-path="url(#clip0_1005_3296)">
<path fill-rule="evenodd" clip-rule="evenodd" d="M85.6365 18.8402C85.625 18.8587 85.5975 18.8702 85.5535 18.8702H81.8585C81.8245 18.8702 81.8 18.8587 81.7855 18.8372C81.7705 18.8147 81.7705 18.7832 81.793 18.7412L83.641 14.0657C83.641 14.0657 83.683 13.9642 83.699 13.9307C83.705 13.9187 83.7095 13.9087 83.7165 13.9017C83.7196 13.898 83.7236 13.8951 83.7282 13.8933C83.7327 13.8914 83.7376 13.8907 83.7424 13.8912C83.7484 13.8912 83.7585 13.8922 83.7665 13.8997C83.777 13.9097 83.7815 13.9222 83.785 13.9312L83.836 14.0657L85.641 18.7627C85.6515 18.7927 85.6515 18.8197 85.6365 18.8402ZM92.2895 24.3087C92.2895 24.3062 92.2885 24.3027 92.2895 24.3057C92.2879 24.3004 92.2862 24.295 92.2844 24.2897C92.2844 24.2882 92.2834 24.2862 92.2824 24.2842C92.2813 24.2788 92.2798 24.2735 92.2779 24.2682L92.271 24.2542C92.2635 24.2382 92.2537 24.2234 92.242 24.2102C92.206 24.1742 92.152 24.1527 92.076 24.1527C91.986 24.1527 91.891 24.1492 91.793 24.1442L91.6629 24.1392C91.6119 24.1375 91.5609 24.1348 91.5099 24.1312C91.2523 24.1089 91.0062 24.0143 90.8 23.8582C90.602 23.7104 90.4369 23.5231 90.3149 23.3082C90.2719 23.2357 90.2289 23.1582 90.1864 23.0772L90.185 23.0737L90.1815 23.0677C90.0875 22.8824 90.0014 22.6933 89.9234 22.5007L84.924 10.8707C84.8627 10.7114 84.7892 10.5571 84.7039 10.4092C84.6999 10.4037 84.5319 10.1362 84.3224 10.1362H84.284C84.1115 10.1362 83.967 10.3182 83.9195 10.3852C83.8269 10.5401 83.7479 10.7027 83.6835 10.8712L78.684 22.5002C78.5975 22.7117 78.5095 22.9042 78.42 23.0777C78.4005 23.1152 78.381 23.1512 78.3615 23.1867L78.3544 23.1997C78.3344 23.2362 78.3135 23.2722 78.2925 23.3082C78.1704 23.5229 78.0053 23.71 77.8075 23.8577C77.6185 23.9957 77.386 24.1157 77.0975 24.1307C76.94 24.1392 76.9155 24.1417 76.815 24.1457C76.7175 24.1507 76.6219 24.1522 76.5314 24.1522C76.4564 24.1522 76.4014 24.1737 76.3654 24.2097L76.349 24.2312L76.3374 24.2512C76.3374 24.2527 76.3365 24.2527 76.3365 24.2537C76.3345 24.2582 76.3314 24.2632 76.3299 24.2677C76.3271 24.2741 76.3249 24.2809 76.3234 24.2877L76.3195 24.3027V24.3052C76.3185 24.3072 76.3185 24.3087 76.3185 24.3102C76.3157 24.3227 76.3144 24.3355 76.3145 24.3482C76.3145 24.4232 76.3435 24.4747 76.397 24.5032C76.456 24.5327 76.543 24.5427 76.6625 24.5427C76.7585 24.5427 76.8535 24.5422 76.948 24.5412H76.9555L77.272 24.5357L77.3329 24.5347C77.3784 24.5332 77.424 24.5322 77.4695 24.5297C77.7935 24.5209 78.1175 24.5097 78.4415 24.4962C78.6625 24.4857 78.8105 24.4782 78.88 24.4782C79.0855 24.4782 79.315 24.4857 79.564 24.4967L80.077 24.5167H80.0819C80.1594 24.5197 80.237 24.5217 80.3145 24.5252C80.5645 24.5352 80.796 24.5427 81.0095 24.5427C81.1075 24.5427 81.1845 24.5327 81.2345 24.5037C81.2582 24.4914 81.2777 24.4722 81.2905 24.4487L81.2909 24.4482L81.2919 24.4462L81.299 24.4312C81.3025 24.4212 81.3065 24.4132 81.309 24.4032C81.313 24.3852 81.3149 24.3667 81.3145 24.3482C81.3165 24.3228 81.313 24.2973 81.3042 24.2734C81.2954 24.2495 81.2815 24.2277 81.2635 24.2097C81.2235 24.1737 81.1475 24.1522 81.032 24.1522H80.7495C80.458 24.1522 80.2605 24.1047 80.1475 24.0152C80.035 23.9227 79.985 23.7937 79.9885 23.6302C79.9885 23.5187 80.01 23.3582 80.057 23.1552C80.1005 22.9527 80.1724 22.7322 80.2704 22.5002L81.2925 20.0222C81.3029 19.9818 81.3244 19.9451 81.3544 19.9162C81.3759 19.8982 81.4155 19.8912 81.466 19.8912H85.966C86.0095 19.8912 86.05 19.8982 86.0825 19.9162C86.1206 19.9413 86.1488 19.9787 86.1625 20.0222L87.64 23.7382C87.6805 23.8517 87.6769 23.9412 87.6369 24.0177C87.6208 24.0486 87.5986 24.076 87.5718 24.0983C87.5449 24.1205 87.5138 24.1371 87.4805 24.1472L87.367 24.1707C87.3369 24.1775 87.309 24.1916 87.2857 24.2118C87.2625 24.2321 87.2447 24.2578 87.2339 24.2867C87.2281 24.3067 87.2256 24.3275 87.2264 24.3482C87.2264 24.3892 87.2344 24.4217 87.2499 24.4482C87.2628 24.472 87.2827 24.4913 87.307 24.5032C87.357 24.5327 87.5 24.5427 87.598 24.5427C87.8115 24.5427 88.043 24.5357 88.293 24.5252L88.5054 24.5172H88.506L89.0435 24.4967C89.2713 24.4857 89.4993 24.4795 89.7274 24.4782C89.7974 24.4782 89.9449 24.4857 90.1659 24.4967C90.6631 24.5171 91.1605 24.5319 91.658 24.5412C91.753 24.5422 91.849 24.5427 91.9455 24.5427C92.0655 24.5427 92.1515 24.5327 92.2105 24.5037C92.2313 24.4925 92.2492 24.4765 92.2628 24.457C92.2763 24.4376 92.2851 24.4152 92.2885 24.3917C92.2905 24.3795 92.2916 24.3671 92.2919 24.3547L92.293 24.3482C92.2928 24.3348 92.2916 24.322 92.2895 24.3087Z" fill="#013B71"/>
<mask id="mask0_1005_3296" style="mask-type:luminance" maskUnits="userSpaceOnUse" x="0" y="0" width="28" height="35">
<path d="M0 0.5H27.426V34.414H0V0.5Z" fill="white"/>
</mask>
<g mask="url(#mask0_1005_3296)">
<path fill-rule="evenodd" clip-rule="evenodd" d="M25.206 20.31C25.206 26.1005 18.9995 30.2005 13.713 32.06C8.4255 30.2005 2.2195 26.1005 2.2195 20.31V7.724C7.915 5.0695 16.539 2.7195 25.206 2.7195V20.31ZM1.282 5.7115L0 6.3095V20.31C0 27.341 7.0185 32.0585 12.976 34.154L13.713 34.414L14.4495 34.154C20.4065 32.0595 27.426 27.3415 27.426 20.31V0.5H25.206C17.357 0.5 8.415 2.3875 1.282 5.7115Z" fill="#013B71"/>
</g>
<path fill-rule="evenodd" clip-rule="evenodd" d="M17.0086 27.2276C16.9041 27.2261 16.7936 27.2241 16.6661 27.2201C16.5431 27.2169 16.4202 27.2094 16.2976 27.1976C16.1886 27.1882 16.0798 27.1752 15.9716 27.1586C15.7751 27.1281 15.6216 27.0756 15.5101 26.9971C15.402 26.9208 15.3191 26.8139 15.2721 26.6901C15.216 26.5447 15.1798 26.3923 15.1646 26.2371C15.1296 25.8847 15.108 25.5312 15.0996 25.1771C15.0856 24.7501 15.0796 24.2621 15.0761 23.7171C15.0721 23.1711 15.0721 22.5831 15.0721 21.9496V11.0506C14.9026 11.0416 14.7321 11.0376 14.5626 11.0381C13.9051 11.0391 13.2116 11.0786 12.5696 11.2206C12.4976 11.2366 12.4256 11.2531 12.3521 11.2716V21.9496C12.3521 22.5831 12.3521 23.1711 12.3491 23.7171C12.3461 24.201 12.3381 24.6849 12.3251 25.1686C12.3176 25.518 12.2959 25.867 12.2601 26.2146C12.2291 26.4981 12.1756 26.7171 12.0916 26.8666C12.0066 27.0161 11.8641 27.1141 11.6606 27.1586C11.557 27.1838 11.4517 27.2017 11.3456 27.2121C11.2311 27.2231 11.0961 27.2251 10.9461 27.2276C10.8236 27.2296 10.7346 27.2551 10.6891 27.2976C10.6431 27.3396 10.6216 27.3861 10.6231 27.4351C10.6233 27.4677 10.6329 27.4996 10.6508 27.5269C10.6686 27.5542 10.6939 27.5758 10.7236 27.5891C10.7926 27.6241 10.8886 27.6416 11.0156 27.6416C11.2231 27.6416 11.4496 27.6386 11.7066 27.6316L12.4721 27.6086C12.7256 27.6001 12.9596 27.5926 13.1706 27.5846C13.3816 27.5766 13.5471 27.5736 13.6661 27.5736C13.8546 27.5736 14.1231 27.5811 14.4661 27.5926C14.8071 27.6036 15.1911 27.6131 15.6181 27.6236C16.0481 27.6346 16.4896 27.6416 16.9396 27.6416C17.0586 27.6416 17.1496 27.6221 17.2201 27.5891C17.2921 27.5536 17.3286 27.5041 17.3311 27.4351C17.3331 27.3861 17.3071 27.3406 17.2541 27.2976C17.2041 27.2561 17.1236 27.2306 17.0086 27.2276Z" fill="#013B71"/>
<path fill-rule="evenodd" clip-rule="evenodd" d="M19.816 20.8925C19.751 20.8925 19.7045 20.912 19.6775 20.954C19.65 20.9965 19.628 21.066 19.6085 21.1705C19.5296 21.5536 19.395 21.9232 19.209 22.2675C19.1067 22.4639 18.9772 22.645 18.8245 22.8055C18.5715 23.0622 18.27 23.2662 17.9375 23.4055C17.5873 23.5426 17.2202 23.6319 16.846 23.671C16.575 23.698 16.281 23.7175 15.9625 23.724C15.9645 24.0455 15.9675 24.3655 15.9735 24.687C16.2132 24.6794 16.4527 24.6684 16.692 24.654C17.1246 24.63 17.5557 24.5838 17.9835 24.5155C18.3865 24.45 18.729 24.3655 19.009 24.258C19.1245 24.2155 19.209 24.1705 19.2705 24.1275C19.3293 24.0852 19.3777 24.0302 19.412 23.9665C19.4549 23.8747 19.4897 23.7793 19.516 23.6815C19.558 23.5435 19.601 23.379 19.6475 23.1775C19.693 22.98 19.7355 22.7675 19.7775 22.549C19.82 22.3295 19.8585 22.1185 19.889 21.9225C19.924 21.7225 19.9505 21.5535 19.9695 21.42C19.9895 21.285 20 21.2005 20 21.1705C20.0013 21.1014 19.9812 21.0337 19.9425 20.9765C19.908 20.9235 19.866 20.897 19.816 20.8925ZM7.13904 20.7515C7.50004 21.408 8.00704 22.0265 8.66004 22.599C9.19228 23.0644 9.78581 23.4547 10.424 23.759C10.7485 23.915 11.0935 24.05 11.459 24.1665C11.4642 23.646 11.4669 23.1255 11.467 22.605C10.6987 22.1193 10.0314 21.49 9.50154 20.7515C9.07704 20.1584 8.74556 19.504 8.51854 18.811C8.09754 17.514 8.10304 16.064 8.31454 14.7275C8.41454 14.1245 8.59404 13.5515 8.85954 13.014C9.12454 12.472 9.50154 11.973 9.99804 11.512C10.2315 11.285 10.539 11.0665 10.9195 10.863C11.2995 10.6555 11.7875 10.486 12.379 10.3555C12.9705 10.225 13.6965 10.1555 14.561 10.1515C15.1645 10.1515 15.721 10.2015 16.236 10.2985C16.7016 10.3803 17.1573 10.5101 17.596 10.686C17.991 10.851 18.306 11.032 18.5485 11.235C18.6265 11.2965 18.6995 11.365 18.7685 11.441C18.8045 11.484 18.8395 11.5285 18.873 11.5745C18.995 11.744 19.0945 11.941 19.173 12.163C19.248 12.3845 19.307 12.595 19.345 12.802C19.3745 12.98 19.3945 13.13 19.402 13.2505L19.405 13.309C19.4063 13.3553 19.4105 13.4016 19.4175 13.4475C19.4195 13.46 19.4225 13.4705 19.425 13.481C19.4295 13.4997 19.4357 13.5179 19.4435 13.5355C19.461 13.5725 19.4955 13.5955 19.5435 13.6075L19.563 13.609C19.6205 13.609 19.67 13.579 19.712 13.5135C19.755 13.448 19.7815 13.3405 19.7935 13.1945C19.8008 13.0819 19.806 12.9692 19.809 12.8565C19.812 12.7025 19.812 12.5255 19.8165 12.33C19.8205 12.134 19.824 11.9345 19.824 11.735C19.828 11.5345 19.835 11.3545 19.839 11.189C19.854 10.955 19.87 10.7625 19.886 10.6205C19.896 10.4785 19.9085 10.363 19.9195 10.2825C19.9275 10.202 19.931 10.1325 19.931 10.0825C19.9335 10.056 19.9304 10.0294 19.9217 10.0043C19.9131 9.97922 19.8992 9.95626 19.881 9.93696C19.847 9.89446 19.7775 9.87546 19.678 9.87546C19.3475 9.85996 19.013 9.82546 18.6755 9.76846C18.3985 9.72046 18.108 9.67046 17.8055 9.61346L17.6035 9.57596C17.263 9.52173 16.9208 9.47804 16.5775 9.44496C16.2378 9.40973 15.8972 9.38422 15.556 9.36846C15.2553 9.35361 14.9542 9.34577 14.653 9.34496C13.62 9.34946 12.717 9.44496 11.941 9.62596C11.1645 9.81046 10.4925 10.06 9.92854 10.375C9.36304 10.6895 8.87954 11.047 8.47554 11.443C8.03054 11.8845 7.65754 12.3455 7.36204 12.833C7.07853 13.2897 6.84423 13.7753 6.66304 14.2815C6.50099 14.7244 6.37867 15.1808 6.29754 15.6455C6.12554 16.7155 6.17254 17.6685 6.39404 18.7455C6.53204 19.422 6.78204 20.09 7.13904 20.7515ZM15.531 7.02196C15.53 7.02196 15.529 7.02296 15.528 7.02396L15.531 7.02196ZM15.565 7.00596C15.5535 7.01078 15.5421 7.01612 15.531 7.02196L15.565 7.00596ZM10.709 6.83046C10.7615 6.85546 10.835 6.86796 10.928 6.86796C11.0535 6.86796 11.1785 6.87246 11.3 6.88696C11.426 6.90296 11.5435 6.92596 11.657 6.95946C11.802 7.00146 11.923 7.06196 12.018 7.13746C12.113 7.21346 12.186 7.32096 12.2385 7.45696C12.2895 7.59096 12.3285 7.76446 12.341 7.98496C12.346 8.07196 12.3475 8.29996 12.3495 8.46646C12.35 8.52246 12.351 8.57146 12.352 8.60546L12.3535 8.64046C12.7943 8.56638 13.2388 8.51631 13.685 8.49046C14.0025 8.47046 14.32 8.46196 14.6355 8.46046C14.7635 8.46046 14.8915 8.46346 15.0205 8.46646H15.0825C15.0875 8.38346 15.093 8.06096 15.0975 7.98496C15.1145 7.64696 15.175 7.39796 15.2835 7.23696C15.339 7.15477 15.4141 7.08774 15.502 7.04196L15.505 7.04096L15.5385 7.02546C15.595 6.99952 15.6531 6.97747 15.7125 6.95946C15.826 6.92596 15.9435 6.90296 16.0695 6.88696C16.191 6.87196 16.316 6.86796 16.4415 6.86796C16.535 6.86796 16.608 6.85546 16.6605 6.83046L16.677 6.82296C16.734 6.78946 16.7605 6.72746 16.7605 6.64096C16.7605 6.58396 16.718 6.54346 16.639 6.51896C16.561 6.49496 16.4465 6.48196 16.294 6.48096C16.1105 6.48196 15.9105 6.48546 15.694 6.48896C15.451 6.49146 15.2075 6.49596 14.961 6.50396C14.714 6.51146 14.49 6.51496 14.281 6.51896C14.0725 6.52246 13.905 6.52646 13.7765 6.52646L13.685 6.52596H13.593C13.4645 6.52596 13.297 6.52246 13.089 6.51896C12.8795 6.51496 12.655 6.51146 12.409 6.50396C12.1648 6.49624 11.9204 6.49124 11.676 6.48896C11.459 6.48546 11.259 6.48196 11.076 6.48096C10.923 6.48196 10.8085 6.49496 10.731 6.51896C10.6515 6.54346 10.609 6.58396 10.609 6.64096C10.609 6.72746 10.6355 6.78946 10.6925 6.82296L10.709 6.83046ZM205.927 17.635C205.875 17.616 205.8 17.6085 205.69 17.6085C205.54 17.6085 205.365 17.612 205.166 17.616C204.963 17.62 204.767 17.623 204.567 17.631C204.374 17.6385 204.207 17.642 204.068 17.645C203.93 17.6485 203.846 17.651 203.822 17.651C203.792 17.651 203.699 17.6485 203.547 17.645C203.395 17.642 203.202 17.6385 202.978 17.6305C202.752 17.623 202.514 17.6205 202.268 17.616C202.018 17.612 201.783 17.6085 201.562 17.6085C201.452 17.605 201.377 17.616 201.33 17.6345C201.278 17.656 201.256 17.6965 201.256 17.761C201.262 17.7993 201.28 17.8347 201.307 17.862C201.334 17.8904 201.37 17.9085 201.409 17.913C201.47 17.913 201.539 17.916 201.624 17.92C201.703 17.925 201.786 17.927 201.862 17.935C201.941 17.9415 202.01 17.9505 202.062 17.9565C202.256 17.9925 202.409 18.0395 202.521 18.102C202.633 18.1635 202.717 18.257 202.767 18.384C202.821 18.515 202.854 18.692 202.869 18.924C202.883 19.152 202.891 19.454 202.886 19.8265V23.0215C202.886 23.138 202.873 23.2285 202.839 23.2925C202.81 23.3598 202.762 23.4177 202.702 23.4595C202.637 23.5079 202.568 23.5504 202.496 23.5865C202.305 23.6884 202.1 23.7617 201.887 23.804C201.655 23.854 201.409 23.888 201.155 23.91C200.902 23.927 200.658 23.935 200.431 23.935C199.854 23.9376 199.279 23.8744 198.716 23.7465C198.15 23.614 197.604 23.4065 197.094 23.1295C196.564 22.8445 196.046 22.4675 195.539 21.9995C195.366 21.84 195.166 21.608 194.938 21.3045C194.713 20.997 194.492 20.6235 194.275 20.187C194.047 19.7116 193.867 19.2146 193.739 18.7035C193.591 18.1107 193.517 17.5022 193.518 16.8915C193.521 16.1715 193.602 15.515 193.761 14.9165C193.92 14.319 194.146 13.797 194.427 13.344C194.709 12.8915 195.037 12.522 195.409 12.239C195.896 11.874 196.374 11.6095 196.836 11.436C197.304 11.266 197.753 11.156 198.186 11.1045C198.592 11.0591 199 11.0387 199.409 11.0435C200.236 11.0475 200.949 11.12 201.549 11.2605C202.147 11.398 202.637 11.5805 203.017 11.7975C203.395 12.015 203.662 12.2435 203.822 12.4785C203.923 12.627 204.002 12.776 204.064 12.935C204.164 13.178 204.228 13.4341 204.256 13.6955C204.256 13.7825 204.264 13.851 204.282 13.9025C204.288 13.9252 204.302 13.9451 204.321 13.9589C204.34 13.9727 204.363 13.9796 204.387 13.9785C204.452 13.982 204.506 13.9535 204.547 13.8955C204.583 13.8415 204.604 13.7355 204.604 13.5865C204.604 13.1275 204.612 12.7435 204.624 12.4365C204.634 12.1265 204.645 11.8765 204.659 11.6885C204.673 11.497 204.683 11.3445 204.695 11.236C204.706 11.127 204.713 11.041 204.713 10.9785C204.714 10.9563 204.711 10.9342 204.703 10.9136C204.695 10.8929 204.682 10.8743 204.666 10.859C204.634 10.823 204.567 10.804 204.474 10.804C204.311 10.804 204.137 10.794 203.949 10.772C203.764 10.754 203.581 10.7298 203.398 10.6995C203.242 10.6711 203.086 10.6411 202.931 10.6095C202.836 10.588 202.687 10.5585 202.489 10.526C202.289 10.4885 202.054 10.457 201.783 10.4245C201.494 10.3894 201.206 10.3619 200.916 10.342C200.61 10.3164 200.303 10.304 199.996 10.305C199.506 10.301 198.978 10.3225 198.412 10.377C197.821 10.4347 197.237 10.5462 196.666 10.71C196.05 10.8892 195.459 11.1473 194.909 11.478C194.464 11.7454 194.056 12.0698 193.695 12.443C193.298 12.8443 192.955 13.2966 192.677 13.788C192.368 14.3224 192.132 14.8958 191.975 15.493C191.805 16.1195 191.717 16.805 191.714 17.543C191.717 18.1195 191.779 18.6735 191.905 19.1985C192.021 19.706 192.193 20.1993 192.417 20.6695C192.631 21.1265 192.874 21.5325 193.145 21.895C193.416 22.2535 193.7 22.558 193.996 22.805C194.506 23.2332 195.07 23.5924 195.673 23.8735C196.257 24.142 196.833 24.3395 197.402 24.472C197.928 24.5935 198.462 24.6792 199 24.7285C199.5 24.7675 199.931 24.7865 200.3 24.7825C200.58 24.7825 200.891 24.7675 201.232 24.7425C201.572 24.7125 201.927 24.6695 202.293 24.604C202.657 24.5417 203.018 24.4576 203.373 24.352C203.715 24.2506 204.047 24.1184 204.366 23.957C204.434 23.9294 204.493 23.8846 204.539 23.827C204.575 23.779 204.6 23.692 204.612 23.564C204.624 23.435 204.626 23.2315 204.626 22.9565V20.8915C204.626 20.5065 204.626 20.163 204.629 19.862C204.629 19.562 204.636 19.265 204.647 18.9785C204.666 18.6565 204.724 18.4135 204.83 18.2535C204.93 18.094 205.111 17.996 205.365 17.9565C205.455 17.9394 205.546 17.926 205.637 17.9165C205.712 17.913 205.782 17.913 205.844 17.913C205.882 17.9092 205.918 17.891 205.945 17.862C205.973 17.8357 205.992 17.7998 205.996 17.761C205.996 17.6965 205.973 17.6565 205.927 17.635ZM190.026 22.043C190.002 22.0409 189.978 22.0451 189.957 22.0552C189.935 22.0653 189.916 22.0809 189.903 22.1005C189.874 22.1445 189.852 22.2185 189.83 22.3255C189.794 22.569 189.739 22.7765 189.667 22.938C189.603 23.0919 189.506 23.2303 189.384 23.344C189.268 23.449 189.126 23.539 188.961 23.609C188.765 23.6786 188.562 23.7246 188.355 23.746C188.12 23.7755 187.889 23.79 187.657 23.7975C187.421 23.8035 187.218 23.8035 187.047 23.8035C186.576 23.8075 186.196 23.786 185.899 23.746C185.602 23.706 185.373 23.6345 185.214 23.529C185.051 23.424 184.93 23.265 184.873 23.08C184.808 22.8845 184.773 22.634 184.765 22.326C184.76 22.1894 184.757 22.0527 184.759 21.916C184.753 21.7205 184.753 21.496 184.753 21.24C184.758 20.983 184.758 20.718 184.758 20.449C184.761 20.181 184.761 19.9355 184.761 19.707C184.765 19.483 184.765 19.3045 184.765 19.1745V17.6315C184.764 17.5992 184.772 17.5673 184.79 17.54C184.808 17.5145 184.841 17.5 184.895 17.5C184.964 17.5 185.091 17.5 185.273 17.5045C185.454 17.5045 185.663 17.5075 185.902 17.5115C186.145 17.5145 186.388 17.5225 186.639 17.531C186.885 17.537 187.113 17.544 187.315 17.551C187.522 17.561 187.679 17.573 187.787 17.5875C188.029 17.616 188.222 17.66 188.355 17.7145C188.49 17.768 188.588 17.833 188.645 17.9095C188.706 17.9825 188.746 18.066 188.766 18.152C188.809 18.272 188.833 18.3815 188.841 18.4815C188.852 18.579 188.855 18.6745 188.852 18.7615C188.852 18.8145 188.863 18.859 188.885 18.8875C188.907 18.9205 188.939 18.935 188.982 18.935C189.047 18.93 189.091 18.89 189.12 18.82C189.145 18.746 189.156 18.667 189.156 18.588C189.156 18.537 189.161 18.4425 189.171 18.3015C189.178 18.159 189.188 18.0045 189.2 17.8375C189.214 17.667 189.229 17.5175 189.244 17.3905C189.268 17.0915 189.301 16.8555 189.338 16.692C189.373 16.53 189.391 16.4205 189.394 16.3695C189.394 16.3155 189.384 16.2755 189.366 16.254C189.356 16.2423 189.344 16.233 189.33 16.2267C189.316 16.2205 189.301 16.2175 189.286 16.218C189.255 16.218 189.214 16.243 189.171 16.286C189.123 16.334 189.069 16.3875 189.004 16.457C188.911 16.551 188.787 16.613 188.635 16.6455C188.447 16.6797 188.258 16.7038 188.068 16.7175C187.975 16.725 187.819 16.732 187.595 16.74C187.37 16.743 187.113 16.751 186.827 16.751C186.54 16.7535 186.254 16.7575 185.975 16.7575C185.695 16.7615 185.457 16.7615 185.258 16.7615H184.873C184.823 16.7615 184.79 16.743 184.78 16.7105C184.765 16.6635 184.76 16.614 184.765 16.565V11.544C184.762 11.4937 184.77 11.4434 184.787 11.396C184.802 11.363 184.83 11.3485 184.873 11.3485C184.921 11.3485 185.037 11.3485 185.214 11.3525C185.392 11.3525 185.602 11.3555 185.845 11.359C186.09 11.363 186.337 11.3665 186.584 11.369C186.834 11.377 187.05 11.3805 187.244 11.3885C187.434 11.396 187.565 11.403 187.634 11.4135C187.978 11.4575 188.239 11.501 188.425 11.552C188.609 11.598 188.74 11.656 188.823 11.7245C188.907 11.7935 188.965 11.877 189.004 11.979C189.047 12.092 189.077 12.2105 189.091 12.3375C189.106 12.46 189.113 12.5585 189.113 12.631C189.113 12.707 189.123 12.7645 189.149 12.8085C189.172 12.8485 189.21 12.8695 189.265 12.8695C189.287 12.8672 189.309 12.8603 189.328 12.8491C189.347 12.8379 189.364 12.8226 189.377 12.8045C189.406 12.7662 189.427 12.7218 189.438 12.6745C189.453 12.5894 189.464 12.5037 189.471 12.4175C189.482 12.3015 189.493 12.181 189.501 12.0475C189.511 11.917 189.518 11.797 189.526 11.689L189.548 11.4575C189.572 11.2 189.605 11.0085 189.641 10.8735C189.678 10.7435 189.697 10.6485 189.7 10.5875C189.7 10.5471 189.694 10.5069 189.682 10.4685C189.667 10.431 189.646 10.413 189.613 10.413C189.568 10.4192 189.524 10.4316 189.482 10.45C189.436 10.4685 189.409 10.4815 189.354 10.496C189.237 10.5216 189.118 10.5411 189 10.5545C188.845 10.576 188.671 10.5945 188.482 10.6085C188.405 10.613 188.244 10.6165 188.003 10.6165C187.761 10.6165 187.471 10.6195 187.134 10.6195C186.798 10.6195 186.449 10.6165 186.088 10.6165C185.722 10.6165 185.381 10.6165 185.062 10.613C184.744 10.613 184.478 10.613 184.272 10.608H183.919C183.885 10.608 183.798 10.6055 183.648 10.6025C183.496 10.5985 183.316 10.595 183.095 10.5875C182.863 10.58 182.631 10.5755 182.399 10.574C182.166 10.5692 181.933 10.5665 181.7 10.566C181.59 10.566 181.515 10.576 181.468 10.6025C181.417 10.624 181.395 10.6635 181.395 10.7175C181.399 10.7566 181.417 10.7929 181.447 10.8195C181.473 10.8489 181.509 10.8671 181.548 10.8705C181.609 10.8705 181.678 10.8705 181.762 10.8775C181.908 10.883 182.054 10.8947 182.2 10.9125C182.406 10.942 182.566 10.9965 182.675 11.0765C182.784 11.1565 182.859 11.269 182.899 11.4095C182.948 11.5808 182.976 11.7574 182.982 11.9355C182.99 12.0475 182.997 12.1705 183.004 12.2975C183.008 12.4275 183.015 12.58 183.015 12.761C183.018 12.942 183.022 13.17 183.022 13.4425C183.027 13.714 183.027 14.052 183.027 14.4525V19.175C183.027 19.7725 183.027 20.324 183.022 20.8345C183.019 21.2886 183.009 21.7426 182.995 22.1965C182.985 22.5237 182.959 22.8503 182.917 23.175C182.891 23.355 182.863 23.515 182.831 23.6565C182.809 23.7763 182.762 23.8901 182.693 23.9905C182.626 24.0792 182.527 24.1378 182.417 24.1535C182.327 24.167 182.229 24.182 182.124 24.2025C182.027 24.2232 181.928 24.2361 181.83 24.241C181.776 24.2425 181.736 24.258 181.714 24.2905C181.691 24.3187 181.678 24.354 181.679 24.3905C181.679 24.4475 181.704 24.487 181.758 24.508C181.808 24.533 181.885 24.543 181.982 24.543C182.139 24.543 182.315 24.54 182.511 24.5305C182.704 24.5222 182.898 24.5122 183.091 24.5005C183.305 24.49 183.486 24.482 183.642 24.482C183.797 24.4785 183.889 24.4785 183.919 24.4785C184.058 24.4785 184.259 24.4785 184.515 24.482C184.773 24.49 185.103 24.5005 185.505 24.522C185.895 24.533 186.37 24.548 186.924 24.5615C187.479 24.5755 188.113 24.588 188.83 24.588C189.073 24.591 189.265 24.583 189.407 24.5705C189.548 24.555 189.652 24.515 189.725 24.4475C189.798 24.3775 189.855 24.264 189.895 24.1095C189.925 24.0075 189.953 23.8635 189.983 23.6845C190.012 23.5045 190.04 23.3145 190.066 23.1205C190.094 22.924 190.113 22.755 190.131 22.6055C190.143 22.5129 190.152 22.4198 190.156 22.3265C190.156 22.259 190.149 22.193 190.131 22.1355C190.113 22.0765 190.079 22.048 190.026 22.0435M215.975 22.135C215.957 22.076 215.923 22.047 215.871 22.0425C215.847 22.0405 215.823 22.0448 215.801 22.055C215.78 22.0652 215.761 22.0808 215.748 22.1005C215.719 22.1445 215.696 22.218 215.674 22.326C215.639 22.5685 215.584 22.776 215.512 22.9375C215.447 23.0915 215.351 23.2299 215.229 23.3435C215.104 23.4553 214.96 23.5449 214.805 23.6085C214.635 23.6735 214.432 23.717 214.2 23.746C213.964 23.775 213.734 23.79 213.502 23.797C213.266 23.8035 213.063 23.8035 212.892 23.8035C212.421 23.8075 212.04 23.786 211.744 23.746C211.447 23.706 211.218 23.634 211.059 23.5285C210.896 23.4235 210.775 23.2648 210.718 23.08C210.652 22.884 210.617 22.6335 210.609 22.326C210.604 22.1894 210.602 22.0527 210.603 21.916C210.598 21.721 210.598 21.496 210.598 21.2395C210.603 20.9825 210.603 20.7175 210.603 20.4495C210.605 20.181 210.605 19.9355 210.605 19.707C210.609 19.4825 210.609 19.3045 210.609 19.174V17.631C210.609 17.5945 210.617 17.566 210.634 17.54C210.652 17.515 210.686 17.5 210.74 17.5C210.809 17.5 210.935 17.5 211.117 17.504C211.298 17.504 211.507 17.507 211.747 17.5115C211.99 17.5145 212.233 17.522 212.483 17.5305C212.729 17.537 212.957 17.5435 213.16 17.551C213.367 17.5615 213.523 17.5725 213.631 17.587C213.874 17.616 214.066 17.66 214.2 17.714C214.335 17.768 214.432 17.8325 214.489 17.9095C214.551 17.982 214.591 18.0655 214.611 18.1515C214.653 18.2715 214.677 18.3815 214.685 18.4815C214.697 18.579 214.7 18.674 214.697 18.762C214.697 18.814 214.708 18.8585 214.729 18.8875C214.751 18.92 214.784 18.935 214.826 18.935C214.892 18.9305 214.936 18.8905 214.964 18.82C214.989 18.746 215.001 18.6665 215.001 18.5875C215.001 18.5375 215.005 18.4425 215.016 18.301C215.022 18.159 215.033 18.004 215.045 17.837C215.058 17.667 215.074 17.5175 215.088 17.3905C215.104 17.1558 215.135 16.9225 215.182 16.692C215.218 16.5295 215.236 16.4205 215.239 16.3695C215.239 16.3155 215.229 16.2755 215.211 16.2545C215.201 16.2426 215.189 16.233 215.175 16.2266C215.161 16.2202 215.146 16.2171 215.131 16.2175C215.099 16.2175 215.058 16.243 215.016 16.286C214.967 16.3335 214.914 16.3875 214.849 16.4565C214.747 16.5542 214.618 16.6198 214.479 16.645C214.33 16.6735 214.142 16.7 213.913 16.717C213.819 16.725 213.664 16.732 213.439 16.7395C213.214 16.743 212.957 16.7505 212.671 16.7505C212.385 16.7535 212.098 16.757 211.82 16.757C211.54 16.761 211.301 16.761 211.102 16.761H210.718C210.668 16.761 210.634 16.743 210.624 16.711C210.609 16.6637 210.604 16.6141 210.609 16.565V11.544C210.609 11.478 210.617 11.428 210.631 11.3955C210.646 11.3625 210.674 11.3485 210.718 11.3485C210.765 11.3485 210.881 11.3485 211.059 11.352C211.236 11.352 211.447 11.3555 211.69 11.359C211.935 11.3625 212.182 11.3665 212.428 11.3695C212.679 11.377 212.895 11.3805 213.088 11.3885C213.279 11.3955 213.41 11.4025 213.479 11.4135C213.823 11.457 214.084 11.5005 214.27 11.5515C214.454 11.598 214.584 11.6555 214.667 11.7245C214.751 11.7935 214.81 11.877 214.849 11.9785C214.892 12.0915 214.921 12.2105 214.936 12.3375C214.95 12.46 214.957 12.5585 214.957 12.631C214.957 12.7065 214.967 12.7645 214.993 12.8085C215.016 12.8485 215.055 12.8695 215.11 12.8695C215.132 12.8671 215.153 12.8601 215.172 12.8489C215.191 12.8377 215.208 12.8225 215.221 12.8045C215.251 12.7661 215.272 12.7217 215.283 12.6745C215.295 12.6165 215.305 12.5295 215.316 12.417C215.327 12.301 215.337 12.181 215.346 12.0475C215.356 11.9165 215.363 11.7975 215.371 11.689L215.393 11.457C215.408 11.2601 215.439 11.0648 215.486 10.873C215.523 10.7435 215.541 10.649 215.545 10.588C215.545 10.5472 215.539 10.5066 215.526 10.468C215.512 10.431 215.491 10.413 215.458 10.413C215.412 10.4174 215.368 10.4299 215.327 10.45C215.269 10.4775 215.255 10.485 215.198 10.496C215.108 10.5135 215.002 10.533 214.844 10.5545C214.69 10.576 214.515 10.595 214.327 10.6085C214.167 10.6147 214.007 10.6174 213.848 10.6165C213.606 10.6165 213.316 10.6195 212.979 10.6195C212.642 10.6195 212.294 10.6165 211.932 10.6165C211.566 10.6165 211.225 10.6165 210.906 10.6125C210.588 10.6125 210.323 10.6125 210.117 10.6085H209.763C209.73 10.6085 209.642 10.6055 209.493 10.602C209.341 10.5985 209.161 10.595 208.94 10.5875C208.708 10.5801 208.476 10.5754 208.244 10.5735C208.011 10.5688 207.778 10.5663 207.545 10.566C207.436 10.566 207.359 10.5765 207.313 10.602C207.261 10.6235 207.24 10.6635 207.24 10.7175C207.244 10.7565 207.262 10.7927 207.291 10.819C207.317 10.8485 207.353 10.8669 207.393 10.8705C207.454 10.8705 207.523 10.8705 207.606 10.8775C207.686 10.881 207.769 10.8845 207.845 10.8925C207.925 10.899 207.995 10.906 208.044 10.913C208.251 10.942 208.411 10.9965 208.519 11.0765C208.628 11.1565 208.704 11.2685 208.744 11.4095C208.787 11.5515 208.816 11.7245 208.827 11.935C208.835 12.0475 208.842 12.1705 208.849 12.2975C208.852 12.4275 208.859 12.58 208.859 12.7605C208.863 12.942 208.867 13.1705 208.867 13.4425C208.872 13.714 208.872 14.0515 208.872 14.453V19.174C208.872 19.7715 208.872 20.323 208.867 20.834C208.863 21.2879 208.854 21.7418 208.839 22.1955C208.824 22.5905 208.798 22.916 208.762 23.174C208.736 23.354 208.708 23.5145 208.676 23.6555C208.654 23.7753 208.607 23.8891 208.538 23.9895C208.505 24.0335 208.463 24.0705 208.416 24.0985C208.368 24.1265 208.316 24.1448 208.262 24.1525C208.172 24.166 208.074 24.1815 207.968 24.2025C207.871 24.2229 207.773 24.2354 207.674 24.24C207.621 24.242 207.58 24.257 207.559 24.29C207.535 24.3182 207.523 24.3538 207.523 24.3905C207.523 24.4465 207.548 24.486 207.602 24.507C207.652 24.5325 207.729 24.5425 207.827 24.5425C207.984 24.5425 208.16 24.5395 208.356 24.5295C208.555 24.521 208.747 24.511 208.936 24.4995C209.149 24.4895 209.331 24.481 209.487 24.481C209.642 24.478 209.733 24.478 209.763 24.478C209.902 24.478 210.103 24.478 210.359 24.481C210.689 24.4904 211.019 24.5037 211.349 24.521C211.74 24.5325 212.214 24.547 212.769 24.561C213.324 24.575 213.957 24.587 214.675 24.587C214.918 24.59 215.11 24.5825 215.252 24.5695C215.393 24.5545 215.497 24.5145 215.569 24.4465C215.642 24.3765 215.7 24.2635 215.74 24.1085C215.769 24.0065 215.798 23.8625 215.827 23.6845C215.856 23.5035 215.885 23.3145 215.91 23.12C215.939 22.923 215.957 22.754 215.975 22.605C215.993 22.457 216 22.363 216 22.326C216.001 22.2612 215.993 22.1972 215.975 22.135ZM155.338 20.079C155.167 20.739 154.934 21.3 154.642 21.7605C154.352 22.2215 154.022 22.602 153.659 22.899C153.318 23.1799 152.939 23.4116 152.533 23.5875C152.145 23.7505 151.771 23.866 151.406 23.931C151.045 23.9925 150.718 24.026 150.427 24.022C149.557 24.018 148.757 23.855 148.026 23.533C147.293 23.212 146.64 22.736 146.109 22.138C145.565 21.526 145.144 20.794 144.841 19.9305C144.54 19.069 144.389 18.102 144.385 17.022C144.389 16.0145 144.527 15.1385 144.795 14.3845C145.065 13.631 145.446 13.0045 145.935 12.5045C146.425 12.0033 147.02 11.6171 147.678 11.3735C148.345 11.1235 149.083 11.001 149.885 11.001C150.494 11.001 151.077 11.091 151.638 11.2765C152.203 11.4605 152.724 11.7365 153.202 12.1015C153.695 12.4823 154.12 12.9428 154.461 13.464C154.82 14.0075 155.098 14.638 155.297 15.355C155.496 16.072 155.598 16.8735 155.601 17.7605C155.598 18.649 155.511 19.4235 155.338 20.079ZM155.391 12.1555C154.706 11.558 153.909 11.099 152.994 10.7835C152.077 10.4675 151.077 10.3085 149.994 10.3055C149.113 10.308 148.315 10.4175 147.598 10.631C146.881 10.8485 146.239 11.1415 145.678 11.516C145.134 11.8738 144.643 12.305 144.218 12.7975C143.817 13.2637 143.476 13.7772 143.201 14.3265C142.939 14.8439 142.738 15.3896 142.601 15.953C142.476 16.4671 142.411 16.9939 142.407 17.523C142.407 18.079 142.468 18.645 142.598 19.2145C142.726 19.7921 142.922 20.3527 143.182 20.8845C143.446 21.4312 143.783 21.9404 144.182 22.3985C144.597 22.8795 145.08 23.2969 145.617 23.6375C146.171 23.995 146.801 24.276 147.512 24.474C148.222 24.6775 149.011 24.778 149.885 24.782C150.808 24.778 151.663 24.6485 152.453 24.395C153.239 24.1375 153.95 23.779 154.576 23.315C155.199 22.8611 155.742 22.3077 156.185 21.677C156.63 21.045 156.973 20.3474 157.202 19.6095C157.439 18.8595 157.557 18.0695 157.557 17.238C157.551 16.1605 157.359 15.193 156.982 14.3405C156.6 13.486 156.072 12.7565 155.391 12.1555ZM140.42 21.195C140.357 21.195 140.314 21.213 140.289 21.2535C140.264 21.293 140.243 21.3585 140.223 21.457C140.202 21.577 140.158 21.731 140.098 21.9195C140.028 22.1162 139.944 22.3078 139.847 22.493C139.75 22.6782 139.628 22.8488 139.484 23C139.246 23.2421 138.962 23.4341 138.648 23.5645C138.318 23.6949 137.971 23.779 137.618 23.8145C137.238 23.8545 136.811 23.873 136.333 23.871C135.514 23.867 134.753 23.747 134.048 23.5155C133.344 23.2785 132.706 22.953 132.141 22.5325C131.584 22.1208 131.095 21.6245 130.692 21.0615C130.291 20.5026 129.978 19.8858 129.764 19.2325C129.551 18.567 129.442 17.8723 129.442 17.1735C129.436 16.5734 129.48 15.9739 129.572 15.381C129.663 14.8197 129.836 14.275 130.087 13.7645C130.336 13.2545 130.692 12.7835 131.159 12.349C131.38 12.134 131.67 11.9285 132.029 11.736C132.387 11.54 132.847 11.381 133.406 11.2575C133.964 11.1335 134.648 11.07 135.464 11.0655C136.032 11.0655 136.557 11.113 137.043 11.2035C137.529 11.2935 137.956 11.417 138.326 11.5695C138.698 11.7245 138.996 11.8945 139.224 12.088C139.391 12.2175 139.536 12.3845 139.654 12.5805C139.777 12.7807 139.87 12.9981 139.931 13.2255C139.996 13.4565 140.029 13.6925 140.029 13.9345C140.029 14.0655 140.035 14.163 140.057 14.2285C140.076 14.294 140.119 14.327 140.18 14.327C140.235 14.327 140.283 14.298 140.321 14.2365C140.361 14.1745 140.388 14.0725 140.398 13.9345C140.407 13.8287 140.411 13.7226 140.412 13.6165C140.415 13.4715 140.415 13.305 140.42 13.1195C140.423 12.9345 140.427 12.747 140.427 12.5585C140.43 12.37 140.438 12.2005 140.441 12.0435C140.455 11.8225 140.471 11.6425 140.485 11.5075C140.495 11.3735 140.507 11.266 140.517 11.188C140.525 11.113 140.528 11.048 140.528 11.0005C140.53 10.9755 140.527 10.9505 140.519 10.9268C140.511 10.9031 140.499 10.8812 140.482 10.8625C140.449 10.8235 140.384 10.8045 140.289 10.8045C139.972 10.7898 139.657 10.7561 139.344 10.7035C139.006 10.647 138.67 10.5865 138.334 10.522C138.018 10.472 137.695 10.432 137.367 10.3995C136.763 10.3381 136.157 10.3066 135.551 10.305C134.576 10.308 133.725 10.4 132.993 10.57C132.261 10.744 131.626 10.9785 131.094 11.276C130.561 11.5725 130.104 11.91 129.724 12.2835C129.304 12.7005 128.953 13.1335 128.674 13.5945C128.406 14.0255 128.185 14.4835 128.014 14.961C127.852 15.4135 127.739 15.841 127.669 16.2465C127.606 16.653 127.573 17.0115 127.573 17.3265C127.565 17.9165 127.63 18.533 127.761 19.1705C127.89 19.8085 128.127 20.438 128.463 21.0615C128.805 21.6815 129.284 22.2655 129.898 22.8055C130.4 23.2435 130.96 23.6112 131.561 23.8985C132.173 24.1915 132.863 24.41 133.626 24.558C134.39 24.7065 135.25 24.783 136.202 24.783C136.622 24.783 137.047 24.768 137.474 24.743C137.882 24.7196 138.288 24.6762 138.692 24.613C139.072 24.5515 139.395 24.472 139.659 24.37C139.768 24.33 139.847 24.287 139.905 24.2465C139.96 24.206 140.006 24.154 140.039 24.094C140.079 24.0077 140.112 23.9182 140.137 23.8265C140.178 23.6965 140.217 23.539 140.261 23.351C140.348 22.9586 140.424 22.5638 140.488 22.167C140.521 21.977 140.547 21.818 140.565 21.691C140.583 21.565 140.593 21.4855 140.593 21.457C140.594 21.3921 140.575 21.3285 140.538 21.275C140.507 21.2245 140.467 21.2 140.42 21.195ZM104.631 21.043C104.558 21.04 104.505 21.068 104.471 21.124C104.439 21.1785 104.414 21.276 104.392 21.413C104.364 21.5487 104.322 21.681 104.266 21.8075C104.207 21.9525 104.131 22.0975 104.041 22.242C103.952 22.3869 103.851 22.5244 103.74 22.653C103.507 22.9194 103.22 23.1339 102.899 23.2825C102.587 23.4245 102.226 23.5185 101.813 23.5645C101.399 23.6125 100.91 23.6345 100.349 23.631C99.8305 23.631 99.2935 23.5475 98.7435 23.377C98.1759 23.2016 97.6365 22.9453 97.142 22.616C96.627 22.276 96.1635 21.8445 95.75 21.33C95.3375 20.811 95.008 20.206 94.7655 19.5115C94.5225 18.8145 94.399 18.03 94.3925 17.153C94.3876 16.557 94.4348 15.9617 94.5335 15.374C94.6308 14.8033 94.8114 14.2501 95.0695 13.732C95.323 13.218 95.685 12.757 96.1525 12.348C96.4379 12.1031 96.7581 11.9019 97.1025 11.751C97.45 11.595 97.841 11.4825 98.2755 11.4095C98.7105 11.3375 99.207 11.3045 99.762 11.3045C100.646 11.3085 101.399 11.4135 102.026 11.6135C102.654 11.8075 103.128 12.07 103.457 12.391C103.691 12.6249 103.875 12.9037 103.998 13.2105C104.12 13.5115 104.185 13.812 104.196 14.1085C104.196 14.2295 104.212 14.326 104.237 14.396C104.248 14.4275 104.269 14.4545 104.297 14.4733C104.325 14.4921 104.358 14.5016 104.392 14.5005C104.479 14.4965 104.541 14.453 104.581 14.369C104.62 14.287 104.643 14.178 104.653 14.0435C104.66 13.9485 104.664 13.82 104.668 13.6585L104.679 13.1345C104.682 12.942 104.685 12.751 104.693 12.5625C104.701 12.37 104.708 12.2 104.719 12.0435C104.732 11.8265 104.746 11.656 104.761 11.522C104.773 11.3915 104.783 11.2865 104.793 11.211C104.801 11.131 104.805 11.07 104.805 11.022C104.806 10.9956 104.802 10.9692 104.791 10.9448C104.781 10.9204 104.766 10.8986 104.746 10.881C104.704 10.842 104.631 10.815 104.523 10.8045C104.222 10.7671 103.922 10.7214 103.623 10.6675C103.286 10.608 102.947 10.5523 102.609 10.5005C102.329 10.4645 102.049 10.4317 101.769 10.402C101.476 10.3693 101.183 10.3453 100.889 10.33C100.535 10.3119 100.181 10.3035 99.827 10.305C98.881 10.305 98.037 10.385 97.2975 10.54C96.559 10.696 95.8995 10.92 95.3195 11.214C94.7564 11.4928 94.2327 11.845 93.762 12.2615C93.3095 12.6705 92.935 13.1055 92.642 13.5615C92.3626 13.9907 92.1328 14.4503 91.957 14.9315C91.8035 15.3533 91.6897 15.7885 91.617 16.2315C91.552 16.6415 91.5185 17.0075 91.522 17.326C91.5206 17.9497 91.5877 18.5718 91.722 19.181C91.86 19.819 92.1065 20.443 92.454 21.058C92.8015 21.674 93.291 22.25 93.914 22.783C94.4863 23.2603 95.1241 23.653 95.808 23.949C96.5121 24.2481 97.2493 24.4625 98.004 24.5875C98.784 24.7205 99.609 24.786 100.479 24.7825C100.899 24.7825 101.323 24.767 101.758 24.742C102.166 24.7199 102.572 24.6769 102.975 24.613C103.355 24.5515 103.678 24.4715 103.935 24.369C104.095 24.3115 104.207 24.242 104.276 24.1705C104.345 24.0975 104.399 23.9825 104.436 23.8255C104.476 23.6965 104.516 23.539 104.554 23.347C104.638 22.949 104.706 22.5478 104.758 22.1445C104.787 21.953 104.809 21.7865 104.824 21.6495C104.841 21.5115 104.849 21.417 104.849 21.3695C104.847 21.2923 104.827 21.2165 104.79 21.149C104.774 21.1195 104.752 21.0944 104.724 21.0759C104.696 21.0574 104.664 21.0461 104.631 21.043ZM42.778 24.1525C42.681 24.1525 42.5755 24.1485 42.456 24.145C42.3402 24.1415 42.2245 24.1344 42.109 24.1235C42.0058 24.1151 41.9029 24.1028 41.8005 24.0865C41.6155 24.0585 41.471 24.0065 41.3655 23.935C41.2642 23.8625 41.1862 23.7621 41.141 23.646C41.0883 23.5081 41.0542 23.3638 41.0395 23.217C41.0072 22.8848 40.9867 22.5516 40.978 22.218C40.967 21.815 40.9605 21.3555 40.956 20.84C40.9525 20.327 40.9525 19.772 40.9525 19.174V14.485C40.9525 14.09 40.9525 13.7615 40.956 13.493C40.956 13.225 40.9605 13.0005 40.9635 12.823C40.9635 12.7205 40.9655 12.6265 40.9685 12.54L40.971 12.4715H40.9725L40.976 12.363L40.984 12.2265L40.985 12.176C40.987 12.103 40.989 12.0375 40.9905 12.009C41.0065 11.685 41.065 11.447 41.1685 11.292C41.219 11.216 41.287 11.155 41.374 11.107L41.382 11.103C41.392 11.098 41.402 11.093 41.412 11.089L41.4125 11.0885L41.446 11.0735C41.4565 11.0695 41.467 11.0645 41.4785 11.0605L41.4925 11.055C41.5207 11.0441 41.5493 11.0341 41.578 11.025C41.7365 10.979 41.8998 10.952 42.0645 10.9445C42.1338 10.9411 42.2032 10.9391 42.2725 10.9385L42.2785 10.938H42.282L42.292 10.9375L42.329 10.9365C42.3852 10.9352 42.4404 10.9227 42.4915 10.8995C42.5082 10.892 42.5231 10.8813 42.5355 10.868L42.5385 10.8655C42.5775 10.8245 42.587 10.7635 42.587 10.7095C42.5871 10.6858 42.579 10.6628 42.564 10.6445C42.5391 10.617 42.5068 10.5974 42.471 10.588C42.3965 10.563 42.287 10.551 42.1415 10.55C42.078 10.55 42.012 10.551 41.9445 10.552C41.8255 10.553 41.7005 10.5555 41.5685 10.557C41.3904 10.5598 41.2122 10.5636 41.034 10.5685L40.8685 10.573C40.633 10.5805 40.419 10.584 40.219 10.588L39.95 10.593C39.87 10.5945 39.799 10.595 39.7375 10.595H39.5625C39.5015 10.595 39.4305 10.5945 39.3505 10.593L39.0815 10.588C38.8815 10.584 38.667 10.5805 38.432 10.573L38.2665 10.568C38.0875 10.563 37.9095 10.56 37.732 10.5575C37.6 10.5555 37.475 10.5525 37.3555 10.552L37.159 10.55C37.013 10.551 36.904 10.5635 36.8295 10.588C36.7937 10.5977 36.7613 10.6173 36.736 10.6445C36.7213 10.6629 36.7134 10.6859 36.7135 10.7095L36.714 10.714L36.7135 10.717C36.7135 10.756 36.72 10.7885 36.7315 10.816L36.7355 10.8255C36.7396 10.8341 36.7447 10.8424 36.7505 10.85C36.754 10.855 36.7575 10.861 36.762 10.865L36.765 10.868C36.7733 10.8774 36.7829 10.8857 36.7935 10.8925C36.798 10.8955 36.804 10.897 36.8085 10.8995C36.8598 10.9227 36.9153 10.9352 36.9715 10.9365L37.008 10.9375H37.022L37.0275 10.9385C37.07 10.9385 37.1115 10.9395 37.1535 10.9405C37.1815 10.9415 37.209 10.9425 37.236 10.9445C37.4008 10.9522 37.5641 10.9794 37.7225 11.0255C37.752 11.0345 37.7805 11.0445 37.808 11.055C37.813 11.057 37.8175 11.059 37.822 11.06L37.8545 11.074C37.8762 11.0825 37.8974 11.0922 37.918 11.103L37.9265 11.1075C37.9745 11.1325 38.019 11.1605 38.058 11.1915C38.149 11.265 38.2205 11.366 38.2675 11.4965C38.318 11.624 38.3515 11.79 38.3655 11.9995C38.372 12.1794 38.3768 12.3594 38.38 12.5395L38.382 12.714L38.384 12.823C38.384 13.0005 38.387 13.225 38.387 13.493V19.173C38.387 19.7715 38.387 20.3265 38.384 20.8395C38.3814 21.2962 38.3741 21.7529 38.362 22.2095C38.3557 22.5385 38.3352 22.8672 38.3005 23.1945C38.2715 23.4635 38.2205 23.6705 38.141 23.8115C38.0615 23.9525 37.9275 24.0455 37.7355 24.086C37.648 24.108 37.55 24.126 37.438 24.1375C37.313 24.1482 37.1875 24.153 37.062 24.152C36.9455 24.155 36.862 24.177 36.8195 24.2165C36.775 24.2565 36.7535 24.3005 36.7575 24.348C36.7575 24.413 36.79 24.459 36.851 24.493C36.9175 24.525 37.0075 24.5425 37.1265 24.5425C37.323 24.5425 37.5365 24.5395 37.779 24.532C38.0175 24.525 38.257 24.517 38.5 24.5105C38.739 24.5035 38.96 24.4965 39.159 24.4885C39.3585 24.481 39.5145 24.478 39.626 24.478C39.8045 24.478 40.0575 24.4855 40.3805 24.4965C40.7035 24.5065 41.0645 24.515 41.467 24.525C41.8735 24.535 42.2895 24.5425 42.714 24.5425C42.826 24.5425 42.9135 24.525 42.978 24.4935C43.0465 24.4585 43.079 24.413 43.083 24.348C43.083 24.3005 43.0615 24.2565 43.01 24.2165C42.964 24.1775 42.887 24.155 42.778 24.1515M57.277 12.015C57.2408 11.8153 57.2022 11.6161 57.161 11.4175C57.121 11.2215 57.089 11.0545 57.057 10.913C57.027 10.7755 57.009 10.6855 56.998 10.653C56.9864 10.5843 56.9683 10.5168 56.944 10.4515C56.9358 10.4297 56.9262 10.4084 56.915 10.388C56.8785 10.3335 56.8355 10.305 56.7805 10.305C56.7085 10.308 56.614 10.337 56.4915 10.388C56.368 10.4395 56.1905 10.4855 55.955 10.522C55.6456 10.5559 55.3351 10.5789 55.024 10.591C54.6905 10.602 54.3605 10.6085 54.0425 10.6085H47.4775C47.159 10.6085 46.8295 10.602 46.496 10.591C46.1848 10.5789 45.8741 10.5559 45.5645 10.522C45.329 10.4855 45.1515 10.4395 45.028 10.388C44.9055 10.337 44.8115 10.308 44.739 10.305C44.6845 10.305 44.6415 10.3335 44.6045 10.388C44.5945 10.406 44.585 10.428 44.5755 10.4515C44.5513 10.5166 44.5333 10.5839 44.5215 10.6525C44.5105 10.6855 44.4925 10.7755 44.463 10.913C44.4305 11.0545 44.3985 11.2215 44.3585 11.417L44.3175 11.622C44.2915 11.752 44.266 11.882 44.2425 12.0145C44.2025 12.2175 44.174 12.3985 44.1485 12.5545C44.123 12.7145 44.1085 12.826 44.1085 12.8915C44.1085 12.9895 44.119 13.065 44.1485 13.1165C44.174 13.167 44.2165 13.1965 44.2825 13.1965C44.311 13.1971 44.3393 13.1916 44.3655 13.1805C44.3888 13.1708 44.4087 13.1546 44.423 13.134C44.461 13.081 44.487 13.0205 44.499 12.9565C44.5215 12.888 44.554 12.8005 44.6045 12.6885C44.6656 12.5607 44.7397 12.4396 44.8255 12.327C44.917 12.189 45.036 12.08 45.1845 11.9995C45.333 11.9205 45.525 11.8625 45.7645 11.8265C45.9665 11.793 46.2165 11.7745 46.511 11.765L46.6735 11.761L49.4335 11.6975L49.5215 11.6955V19.174C49.5215 19.743 49.5215 20.275 49.5175 20.7755C49.5147 21.2223 49.5075 21.6692 49.496 22.116C49.4889 22.4475 49.4682 22.7786 49.434 23.1085C49.4055 23.3805 49.3545 23.6015 49.2745 23.7685C49.2371 23.8499 49.1808 23.9213 49.1102 23.9767C49.0397 24.032 48.9571 24.0699 48.869 24.087C48.7754 24.1122 48.6797 24.1293 48.583 24.138C48.454 24.1489 48.3245 24.1539 48.195 24.153C48.079 24.1555 47.9955 24.178 47.9525 24.217C47.9085 24.257 47.887 24.301 47.891 24.3475C47.891 24.413 47.9235 24.4595 47.985 24.493C48.033 24.517 48.0955 24.5335 48.173 24.5395C48.2005 24.542 48.2295 24.543 48.2605 24.543C48.456 24.543 48.6695 24.5395 48.9125 24.533L49.633 24.511C49.8765 24.504 50.0935 24.4965 50.2925 24.489C50.4298 24.4834 50.5672 24.48 50.7045 24.479C50.723 24.478 50.741 24.478 50.7575 24.478H50.762L50.815 24.4785C50.994 24.4795 51.228 24.487 51.521 24.4965C51.844 24.507 52.206 24.5145 52.608 24.5255C52.85 24.5315 53.0965 24.536 53.3465 24.5395C53.512 24.5415 53.6785 24.543 53.8475 24.543C53.9595 24.543 54.0465 24.5255 54.1155 24.493C54.1805 24.4595 54.216 24.413 54.216 24.348C54.216 24.301 54.1945 24.257 54.148 24.217C54.0965 24.178 54.0205 24.1555 53.912 24.1525C53.8185 24.1525 53.709 24.149 53.59 24.1445C53.4738 24.1413 53.3578 24.1341 53.242 24.123C53.139 24.1146 53.0363 24.1026 52.934 24.087C52.7495 24.0575 52.6045 24 52.5065 23.916C52.4037 23.8315 52.3282 23.7184 52.2895 23.591C52.2416 23.4411 52.2098 23.2866 52.1945 23.13C52.1615 22.7951 52.1401 22.4593 52.1305 22.123C52.1111 21.674 52.0987 21.2248 52.0935 20.7755C52.09 20.2755 52.086 19.743 52.086 19.174V11.6975L54.846 11.761L55.0085 11.765C55.303 11.775 55.553 11.793 55.7555 11.8265C55.9945 11.8625 56.1865 11.9205 56.335 11.9995C56.484 12.08 56.603 12.1895 56.694 12.327C56.8389 12.5162 56.9494 12.7295 57.0205 12.957C57.0331 13.0207 57.059 13.081 57.0965 13.134C57.111 13.1545 57.1309 13.1706 57.154 13.1805C57.1803 13.1916 57.2086 13.1971 57.237 13.1965C57.2649 13.198 57.2926 13.1913 57.3165 13.177C57.3405 13.1628 57.3596 13.1417 57.3715 13.1165C57.401 13.065 57.4115 12.9895 57.4115 12.8915C57.4115 12.8265 57.3965 12.7145 57.3715 12.5545C57.3455 12.3985 57.317 12.2175 57.277 12.0145M74.9125 24.1525H74.904C74.797 24.1513 74.69 24.1486 74.583 24.1445C74.4672 24.1417 74.3514 24.1347 74.236 24.1235C74.1359 24.1149 74.036 24.103 73.9365 24.088L73.9275 24.0865C73.8878 24.0809 73.8485 24.0732 73.8095 24.0635L73.794 24.06L73.784 24.0585C73.6806 24.0339 73.5821 23.9922 73.4925 23.935C73.391 23.8623 73.313 23.7615 73.268 23.645C73.2155 23.5074 73.1814 23.3635 73.1665 23.217C73.1342 22.885 73.1138 22.5519 73.1055 22.2185C73.094 21.815 73.0875 21.3555 73.0835 20.84C73.0795 20.327 73.0795 19.772 73.0795 19.174V14.486C73.0795 14.091 73.0795 13.761 73.0835 13.494L73.084 13.318C73.085 13.1255 73.0885 12.9605 73.0905 12.823V12.8145C73.0905 12.716 73.093 12.624 73.0955 12.5395L73.098 12.4725H73.0995L73.1035 12.3635L73.111 12.227L73.1125 12.1765L73.113 12.164C73.1145 12.096 73.116 12.037 73.118 12.009C73.134 11.685 73.192 11.447 73.2955 11.292C73.3481 11.215 73.4187 11.152 73.501 11.1085L73.5095 11.103L73.5395 11.09L73.54 11.0895C73.5505 11.084 73.562 11.0795 73.573 11.0745C73.584 11.0695 73.594 11.0645 73.6055 11.061L73.6195 11.056C73.6478 11.0447 73.6764 11.0347 73.7055 11.026C73.7185 11.022 73.7325 11.019 73.746 11.0155C73.8916 10.976 74.0409 10.9524 74.1915 10.945H74.1945L74.274 10.941C74.3155 10.94 74.3575 10.9385 74.3995 10.9385H74.406C74.51 10.9385 74.6505 10.927 74.696 10.817C74.7086 10.7851 74.7147 10.7512 74.714 10.717V10.71C74.7143 10.6862 74.7062 10.6632 74.691 10.645C74.6812 10.6329 74.6693 10.6226 74.656 10.6145C74.6379 10.6034 74.6184 10.5948 74.598 10.589C74.5235 10.564 74.4145 10.5515 74.2685 10.5505L74.072 10.552C73.9525 10.5535 73.8275 10.5565 73.6955 10.5585C73.4622 10.5607 73.2288 10.5656 72.9955 10.573C72.76 10.5805 72.546 10.584 72.346 10.589L72.077 10.5935C71.997 10.595 71.9265 10.5955 71.8645 10.5955H71.69C71.6285 10.5955 71.5575 10.595 71.4775 10.5935L71.2085 10.5885C71.0085 10.5835 70.7945 10.5805 70.559 10.573C70.3258 10.5656 70.0924 10.5607 69.859 10.5585C69.727 10.5565 69.602 10.5535 69.483 10.552L69.286 10.5505C69.2083 10.5502 69.1306 10.5552 69.0535 10.5655C69.0206 10.5705 68.9882 10.5784 68.9565 10.589C68.9208 10.5982 68.8884 10.6176 68.8635 10.645C68.8573 10.6529 68.852 10.6616 68.848 10.671C68.815 10.7505 68.8615 10.862 68.936 10.9005C68.9871 10.9237 69.0425 10.936 69.0985 10.9365C69.1105 10.9375 69.123 10.9375 69.135 10.938H69.155C69.197 10.938 69.239 10.94 69.281 10.941L69.3635 10.945C69.5281 10.9538 69.6911 10.9812 69.8495 11.0265C69.8795 11.0355 69.9075 11.045 69.9355 11.056L69.949 11.061C69.9605 11.065 69.9705 11.07 69.9815 11.0745C69.9925 11.0795 70.004 11.084 70.0145 11.0895L70.045 11.103C70.1266 11.1422 70.1995 11.1972 70.2595 11.2649C70.3196 11.3325 70.3657 11.4114 70.395 11.497C70.445 11.624 70.4785 11.7905 70.4925 11.9995C70.4989 12.1794 70.5038 12.3594 70.507 12.5395L70.5095 12.7145L70.511 12.823C70.511 13.0005 70.514 13.2255 70.514 13.494V16.458C70.514 16.5115 70.5 16.544 70.4785 16.562C70.4578 16.5783 70.4324 16.5874 70.406 16.588H63.189C63.1568 16.5888 63.125 16.5797 63.098 16.562C63.0868 16.5534 63.078 16.542 63.0725 16.529C63.0627 16.5061 63.0581 16.4813 63.059 16.4565V14.33C63.059 13.871 63.0625 13.494 63.0625 13.1995C63.0639 12.9627 63.0686 12.726 63.0765 12.4895C63.0835 12.306 63.091 12.142 63.1015 11.9995C63.116 11.6785 63.1785 11.4435 63.2795 11.287C63.371 11.153 63.519 11.0645 63.728 11.018C63.8275 10.9905 63.93 10.9705 64.039 10.957L64.1355 10.948L64.184 10.945L64.2665 10.941C64.3085 10.94 64.3505 10.9385 64.3925 10.9385H64.402L64.412 10.938C64.4245 10.9375 64.437 10.9375 64.4485 10.9365C64.541 10.9315 64.6495 10.9115 64.689 10.8165C64.7012 10.7849 64.7074 10.7513 64.707 10.7175L64.7065 10.715V10.711L64.707 10.71C64.707 10.6966 64.7043 10.6833 64.699 10.671C64.6954 10.6616 64.6904 10.6528 64.684 10.645C64.6591 10.6176 64.6268 10.5982 64.591 10.589C64.516 10.564 64.407 10.5515 64.261 10.5505L64.0645 10.552C63.9455 10.5535 63.8205 10.5565 63.688 10.5585C63.4548 10.5607 63.2217 10.5656 62.9885 10.573C62.753 10.5805 62.539 10.584 62.339 10.589L62.07 10.5935C61.99 10.595 61.919 10.5955 61.8575 10.5955H61.6825C61.621 10.5955 61.5505 10.595 61.4705 10.5935L61.2015 10.5885C61.0015 10.5835 60.787 10.5805 60.552 10.573C60.3188 10.5656 60.0854 10.5607 59.852 10.5585C59.7195 10.5565 59.5945 10.5535 59.4755 10.552L59.279 10.5505C59.1865 10.5505 59.109 10.557 59.045 10.567C59.0124 10.5711 58.9803 10.5785 58.949 10.589C58.9133 10.5983 58.881 10.6178 58.856 10.645C58.8411 10.6633 58.8331 10.6863 58.8335 10.71V10.7175C58.8335 10.7565 58.84 10.789 58.8515 10.817C58.867 10.854 58.8925 10.882 58.9285 10.9005C58.9798 10.9237 59.0353 10.936 59.0915 10.9365C59.103 10.9375 59.116 10.9375 59.128 10.938H59.1475C59.19 10.938 59.2315 10.94 59.2735 10.941L59.356 10.945C59.5206 10.9538 59.6836 10.9811 59.842 11.0265C59.872 11.0355 59.9005 11.045 59.928 11.056L59.942 11.061C59.953 11.065 59.9635 11.07 59.974 11.0745C59.9855 11.0795 59.9965 11.084 60.0075 11.0895L60.038 11.103L60.0465 11.108C60.0945 11.133 60.1385 11.1615 60.178 11.1925C60.2685 11.266 60.3405 11.3665 60.3875 11.497C60.438 11.624 60.471 11.7905 60.4855 11.9995C60.4895 12.1125 60.493 12.2365 60.496 12.363C60.498 12.4165 60.4985 12.476 60.4995 12.5395L60.502 12.7145L60.504 12.823C60.504 13.0005 60.507 13.2255 60.507 13.494V19.174C60.507 19.772 60.507 20.327 60.504 20.84C60.5012 21.2967 60.4938 21.7534 60.482 22.21C60.4754 22.539 60.4549 22.8676 60.4205 23.195C60.391 23.464 60.3405 23.671 60.261 23.8115C60.181 23.953 60.0475 24.046 59.8555 24.0865C59.768 24.1085 59.67 24.1265 59.558 24.1385C59.449 24.1485 59.3225 24.1525 59.1815 24.1525C59.0655 24.156 58.982 24.1785 58.9395 24.217C58.895 24.257 58.8735 24.3015 58.8775 24.3485C58.8775 24.4135 58.91 24.4595 58.971 24.4935C59.037 24.5255 59.1265 24.543 59.245 24.543H59.2465C59.4425 24.543 59.656 24.5395 59.899 24.533C60.1375 24.5255 60.377 24.518 60.62 24.5115L61.279 24.4895C61.4595 24.482 61.604 24.4785 61.713 24.4785H61.746C61.9245 24.4785 62.1775 24.486 62.5 24.497C62.823 24.507 63.1845 24.5155 63.587 24.5255L63.8415 24.532L63.942 24.534C64.2135 24.539 64.485 24.542 64.7565 24.543H64.8335C64.946 24.543 65.033 24.5255 65.098 24.494C65.1665 24.459 65.199 24.4135 65.203 24.3485C65.203 24.3015 65.1815 24.257 65.1295 24.217C65.0835 24.1785 65.007 24.156 64.898 24.152C64.801 24.152 64.6955 24.1485 64.5755 24.1445C64.4597 24.1417 64.3439 24.1347 64.2285 24.1235C64.1254 24.1154 64.0227 24.1031 63.9205 24.0865C63.8297 24.0737 63.7406 24.0512 63.6545 24.0195C63.5947 23.9987 63.5379 23.9701 63.4855 23.9345C63.3841 23.862 63.306 23.7616 63.2605 23.6455C63.2082 23.5077 63.1741 23.3636 63.159 23.217C63.1272 22.8849 63.1068 22.5519 63.098 22.2185L63.0885 21.8075C63.078 21.501 63.071 21.1675 63.065 20.8085C63.0625 20.315 63.059 19.783 63.059 19.218V17.805C63.059 17.779 63.064 17.76 63.0725 17.745C63.0782 17.7337 63.0871 17.7243 63.098 17.718C63.1261 17.7032 63.1574 17.6958 63.189 17.6965H70.406C70.431 17.6965 70.4525 17.7065 70.4785 17.725C70.4899 17.7347 70.499 17.7468 70.5051 17.7605C70.5113 17.7741 70.5143 17.789 70.514 17.804V19.1735L70.5135 20.2385C70.513 20.4435 70.5125 20.645 70.511 20.8395V20.8865C70.509 21.1305 70.5065 21.3615 70.503 21.579C70.4995 21.804 70.495 22.014 70.4895 22.21C70.4831 22.539 70.4624 22.8677 70.4275 23.195C70.3985 23.4635 70.3475 23.67 70.268 23.811C70.1885 23.9525 70.0545 24.0455 69.863 24.086C69.7651 24.1104 69.6655 24.1278 69.565 24.138H69.5615C69.4535 24.148 69.328 24.152 69.189 24.152C69.0725 24.1555 68.989 24.178 68.9465 24.2165C68.902 24.2565 68.8805 24.301 68.885 24.348C68.885 24.413 68.9175 24.459 68.9785 24.493C69.0002 24.5032 69.0228 24.5114 69.046 24.5175C69.1025 24.5345 69.1705 24.5425 69.2535 24.5425H69.273C69.4645 24.5425 69.671 24.539 69.906 24.5325C70.145 24.525 70.3845 24.5175 70.627 24.511L71.286 24.489C71.4855 24.481 71.6415 24.478 71.7535 24.478H71.7715C71.9485 24.478 72.195 24.486 72.5075 24.4965C72.8305 24.5065 73.1915 24.515 73.594 24.525L73.872 24.532C74.1883 24.5383 74.5047 24.5417 74.821 24.542H74.841C74.953 24.542 75.0405 24.525 75.1055 24.4935L75.1405 24.472C75.1612 24.4583 75.1783 24.44 75.1903 24.4184C75.2024 24.3968 75.2092 24.3727 75.21 24.348C75.21 24.301 75.189 24.2565 75.137 24.2165C75.092 24.179 75.0175 24.1565 74.9125 24.1515M115.304 18.84C115.293 18.8585 115.264 18.87 115.221 18.87H111.525C111.492 18.87 111.467 18.8585 111.452 18.837C111.438 18.8145 111.438 18.783 111.46 18.741L113.308 14.0655C113.308 14.0655 113.35 13.964 113.366 13.9305C113.372 13.9185 113.377 13.9085 113.383 13.9015C113.386 13.8978 113.39 13.8949 113.395 13.8931C113.4 13.8913 113.405 13.8905 113.41 13.891C113.416 13.891 113.426 13.892 113.434 13.8995C113.444 13.9095 113.449 13.922 113.452 13.931L113.503 14.0655L115.307 18.7625C115.319 18.7925 115.319 18.8195 115.304 18.84ZM121.952 24.2895C121.952 24.288 121.951 24.286 121.95 24.284C121.948 24.2785 121.947 24.2732 121.945 24.268C121.937 24.2467 121.924 24.227 121.909 24.21C121.873 24.174 121.819 24.1525 121.743 24.1525C121.653 24.1525 121.558 24.149 121.46 24.144L121.33 24.139C121.279 24.1373 121.228 24.1346 121.177 24.131C120.919 24.1086 120.673 24.0139 120.467 23.858C120.269 23.7098 120.104 23.5226 119.982 23.308C119.937 23.2322 119.895 23.1552 119.854 23.077C119.853 23.0761 119.853 23.0746 119.852 23.0735C119.851 23.0714 119.85 23.0693 119.849 23.0675L119.854 23.077C119.765 22.904 119.677 22.7115 119.591 22.5005L114.592 10.8705C114.53 10.7112 114.456 10.5569 114.371 10.409C114.367 10.4035 114.199 10.136 113.99 10.136H113.951C113.778 10.136 113.634 10.318 113.586 10.385C113.494 10.54 113.415 10.7026 113.351 10.871L108.351 22.5005C108.256 22.7348 108.148 22.9639 108.029 23.187L108.022 23.2C108.002 23.2365 107.981 23.2725 107.96 23.3085C107.838 23.5231 107.672 23.7102 107.475 23.858C107.285 23.996 107.053 24.116 106.765 24.131C106.607 24.1395 106.583 24.142 106.482 24.146C106.385 24.151 106.289 24.1525 106.199 24.1525C106.124 24.1525 106.069 24.174 106.033 24.21L106.016 24.2315L106.005 24.2515C106.005 24.253 106.004 24.253 106.003 24.254L105.997 24.268C105.994 24.2744 105.992 24.2811 105.99 24.288C105.989 24.293 105.988 24.2975 105.987 24.303C105.987 24.303 105.987 24.3045 105.986 24.3055V24.3105C105.983 24.323 105.982 24.3357 105.982 24.3485C105.982 24.4235 106.01 24.475 106.064 24.5035C106.123 24.533 106.21 24.543 106.33 24.543C106.426 24.543 106.521 24.5425 106.615 24.5415H106.623C106.728 24.5399 106.834 24.5381 106.939 24.536L107 24.535C107.046 24.5335 107.092 24.5325 107.136 24.53C107.46 24.5211 107.784 24.51 108.109 24.4965C108.33 24.486 108.478 24.4785 108.547 24.4785C108.753 24.4785 108.982 24.486 109.231 24.497L109.744 24.517H109.749C109.827 24.52 109.903 24.522 109.981 24.5255C110.231 24.5355 110.463 24.543 110.677 24.543C110.774 24.543 110.852 24.533 110.902 24.504C110.925 24.4917 110.945 24.4725 110.958 24.449L110.958 24.4485L110.959 24.4465C110.961 24.4413 110.964 24.4362 110.967 24.4315C110.97 24.4215 110.974 24.4135 110.976 24.4035C110.98 24.3854 110.982 24.367 110.982 24.3485C110.983 24.3231 110.98 24.2976 110.971 24.2737C110.962 24.2498 110.948 24.2281 110.931 24.21C110.891 24.174 110.815 24.1525 110.699 24.1525H110.417C110.126 24.1525 109.928 24.105 109.815 24.0155C109.702 23.923 109.652 23.794 109.656 23.6305C109.656 23.519 109.677 23.3585 109.724 23.1555C109.768 22.953 109.84 22.7325 109.938 22.5005L110.96 20.0225C110.97 19.982 110.992 19.9453 111.022 19.9165C111.043 19.8985 111.083 19.8915 111.134 19.8915H115.633C115.677 19.8915 115.717 19.8985 115.75 19.9165C115.788 19.9418 115.815 19.9792 115.829 20.0225L117.307 23.7385C117.347 23.852 117.344 23.9415 117.304 24.018C117.288 24.0488 117.266 24.0762 117.239 24.0984C117.212 24.1207 117.181 24.1373 117.148 24.1475L117.034 24.171C117.004 24.1777 116.976 24.1918 116.953 24.2121C116.929 24.2323 116.911 24.2581 116.901 24.287C116.895 24.307 116.893 24.3277 116.894 24.3485C116.894 24.3895 116.902 24.422 116.918 24.4485C116.93 24.4723 116.95 24.4916 116.974 24.5035C117.024 24.533 117.168 24.543 117.265 24.543C117.479 24.543 117.71 24.536 117.96 24.5255L118.172 24.5175H118.173L118.71 24.497C118.96 24.486 119.189 24.4785 119.395 24.4785C119.464 24.4785 119.612 24.486 119.834 24.497C120.331 24.5174 120.828 24.5322 121.325 24.5415H121.326C121.421 24.5425 121.516 24.543 121.612 24.543C121.732 24.543 121.819 24.533 121.877 24.504C121.898 24.4928 121.916 24.4768 121.93 24.4573C121.943 24.4379 121.952 24.4155 121.956 24.392C121.958 24.3797 121.959 24.3674 121.96 24.355V24.3485C121.96 24.3285 121.957 24.3086 121.952 24.2895ZM168.025 21.9565C167.998 21.9571 167.973 21.9642 167.95 21.977C167.927 21.9898 167.908 22.008 167.894 22.03C167.86 22.0797 167.838 22.1364 167.829 22.196C167.796 22.3861 167.741 22.5718 167.666 22.7495C167.593 22.9261 167.494 23.091 167.373 23.239C167.218 23.4185 167.018 23.5525 166.794 23.6265C166.54 23.7104 166.277 23.7618 166.011 23.7795C165.716 23.801 165.401 23.8075 165.069 23.804C164.571 23.804 164.151 23.79 163.811 23.761C163.471 23.7285 163.195 23.681 162.986 23.6155C162.779 23.554 162.623 23.471 162.525 23.3695C162.409 23.2645 162.325 23.061 162.269 22.754C162.213 22.4465 162.178 22.004 162.159 21.428C162.14 20.6913 162.132 19.9544 162.135 19.2175V13.4425C162.137 13.17 162.137 12.9425 162.137 12.7605C162.142 12.58 162.142 12.4275 162.145 12.2975L162.155 11.935C162.161 11.7897 162.18 11.6452 162.21 11.503C162.218 11.466 162.226 11.4315 162.236 11.3985C162.275 11.257 162.348 11.145 162.446 11.065C162.544 10.986 162.688 10.928 162.874 10.892C162.986 10.881 163.101 10.8705 163.221 10.863C163.34 10.852 163.435 10.848 163.504 10.848C163.541 10.8445 163.576 10.8307 163.605 10.808C163.633 10.7855 163.651 10.753 163.655 10.7175C163.656 10.6923 163.65 10.6673 163.635 10.6464C163.621 10.6256 163.6 10.6099 163.577 10.602C163.526 10.5775 163.452 10.5665 163.359 10.566L163.105 10.568C162.987 10.569 162.865 10.571 162.741 10.5735C162.503 10.5765 162.274 10.5795 162.061 10.5875C161.847 10.595 161.666 10.5985 161.525 10.602H161.515C161.43 10.6048 161.345 10.607 161.26 10.6085H161.253C161.218 10.6085 161.127 10.6055 160.978 10.602L160.969 10.6015C160.808 10.598 160.616 10.595 160.394 10.5875C160.165 10.5795 159.941 10.5765 159.718 10.5735C159.607 10.571 159.506 10.5695 159.414 10.568C159.326 10.5666 159.239 10.5659 159.152 10.566L159.142 10.5665C159.05 10.5665 158.976 10.5775 158.926 10.602C158.902 10.6099 158.881 10.6255 158.867 10.6464C158.853 10.6672 158.846 10.6922 158.848 10.7175C158.849 10.7352 158.855 10.7523 158.863 10.7679C158.872 10.7835 158.883 10.7971 158.898 10.808C158.927 10.8306 158.962 10.8445 158.999 10.848C159.069 10.848 159.163 10.852 159.282 10.863C159.402 10.8705 159.517 10.881 159.629 10.8915C159.814 10.928 159.959 10.986 160.057 11.065C160.156 11.145 160.227 11.257 160.267 11.3985C160.315 11.5734 160.343 11.7535 160.35 11.935C160.358 12.0475 160.367 12.1705 160.373 12.2975C160.376 12.4275 160.384 12.58 160.384 12.7605C160.388 12.9425 160.391 13.17 160.391 13.4425C160.395 13.714 160.395 14.0515 160.395 14.453V19.1745C160.395 19.772 160.395 20.323 160.39 20.834C160.387 21.2881 160.378 21.7421 160.363 22.196C160.348 22.5905 160.322 22.9165 160.285 23.1745C160.26 23.3545 160.232 23.515 160.2 23.648C160.17 23.7865 160.123 23.8945 160.061 23.982C159.992 24.0694 159.895 24.1299 159.786 24.153C159.689 24.1764 159.591 24.1969 159.493 24.2145C159.396 24.2293 159.298 24.2379 159.199 24.24C159.144 24.2425 159.106 24.2575 159.083 24.29C159.059 24.3184 159.046 24.3541 159.047 24.391C159.047 24.4465 159.073 24.4865 159.127 24.5075C159.139 24.513 159.152 24.5175 159.167 24.5215C159.214 24.5365 159.276 24.543 159.35 24.543C159.508 24.543 159.681 24.5395 159.873 24.5295C160.064 24.5215 160.261 24.511 160.46 24.5C160.648 24.489 160.815 24.4815 160.956 24.4815C161.03 24.4795 161.091 24.4785 161.139 24.4785L161.243 24.478H161.26L161.364 24.4785C161.611 24.4795 161.881 24.4835 162.171 24.4935C162.511 24.5 162.899 24.511 163.33 24.5215H163.336C163.776 24.543 164.27 24.5575 164.811 24.57C165.359 24.58 165.974 24.587 166.655 24.587C166.909 24.587 167.108 24.583 167.258 24.57C167.409 24.557 167.521 24.5325 167.597 24.5C167.67 24.47 167.732 24.4165 167.771 24.348C167.808 24.282 167.844 24.196 167.872 24.0865C167.913 23.9465 167.949 23.7835 167.981 23.598C168.014 23.4105 168.046 23.2205 168.073 23.0325C168.098 22.844 168.119 22.678 168.134 22.532C168.148 22.3915 168.156 22.2935 168.156 22.24C168.156 22.141 168.144 22.069 168.122 22.0255C168.101 21.9775 168.067 21.9565 168.025 21.9565ZM179.358 21.9565C179.332 21.9571 179.307 21.9641 179.284 21.9769C179.261 21.9898 179.242 22.008 179.228 22.03C179.194 22.0795 179.171 22.1363 179.163 22.196C179.129 22.3861 179.075 22.5718 179 22.7495C178.926 22.9262 178.827 23.0911 178.706 23.239C178.552 23.4185 178.352 23.5525 178.127 23.6265C177.874 23.7104 177.611 23.7618 177.345 23.7795C177.031 23.8006 176.716 23.8088 176.402 23.804C175.905 23.804 175.485 23.79 175.145 23.761C174.805 23.7285 174.529 23.681 174.319 23.6155C174.113 23.554 173.956 23.471 173.859 23.3695C173.743 23.2645 173.659 23.061 173.602 22.754C173.547 22.4465 173.512 22.004 173.492 21.428C173.474 20.6913 173.466 19.9544 173.468 19.2175V13.4425C173.471 13.17 173.471 12.9425 173.471 12.7605C173.475 12.58 173.475 12.4275 173.478 12.2975L173.489 11.935C173.497 11.768 173.517 11.625 173.544 11.503C173.551 11.4678 173.559 11.4329 173.57 11.3985C173.609 11.257 173.681 11.145 173.78 11.065C173.877 10.986 174.021 10.928 174.207 10.892C174.319 10.881 174.435 10.8705 174.555 10.863C174.673 10.852 174.768 10.848 174.838 10.848C174.874 10.8445 174.909 10.8307 174.939 10.808C174.952 10.7969 174.964 10.7832 174.973 10.7677C174.981 10.7522 174.987 10.7351 174.989 10.7175C174.99 10.6923 174.983 10.6674 174.969 10.6465C174.955 10.6256 174.934 10.61 174.91 10.602C174.86 10.5775 174.785 10.5665 174.692 10.566L174.439 10.568C174.32 10.569 174.199 10.571 174.074 10.5735C173.836 10.5765 173.608 10.5795 173.395 10.5875C173.18 10.595 173 10.5985 172.858 10.602H172.848C172.763 10.6048 172.678 10.607 172.593 10.6085H172.586C172.551 10.6085 172.461 10.6055 172.311 10.602L172.303 10.6015C172.141 10.598 171.949 10.595 171.728 10.5875C171.502 10.5803 171.277 10.5757 171.051 10.5735C170.941 10.571 170.84 10.5695 170.748 10.568C170.66 10.5666 170.573 10.5659 170.486 10.566L170.476 10.5665C170.383 10.5665 170.31 10.5775 170.26 10.602C170.236 10.6099 170.215 10.6256 170.201 10.6464C170.187 10.6673 170.18 10.6923 170.181 10.7175C170.183 10.7351 170.188 10.7522 170.197 10.7677C170.206 10.7833 170.217 10.7969 170.231 10.808C170.26 10.8306 170.295 10.8445 170.332 10.848C170.402 10.848 170.496 10.852 170.616 10.863C170.736 10.8705 170.851 10.881 170.963 10.8915C171.148 10.928 171.293 10.986 171.39 11.065C171.489 11.145 171.56 11.257 171.6 11.3985C171.649 11.5733 171.677 11.7534 171.684 11.935C171.692 12.0475 171.701 12.1705 171.707 12.2975C171.71 12.4275 171.718 12.58 171.718 12.7605C171.721 12.9425 171.724 13.17 171.724 13.4425C171.729 13.714 171.729 14.0515 171.729 14.453V19.1745C171.729 19.772 171.729 20.323 171.724 20.834C171.721 21.2881 171.712 21.7421 171.696 22.196C171.681 22.5905 171.655 22.9165 171.619 23.1745C171.594 23.3545 171.565 23.515 171.534 23.648C171.504 23.7865 171.457 23.8945 171.395 23.982C171.326 24.0693 171.229 24.1298 171.12 24.153C171.023 24.1764 170.925 24.1969 170.827 24.2145C170.729 24.2293 170.631 24.2378 170.533 24.24C170.478 24.2425 170.439 24.2575 170.417 24.29C170.393 24.3183 170.38 24.3541 170.381 24.391C170.381 24.4465 170.406 24.4865 170.461 24.5075C170.473 24.5132 170.487 24.5179 170.5 24.5215C170.548 24.5365 170.609 24.543 170.684 24.543C170.841 24.543 171.014 24.5395 171.207 24.5295C171.398 24.5215 171.594 24.511 171.794 24.5C171.982 24.489 172.149 24.4815 172.29 24.4815C172.364 24.4795 172.425 24.4785 172.473 24.4785L172.577 24.478H172.594L172.698 24.4785C172.945 24.4795 173.214 24.4835 173.504 24.4935C173.844 24.5 174.233 24.511 174.663 24.5215H174.67C175.111 24.543 175.604 24.5575 176.145 24.57C176.692 24.58 177.308 24.587 177.989 24.587C178.243 24.587 178.441 24.583 178.591 24.57C178.742 24.557 178.855 24.5325 178.931 24.5C179.004 24.4701 179.065 24.4166 179.105 24.348C179.141 24.282 179.178 24.196 179.206 24.0865C179.247 23.9465 179.282 23.7835 179.315 23.598C179.348 23.4105 179.381 23.2205 179.406 23.0325C179.431 22.844 179.453 22.678 179.468 22.532C179.481 22.3915 179.489 22.2935 179.489 22.24C179.489 22.141 179.478 22.069 179.456 22.0255C179.434 21.9775 179.401 21.9565 179.358 21.9565Z" fill="#013B71"/>
</g>
<defs>
<clipPath id="clip0_1005_3296">
<rect width="216" height="36" fill="white"/>
</clipPath>
</defs>
</svg>
