<svg width="217" height="35" viewBox="0 0 217 35" fill="none" xmlns="http://www.w3.org/2000/svg">
<path fill-rule="evenodd" clip-rule="evenodd" d="M85.7878 18.883C85.7763 18.9015 85.7488 18.913 85.7048 18.913H82.0098C81.9758 18.913 81.9513 18.9015 81.9368 18.88C81.9218 18.8575 81.9218 18.826 81.9443 18.784L83.7923 14.1085C83.7923 14.1085 83.8343 14.007 83.8503 13.9735C83.8563 13.9615 83.8608 13.9515 83.8678 13.9445C83.871 13.9407 83.875 13.9378 83.8795 13.936C83.884 13.9342 83.889 13.9335 83.8938 13.934C83.8998 13.934 83.9098 13.935 83.9178 13.9425C83.9283 13.9525 83.9328 13.965 83.9363 13.974L83.9873 14.1085L85.7923 18.8055C85.8028 18.8355 85.8028 18.8625 85.7878 18.883ZM92.4408 24.3515C92.4408 24.349 92.4398 24.3455 92.4408 24.3485C92.4393 24.3431 92.4376 24.3377 92.4358 24.3325C92.4358 24.331 92.4348 24.329 92.4338 24.327C92.4326 24.3215 92.4311 24.3162 92.4293 24.311L92.4223 24.297C92.4148 24.281 92.4051 24.2661 92.3933 24.253C92.3573 24.217 92.3033 24.1955 92.2273 24.1955C92.1373 24.1955 92.0423 24.192 91.9443 24.187L91.8143 24.182C91.7633 24.1802 91.7123 24.1776 91.6613 24.174C91.4037 24.1517 91.1575 24.057 90.9513 23.901C90.7534 23.7531 90.5883 23.5658 90.4663 23.351C90.4233 23.2785 90.3803 23.201 90.3378 23.12L90.3363 23.1165L90.3328 23.1105C90.2389 22.9252 90.1528 22.736 90.0748 22.5435L85.0753 10.9135C85.0141 10.7541 84.9405 10.5998 84.8553 10.452C84.8513 10.4465 84.6833 10.179 84.4738 10.179H84.4353C84.2628 10.179 84.1183 10.361 84.0708 10.428C83.9783 10.5828 83.8993 10.7454 83.8348 10.914L78.8353 22.543C78.7488 22.7545 78.6608 22.947 78.5713 23.1205C78.5518 23.158 78.5323 23.194 78.5128 23.2295L78.5058 23.2425C78.4858 23.279 78.4648 23.315 78.4438 23.351C78.3218 23.5656 78.1567 23.7527 77.9588 23.9005C77.7698 24.0385 77.5373 24.1585 77.2488 24.1735C77.0913 24.182 77.0668 24.1845 76.9663 24.1885C76.8688 24.1935 76.7733 24.195 76.6828 24.195C76.6078 24.195 76.5528 24.2165 76.5168 24.2525L76.5003 24.274L76.4888 24.294C76.4888 24.2955 76.4878 24.2955 76.4878 24.2965C76.4858 24.301 76.4828 24.306 76.4813 24.3105C76.4784 24.3169 76.4763 24.3236 76.4748 24.3305L76.4708 24.3455V24.348C76.4698 24.35 76.4698 24.3515 76.4698 24.353C76.4671 24.3654 76.4658 24.3782 76.4658 24.391C76.4658 24.466 76.4948 24.5175 76.5483 24.546C76.6073 24.5755 76.6943 24.5855 76.8138 24.5855C76.9098 24.5855 77.0048 24.585 77.0993 24.584H77.1068L77.4233 24.5785L77.4843 24.5775C77.5298 24.576 77.5753 24.575 77.6208 24.5725C77.9449 24.5636 78.2689 24.5525 78.5928 24.539C78.8138 24.5285 78.9618 24.521 79.0313 24.521C79.2368 24.521 79.4663 24.5285 79.7153 24.5395L80.2283 24.5595H80.2333C80.3108 24.5625 80.3883 24.5645 80.4658 24.568C80.7158 24.578 80.9473 24.5855 81.1608 24.5855C81.2588 24.5855 81.3358 24.5755 81.3858 24.5465C81.4096 24.5341 81.4291 24.515 81.4418 24.4915L81.4423 24.491L81.4433 24.489L81.4503 24.474C81.4538 24.464 81.4578 24.456 81.4603 24.446C81.4644 24.4279 81.4662 24.4094 81.4658 24.391C81.4679 24.3656 81.4643 24.34 81.4555 24.3161C81.4467 24.2922 81.4328 24.2705 81.4148 24.2525C81.3748 24.2165 81.2988 24.195 81.1833 24.195H80.9008C80.6093 24.195 80.4118 24.1475 80.2988 24.058C80.1863 23.9655 80.1363 23.8365 80.1398 23.673C80.1398 23.5615 80.1613 23.401 80.2083 23.198C80.2518 22.9955 80.3238 22.775 80.4218 22.543L81.4438 20.065C81.4543 20.0246 81.4757 19.9879 81.5058 19.959C81.5273 19.941 81.5668 19.934 81.6173 19.934H86.1173C86.1608 19.934 86.2013 19.941 86.2338 19.959C86.2719 19.984 86.3002 20.0214 86.3138 20.065L87.7913 23.781C87.8318 23.8945 87.8283 23.984 87.7883 24.0605C87.7722 24.0914 87.75 24.1188 87.7231 24.141C87.6963 24.1632 87.6652 24.1799 87.6318 24.19L87.5183 24.2135C87.4882 24.2202 87.4603 24.2343 87.4371 24.2546C87.4139 24.2748 87.3961 24.3006 87.3853 24.3295C87.3795 24.3494 87.3769 24.3702 87.3778 24.391C87.3778 24.432 87.3858 24.4645 87.4013 24.491C87.4141 24.5148 87.4341 24.534 87.4583 24.546C87.5083 24.5755 87.6513 24.5855 87.7493 24.5855C87.9628 24.5855 88.1943 24.5785 88.4443 24.568L88.6568 24.56H88.6573L89.1948 24.5395C89.4227 24.5284 89.6507 24.5222 89.8788 24.521C89.9488 24.521 90.0963 24.5285 90.3173 24.5395C90.8145 24.5598 91.3118 24.5746 91.8093 24.584C91.9043 24.585 92.0003 24.5855 92.0968 24.5855C92.2168 24.5855 92.3028 24.5755 92.3618 24.5465C92.3827 24.5352 92.4006 24.5192 92.4141 24.4997C92.4277 24.4803 92.4365 24.4579 92.4398 24.4345C92.4418 24.4222 92.443 24.4099 92.4433 24.3975L92.4443 24.391C92.4441 24.3776 92.443 24.3647 92.4408 24.3515Z" fill="white"/>
<mask id="mask0_1022_3972" style="mask-type:luminance" maskUnits="userSpaceOnUse" x="0" y="0" width="28" height="35">
<path d="M0.151367 0.542969H27.5774V34.457H0.151367V0.542969Z" fill="white"/>
</mask>
<g mask="url(#mask0_1022_3972)">
<path fill-rule="evenodd" clip-rule="evenodd" d="M25.3574 20.353C25.3574 26.1435 19.1509 30.2435 13.8644 32.103C8.57687 30.2435 2.37087 26.1435 2.37087 20.353V7.76697C8.06637 5.11247 16.6904 2.76247 25.3574 2.76247V20.353ZM1.43337 5.75447L0.151367 6.35247V20.353C0.151367 27.384 7.16987 32.1015 13.1274 34.197L13.8644 34.457L14.6009 34.197C20.5579 32.1025 27.5774 27.3845 27.5774 20.353V0.542969H25.3574C17.5084 0.542969 8.56637 2.43047 1.43337 5.75447Z" fill="white"/>
</g>
<path fill-rule="evenodd" clip-rule="evenodd" d="M17.16 27.2705C17.0555 27.269 16.945 27.267 16.8175 27.263C16.6944 27.2597 16.5715 27.2522 16.449 27.2405C16.3399 27.2311 16.2312 27.2181 16.123 27.2015C15.9265 27.171 15.773 27.1185 15.6615 27.04C15.5533 26.9636 15.4705 26.8567 15.4235 26.733C15.3673 26.5875 15.3312 26.4351 15.316 26.28C15.281 25.9276 15.2593 25.574 15.251 25.22C15.237 24.793 15.231 24.305 15.2275 23.76C15.2235 23.214 15.2235 22.626 15.2235 21.9925V11.0935C15.054 11.0845 14.8835 11.0805 14.714 11.081C14.0565 11.082 13.363 11.1215 12.721 11.2635C12.649 11.2795 12.577 11.296 12.5035 11.3145V21.9925C12.5035 22.626 12.5035 23.214 12.5005 23.76C12.4975 24.2439 12.4895 24.7277 12.4765 25.2115C12.4689 25.5609 12.4473 25.9098 12.4115 26.2575C12.3805 26.541 12.327 26.76 12.243 26.9095C12.158 27.059 12.0155 27.157 11.812 27.2015C11.7084 27.2266 11.6031 27.2445 11.497 27.255C11.3825 27.266 11.2475 27.268 11.0975 27.2705C10.975 27.2725 10.886 27.298 10.8405 27.3405C10.7945 27.3825 10.773 27.429 10.7745 27.478C10.7747 27.5106 10.7843 27.5424 10.8021 27.5697C10.8199 27.597 10.8452 27.6186 10.875 27.632C10.944 27.667 11.04 27.6845 11.167 27.6845C11.3745 27.6845 11.601 27.6815 11.858 27.6745L12.6235 27.6515C12.877 27.643 13.111 27.6355 13.322 27.6275C13.533 27.6195 13.6985 27.6165 13.8175 27.6165C14.006 27.6165 14.2745 27.624 14.6175 27.6355C14.9585 27.6465 15.3425 27.656 15.7695 27.6665C16.1995 27.6775 16.641 27.6845 17.091 27.6845C17.21 27.6845 17.301 27.665 17.3715 27.632C17.4435 27.5965 17.48 27.547 17.4825 27.478C17.4845 27.429 17.4585 27.3835 17.4055 27.3405C17.3555 27.299 17.275 27.2735 17.16 27.2705Z" fill="white"/>
<path fill-rule="evenodd" clip-rule="evenodd" d="M19.9674 20.9354C19.9024 20.9354 19.8559 20.9549 19.8289 20.9969C19.8014 21.0394 19.7794 21.1089 19.7599 21.2134C19.6809 21.5966 19.5463 21.9662 19.3604 22.3104C19.258 22.5069 19.1286 22.688 18.9759 22.8484C18.7229 23.1052 18.4214 23.3092 18.0889 23.4484C17.7387 23.5856 17.3715 23.6749 16.9974 23.7139C16.7264 23.7409 16.4324 23.7604 16.1139 23.7669C16.1159 24.0884 16.1189 24.4084 16.1249 24.7299C16.3646 24.7224 16.6041 24.7114 16.8434 24.6969C17.276 24.673 17.7071 24.6267 18.1349 24.5584C18.5379 24.4929 18.8804 24.4084 19.1604 24.3009C19.2759 24.2584 19.3604 24.2134 19.4219 24.1704C19.4807 24.1282 19.5291 24.0731 19.5634 24.0094C19.6063 23.9176 19.6411 23.8223 19.6674 23.7244C19.7094 23.5864 19.7524 23.4219 19.7989 23.2204C19.8444 23.0229 19.8869 22.8104 19.9289 22.5919C19.9714 22.3724 20.0099 22.1614 20.0404 21.9654C20.0754 21.7654 20.1019 21.5964 20.1209 21.4629C20.1409 21.3279 20.1514 21.2434 20.1514 21.2134C20.1527 21.1444 20.1326 21.0766 20.0939 21.0194C20.0594 20.9664 20.0174 20.9399 19.9674 20.9354ZM7.29041 20.7944C7.65141 21.4509 8.15841 22.0694 8.81141 22.6419C9.34365 23.1074 9.93717 23.4977 10.5754 23.8019C10.8999 23.9579 11.2449 24.0929 11.6104 24.2094C11.6156 23.6889 11.6182 23.1684 11.6184 22.6479C10.8501 22.1623 10.1827 21.5329 9.65291 20.7944C9.22841 20.2014 8.89692 19.547 8.66991 18.8539C8.24891 17.5569 8.25441 16.1069 8.46591 14.7704C8.56591 14.1674 8.74541 13.5944 9.01091 13.0569C9.27591 12.5149 9.65291 12.0159 10.1494 11.5549C10.3829 11.3279 10.6904 11.1094 11.0709 10.9059C11.4509 10.6984 11.9389 10.5289 12.5304 10.3984C13.1219 10.2679 13.8479 10.1984 14.7124 10.1944C15.3159 10.1944 15.8724 10.2444 16.3874 10.3414C16.8529 10.4232 17.3087 10.5531 17.7474 10.7289C18.1424 10.8939 18.4574 11.0749 18.6999 11.2779C18.7779 11.3394 18.8509 11.4079 18.9199 11.4839C18.9559 11.5269 18.9909 11.5714 19.0244 11.6174C19.1464 11.7869 19.2459 11.9839 19.3244 12.2059C19.3994 12.4274 19.4584 12.6379 19.4964 12.8449C19.5259 13.0229 19.5459 13.1729 19.5534 13.2934L19.5564 13.3519C19.5577 13.3983 19.5618 13.4446 19.5689 13.4904C19.5709 13.5029 19.5739 13.5134 19.5764 13.5239C19.5809 13.5426 19.5871 13.5609 19.5949 13.5784C19.6124 13.6154 19.6469 13.6384 19.6949 13.6504L19.7144 13.6519C19.7719 13.6519 19.8214 13.6219 19.8634 13.5564C19.9064 13.4909 19.9329 13.3834 19.9449 13.2374C19.9522 13.1249 19.9573 13.0122 19.9604 12.8994C19.9634 12.7454 19.9634 12.5684 19.9679 12.3729C19.9719 12.1769 19.9754 11.9774 19.9754 11.7779C19.9794 11.5774 19.9864 11.3974 19.9904 11.2319C20.0054 10.9979 20.0214 10.8054 20.0374 10.6634C20.0474 10.5214 20.0599 10.4059 20.0709 10.3254C20.0789 10.2449 20.0824 10.1754 20.0824 10.1254C20.0849 10.099 20.0817 10.0724 20.0731 10.0473C20.0645 10.0222 20.0506 9.99923 20.0324 9.97993C19.9984 9.93743 19.9289 9.91843 19.8294 9.91843C19.4989 9.90293 19.1644 9.86843 18.8269 9.81143C18.5499 9.76343 18.2594 9.71343 17.9569 9.65643L17.7549 9.61893C17.4143 9.5647 17.0722 9.52101 16.7289 9.48793C16.3892 9.4527 16.0486 9.42719 15.7074 9.41143C15.4066 9.39657 15.1056 9.38874 14.8044 9.38793C13.7714 9.39243 12.8684 9.48793 12.0924 9.66893C11.3159 9.85343 10.6439 10.1029 10.0799 10.4179C9.51441 10.7324 9.03091 11.0899 8.62691 11.4859C8.18191 11.9274 7.80891 12.3884 7.51341 12.8759C7.2299 13.3327 6.99559 13.8183 6.81441 14.3244C6.65236 14.7673 6.53004 15.2238 6.44891 15.6884C6.27691 16.7584 6.32391 17.7114 6.54541 18.7884C6.68341 19.4649 6.93341 20.1329 7.29041 20.7944ZM15.6824 7.06493C15.6814 7.06493 15.6804 7.06593 15.6794 7.06693L15.6824 7.06493ZM15.7164 7.04893C15.7048 7.05375 15.6935 7.05909 15.6824 7.06493L15.7164 7.04893ZM10.8604 6.87343C10.9129 6.89843 10.9864 6.91093 11.0794 6.91093C11.2049 6.91093 11.3299 6.91543 11.4514 6.92993C11.5774 6.94593 11.6949 6.96893 11.8084 7.00243C11.9534 7.04443 12.0744 7.10493 12.1694 7.18043C12.2644 7.25643 12.3374 7.36393 12.3899 7.49993C12.4409 7.63393 12.4799 7.80743 12.4924 8.02793C12.4974 8.11493 12.4989 8.34293 12.5009 8.50943C12.5014 8.56543 12.5024 8.61443 12.5034 8.64843L12.5049 8.68343C12.9457 8.60935 13.3902 8.55928 13.8364 8.53343C14.1539 8.51343 14.4714 8.50493 14.7869 8.50343C14.9149 8.50343 15.0429 8.50643 15.1719 8.50943H15.2339C15.2389 8.42643 15.2444 8.10393 15.2489 8.02793C15.2659 7.68993 15.3264 7.44093 15.4349 7.27993C15.4904 7.19774 15.5655 7.13071 15.6534 7.08493L15.6564 7.08393L15.6899 7.06843C15.7463 7.04249 15.8045 7.02043 15.8639 7.00243C15.9774 6.96893 16.0949 6.94593 16.2209 6.92993C16.3424 6.91493 16.4674 6.91093 16.5929 6.91093C16.6864 6.91093 16.7594 6.89843 16.8119 6.87343L16.8284 6.86593C16.8854 6.83243 16.9119 6.77043 16.9119 6.68393C16.9119 6.62693 16.8694 6.58643 16.7904 6.56193C16.7124 6.53793 16.5979 6.52493 16.4454 6.52393C16.2619 6.52493 16.0619 6.52843 15.8454 6.53193C15.6024 6.53443 15.3589 6.53893 15.1124 6.54693C14.8654 6.55443 14.6414 6.55793 14.4324 6.56193C14.2239 6.56543 14.0564 6.56943 13.9279 6.56943L13.8364 6.56893H13.7444C13.6159 6.56893 13.4484 6.56543 13.2404 6.56193C13.0309 6.55793 12.8064 6.55443 12.5604 6.54693C12.3161 6.53921 12.0718 6.53421 11.8274 6.53193C11.6104 6.52843 11.4104 6.52493 11.2274 6.52393C11.0744 6.52493 10.9599 6.53793 10.8824 6.56193C10.8029 6.58643 10.7604 6.62693 10.7604 6.68393C10.7604 6.77043 10.7869 6.83243 10.8439 6.86593L10.8604 6.87343ZM206.078 17.6779C206.026 17.6589 205.951 17.6514 205.841 17.6514C205.691 17.6514 205.516 17.6549 205.317 17.6589C205.114 17.6629 204.918 17.6659 204.718 17.6739C204.525 17.6814 204.358 17.6849 204.219 17.6879C204.081 17.6914 203.997 17.6939 203.973 17.6939C203.943 17.6939 203.85 17.6914 203.698 17.6879C203.546 17.6849 203.353 17.6814 203.129 17.6734C202.903 17.6659 202.665 17.6634 202.419 17.6589C202.169 17.6549 201.934 17.6514 201.713 17.6514C201.603 17.6479 201.528 17.6589 201.481 17.6774C201.429 17.6989 201.407 17.7394 201.407 17.8039C201.413 17.8422 201.431 17.8777 201.458 17.9049C201.485 17.9334 201.521 17.9514 201.56 17.9559C201.621 17.9559 201.69 17.9589 201.775 17.9629C201.854 17.9679 201.937 17.9699 202.013 17.9779C202.092 17.9844 202.161 17.9934 202.213 17.9994C202.407 18.0354 202.56 18.0824 202.672 18.1449C202.784 18.2064 202.868 18.2999 202.918 18.4269C202.972 18.5579 203.005 18.7349 203.02 18.9669C203.034 19.1949 203.042 19.4969 203.037 19.8694V23.0644C203.037 23.1809 203.024 23.2714 202.99 23.3354C202.961 23.4028 202.914 23.4607 202.853 23.5024C202.789 23.5509 202.72 23.5934 202.647 23.6294C202.456 23.7314 202.251 23.8047 202.038 23.8469C201.806 23.8969 201.56 23.9309 201.306 23.9529C201.053 23.9699 200.809 23.9779 200.582 23.9779C200.005 23.9806 199.43 23.9173 198.867 23.7894C198.302 23.657 197.756 23.4495 197.245 23.1724C196.715 22.8874 196.197 22.5104 195.69 22.0424C195.517 21.8829 195.317 21.6509 195.089 21.3474C194.864 21.0399 194.643 20.6664 194.426 20.2299C194.198 19.7546 194.019 19.2576 193.89 18.7464C193.743 18.1537 193.669 17.5452 193.669 16.9344C193.672 16.2144 193.753 15.5579 193.912 14.9594C194.071 14.3619 194.297 13.8399 194.578 13.3869C194.86 12.9344 195.188 12.5649 195.56 12.2819C196.047 11.9169 196.525 11.6524 196.987 11.4789C197.455 11.3089 197.904 11.1989 198.337 11.1474C198.743 11.1021 199.152 11.0817 199.56 11.0864C200.387 11.0904 201.1 11.1629 201.7 11.3034C202.298 11.4409 202.788 11.6234 203.168 11.8404C203.546 12.0579 203.813 12.2864 203.973 12.5214C204.074 12.6699 204.153 12.8189 204.215 12.9779C204.315 13.221 204.38 13.4771 204.407 13.7384C204.407 13.8254 204.415 13.8939 204.433 13.9454C204.439 13.9682 204.453 13.9881 204.472 14.0019C204.491 14.0157 204.514 14.0226 204.538 14.0214C204.603 14.0249 204.657 13.9964 204.698 13.9384C204.734 13.8844 204.755 13.7784 204.755 13.6294C204.755 13.1704 204.763 12.7864 204.775 12.4794C204.785 12.1694 204.796 11.9194 204.81 11.7314C204.824 11.5399 204.834 11.3874 204.846 11.2789C204.857 11.1699 204.864 11.0839 204.864 11.0214C204.866 10.9993 204.862 10.9772 204.854 10.9565C204.846 10.9359 204.833 10.9173 204.817 10.9019C204.785 10.8659 204.718 10.8469 204.625 10.8469C204.462 10.8469 204.288 10.8369 204.1 10.8149C203.916 10.7969 203.732 10.7728 203.549 10.7424C203.393 10.714 203.238 10.684 203.082 10.6524C202.987 10.6309 202.838 10.6014 202.64 10.5689C202.44 10.5314 202.205 10.4999 201.934 10.4674C201.646 10.4324 201.357 10.4048 201.067 10.3849C200.761 10.3593 200.454 10.347 200.147 10.3479C199.657 10.3439 199.129 10.3654 198.563 10.4199C197.973 10.4777 197.388 10.5891 196.817 10.7529C196.201 10.9321 195.611 11.1903 195.06 11.5209C194.615 11.7884 194.207 12.1128 193.846 12.4859C193.449 12.8873 193.107 13.3396 192.828 13.8309C192.519 14.3653 192.283 14.9388 192.126 15.5359C191.956 16.1624 191.868 16.8479 191.865 17.5859C191.868 18.1624 191.93 18.7164 192.056 19.2414C192.172 19.749 192.344 20.2423 192.568 20.7124C192.782 21.1694 193.025 21.5754 193.296 21.9379C193.567 22.2964 193.851 22.6009 194.147 22.8479C194.657 23.2762 195.221 23.6354 195.824 23.9164C196.408 24.1849 196.984 24.3824 197.553 24.5149C198.079 24.6365 198.613 24.7222 199.151 24.7714C199.651 24.8104 200.082 24.8294 200.451 24.8254C200.731 24.8254 201.042 24.8104 201.383 24.7854C201.723 24.7554 202.078 24.7124 202.444 24.6469C202.809 24.5847 203.169 24.5005 203.524 24.3949C203.866 24.2936 204.199 24.1614 204.517 23.9999C204.585 23.9723 204.645 23.9275 204.69 23.8699C204.726 23.8219 204.751 23.7349 204.763 23.6069C204.775 23.4779 204.777 23.2744 204.777 22.9994V20.9344C204.777 20.5494 204.777 20.2059 204.78 19.9049C204.78 19.6049 204.787 19.3079 204.798 19.0214C204.817 18.6994 204.875 18.4564 204.981 18.2964C205.081 18.1369 205.262 18.0389 205.516 17.9994C205.606 17.9823 205.697 17.969 205.788 17.9594C205.863 17.9559 205.933 17.9559 205.995 17.9559C206.034 17.9522 206.07 17.934 206.096 17.9049C206.125 17.8787 206.143 17.8427 206.147 17.8039C206.147 17.7394 206.124 17.6994 206.078 17.6779ZM190.177 22.0859C190.154 22.0839 190.13 22.0881 190.108 22.0982C190.086 22.1083 190.068 22.1239 190.054 22.1434C190.025 22.1874 190.003 22.2614 189.981 22.3684C189.945 22.6119 189.89 22.8194 189.818 22.9809C189.754 23.1349 189.658 23.2733 189.535 23.3869C189.419 23.4919 189.277 23.5819 189.112 23.6519C188.916 23.7216 188.713 23.7676 188.506 23.7889C188.271 23.8184 188.04 23.8329 187.808 23.8404C187.572 23.8464 187.369 23.8464 187.198 23.8464C186.727 23.8504 186.347 23.8289 186.05 23.7889C185.753 23.7489 185.524 23.6774 185.365 23.5719C185.203 23.4669 185.082 23.308 185.024 23.1229C184.959 22.9274 184.924 22.6769 184.916 22.3689C184.911 22.2323 184.909 22.0956 184.91 21.9589C184.904 21.7634 184.904 21.5389 184.904 21.2829C184.909 21.0259 184.909 20.7609 184.909 20.4919C184.912 20.2239 184.912 19.9784 184.912 19.7499C184.916 19.5259 184.916 19.3474 184.916 19.2174V17.6744C184.915 17.6422 184.924 17.6103 184.941 17.5829C184.959 17.5574 184.992 17.5429 185.046 17.5429C185.115 17.5429 185.242 17.5429 185.424 17.5474C185.605 17.5474 185.814 17.5504 186.053 17.5544C186.296 17.5574 186.539 17.5654 186.79 17.5739C187.036 17.5799 187.264 17.5869 187.466 17.5939C187.673 17.6039 187.83 17.6159 187.938 17.6304C188.18 17.6589 188.373 17.7029 188.506 17.7574C188.641 17.8109 188.739 17.8759 188.796 17.9524C188.857 18.0254 188.897 18.1089 188.917 18.1949C188.96 18.3149 188.984 18.4244 188.992 18.5244C189.003 18.6219 189.006 18.7174 189.003 18.8044C189.003 18.8574 189.014 18.9019 189.036 18.9304C189.058 18.9634 189.09 18.9779 189.133 18.9779C189.198 18.9729 189.242 18.9329 189.271 18.8629C189.296 18.7889 189.307 18.7099 189.307 18.6309C189.307 18.5799 189.312 18.4854 189.322 18.3444C189.329 18.2019 189.339 18.0474 189.351 17.8804C189.365 17.7099 189.38 17.5604 189.395 17.4334C189.419 17.1344 189.452 16.8984 189.489 16.7349C189.524 16.5729 189.542 16.4634 189.545 16.4124C189.545 16.3584 189.535 16.3184 189.517 16.2969C189.508 16.2852 189.495 16.2759 189.482 16.2697C189.468 16.2634 189.453 16.2605 189.437 16.2609C189.406 16.2609 189.365 16.2859 189.322 16.3289C189.274 16.3769 189.22 16.4304 189.155 16.4999C189.062 16.5939 188.938 16.6559 188.786 16.6884C188.599 16.7227 188.409 16.7467 188.219 16.7604C188.126 16.7679 187.97 16.7749 187.746 16.7829C187.521 16.7859 187.264 16.7939 186.978 16.7939C186.691 16.7964 186.405 16.8004 186.126 16.8004C185.846 16.8044 185.608 16.8044 185.409 16.8044H185.024C184.974 16.8044 184.941 16.7859 184.931 16.7534C184.916 16.7064 184.911 16.6569 184.916 16.6079V11.5869C184.914 11.5366 184.921 11.4864 184.938 11.4389C184.953 11.4059 184.981 11.3914 185.024 11.3914C185.072 11.3914 185.188 11.3914 185.365 11.3954C185.543 11.3954 185.753 11.3984 185.996 11.4019C186.241 11.4059 186.488 11.4094 186.735 11.4119C186.985 11.4199 187.201 11.4234 187.395 11.4314C187.585 11.4389 187.716 11.4459 187.785 11.4564C188.129 11.5004 188.39 11.5439 188.576 11.5949C188.76 11.6409 188.891 11.6989 188.974 11.7674C189.058 11.8364 189.116 11.9199 189.155 12.0219C189.198 12.1349 189.228 12.2534 189.242 12.3804C189.257 12.5029 189.264 12.6014 189.264 12.6739C189.264 12.7499 189.274 12.8074 189.3 12.8514C189.323 12.8914 189.361 12.9124 189.416 12.9124C189.439 12.9102 189.46 12.9033 189.479 12.892C189.498 12.8808 189.515 12.8656 189.528 12.8474C189.558 12.8091 189.578 12.7647 189.589 12.7174C189.605 12.6324 189.616 12.5466 189.622 12.4604C189.633 12.3444 189.644 12.2239 189.652 12.0904C189.662 11.9599 189.669 11.8399 189.677 11.7319L189.699 11.5004C189.723 11.2429 189.756 11.0514 189.792 10.9164C189.829 10.7864 189.848 10.6914 189.851 10.6304C189.852 10.5901 189.846 10.5499 189.833 10.5114C189.818 10.4739 189.797 10.4559 189.764 10.4559C189.719 10.4621 189.675 10.4746 189.633 10.4929C189.587 10.5114 189.56 10.5244 189.505 10.5389C189.388 10.5645 189.27 10.5841 189.151 10.5974C188.996 10.6189 188.822 10.6374 188.633 10.6514C188.556 10.6559 188.395 10.6594 188.154 10.6594C187.912 10.6594 187.622 10.6624 187.285 10.6624C186.949 10.6624 186.6 10.6594 186.239 10.6594C185.873 10.6594 185.532 10.6594 185.213 10.6559C184.895 10.6559 184.629 10.6559 184.423 10.6509H184.07C184.036 10.6509 183.949 10.6484 183.799 10.6454C183.647 10.6414 183.467 10.6379 183.246 10.6304C183.014 10.623 182.782 10.6185 182.55 10.6169C182.317 10.6122 182.084 10.6095 181.851 10.6089C181.741 10.6089 181.666 10.6189 181.619 10.6454C181.568 10.6669 181.546 10.7064 181.546 10.7604C181.55 10.7996 181.569 10.8359 181.598 10.8624C181.624 10.8918 181.66 10.9101 181.699 10.9134C181.76 10.9134 181.829 10.9134 181.913 10.9204C182.059 10.926 182.205 10.9376 182.351 10.9554C182.557 10.9849 182.717 11.0394 182.826 11.1194C182.935 11.1994 183.01 11.3119 183.05 11.4524C183.099 11.6238 183.127 11.8004 183.133 11.9784C183.141 12.0904 183.148 12.2134 183.155 12.3404C183.159 12.4704 183.166 12.6229 183.166 12.8039C183.169 12.9849 183.173 13.2129 183.173 13.4854C183.178 13.7569 183.178 14.0949 183.178 14.4954V19.2179C183.178 19.8154 183.178 20.3669 183.173 20.8774C183.17 21.3315 183.161 21.7856 183.146 22.2394C183.136 22.5667 183.11 22.8932 183.068 23.2179C183.042 23.3979 183.014 23.5579 182.982 23.6994C182.96 23.8192 182.913 23.933 182.844 24.0334C182.778 24.1221 182.678 24.1808 182.568 24.1964C182.478 24.2099 182.38 24.2249 182.275 24.2454C182.178 24.2662 182.08 24.279 181.981 24.2839C181.927 24.2854 181.887 24.3009 181.865 24.3334C181.842 24.3617 181.83 24.397 181.83 24.4334C181.83 24.4904 181.855 24.5299 181.909 24.5509C181.959 24.5759 182.036 24.5859 182.133 24.5859C182.29 24.5859 182.466 24.5829 182.662 24.5734C182.856 24.5652 183.049 24.5552 183.242 24.5434C183.456 24.5329 183.637 24.5249 183.793 24.5249C183.948 24.5214 184.04 24.5214 184.07 24.5214C184.209 24.5214 184.41 24.5214 184.666 24.5249C184.924 24.5329 185.254 24.5434 185.656 24.5649C186.046 24.5759 186.521 24.5909 187.075 24.6044C187.63 24.6184 188.264 24.6309 188.981 24.6309C189.224 24.6339 189.416 24.6259 189.558 24.6134C189.699 24.5979 189.803 24.5579 189.876 24.4904C189.949 24.4204 190.006 24.3069 190.046 24.1524C190.076 24.0504 190.104 23.9064 190.134 23.7274C190.163 23.5474 190.191 23.3574 190.217 23.1634C190.245 22.9669 190.264 22.7979 190.282 22.6484C190.295 22.5559 190.303 22.4628 190.307 22.3694C190.307 22.3019 190.3 22.2359 190.282 22.1784C190.264 22.1194 190.23 22.0909 190.177 22.0864M216.126 22.1779C216.108 22.1189 216.074 22.0899 216.022 22.0854C215.998 22.0834 215.974 22.0878 215.953 22.0979C215.931 22.1081 215.913 22.1238 215.899 22.1434C215.87 22.1874 215.847 22.2609 215.825 22.3689C215.79 22.6114 215.735 22.8189 215.663 22.9804C215.599 23.1344 215.502 23.2729 215.38 23.3864C215.255 23.4983 215.112 23.5879 214.956 23.6514C214.786 23.7164 214.583 23.7599 214.351 23.7889C214.115 23.8179 213.885 23.8329 213.653 23.8399C213.417 23.8464 213.214 23.8464 213.043 23.8464C212.572 23.8504 212.191 23.8289 211.895 23.7889C211.598 23.7489 211.369 23.6769 211.21 23.5714C211.047 23.4665 210.927 23.3077 210.869 23.1229C210.803 22.9269 210.768 22.6764 210.76 22.3689C210.755 22.2323 210.753 22.0956 210.754 21.9589C210.749 21.7639 210.749 21.5389 210.749 21.2824C210.754 21.0254 210.754 20.7604 210.754 20.4924C210.756 20.2239 210.756 19.9784 210.756 19.7499C210.76 19.5254 210.76 19.3474 210.76 19.2169V17.6739C210.76 17.6374 210.768 17.6089 210.785 17.5829C210.803 17.5579 210.837 17.5429 210.891 17.5429C210.96 17.5429 211.086 17.5429 211.268 17.5469C211.449 17.5469 211.658 17.5499 211.898 17.5544C212.141 17.5574 212.384 17.5649 212.634 17.5734C212.88 17.5799 213.108 17.5864 213.311 17.5939C213.518 17.6044 213.674 17.6154 213.782 17.6299C214.025 17.6589 214.217 17.7029 214.351 17.7569C214.486 17.8109 214.583 17.8754 214.64 17.9524C214.702 18.0249 214.742 18.1084 214.762 18.1944C214.804 18.3144 214.828 18.4244 214.836 18.5244C214.848 18.6219 214.851 18.7169 214.848 18.8049C214.848 18.8569 214.859 18.9014 214.88 18.9304C214.902 18.9629 214.935 18.9779 214.977 18.9779C215.043 18.9734 215.087 18.9334 215.115 18.8629C215.14 18.7889 215.152 18.7094 215.152 18.6304C215.152 18.5804 215.156 18.4854 215.167 18.3439C215.173 18.2019 215.184 18.0469 215.196 17.8799C215.209 17.7099 215.225 17.5604 215.239 17.4334C215.255 17.1988 215.287 16.9654 215.333 16.7349C215.369 16.5724 215.387 16.4634 215.39 16.4124C215.39 16.3584 215.38 16.3184 215.362 16.2974C215.352 16.2855 215.34 16.276 215.327 16.2696C215.313 16.2632 215.298 16.26 215.282 16.2604C215.25 16.2604 215.209 16.2859 215.167 16.3289C215.118 16.3764 215.065 16.4304 215 16.4994C214.898 16.5972 214.769 16.6628 214.63 16.6879C214.481 16.7164 214.293 16.7429 214.064 16.7599C213.97 16.7679 213.815 16.7749 213.59 16.7824C213.365 16.7859 213.108 16.7934 212.822 16.7934C212.536 16.7964 212.249 16.7999 211.971 16.7999C211.691 16.8039 211.452 16.8039 211.253 16.8039H210.869C210.819 16.8039 210.785 16.7859 210.775 16.7539C210.761 16.7067 210.756 16.6571 210.76 16.6079V11.5869C210.76 11.5209 210.768 11.4709 210.782 11.4384C210.797 11.4054 210.825 11.3914 210.869 11.3914C210.916 11.3914 211.032 11.3914 211.21 11.3949C211.387 11.3949 211.598 11.3984 211.841 11.4019C212.086 11.4054 212.333 11.4094 212.579 11.4124C212.83 11.4199 213.046 11.4234 213.239 11.4314C213.43 11.4384 213.561 11.4454 213.63 11.4564C213.974 11.4999 214.235 11.5434 214.421 11.5944C214.605 11.6409 214.735 11.6984 214.818 11.7674C214.902 11.8364 214.961 11.9199 215 12.0214C215.043 12.1344 215.072 12.2534 215.087 12.3804C215.101 12.5029 215.108 12.6014 215.108 12.6739C215.108 12.7494 215.118 12.8074 215.144 12.8514C215.167 12.8914 215.206 12.9124 215.261 12.9124C215.283 12.91 215.304 12.903 215.324 12.8918C215.343 12.8806 215.359 12.8655 215.372 12.8474C215.402 12.8091 215.423 12.7647 215.434 12.7174C215.446 12.6594 215.456 12.5724 215.467 12.4599C215.478 12.3439 215.488 12.2239 215.497 12.0904C215.507 11.9594 215.514 11.8404 215.522 11.7319L215.544 11.4999C215.559 11.303 215.59 11.1077 215.637 10.9159C215.674 10.7864 215.692 10.6919 215.696 10.6309C215.697 10.5901 215.69 10.5496 215.677 10.5109C215.663 10.4739 215.642 10.4559 215.609 10.4559C215.563 10.4603 215.519 10.4729 215.478 10.4929C215.42 10.5204 215.406 10.5279 215.349 10.5389C215.259 10.5564 215.153 10.5759 214.995 10.5974C214.841 10.6189 214.666 10.6379 214.478 10.6514C214.318 10.6577 214.159 10.6604 213.999 10.6594C213.757 10.6594 213.467 10.6624 213.13 10.6624C212.793 10.6624 212.445 10.6594 212.083 10.6594C211.717 10.6594 211.376 10.6594 211.057 10.6554C210.739 10.6554 210.474 10.6554 210.268 10.6514H209.914C209.881 10.6514 209.793 10.6484 209.644 10.6449C209.492 10.6414 209.312 10.6379 209.091 10.6304C208.859 10.623 208.627 10.6184 208.395 10.6164C208.162 10.6118 207.929 10.6093 207.696 10.6089C207.587 10.6089 207.51 10.6194 207.464 10.6449C207.412 10.6664 207.391 10.7064 207.391 10.7604C207.395 10.7995 207.413 10.8356 207.442 10.8619C207.468 10.8914 207.505 10.9099 207.544 10.9134C207.605 10.9134 207.674 10.9134 207.757 10.9204C207.837 10.9239 207.92 10.9274 207.996 10.9354C208.076 10.9419 208.146 10.9489 208.195 10.9559C208.402 10.9849 208.562 11.0394 208.67 11.1194C208.779 11.1994 208.855 11.3114 208.895 11.4524C208.938 11.5944 208.967 11.7674 208.978 11.9779C208.986 12.0904 208.993 12.2134 209 12.3404C209.003 12.4704 209.01 12.6229 209.01 12.8034C209.014 12.9849 209.018 13.2134 209.018 13.4854C209.023 13.7569 209.023 14.0944 209.023 14.4959V19.2169C209.023 19.8144 209.023 20.3659 209.018 20.8769C209.015 21.3309 209.005 21.7847 208.99 22.2384C208.975 22.6334 208.949 22.9589 208.913 23.2169C208.887 23.3969 208.859 23.5574 208.827 23.6984C208.805 23.8182 208.758 23.932 208.689 24.0324C208.656 24.0764 208.615 24.1135 208.567 24.1415C208.52 24.1694 208.467 24.1878 208.413 24.1954C208.323 24.2089 208.225 24.2244 208.119 24.2454C208.023 24.2659 207.924 24.2784 207.825 24.2829C207.772 24.2849 207.731 24.2999 207.71 24.3329C207.687 24.3612 207.674 24.3968 207.674 24.4334C207.674 24.4894 207.699 24.5289 207.753 24.5499C207.803 24.5754 207.88 24.5854 207.978 24.5854C208.135 24.5854 208.311 24.5824 208.507 24.5724C208.706 24.5639 208.898 24.5539 209.087 24.5424C209.3 24.5324 209.482 24.5239 209.638 24.5239C209.793 24.5209 209.884 24.5209 209.914 24.5209C210.053 24.5209 210.254 24.5209 210.51 24.5239C210.841 24.5334 211.171 24.5467 211.5 24.5639C211.891 24.5754 212.365 24.5899 212.92 24.6039C213.475 24.6179 214.108 24.6299 214.826 24.6299C215.069 24.6329 215.261 24.6254 215.403 24.6124C215.544 24.5974 215.648 24.5574 215.72 24.4894C215.793 24.4194 215.851 24.3064 215.891 24.1514C215.92 24.0494 215.949 23.9054 215.978 23.7274C216.007 23.5464 216.036 23.3574 216.061 23.1629C216.09 22.9659 216.108 22.7969 216.126 22.6479C216.144 22.4999 216.151 22.4059 216.151 22.3689C216.153 22.3042 216.144 22.2402 216.126 22.1779ZM155.489 20.1219C155.318 20.7819 155.085 21.3429 154.793 21.8034C154.503 22.2644 154.173 22.6449 153.81 22.9419C153.469 23.2228 153.09 23.4546 152.684 23.6304C152.296 23.7934 151.922 23.9089 151.557 23.9739C151.196 24.0354 150.869 24.0689 150.578 24.0649C149.708 24.0609 148.908 23.8979 148.177 23.5759C147.445 23.2549 146.791 22.779 146.26 22.1809C145.716 21.5689 145.295 20.8369 144.992 19.9734C144.691 19.1119 144.54 18.1449 144.536 17.0649C144.54 16.0574 144.678 15.1814 144.946 14.4274C145.216 13.6739 145.597 13.0474 146.086 12.5474C146.576 12.0463 147.172 11.66 147.829 11.4164C148.496 11.1664 149.234 11.0439 150.036 11.0439C150.645 11.0439 151.228 11.1339 151.789 11.3194C152.354 11.5034 152.875 11.7794 153.353 12.1444C153.846 12.5253 154.271 12.9858 154.612 13.5069C154.971 14.0504 155.249 14.6809 155.448 15.3979C155.647 16.1149 155.749 16.9164 155.752 17.8034C155.749 18.6919 155.662 19.4664 155.489 20.1219ZM155.542 12.1984C154.857 11.6009 154.06 11.1419 153.145 10.8264C152.228 10.5104 151.228 10.3514 150.145 10.3484C149.264 10.3509 148.466 10.4604 147.749 10.6739C147.032 10.8914 146.39 11.1844 145.829 11.5589C145.285 11.9167 144.794 12.348 144.369 12.8404C143.969 13.3067 143.627 13.8202 143.352 14.3694C143.09 14.8869 142.889 15.4326 142.752 15.9959C142.627 16.51 142.562 17.0369 142.558 17.5659C142.558 18.1219 142.619 18.6879 142.749 19.2574C142.878 19.8351 143.073 20.3956 143.333 20.9274C143.598 21.4742 143.934 21.9834 144.333 22.4414C144.748 22.9224 145.232 23.3399 145.768 23.6804C146.322 24.0379 146.952 24.3189 147.663 24.5169C148.373 24.7204 149.162 24.8209 150.036 24.8249C150.959 24.8209 151.814 24.6914 152.604 24.4379C153.39 24.1804 154.101 23.8219 154.727 23.3579C155.35 22.9041 155.894 22.3507 156.336 21.7199C156.781 21.0879 157.124 20.3904 157.353 19.6524C157.59 18.9024 157.708 18.1124 157.708 17.2809C157.702 16.2034 157.51 15.2359 157.133 14.3834C156.751 13.5289 156.223 12.7994 155.542 12.1984ZM140.571 21.2379C140.508 21.2379 140.465 21.2559 140.44 21.2964C140.415 21.3359 140.394 21.4014 140.374 21.4999C140.353 21.6199 140.309 21.7739 140.249 21.9624C140.179 22.1591 140.095 22.3508 139.998 22.5359C139.902 22.7211 139.78 22.8918 139.635 23.0429C139.397 23.2851 139.113 23.477 138.799 23.6074C138.469 23.7379 138.123 23.822 137.769 23.8574C137.389 23.8974 136.962 23.9159 136.484 23.9139C135.665 23.9099 134.904 23.7899 134.199 23.5584C133.495 23.3214 132.857 22.9959 132.292 22.5754C131.736 22.1638 131.247 21.6675 130.843 21.1044C130.443 20.5456 130.13 19.9288 129.915 19.2754C129.702 18.6099 129.593 17.9153 129.593 17.2164C129.588 16.6164 129.631 16.0169 129.723 15.4239C129.814 14.8627 129.988 14.3179 130.238 13.8074C130.487 13.2974 130.843 12.8264 131.31 12.3919C131.531 12.1769 131.821 11.9714 132.18 11.7789C132.538 11.5829 132.998 11.4239 133.557 11.3004C134.115 11.1764 134.799 11.1129 135.615 11.1084C136.183 11.1084 136.708 11.1559 137.194 11.2464C137.68 11.3364 138.107 11.4599 138.477 11.6124C138.849 11.7674 139.147 11.9374 139.375 12.1309C139.542 12.2604 139.687 12.4274 139.805 12.6234C139.929 12.8237 140.022 13.041 140.082 13.2684C140.147 13.4994 140.18 13.7354 140.18 13.9774C140.18 14.1084 140.186 14.2059 140.208 14.2714C140.227 14.3369 140.27 14.3699 140.331 14.3699C140.386 14.3699 140.434 14.3409 140.472 14.2794C140.512 14.2174 140.539 14.1154 140.549 13.9774C140.558 13.8717 140.563 13.7656 140.563 13.6594C140.566 13.5144 140.566 13.3479 140.571 13.1624C140.574 12.9774 140.578 12.7899 140.578 12.6014C140.581 12.4129 140.589 12.2434 140.592 12.0864C140.606 11.8654 140.622 11.6854 140.636 11.5504C140.646 11.4164 140.658 11.3089 140.668 11.2309C140.676 11.1559 140.679 11.0909 140.679 11.0434C140.681 11.0185 140.678 10.9935 140.67 10.9697C140.663 10.946 140.65 10.9242 140.633 10.9054C140.6 10.8664 140.535 10.8474 140.44 10.8474C140.124 10.8328 139.808 10.799 139.495 10.7464C139.158 10.6899 138.821 10.6294 138.485 10.5649C138.169 10.5149 137.846 10.4749 137.518 10.4424C136.915 10.3811 136.308 10.3495 135.702 10.3479C134.727 10.3509 133.876 10.4429 133.144 10.6129C132.412 10.7869 131.777 11.0214 131.245 11.3189C130.712 11.6154 130.255 11.9529 129.875 12.3264C129.455 12.7434 129.104 13.1764 128.825 13.6374C128.557 14.0684 128.336 14.5265 128.165 15.0039C128.003 15.4564 127.89 15.8839 127.82 16.2894C127.757 16.6959 127.724 17.0544 127.724 17.3694C127.716 17.9594 127.781 18.5759 127.912 19.2134C128.041 19.8514 128.278 20.4809 128.614 21.1044C128.956 21.7244 129.435 22.3084 130.049 22.8484C130.551 23.2865 131.111 23.6542 131.712 23.9414C132.324 24.2344 133.014 24.4529 133.777 24.6009C134.541 24.7494 135.401 24.8259 136.353 24.8259C136.773 24.8259 137.198 24.8109 137.625 24.7859C138.033 24.7626 138.439 24.7192 138.843 24.6559C139.223 24.5944 139.546 24.5149 139.81 24.4129C139.919 24.3729 139.998 24.3299 140.056 24.2894C140.112 24.249 140.157 24.1969 140.19 24.1369C140.23 24.0506 140.263 23.9612 140.288 23.8694C140.329 23.7394 140.368 23.5819 140.412 23.3939C140.5 23.0016 140.575 22.6068 140.639 22.2099C140.672 22.0199 140.698 21.8609 140.716 21.7339C140.734 21.6079 140.744 21.5284 140.744 21.4999C140.745 21.435 140.726 21.3714 140.689 21.3179C140.658 21.2674 140.618 21.2429 140.571 21.2379ZM104.782 21.0859C104.709 21.0829 104.656 21.1109 104.622 21.1669C104.59 21.2214 104.565 21.3189 104.543 21.4559C104.515 21.5916 104.473 21.7239 104.417 21.8504C104.358 21.9954 104.282 22.1404 104.192 22.2849C104.103 22.4299 104.003 22.5674 103.891 22.6959C103.658 22.9624 103.372 23.1769 103.05 23.3254C102.738 23.4674 102.377 23.5614 101.964 23.6074C101.55 23.6554 101.061 23.6774 100.5 23.6739C99.9819 23.6739 99.4449 23.5904 98.8949 23.4199C98.3273 23.2445 97.7879 22.9882 97.2934 22.6589C96.7784 22.3189 96.3149 21.8874 95.9014 21.3729C95.4889 20.8539 95.1594 20.2489 94.9169 19.5544C94.6739 18.8574 94.5504 18.0729 94.5439 17.1959C94.539 16.6 94.5862 16.0047 94.6849 15.4169C94.7822 14.8463 94.9628 14.293 95.2209 13.7749C95.4744 13.2609 95.8364 12.7999 96.3039 12.3909C96.5893 12.146 96.9095 11.9449 97.2539 11.7939C97.6014 11.6379 97.9924 11.5254 98.4269 11.4524C98.8619 11.3804 99.3584 11.3474 99.9134 11.3474C100.797 11.3514 101.55 11.4564 102.177 11.6564C102.805 11.8504 103.279 12.1129 103.608 12.4339C103.842 12.6679 104.026 12.9466 104.149 13.2534C104.271 13.5544 104.336 13.8549 104.347 14.1514C104.347 14.2724 104.363 14.3689 104.388 14.4389C104.399 14.4704 104.421 14.4975 104.449 14.5163C104.476 14.535 104.509 14.5445 104.543 14.5434C104.63 14.5394 104.692 14.4959 104.732 14.4119C104.771 14.3299 104.794 14.2209 104.804 14.0864C104.811 13.9914 104.815 13.8629 104.819 13.7014L104.83 13.1774C104.833 12.9849 104.836 12.7939 104.844 12.6054C104.852 12.4129 104.859 12.2429 104.87 12.0864C104.883 11.8694 104.897 11.6989 104.912 11.5649C104.924 11.4344 104.934 11.3294 104.944 11.2539C104.952 11.1739 104.956 11.1129 104.956 11.0649C104.957 11.0385 104.953 11.0122 104.943 10.9878C104.933 10.9633 104.917 10.9415 104.897 10.9239C104.855 10.8849 104.782 10.8579 104.674 10.8474C104.373 10.8101 104.073 10.7644 103.774 10.7104C103.437 10.6509 103.099 10.5953 102.76 10.5434C102.48 10.5075 102.2 10.4747 101.92 10.4449C101.627 10.4123 101.334 10.3882 101.04 10.3729C100.686 10.3548 100.332 10.3465 99.9784 10.3479C99.0324 10.3479 98.1884 10.4279 97.4489 10.5829C96.7104 10.7389 96.0509 10.9629 95.4709 11.2569C94.9078 11.5358 94.384 11.888 93.9134 12.3044C93.4609 12.7134 93.0864 13.1484 92.7934 13.6044C92.514 14.0337 92.2842 14.4933 92.1084 14.9744C91.9549 15.3962 91.841 15.8315 91.7684 16.2744C91.7034 16.6844 91.6699 17.0504 91.6734 17.3689C91.672 17.9927 91.739 18.6148 91.8734 19.2239C92.0114 19.8619 92.2579 20.4859 92.6054 21.1009C92.9529 21.7169 93.4424 22.2929 94.0654 22.8259C94.6376 23.3033 95.2755 23.696 95.9594 23.9919C96.6635 24.2911 97.4007 24.5054 98.1554 24.6304C98.9354 24.7634 99.7604 24.8289 100.63 24.8254C101.05 24.8254 101.474 24.8099 101.909 24.7849C102.317 24.7629 102.723 24.7198 103.126 24.6559C103.506 24.5944 103.829 24.5144 104.086 24.4119C104.246 24.3544 104.358 24.2849 104.427 24.2134C104.496 24.1404 104.55 24.0254 104.587 23.8684C104.627 23.7394 104.667 23.5819 104.705 23.3899C104.789 22.9919 104.857 22.5908 104.909 22.1874C104.938 21.9959 104.96 21.8294 104.975 21.6924C104.992 21.5544 105 21.4599 105 21.4124C104.999 21.3352 104.979 21.2595 104.941 21.1919C104.926 21.1625 104.903 21.1374 104.875 21.1189C104.848 21.1004 104.816 21.0891 104.782 21.0859ZM42.9294 24.1954C42.8324 24.1954 42.7269 24.1914 42.6074 24.1879C42.4915 24.1845 42.3758 24.1773 42.2604 24.1664C42.1571 24.1581 42.0542 24.1458 41.9519 24.1294C41.7669 24.1014 41.6224 24.0494 41.5169 23.9779C41.4156 23.9055 41.3375 23.805 41.2924 23.6889C41.2397 23.5511 41.2056 23.4068 41.1909 23.2599C41.1586 22.9278 41.1381 22.5945 41.1294 22.2609C41.1184 21.8579 41.1119 21.3984 41.1074 20.8829C41.1039 20.3699 41.1039 19.8149 41.1039 19.2169V14.5279C41.1039 14.1329 41.1039 13.8044 41.1074 13.5359C41.1074 13.2679 41.1119 13.0434 41.1149 12.8659C41.1149 12.7634 41.1169 12.6694 41.1199 12.5829L41.1224 12.5144H41.1239L41.1274 12.4059L41.1354 12.2694L41.1364 12.2189C41.1384 12.1459 41.1404 12.0804 41.1419 12.0519C41.1579 11.7279 41.2164 11.4899 41.3199 11.3349C41.3704 11.2589 41.4384 11.1979 41.5254 11.1499L41.5334 11.1459C41.5434 11.1409 41.5534 11.1359 41.5634 11.1319L41.5639 11.1314L41.5974 11.1164C41.6079 11.1124 41.6184 11.1074 41.6299 11.1034L41.6439 11.0979C41.6721 11.0871 41.7006 11.0771 41.7294 11.0679C41.8878 11.022 42.0511 10.995 42.2159 10.9874C42.2852 10.9841 42.3545 10.9821 42.4239 10.9814L42.4299 10.9809H42.4334L42.4434 10.9804L42.4804 10.9794C42.5365 10.9782 42.5918 10.9656 42.6429 10.9424C42.6595 10.935 42.6745 10.9242 42.6869 10.9109L42.6899 10.9084C42.7289 10.8674 42.7384 10.8064 42.7384 10.7524C42.7384 10.7288 42.7303 10.7058 42.7154 10.6874C42.6905 10.66 42.6582 10.6404 42.6224 10.6309C42.5479 10.6059 42.4384 10.5939 42.2929 10.5929C42.2294 10.5929 42.1634 10.5939 42.0959 10.5949C41.9769 10.5959 41.8519 10.5984 41.7199 10.5999C41.5417 10.6028 41.3636 10.6066 41.1854 10.6114L41.0199 10.6159C40.7844 10.6234 40.5704 10.6269 40.3704 10.6309L40.1014 10.6359C40.0214 10.6374 39.9504 10.6379 39.8889 10.6379H39.7139C39.6529 10.6379 39.5819 10.6374 39.5019 10.6359L39.2329 10.6309C39.0329 10.6269 38.8184 10.6234 38.5834 10.6159L38.4179 10.6109C38.2389 10.6059 38.0609 10.6029 37.8834 10.6004C37.7514 10.5984 37.6264 10.5954 37.5069 10.5949L37.3104 10.5929C37.1644 10.5939 37.0554 10.6064 36.9809 10.6309C36.9451 10.6407 36.9127 10.6602 36.8874 10.6874C36.8727 10.7059 36.8647 10.7288 36.8649 10.7524L36.8654 10.7569L36.8649 10.7599C36.8649 10.7989 36.8714 10.8314 36.8829 10.8589L36.8869 10.8684C36.891 10.8771 36.896 10.8853 36.9019 10.8929C36.9054 10.8979 36.9089 10.9039 36.9134 10.9079L36.9164 10.9109C36.9247 10.9204 36.9343 10.9286 36.9449 10.9354C36.9494 10.9384 36.9554 10.9399 36.9599 10.9424C37.0112 10.9656 37.0666 10.9782 37.1229 10.9794L37.1594 10.9804H37.1734L37.1789 10.9814C37.2214 10.9814 37.2629 10.9824 37.3049 10.9834C37.3329 10.9844 37.3604 10.9854 37.3874 10.9874C37.5522 10.9952 37.7155 11.0224 37.8739 11.0684C37.9034 11.0774 37.9319 11.0874 37.9594 11.0979C37.9644 11.0999 37.9689 11.1019 37.9734 11.1029L38.0059 11.1169C38.0276 11.1255 38.0488 11.1351 38.0694 11.1459L38.0779 11.1504C38.1259 11.1754 38.1704 11.2034 38.2094 11.2344C38.3004 11.3079 38.3719 11.4089 38.4189 11.5394C38.4694 11.6669 38.5029 11.8329 38.5169 12.0424C38.5233 12.2224 38.5282 12.4024 38.5314 12.5824L38.5334 12.7569L38.5354 12.8659C38.5354 13.0434 38.5384 13.2679 38.5384 13.5359V19.2159C38.5384 19.8144 38.5384 20.3694 38.5354 20.8824C38.5328 21.3392 38.5254 21.7958 38.5134 22.2524C38.507 22.5815 38.4865 22.9101 38.4519 23.2374C38.4229 23.5064 38.3719 23.7134 38.2924 23.8544C38.2129 23.9954 38.0789 24.0884 37.8869 24.1289C37.7994 24.1509 37.7014 24.1689 37.5894 24.1804C37.4644 24.1911 37.3389 24.196 37.2134 24.1949C37.0969 24.1979 37.0134 24.2199 36.9709 24.2594C36.9264 24.2994 36.9049 24.3434 36.9089 24.3909C36.9089 24.4559 36.9414 24.5019 37.0024 24.5359C37.0689 24.5679 37.1589 24.5854 37.2779 24.5854C37.4744 24.5854 37.6879 24.5824 37.9304 24.5749C38.1689 24.5679 38.4084 24.5599 38.6514 24.5534C38.8904 24.5464 39.1114 24.5394 39.3104 24.5314C39.5099 24.5239 39.6659 24.5209 39.7774 24.5209C39.9559 24.5209 40.2089 24.5284 40.5319 24.5394C40.8549 24.5494 41.2159 24.5579 41.6184 24.5679C42.0249 24.5779 42.4409 24.5854 42.8654 24.5854C42.9774 24.5854 43.0649 24.5679 43.1294 24.5364C43.1979 24.5014 43.2304 24.4559 43.2344 24.3909C43.2344 24.3434 43.2129 24.2994 43.1614 24.2594C43.1154 24.2204 43.0384 24.1979 42.9294 24.1944M57.4284 12.0579C57.3922 11.8583 57.3535 11.6591 57.3124 11.4604C57.2724 11.2644 57.2404 11.0974 57.2084 10.9559C57.1784 10.8184 57.1604 10.7284 57.1494 10.6959C57.1377 10.6272 57.1197 10.5598 57.0954 10.4944C57.0872 10.4726 57.0775 10.4514 57.0664 10.4309C57.0299 10.3764 56.9869 10.3479 56.9319 10.3479C56.8599 10.3509 56.7654 10.3799 56.6429 10.4309C56.5194 10.4824 56.3419 10.5284 56.1064 10.5649C55.797 10.5988 55.4865 10.6219 55.1754 10.6339C54.8419 10.6449 54.5119 10.6514 54.1939 10.6514H47.6289C47.3104 10.6514 46.9809 10.6449 46.6474 10.6339C46.3362 10.6219 46.0255 10.5988 45.7159 10.5649C45.4804 10.5284 45.3029 10.4824 45.1794 10.4309C45.0569 10.3799 44.9629 10.3509 44.8904 10.3479C44.8359 10.3479 44.7929 10.3764 44.7559 10.4309C44.7459 10.4489 44.7364 10.4709 44.7269 10.4944C44.7027 10.5596 44.6846 10.6269 44.6729 10.6954C44.6619 10.7284 44.6439 10.8184 44.6144 10.9559C44.5819 11.0974 44.5499 11.2644 44.5099 11.4599L44.4689 11.6649C44.4429 11.7949 44.4174 11.9249 44.3939 12.0574C44.3539 12.2604 44.3254 12.4414 44.2999 12.5974C44.2744 12.7574 44.2599 12.8689 44.2599 12.9344C44.2599 13.0324 44.2704 13.1079 44.2999 13.1594C44.3254 13.2099 44.3679 13.2394 44.4339 13.2394C44.4624 13.24 44.4907 13.2346 44.5169 13.2234C44.5401 13.2137 44.5601 13.1976 44.5744 13.1769C44.6124 13.124 44.6383 13.0634 44.6504 12.9994C44.6729 12.9309 44.7054 12.8434 44.7559 12.7314C44.817 12.6037 44.891 12.4825 44.9769 12.3699C45.0684 12.2319 45.1874 12.1229 45.3359 12.0424C45.4844 11.9634 45.6764 11.9054 45.9159 11.8694C46.1179 11.8359 46.3679 11.8174 46.6624 11.8079L46.8249 11.8039L49.5849 11.7404L49.6729 11.7384V19.2169C49.6729 19.7859 49.6729 20.3179 49.6689 20.8184C49.6661 21.2653 49.6589 21.7122 49.6474 22.1589C49.6403 22.4905 49.6196 22.8216 49.5854 23.1514C49.5569 23.4234 49.5059 23.6444 49.4259 23.8114C49.3884 23.8929 49.3321 23.9642 49.2616 24.0196C49.1911 24.075 49.1084 24.1128 49.0204 24.1299C48.9267 24.1552 48.831 24.1723 48.7344 24.1809C48.6054 24.1919 48.4759 24.1969 48.3464 24.1959C48.2304 24.1984 48.1469 24.2209 48.1039 24.2599C48.0599 24.2999 48.0384 24.3439 48.0424 24.3904C48.0424 24.4559 48.0749 24.5024 48.1364 24.5359C48.1844 24.5599 48.2469 24.5764 48.3244 24.5824C48.3519 24.5849 48.3809 24.5859 48.4119 24.5859C48.6074 24.5859 48.8209 24.5824 49.0639 24.5759L49.7844 24.5539C50.0279 24.5469 50.2449 24.5394 50.4439 24.5319C50.5812 24.5263 50.7185 24.523 50.8559 24.5219C50.8744 24.5209 50.8924 24.5209 50.9089 24.5209H50.9134L50.9664 24.5214C51.1454 24.5224 51.3794 24.5299 51.6724 24.5394C51.9954 24.5499 52.3574 24.5574 52.7594 24.5684C53.0014 24.5744 53.2479 24.5789 53.4979 24.5824C53.6634 24.5844 53.8299 24.5859 53.9989 24.5859C54.1109 24.5859 54.1979 24.5684 54.2669 24.5359C54.3319 24.5024 54.3674 24.4559 54.3674 24.3909C54.3674 24.3439 54.3459 24.2999 54.2994 24.2599C54.2479 24.2209 54.1719 24.1984 54.0634 24.1954C53.9699 24.1954 53.8604 24.1919 53.7414 24.1874C53.6252 24.1843 53.5091 24.1771 53.3934 24.1659C53.2904 24.1576 53.1876 24.1456 53.0854 24.1299C52.9009 24.1004 52.7559 24.0429 52.6579 23.9589C52.555 23.8744 52.4795 23.7613 52.4409 23.6339C52.393 23.4841 52.3612 23.3295 52.3459 23.1729C52.3129 22.8381 52.2915 22.5022 52.2819 22.1659C52.2624 21.717 52.2501 21.2678 52.2449 20.8184C52.2414 20.3184 52.2374 19.7859 52.2374 19.2169V11.7404L54.9974 11.8039L55.1599 11.8079C55.4544 11.8179 55.7044 11.8359 55.9069 11.8694C56.1459 11.9054 56.3379 11.9634 56.4864 12.0424C56.6354 12.1229 56.7544 12.2324 56.8454 12.3699C56.9903 12.5592 57.1008 12.7724 57.1719 12.9999C57.1845 13.0636 57.2104 13.1239 57.2479 13.1769C57.2624 13.1975 57.2823 13.2136 57.3054 13.2234C57.3316 13.2346 57.3599 13.24 57.3884 13.2394C57.4162 13.241 57.4439 13.2342 57.4679 13.22C57.4918 13.2057 57.511 13.1846 57.5229 13.1594C57.5524 13.1079 57.5629 13.0324 57.5629 12.9344C57.5629 12.8694 57.5479 12.7574 57.5229 12.5974C57.4969 12.4414 57.4684 12.2604 57.4284 12.0574M75.0639 24.1954H75.0554C74.9484 24.1942 74.8414 24.1916 74.7344 24.1874C74.6185 24.1846 74.5028 24.1776 74.3874 24.1664C74.2872 24.1579 74.1873 24.146 74.0879 24.1309L74.0789 24.1294C74.0392 24.1238 73.9998 24.1162 73.9609 24.1064L73.9454 24.1029L73.9354 24.1014C73.832 24.0769 73.7335 24.0351 73.6439 23.9779C73.5424 23.9052 73.4643 23.8044 73.4194 23.6879C73.3669 23.5504 73.3327 23.4064 73.3179 23.2599C73.2856 22.9279 73.2652 22.5949 73.2569 22.2614C73.2454 21.8579 73.2389 21.3984 73.2349 20.8829C73.2309 20.3699 73.2309 19.8149 73.2309 19.2169V14.5289C73.2309 14.1339 73.2309 13.8039 73.2349 13.5369L73.2354 13.3609C73.2364 13.1684 73.2399 13.0034 73.2419 12.8659V12.8574C73.2419 12.7589 73.2444 12.6669 73.2469 12.5824L73.2494 12.5154H73.2509L73.2549 12.4064L73.2624 12.2699L73.2639 12.2194L73.2644 12.2069C73.2659 12.1389 73.2674 12.0799 73.2694 12.0519C73.2854 11.7279 73.3434 11.4899 73.4469 11.3349C73.4995 11.258 73.57 11.195 73.6524 11.1514L73.6609 11.1459L73.6909 11.1329L73.6914 11.1324C73.7019 11.1269 73.7134 11.1224 73.7244 11.1174C73.7354 11.1124 73.7454 11.1074 73.7569 11.1039L73.7709 11.0989C73.7991 11.0877 73.8278 11.0776 73.8569 11.0689C73.8699 11.0649 73.8839 11.0619 73.8974 11.0584C74.0429 11.019 74.1923 10.9953 74.3429 10.9879H74.3459L74.4254 10.9839C74.4669 10.9829 74.5089 10.9814 74.5509 10.9814H74.5574C74.6614 10.9814 74.8019 10.9699 74.8474 10.8599C74.86 10.8281 74.8661 10.7941 74.8654 10.7599V10.7529C74.8657 10.7292 74.8575 10.7062 74.8424 10.6879C74.8325 10.6759 74.8207 10.6656 74.8074 10.6574C74.7893 10.6464 74.7698 10.6378 74.7494 10.6319C74.6749 10.6069 74.5659 10.5944 74.4199 10.5934L74.2234 10.5949C74.1039 10.5964 73.9789 10.5994 73.8469 10.6014C73.6135 10.6037 73.3802 10.6085 73.1469 10.6159C72.9114 10.6234 72.6974 10.6269 72.4974 10.6319L72.2284 10.6364C72.1484 10.6379 72.0779 10.6384 72.0159 10.6384H71.8414C71.7799 10.6384 71.7089 10.6379 71.6289 10.6364L71.3599 10.6314C71.1599 10.6264 70.9459 10.6234 70.7104 10.6159C70.4771 10.6085 70.2438 10.6037 70.0104 10.6014C69.8784 10.5994 69.7534 10.5964 69.6344 10.5949L69.4374 10.5934C69.3597 10.5932 69.282 10.5982 69.2049 10.6084C69.172 10.6135 69.1395 10.6214 69.1079 10.6319C69.0721 10.6412 69.0398 10.6606 69.0149 10.6879C69.0086 10.6959 69.0034 10.7046 68.9994 10.7139C68.9664 10.7934 69.0129 10.9049 69.0874 10.9434C69.1384 10.9667 69.1938 10.979 69.2499 10.9794C69.2619 10.9804 69.2744 10.9804 69.2864 10.9809H69.3064C69.3484 10.9809 69.3904 10.9829 69.4324 10.9839L69.5149 10.9879C69.6795 10.9968 69.8425 11.0242 70.0009 11.0694C70.0309 11.0784 70.0589 11.0879 70.0869 11.0989L70.1004 11.1039C70.1119 11.1079 70.1219 11.1129 70.1329 11.1174C70.1439 11.1224 70.1554 11.1269 70.1659 11.1324L70.1964 11.1459C70.2779 11.1852 70.3508 11.2402 70.4109 11.3078C70.471 11.3755 70.517 11.4544 70.5464 11.5399C70.5964 11.6669 70.6299 11.8334 70.6439 12.0424C70.6503 12.2224 70.6551 12.4024 70.6584 12.5824L70.6609 12.7574L70.6624 12.8659C70.6624 13.0434 70.6654 13.2684 70.6654 13.5369V16.5009C70.6654 16.5544 70.6514 16.5869 70.6299 16.6049C70.6092 16.6212 70.5838 16.6304 70.5574 16.6309H63.3404C63.3081 16.6318 63.2764 16.6227 63.2494 16.6049C63.2382 16.5963 63.2294 16.585 63.2239 16.5719C63.2141 16.5491 63.2095 16.5243 63.2104 16.4994V14.3729C63.2104 13.9139 63.2139 13.5369 63.2139 13.2424C63.2153 13.0057 63.2199 12.769 63.2279 12.5324C63.2349 12.3489 63.2424 12.1849 63.2529 12.0424C63.2674 11.7214 63.3299 11.4864 63.4309 11.3299C63.5224 11.1959 63.6704 11.1074 63.8794 11.0609C63.9789 11.0334 64.0814 11.0134 64.1904 10.9999L64.2869 10.9909L64.3354 10.9879L64.4179 10.9839C64.4599 10.9829 64.5019 10.9814 64.5439 10.9814H64.5534L64.5634 10.9809C64.5759 10.9804 64.5884 10.9804 64.5999 10.9794C64.6924 10.9744 64.8009 10.9544 64.8404 10.8594C64.8526 10.8279 64.8587 10.7943 64.8584 10.7604L64.8579 10.7579V10.7539L64.8584 10.7529C64.8584 10.7395 64.8557 10.7263 64.8504 10.7139C64.8468 10.7045 64.8417 10.6958 64.8354 10.6879C64.8105 10.6606 64.7782 10.6412 64.7424 10.6319C64.6674 10.6069 64.5584 10.5944 64.4124 10.5934L64.2159 10.5949C64.0969 10.5964 63.9719 10.5994 63.8394 10.6014C63.6062 10.6037 63.373 10.6085 63.1399 10.6159C62.9044 10.6234 62.6904 10.6269 62.4904 10.6319L62.2214 10.6364C62.1414 10.6379 62.0704 10.6384 62.0089 10.6384H61.8339C61.7724 10.6384 61.7019 10.6379 61.6219 10.6364L61.3529 10.6314C61.1529 10.6264 60.9384 10.6234 60.7034 10.6159C60.4701 10.6085 60.2368 10.6037 60.0034 10.6014C59.8709 10.5994 59.7459 10.5964 59.6269 10.5949L59.4304 10.5934C59.3379 10.5934 59.2604 10.5999 59.1964 10.6099C59.1638 10.6141 59.1316 10.6215 59.1004 10.6319C59.0647 10.6413 59.0324 10.6607 59.0074 10.6879C58.9925 10.7063 58.9845 10.7293 58.9849 10.7529V10.7604C58.9849 10.7994 58.9914 10.8319 59.0029 10.8599C59.0184 10.8969 59.0439 10.9249 59.0799 10.9434C59.1311 10.9667 59.1867 10.979 59.2429 10.9794C59.2544 10.9804 59.2674 10.9804 59.2794 10.9809H59.2989C59.3414 10.9809 59.3829 10.9829 59.4249 10.9839L59.5074 10.9879C59.672 10.9968 59.835 11.0241 59.9934 11.0694C60.0234 11.0784 60.0519 11.0879 60.0794 11.0989L60.0934 11.1039C60.1044 11.1079 60.1149 11.1129 60.1254 11.1174C60.1369 11.1224 60.1479 11.1269 60.1589 11.1324L60.1894 11.1459L60.1979 11.1509C60.2459 11.1759 60.2899 11.2044 60.3294 11.2354C60.4199 11.3089 60.4919 11.4094 60.5389 11.5399C60.5894 11.6669 60.6224 11.8334 60.6369 12.0424C60.6409 12.1554 60.6444 12.2794 60.6474 12.4059C60.6494 12.4594 60.6499 12.5189 60.6509 12.5824L60.6534 12.7574L60.6554 12.8659C60.6554 13.0434 60.6584 13.2684 60.6584 13.5369V19.2169C60.6584 19.8149 60.6584 20.3699 60.6554 20.8829C60.6525 21.3397 60.6452 21.7963 60.6334 22.2529C60.6268 22.582 60.6063 22.9106 60.5719 23.2379C60.5424 23.5069 60.4919 23.7139 60.4124 23.8544C60.3324 23.9959 60.1989 24.0889 60.0069 24.1294C59.9194 24.1514 59.8214 24.1694 59.7094 24.1814C59.6004 24.1914 59.4739 24.1954 59.3329 24.1954C59.2169 24.1989 59.1334 24.2214 59.0909 24.2599C59.0464 24.2999 59.0249 24.3444 59.0289 24.3914C59.0289 24.4564 59.0614 24.5024 59.1224 24.5364C59.1884 24.5684 59.2779 24.5859 59.3964 24.5859H59.3979C59.5939 24.5859 59.8074 24.5824 60.0504 24.5759C60.2889 24.5684 60.5284 24.5609 60.7714 24.5544L61.4304 24.5324C61.6109 24.5249 61.7554 24.5214 61.8644 24.5214H61.8974C62.0759 24.5214 62.3289 24.5289 62.6514 24.5399C62.9744 24.5499 63.3359 24.5584 63.7384 24.5684L63.9929 24.5749L64.0934 24.5769C64.3649 24.582 64.6364 24.585 64.9079 24.5859H64.9849C65.0974 24.5859 65.1844 24.5684 65.2494 24.5369C65.3179 24.5019 65.3504 24.4564 65.3544 24.3914C65.3544 24.3444 65.3329 24.2999 65.2809 24.2599C65.2349 24.2214 65.1584 24.1989 65.0494 24.1949C64.9524 24.1949 64.8469 24.1914 64.7269 24.1874C64.611 24.1846 64.4953 24.1776 64.3799 24.1664C64.2768 24.1584 64.174 24.146 64.0719 24.1294C63.9811 24.1167 63.8919 24.0942 63.8059 24.0624C63.7461 24.0416 63.6893 24.0131 63.6369 23.9774C63.5355 23.9049 63.4573 23.8045 63.4119 23.6884C63.3596 23.5506 63.3254 23.4066 63.3104 23.2599C63.2786 22.9279 63.2582 22.5949 63.2494 22.2614L63.2399 21.8504C63.2294 21.5439 63.2224 21.2104 63.2164 20.8514C63.2139 20.3579 63.2104 19.8259 63.2104 19.2609V17.8479C63.2104 17.8219 63.2154 17.8029 63.2239 17.7879C63.2296 17.7766 63.2385 17.7673 63.2494 17.7609C63.2774 17.7462 63.3087 17.7388 63.3404 17.7394H70.5574C70.5824 17.7394 70.6039 17.7494 70.6299 17.7679C70.6413 17.7777 70.6504 17.7898 70.6565 17.8034C70.6626 17.8171 70.6657 17.832 70.6654 17.8469V19.2164L70.6649 20.2814C70.6644 20.4864 70.6639 20.6879 70.6624 20.8824V20.9294C70.6604 21.1734 70.6579 21.4044 70.6544 21.6219C70.6509 21.8469 70.6464 22.0569 70.6409 22.2529C70.6344 22.582 70.6137 22.9106 70.5789 23.2379C70.5499 23.5064 70.4989 23.7129 70.4194 23.8539C70.3399 23.9954 70.2059 24.0884 70.0144 24.1289C69.9165 24.1534 69.8169 24.1708 69.7164 24.1809H69.7129C69.6049 24.1909 69.4794 24.1949 69.3404 24.1949C69.2239 24.1984 69.1404 24.2209 69.0979 24.2594C69.0534 24.2994 69.0319 24.3439 69.0364 24.3909C69.0364 24.4559 69.0689 24.5019 69.1299 24.5359C69.1516 24.5462 69.1742 24.5544 69.1974 24.5604C69.2539 24.5774 69.3219 24.5854 69.4049 24.5854H69.4244C69.6159 24.5854 69.8224 24.5819 70.0574 24.5754C70.2964 24.5679 70.5359 24.5604 70.7784 24.5539L71.4374 24.5319C71.6369 24.5239 71.7929 24.5209 71.9049 24.5209H71.9229C72.0999 24.5209 72.3464 24.5289 72.6589 24.5394C72.9819 24.5494 73.3429 24.5579 73.7454 24.5679L74.0234 24.5749C74.3397 24.5813 74.6561 24.5847 74.9724 24.5849H74.9924C75.1044 24.5849 75.1919 24.5679 75.2569 24.5364L75.2919 24.5149C75.3126 24.5013 75.3296 24.4829 75.3417 24.4614C75.3538 24.4398 75.3606 24.4156 75.3614 24.3909C75.3614 24.3439 75.3404 24.2994 75.2884 24.2594C75.2434 24.2219 75.1689 24.1994 75.0639 24.1944M115.455 18.8829C115.444 18.9014 115.415 18.9129 115.372 18.9129H111.676C111.643 18.9129 111.618 18.9014 111.603 18.8799C111.589 18.8574 111.589 18.8259 111.611 18.7839L113.459 14.1084C113.459 14.1084 113.501 14.0069 113.517 13.9734C113.523 13.9614 113.528 13.9514 113.534 13.9444C113.537 13.9407 113.542 13.9379 113.546 13.9361C113.551 13.9342 113.556 13.9335 113.561 13.9339C113.567 13.9339 113.577 13.9349 113.585 13.9424C113.595 13.9524 113.6 13.9649 113.603 13.9739L113.654 14.1084L115.458 18.8054C115.47 18.8354 115.47 18.8624 115.455 18.8829ZM122.103 24.3324C122.103 24.3309 122.102 24.3289 122.101 24.3269C122.1 24.3215 122.098 24.3162 122.096 24.3109C122.088 24.2896 122.076 24.27 122.06 24.2529C122.024 24.2169 121.97 24.1954 121.894 24.1954C121.804 24.1954 121.709 24.1919 121.611 24.1869L121.481 24.1819C121.43 24.1802 121.379 24.1776 121.328 24.1739C121.071 24.1515 120.825 24.0569 120.618 23.9009C120.421 23.7528 120.256 23.5656 120.133 23.3509C120.089 23.2752 120.046 23.1981 120.005 23.1199C120.005 23.1191 120.004 23.1175 120.003 23.1164C120.002 23.1143 120.001 23.1123 120 23.1104L120.005 23.1199C119.916 22.9469 119.828 22.7544 119.742 22.5434L114.743 10.9134C114.681 10.7542 114.607 10.5999 114.522 10.4519C114.518 10.4464 114.35 10.1789 114.141 10.1789H114.102C113.929 10.1789 113.785 10.3609 113.737 10.4279C113.645 10.583 113.567 10.7455 113.502 10.9139L108.502 22.5434C108.407 22.7777 108.3 23.0069 108.18 23.2299L108.173 23.2429C108.153 23.2794 108.132 23.3154 108.111 23.3514C107.989 23.5661 107.824 23.7532 107.626 23.9009C107.436 24.0389 107.204 24.1589 106.916 24.1739C106.758 24.1824 106.734 24.1849 106.633 24.1889C106.536 24.1939 106.44 24.1954 106.35 24.1954C106.275 24.1954 106.22 24.2169 106.184 24.2529L106.167 24.2744L106.156 24.2944C106.156 24.2959 106.155 24.2959 106.154 24.2969L106.148 24.3109C106.146 24.3174 106.143 24.3241 106.141 24.3309C106.14 24.3359 106.139 24.3404 106.138 24.3459C106.138 24.3459 106.138 24.3474 106.137 24.3484V24.3534C106.135 24.3659 106.133 24.3787 106.133 24.3914C106.133 24.4664 106.161 24.5179 106.215 24.5464C106.274 24.5759 106.361 24.5859 106.481 24.5859C106.577 24.5859 106.672 24.5854 106.766 24.5844H106.774C106.879 24.5829 106.985 24.581 107.09 24.5789L107.151 24.5779C107.197 24.5764 107.243 24.5754 107.287 24.5729C107.612 24.5641 107.936 24.5529 108.26 24.5394C108.481 24.5289 108.629 24.5214 108.698 24.5214C108.904 24.5214 109.133 24.5289 109.382 24.5399L109.895 24.5599H109.9C109.978 24.5629 110.054 24.5649 110.132 24.5684C110.382 24.5784 110.614 24.5859 110.828 24.5859C110.925 24.5859 111.003 24.5759 111.053 24.5469C111.077 24.5347 111.096 24.5155 111.109 24.4919L111.109 24.4914L111.11 24.4894C111.112 24.4842 111.115 24.4792 111.118 24.4744C111.121 24.4644 111.125 24.4564 111.127 24.4464C111.131 24.4284 111.133 24.4099 111.133 24.3914C111.135 24.366 111.131 24.3405 111.122 24.3166C111.114 24.2928 111.1 24.271 111.082 24.2529C111.042 24.2169 110.966 24.1954 110.85 24.1954H110.568C110.277 24.1954 110.079 24.1479 109.966 24.0584C109.853 23.9659 109.803 23.8369 109.807 23.6734C109.807 23.5619 109.828 23.4014 109.875 23.1984C109.919 22.9959 109.991 22.7754 110.089 22.5434L111.111 20.0654C111.121 20.025 111.143 19.9883 111.173 19.9594C111.194 19.9414 111.234 19.9344 111.285 19.9344H115.784C115.828 19.9344 115.868 19.9414 115.901 19.9594C115.939 19.9848 115.967 20.0222 115.98 20.0654L117.458 23.7814C117.498 23.8949 117.495 23.9844 117.455 24.0609C117.439 24.0918 117.417 24.1192 117.39 24.1414C117.363 24.1636 117.332 24.1803 117.299 24.1904L117.185 24.2139C117.155 24.2207 117.127 24.2348 117.104 24.255C117.081 24.2753 117.063 24.301 117.052 24.3299C117.046 24.35 117.044 24.3707 117.045 24.3914C117.045 24.4324 117.053 24.4649 117.069 24.4914C117.081 24.5153 117.101 24.5346 117.125 24.5464C117.175 24.5759 117.319 24.5859 117.416 24.5859C117.63 24.5859 117.861 24.5789 118.111 24.5684L118.323 24.5604H118.324L118.861 24.5399C119.111 24.5289 119.34 24.5214 119.546 24.5214C119.615 24.5214 119.763 24.5289 119.985 24.5399C120.482 24.5603 120.979 24.5752 121.476 24.5844H121.477C121.572 24.5854 121.667 24.5859 121.763 24.5859C121.883 24.5859 121.97 24.5759 122.028 24.5469C122.049 24.5357 122.067 24.5197 122.081 24.5003C122.095 24.4808 122.104 24.4584 122.107 24.4349C122.109 24.4227 122.11 24.4103 122.111 24.3979V24.3914C122.111 24.3715 122.109 24.3515 122.103 24.3324ZM168.176 21.9994C168.15 22.0001 168.124 22.0072 168.102 22.02C168.079 22.0328 168.06 22.051 168.045 22.0729C168.011 22.1227 167.989 22.1794 167.98 22.2389C167.947 22.4291 167.893 22.6148 167.817 22.7924C167.744 22.9691 167.645 23.134 167.524 23.2819C167.37 23.4615 167.17 23.5955 166.945 23.6694C166.692 23.7534 166.429 23.8048 166.162 23.8224C165.867 23.8439 165.552 23.8504 165.22 23.8469C164.722 23.8469 164.302 23.8329 163.962 23.8039C163.622 23.7714 163.346 23.7239 163.137 23.6584C162.93 23.5969 162.774 23.5139 162.676 23.4124C162.56 23.3074 162.476 23.1039 162.42 22.7969C162.364 22.4894 162.329 22.0469 162.31 21.4709C162.291 20.7342 162.284 19.9973 162.286 19.2604V13.4854C162.288 13.2129 162.288 12.9854 162.288 12.8034C162.293 12.6229 162.293 12.4704 162.296 12.3404L162.306 11.9779C162.312 11.8327 162.331 11.6882 162.361 11.5459C162.369 11.5089 162.377 11.4744 162.387 11.4414C162.426 11.2999 162.499 11.1879 162.597 11.1079C162.695 11.0289 162.839 10.9709 163.025 10.9349C163.137 10.9239 163.252 10.9134 163.372 10.9059C163.491 10.8949 163.586 10.8909 163.655 10.8909C163.692 10.8875 163.727 10.8736 163.756 10.8509C163.784 10.8285 163.802 10.796 163.806 10.7604C163.808 10.7352 163.801 10.7103 163.787 10.6894C163.773 10.6685 163.752 10.6529 163.728 10.6449C163.677 10.6204 163.603 10.6094 163.51 10.6089L163.256 10.6109C163.138 10.6119 163.016 10.6139 162.892 10.6164C162.654 10.6194 162.425 10.6224 162.212 10.6304C161.998 10.6379 161.817 10.6414 161.676 10.6449H161.666C161.581 10.6478 161.496 10.6499 161.411 10.6514H161.404C161.369 10.6514 161.278 10.6484 161.129 10.6449L161.12 10.6444C160.959 10.6409 160.767 10.6379 160.545 10.6304C160.316 10.6224 160.092 10.6194 159.869 10.6164C159.758 10.6139 159.657 10.6124 159.565 10.6109C159.478 10.6096 159.39 10.6089 159.303 10.6089L159.293 10.6094C159.201 10.6094 159.127 10.6204 159.077 10.6449C159.053 10.6528 159.033 10.6684 159.019 10.6893C159.004 10.7102 158.997 10.7352 158.999 10.7604C159.001 10.7781 159.006 10.7953 159.015 10.8109C159.023 10.8264 159.035 10.8401 159.049 10.8509C159.078 10.8736 159.113 10.8874 159.15 10.8909C159.22 10.8909 159.314 10.8949 159.433 10.9059C159.553 10.9134 159.668 10.9239 159.78 10.9344C159.965 10.9709 160.11 11.0289 160.208 11.1079C160.307 11.1879 160.378 11.2999 160.418 11.4414C160.467 11.6164 160.495 11.7964 160.501 11.9779C160.509 12.0904 160.518 12.2134 160.524 12.3404C160.527 12.4704 160.535 12.6229 160.535 12.8034C160.539 12.9854 160.542 13.2129 160.542 13.4854C160.546 13.7569 160.546 14.0944 160.546 14.4959V19.2174C160.546 19.8149 160.546 20.3659 160.541 20.8769C160.539 21.331 160.53 21.7851 160.514 22.2389C160.499 22.6334 160.473 22.9594 160.436 23.2174C160.411 23.3974 160.383 23.5579 160.351 23.6909C160.321 23.8294 160.274 23.9374 160.212 24.0249C160.143 24.1124 160.046 24.1729 159.937 24.1959C159.84 24.2194 159.743 24.2399 159.644 24.2574C159.547 24.2723 159.449 24.2808 159.35 24.2829C159.295 24.2854 159.257 24.3004 159.234 24.3329C159.21 24.3613 159.198 24.3971 159.198 24.4339C159.198 24.4894 159.224 24.5294 159.278 24.5504C159.29 24.5559 159.303 24.5604 159.318 24.5644C159.365 24.5794 159.427 24.5859 159.501 24.5859C159.659 24.5859 159.832 24.5824 160.024 24.5724C160.215 24.5644 160.412 24.5539 160.611 24.5429C160.799 24.5319 160.966 24.5244 161.107 24.5244C161.181 24.5224 161.242 24.5214 161.29 24.5214L161.394 24.5209H161.411L161.515 24.5214C161.762 24.5224 162.032 24.5264 162.322 24.5364C162.662 24.5429 163.05 24.5539 163.481 24.5644H163.487C163.927 24.5859 164.421 24.6004 164.962 24.6129C165.51 24.6229 166.125 24.6299 166.806 24.6299C167.06 24.6299 167.259 24.6259 167.409 24.6129C167.56 24.5999 167.672 24.5754 167.748 24.5429C167.822 24.513 167.883 24.4595 167.922 24.3909C167.959 24.3249 167.995 24.2389 168.023 24.1294C168.064 23.9894 168.1 23.8264 168.132 23.6409C168.165 23.4534 168.197 23.2634 168.224 23.0754C168.249 22.8869 168.27 22.7209 168.285 22.5749C168.299 22.4344 168.307 22.3364 168.307 22.2829C168.307 22.1839 168.295 22.1119 168.273 22.0684C168.252 22.0204 168.218 21.9994 168.176 21.9994ZM179.509 21.9994C179.483 22.0001 179.458 22.0071 179.435 22.0199C179.413 22.0327 179.393 22.0509 179.379 22.0729C179.345 22.1225 179.323 22.1793 179.314 22.2389C179.281 22.429 179.226 22.6147 179.151 22.7924C179.078 22.9691 178.979 23.1341 178.857 23.2819C178.703 23.4615 178.503 23.5955 178.278 23.6694C178.025 23.7534 177.762 23.8048 177.496 23.8224C177.182 23.8436 176.867 23.8518 176.553 23.8469C176.056 23.8469 175.636 23.8329 175.296 23.8039C174.956 23.7714 174.68 23.7239 174.47 23.6584C174.264 23.5969 174.107 23.5139 174.01 23.4124C173.894 23.3074 173.81 23.1039 173.753 22.7969C173.698 22.4894 173.663 22.0469 173.643 21.4709C173.625 20.7342 173.617 19.9973 173.619 19.2604V13.4854C173.622 13.2129 173.622 12.9854 173.622 12.8034C173.626 12.6229 173.626 12.4704 173.629 12.3404L173.64 11.9779C173.648 11.8109 173.668 11.6679 173.695 11.5459C173.702 11.5108 173.711 11.4759 173.721 11.4414C173.76 11.2999 173.832 11.1879 173.931 11.1079C174.028 11.0289 174.172 10.9709 174.358 10.9349C174.47 10.9239 174.586 10.9134 174.706 10.9059C174.824 10.8949 174.919 10.8909 174.989 10.8909C175.026 10.8875 175.061 10.8736 175.09 10.8509C175.104 10.8399 175.115 10.8262 175.124 10.8107C175.132 10.7951 175.138 10.7781 175.14 10.7604C175.141 10.7352 175.134 10.7103 175.12 10.6895C175.106 10.6686 175.085 10.653 175.061 10.6449C175.011 10.6204 174.936 10.6094 174.843 10.6089L174.59 10.6109C174.471 10.6119 174.35 10.6139 174.225 10.6164C173.987 10.6194 173.759 10.6224 173.546 10.6304C173.331 10.6379 173.151 10.6414 173.009 10.6449H172.999C172.914 10.6478 172.829 10.6499 172.744 10.6514H172.737C172.702 10.6514 172.612 10.6484 172.462 10.6449L172.454 10.6444C172.292 10.6409 172.1 10.6379 171.879 10.6304C171.653 10.6233 171.428 10.6186 171.202 10.6164C171.092 10.6139 170.991 10.6124 170.899 10.6109C170.812 10.6096 170.724 10.6089 170.637 10.6089L170.627 10.6094C170.534 10.6094 170.461 10.6204 170.411 10.6449C170.387 10.6529 170.366 10.6685 170.352 10.6894C170.338 10.7103 170.331 10.7352 170.332 10.7604C170.334 10.7781 170.34 10.7952 170.348 10.8107C170.357 10.8262 170.369 10.8399 170.382 10.8509C170.412 10.8736 170.447 10.8874 170.483 10.8909C170.553 10.8909 170.647 10.8949 170.767 10.9059C170.887 10.9134 171.002 10.9239 171.114 10.9344C171.299 10.9709 171.444 11.0289 171.541 11.1079C171.64 11.1879 171.711 11.2999 171.751 11.4414C171.8 11.6163 171.828 11.7964 171.835 11.9779C171.843 12.0904 171.852 12.2134 171.858 12.3404C171.861 12.4704 171.869 12.6229 171.869 12.8034C171.872 12.9854 171.875 13.2129 171.875 13.4854C171.88 13.7569 171.88 14.0944 171.88 14.4959V19.2174C171.88 19.8149 171.88 20.3659 171.875 20.8769C171.872 21.331 171.863 21.7851 171.847 22.2389C171.832 22.6334 171.806 22.9594 171.77 23.2174C171.745 23.3974 171.716 23.5579 171.685 23.6909C171.655 23.8294 171.608 23.9374 171.546 24.0249C171.477 24.1123 171.38 24.1728 171.271 24.1959C171.174 24.2194 171.076 24.2399 170.978 24.2574C170.881 24.2723 170.783 24.2808 170.684 24.2829C170.629 24.2854 170.59 24.3004 170.568 24.3329C170.544 24.3613 170.532 24.3971 170.532 24.4339C170.532 24.4894 170.557 24.5294 170.612 24.5504C170.625 24.5561 170.638 24.5608 170.651 24.5644C170.699 24.5794 170.76 24.5859 170.835 24.5859C170.992 24.5859 171.165 24.5824 171.358 24.5724C171.549 24.5644 171.745 24.5539 171.945 24.5429C172.133 24.5319 172.3 24.5244 172.441 24.5244C172.515 24.5224 172.576 24.5214 172.624 24.5214L172.728 24.5209H172.745L172.849 24.5214C173.096 24.5224 173.365 24.5264 173.655 24.5364C173.995 24.5429 174.384 24.5539 174.814 24.5644H174.821C175.262 24.5859 175.755 24.6004 176.296 24.6129C176.843 24.6229 177.459 24.6299 178.14 24.6299C178.394 24.6299 178.592 24.6259 178.742 24.6129C178.893 24.5999 179.006 24.5754 179.082 24.5429C179.155 24.5131 179.217 24.4596 179.256 24.3909C179.292 24.3249 179.329 24.2389 179.357 24.1294C179.398 23.9894 179.433 23.8264 179.466 23.6409C179.499 23.4534 179.532 23.2634 179.557 23.0754C179.582 22.8869 179.604 22.7209 179.619 22.5749C179.632 22.4344 179.64 22.3364 179.64 22.2829C179.64 22.1839 179.629 22.1119 179.607 22.0684C179.585 22.0204 179.552 21.9994 179.509 21.9994Z" fill="white"/>
</svg>
