<svg width="163" height="31" viewBox="0 0 163 31" fill="none" xmlns="http://www.w3.org/2000/svg">
<path d="M99.1514 9.57505C98.2514 10.4751 97.1014 10.925 95.7014 10.925C94.3014 10.925 93.2014 10.475 92.3014 9.62505C91.4014 8.72505 90.9514 7.62505 90.9514 6.32505C90.9514 5.02505 91.4014 3.82505 92.3014 2.97505C93.2014 2.07505 94.3514 1.67505 95.7514 1.67505C97.1514 1.67505 98.2014 2.12505 99.1514 3.02505C100.051 3.92505 100.551 5.02505 100.551 6.32505C100.551 7.62505 100.101 8.77505 99.1514 9.67505M100.251 1.92505C99.0514 0.775049 97.5014 0.175049 95.7014 0.175049C93.9014 0.175049 92.3514 0.775049 91.2014 1.92505C90.0014 3.07505 89.4014 4.52505 89.4014 6.27505C89.4014 8.02505 90.0014 9.42505 91.1514 10.525C92.3514 11.675 93.8014 12.2251 95.6014 12.2251C97.4014 12.2251 99.0014 11.675 100.201 10.525C101.401 9.37505 102.051 7.92505 102.051 6.22505C102.051 4.52505 101.451 3.02505 100.251 1.92505Z" fill="white"/>
<path d="M104.301 11.225C105.001 11.925 106.001 12.275 107.151 12.275C108.301 12.275 108.601 12.125 109.351 11.875V10.575C108.651 10.875 107.951 11.025 107.401 11.025C106.551 11.025 105.851 10.775 105.351 10.275C104.851 9.77502 104.601 9.12502 104.601 8.27502C104.601 7.42502 104.851 6.82503 105.301 6.32503C105.751 5.82503 106.401 5.52502 107.101 5.52502C107.801 5.52502 108.451 5.72503 109.201 6.17503V4.77502C108.751 4.57502 108.401 4.47502 108.101 4.37502C107.801 4.32502 107.451 4.27502 107.051 4.27502C105.901 4.27502 105.001 4.62502 104.301 5.37502C103.601 6.12502 103.251 7.07502 103.251 8.27502C103.251 9.47502 103.601 10.425 104.301 11.125" fill="white"/>
<path d="M111.602 11.225C112.302 11.925 113.302 12.275 114.502 12.275C115.702 12.275 115.952 12.125 116.702 11.875V10.575C116.002 10.875 115.302 11.025 114.752 11.025C113.902 11.025 113.202 10.775 112.702 10.275C112.202 9.77502 111.952 9.12502 111.952 8.27502C111.952 7.42502 112.202 6.82503 112.652 6.32503C113.102 5.82503 113.752 5.52502 114.452 5.52502C115.152 5.52502 115.802 5.72503 116.552 6.17503V4.77502C116.102 4.57502 115.752 4.47502 115.452 4.37502C115.152 4.32502 114.802 4.27502 114.402 4.27502C113.252 4.27502 112.352 4.62502 111.652 5.37502C110.952 6.12502 110.602 7.07502 110.602 8.27502C110.602 9.47502 110.952 10.425 111.652 11.125" fill="white"/>
<path d="M119.851 4.47498H118.501V12.125H119.851V4.47498Z" fill="white"/>
<path d="M119.752 1.32507C119.602 1.17507 119.402 1.07507 119.152 1.07507C118.902 1.07507 118.752 1.17507 118.602 1.32507C118.452 1.47507 118.352 1.67507 118.352 1.87507C118.352 2.07507 118.452 2.27507 118.602 2.47507C118.752 2.62507 118.952 2.72507 119.152 2.72507C119.352 2.72507 119.602 2.62507 119.752 2.47507C119.902 2.32507 120.002 2.12507 120.002 1.87507C120.002 1.62507 119.902 1.42507 119.752 1.27507" fill="white"/>
<path d="M123.551 6.22501C124.051 5.67501 124.701 5.425 125.501 5.425C126.301 5.425 126.551 5.575 127.051 5.825H127.101V11.025H125.751C125.051 11.025 124.551 11.025 124.251 10.875C123.951 10.775 123.701 10.575 123.451 10.325C123.051 9.875 122.801 9.225 122.801 8.375C122.801 7.525 123.051 6.77501 123.501 6.22501M122.451 11.075C123.101 11.775 124.051 12.125 125.151 12.125H128.401V0.375H127.051V4.675H126.901C126.301 4.425 125.751 4.275 125.201 4.275C124.101 4.275 123.201 4.625 122.501 5.375C121.801 6.075 121.451 7.025 121.451 8.175C121.451 9.325 121.801 10.375 122.451 11.075Z" fill="white"/>
<path d="M131.351 7.52507C131.451 6.87507 131.701 6.37507 132.101 6.02507C132.501 5.67507 132.951 5.47507 133.551 5.47507C134.151 5.47507 134.601 5.67507 134.951 6.02507C135.301 6.37507 135.501 6.87507 135.551 7.52507H131.351ZM136.701 10.0751C135.801 10.6751 134.851 11.0251 133.951 11.0251C133.051 11.0251 132.551 10.7751 132.051 10.3251C131.551 9.87507 131.301 9.22507 131.251 8.42507V8.32507H136.801V8.22507C136.801 7.02507 136.501 6.07507 135.901 5.37507C135.301 4.67507 134.501 4.32507 133.501 4.32507C132.501 4.32507 131.601 4.67507 130.951 5.42507C130.301 6.17507 129.951 7.12507 129.951 8.27507C129.951 9.42507 130.101 9.72507 130.401 10.3251C130.701 10.9251 131.151 11.3751 131.651 11.7251C132.151 12.0751 132.851 12.2251 133.701 12.2251C134.551 12.2251 134.851 12.1751 135.351 12.0251C135.801 11.8751 136.251 11.6751 136.701 11.3751V10.0751Z" fill="white"/>
<path d="M141.852 5.52507C142.502 5.52507 142.952 5.67507 143.202 6.02507C143.452 6.37507 143.602 6.92507 143.602 7.72507V12.1251H144.952V7.72507C144.952 6.77507 144.852 6.07507 144.652 5.67507C144.452 5.27507 144.152 4.92507 143.752 4.67507C143.352 4.42507 142.902 4.32507 142.452 4.32507C141.602 4.32507 140.852 4.67507 140.152 5.42507L139.952 5.62507V4.47507H138.602V12.1251H139.952V6.92507C140.552 6.02507 141.252 5.52507 141.952 5.52507" fill="white"/>
<path d="M147.351 10.675C147.401 10.925 147.501 11.125 147.601 11.275C147.701 11.425 147.801 11.575 147.951 11.675C148.401 12.075 149.001 12.275 149.651 12.275C150.301 12.275 150.951 12.125 151.501 11.825V10.625C150.901 10.925 150.351 11.075 149.851 11.075C149.051 11.075 148.601 10.575 148.601 9.62497V5.62497H151.101V4.42497H148.601V2.97498L145.901 5.62497H147.251V9.22498C147.251 9.92498 147.251 10.425 147.351 10.675Z" fill="white"/>
<path d="M156.801 10.525C156.301 11.075 155.801 11.375 155.351 11.375C154.901 11.375 154.701 11.275 154.451 11.075C154.201 10.825 154.101 10.575 154.101 10.225C154.101 9.87503 154.201 9.62502 154.451 9.37502C154.701 9.17502 155.051 8.92503 155.601 8.72503C155.601 8.72503 156.251 8.42503 156.751 8.32503V10.575L156.801 10.525ZM159.301 10.975C158.951 11.175 158.701 11.275 158.551 11.275C158.401 11.275 158.151 11.275 158.151 10.825V7.47503C158.151 6.82503 158.151 6.37502 158.101 6.12502C158.101 5.92502 158.001 5.67503 157.851 5.47503C157.701 5.22503 157.551 5.07503 157.401 4.92503C156.901 4.47503 156.251 4.27502 155.401 4.27502C154.551 4.27502 153.451 4.62502 152.901 5.27502V6.62502C153.701 5.82502 154.501 5.37502 155.301 5.37502C156.101 5.37502 156.851 5.97502 156.851 7.02502V7.42503C156.851 7.42503 154.351 8.07502 153.301 9.12502C152.951 9.47502 152.801 9.92502 152.801 10.375C152.801 10.825 152.951 11.325 153.301 11.675C153.651 12.025 154.101 12.175 154.601 12.175C155.101 12.175 156.001 11.925 156.651 11.425L156.801 11.325V11.525C156.951 11.975 157.301 12.225 157.901 12.225C158.501 12.225 158.751 12.125 159.301 11.725V10.925V10.975Z" fill="white"/>
<path d="M162.151 0.375H160.801V12.125H162.151V0.375Z" fill="white"/>
<path d="M90.2512 24.175C90.8012 25.125 91.5012 25.825 92.4012 26.375C93.3012 26.925 94.4512 27.175 95.8012 27.175C97.1512 27.175 98.8512 26.825 100.051 26.175V24.575C98.7012 25.425 97.3012 25.825 95.9012 25.825C94.5012 25.825 93.3012 25.375 92.3512 24.525C91.4512 23.675 91.0012 22.525 91.0012 21.175C91.0012 19.825 91.4512 18.725 92.4012 17.825C93.3512 16.925 94.5512 16.475 95.9512 16.475C97.3512 16.475 98.6012 16.875 99.9512 17.575V15.975C98.4512 15.325 97.0512 15.025 95.8512 15.025C94.0512 15.025 92.5012 15.625 91.3012 16.775C90.1012 17.925 89.4512 19.375 89.4512 21.125C89.4512 22.875 89.7012 23.225 90.2512 24.125" fill="white"/>
<path d="M107.352 25.1751C106.852 25.6751 106.202 25.9251 105.402 25.9251C104.602 25.9251 103.952 25.6751 103.402 25.1751C102.902 24.6751 102.652 24.0251 102.652 23.2251C102.652 22.4251 102.902 21.7751 103.402 21.2751C103.902 20.7751 104.552 20.5251 105.352 20.5251C106.152 20.5251 106.802 20.7751 107.352 21.2751C107.902 21.7751 108.152 22.4251 108.152 23.2251C108.152 24.0251 107.902 24.6751 107.402 25.1751M108.352 20.4751C107.602 19.7251 106.602 19.3251 105.452 19.3251C104.302 19.3251 103.302 19.7251 102.502 20.4251C101.702 21.1751 101.352 22.1251 101.352 23.2251C101.352 24.3251 101.752 25.2751 102.502 26.0251C103.252 26.7751 104.252 27.1251 105.402 27.1251C106.552 27.1251 107.602 26.7751 108.352 26.0251C109.152 25.2751 109.502 24.3751 109.502 23.2751C109.502 22.1751 109.102 21.1751 108.352 20.4251" fill="white"/>
<path d="M112.502 15.275H111.102V27.025H112.502V15.275Z" fill="white"/>
<path d="M116.051 15.275H114.651V27.025H116.051V15.275Z" fill="white"/>
<path d="M119.051 22.375C119.151 21.725 119.401 21.225 119.801 20.875C120.201 20.525 120.651 20.325 121.251 20.325C121.851 20.325 122.301 20.525 122.651 20.875C123.001 21.225 123.201 21.725 123.251 22.375H119.051ZM124.451 25.075C123.601 25.625 122.701 25.975 121.701 25.975C120.701 25.975 120.301 25.725 119.801 25.275C119.301 24.825 119.051 24.175 119.001 23.375V23.275H124.551V23.175C124.551 21.975 124.251 21.025 123.651 20.325C123.051 19.625 122.251 19.275 121.251 19.275C120.251 19.275 119.351 19.625 118.701 20.375C118.051 21.125 117.701 22.075 117.701 23.225C117.701 24.375 117.851 24.675 118.151 25.275C118.451 25.875 118.901 26.325 119.401 26.675C119.901 27.025 120.601 27.175 121.451 27.175C122.301 27.175 122.601 27.125 123.101 26.975C123.551 26.825 124.001 26.625 124.451 26.325V25.075Z" fill="white"/>
<path d="M130.501 29.7251C130.101 29.9251 129.551 30.0251 128.851 30.0251C127.301 30.0251 126.551 29.5751 126.551 28.6751C126.551 27.7751 126.751 27.9751 127.101 27.7251C127.451 27.4751 127.901 27.3751 128.451 27.3751C129.251 27.3751 129.851 27.4751 130.351 27.7251C130.851 27.9751 131.151 28.3251 131.151 28.7251C131.151 29.1251 130.951 29.4751 130.501 29.6751M127.651 23.1751C127.351 22.8751 127.151 22.5251 127.151 22.0751C127.151 21.6251 127.301 21.2751 127.651 20.9751C127.951 20.6751 128.351 20.5251 128.801 20.5251C129.251 20.5251 129.701 20.6751 130.001 20.9751C130.301 21.2751 130.501 21.6251 130.501 22.0751C130.501 22.5251 130.351 22.8751 130.001 23.1751C129.701 23.4751 129.301 23.6251 128.801 23.6251C128.301 23.6251 127.951 23.4751 127.601 23.1751M132.451 28.7251C132.451 28.1751 132.251 27.7251 131.901 27.3751C131.701 27.1751 131.451 26.9751 131.201 26.8751C130.951 26.7751 130.301 26.5751 129.351 26.3751C128.751 26.2251 128.351 26.1251 128.101 25.9751C127.851 25.8251 127.701 25.6751 127.701 25.4251C127.701 25.0251 128.051 24.7751 128.701 24.7251C129.501 24.6251 130.101 24.4251 130.451 24.2251C130.801 24.0251 131.651 23.5751 131.651 22.1751C131.651 20.7751 130.701 20.3251 130.701 20.3251H132.251V19.3251H129.251C128.201 19.3251 127.401 19.5751 126.801 20.0251C126.201 20.4751 125.901 21.1251 125.901 21.9251C125.901 24.0251 127.801 24.4251 127.801 24.4251C127.801 24.4251 126.401 24.8251 126.401 25.5751C126.401 26.3251 127.351 26.6251 127.351 26.6251H127.101C125.851 26.9751 125.201 27.6251 125.201 28.6251C125.201 29.6251 125.501 29.9251 126.151 30.3251C126.801 30.7751 127.701 30.9751 128.801 30.9751C129.901 30.9751 130.751 30.7751 131.401 30.3251C132.051 29.8751 132.351 29.3251 132.351 28.6251" fill="white"/>
<path d="M134.702 22.375C134.802 21.725 135.052 21.225 135.452 20.875C135.852 20.525 136.302 20.325 136.902 20.325C137.502 20.325 137.952 20.525 138.302 20.875C138.652 21.225 138.852 21.725 138.902 22.375H134.702ZM140.102 25.075C139.252 25.625 138.352 25.975 137.352 25.975C136.352 25.975 135.952 25.725 135.452 25.275C134.952 24.825 134.702 24.175 134.652 23.375V23.275H140.202V23.175C140.202 21.975 139.902 21.025 139.302 20.325C138.702 19.625 137.902 19.275 136.902 19.275C135.902 19.275 135.002 19.625 134.352 20.375C133.702 21.125 133.352 22.075 133.352 23.225C133.352 24.375 133.502 24.675 133.802 25.275C134.102 25.875 134.552 26.325 135.052 26.675C135.552 27.025 136.252 27.175 137.102 27.175C137.952 27.175 138.252 27.125 138.752 26.975C139.202 26.825 139.652 26.625 140.102 26.325V25.075Z" fill="white"/>
<path d="M82.7511 0.625C82.1011 0.625 81.7511 0.675006 80.9011 0.725006C80.2011 0.725006 79.5011 0.825005 78.9011 0.825005C78.3011 0.825005 77.3511 0.825006 76.3011 0.725006C75.1511 0.675006 74.3011 0.625 73.6011 0.625C72.9011 0.625 73.3011 0.775 73.3011 1.125C73.3011 1.475 73.4011 1.625 73.6011 1.675C74.6511 1.825 75.3511 2.025 75.8011 2.275C76.2511 2.525 76.4511 2.875 76.4511 3.375C76.4511 3.875 76.2511 4.325 75.8511 4.925L70.2011 13.525L64.7511 4.97501C64.2511 4.17501 64.0011 3.525 64.0011 3.025C64.0011 2.525 64.8511 1.97501 66.4511 1.72501C66.7011 1.72501 66.7511 1.52501 66.7511 1.22501C66.7511 0.875006 66.6011 0.675003 66.4011 0.675003C65.5511 0.675003 64.5011 0.675002 63.1511 0.775002C62.0511 0.875002 61.1511 0.875 60.5011 0.875C59.8511 0.875 58.9511 0.875002 57.8511 0.775002C56.8511 0.675002 56.4511 0.675003 55.9011 0.675003C55.3511 0.675003 55.5511 0.875003 55.5511 1.175C55.5511 1.475 55.6011 1.67501 55.8511 1.72501C57.0011 1.87501 57.5011 2.07501 58.2011 2.47501C58.8511 2.87501 59.6511 3.67501 60.5511 4.97501L67.0511 15.275V22.825C67.0511 24.025 66.8011 24.775 66.2511 25.175C65.7011 25.575 64.8011 25.875 63.3011 26.025C63.1011 26.025 63.0011 26.225 63.0011 26.525C63.0011 26.825 63.1511 27.075 63.3511 27.075C64.2011 27.075 65.0011 27.075 66.2011 26.975C67.3011 26.875 68.2511 26.875 69.0011 26.875C69.7511 26.875 70.6511 26.875 71.6511 26.975C72.7011 27.075 73.6011 27.075 74.4511 27.075C75.3011 27.075 74.8011 26.925 74.8011 26.525C74.8011 26.125 74.7011 26.025 74.5011 26.025C73.4511 25.875 72.6511 25.725 72.1511 25.525C71.6511 25.325 71.3011 25.025 71.1511 24.675C71.0011 24.325 70.9511 23.725 70.9511 22.875V15.225L77.9511 5.025C78.8011 3.775 79.5511 2.925 80.2011 2.525C80.8511 2.125 81.6011 1.87501 82.8511 1.72501C83.2511 1.72501 83.2511 1.32501 83.2511 1.22501C83.2511 0.875006 83.1011 0.675003 82.9011 0.675003" fill="white"/>
<path d="M21.6012 22.975C19.8012 25.275 17.4512 26.425 14.4512 26.425C11.4512 26.425 9.10117 25.275 7.30117 22.975C5.50117 20.675 4.65117 17.675 4.65117 13.975C4.65117 10.275 5.55117 7.17503 7.35117 4.82503C9.15117 2.47503 11.5012 1.27502 14.4512 1.27502C17.4012 1.27502 19.7512 2.47503 21.5512 4.82503C23.3512 7.17503 24.2512 10.225 24.2512 13.975C24.2512 17.725 23.3512 20.675 21.5512 22.975M14.4512 0.0250244C10.3012 0.0250244 6.95117 1.32503 4.35117 3.97503C1.75117 6.62503 0.451172 9.92503 0.451172 13.975C0.451172 18.025 1.75117 21.275 4.30117 23.825C6.90117 26.375 10.2512 27.675 14.4012 27.675C18.5512 27.675 21.9512 26.375 24.5012 23.825C27.1012 21.275 28.3512 17.975 28.3512 13.975C28.3512 9.97503 27.0512 6.62503 24.4512 3.97503C21.8512 1.32503 18.5012 0.0250244 14.3512 0.0250244" fill="white"/>
<path d="M54.7015 25.9751C53.3015 25.8251 52.4015 25.5751 51.8015 25.2251C51.2015 24.9251 50.4015 24.0751 49.5015 22.7251L42.7015 12.7251L48.6015 4.87507C49.5015 3.72507 50.3015 2.92507 51.0015 2.47507C51.7015 2.02507 52.5515 1.77507 53.9015 1.62507C54.0515 1.62507 54.1515 1.62507 54.2015 1.47507C54.3015 1.37507 54.3015 1.22507 54.3015 1.07507C54.3015 0.725073 54.1515 0.575073 53.9515 0.575073C53.1015 0.575073 52.4015 0.575075 51.4515 0.725075C50.6515 0.775075 50.0015 0.825073 49.4015 0.825073C48.8015 0.825073 47.8015 0.825075 46.8515 0.725075C45.8515 0.625075 44.9515 0.625069 44.1015 0.625069C43.2515 0.625069 43.8015 0.825069 43.8015 1.12507C43.8015 1.42507 43.8015 1.62507 44.0015 1.62507C45.1515 1.77507 45.9515 1.97507 46.4515 2.22507C46.9515 2.47507 47.2015 2.82507 47.2015 3.27507C47.2015 3.72507 47.0015 4.12507 46.5515 4.82507L41.9515 11.4751L37.4015 4.82507C36.7515 3.92507 36.4515 3.22507 36.4515 2.82507C36.4515 2.42507 36.6515 2.27507 37.0015 2.07507C37.3515 1.87507 38.0515 1.72507 39.1015 1.57507C39.3015 1.52507 39.4015 1.42507 39.4015 1.07507C39.4015 0.725073 39.3015 0.575073 39.0515 0.575073C38.2015 0.575073 37.2015 0.575072 35.9515 0.675072C34.7515 0.775072 33.8015 0.77507 33.0515 0.77507C32.3015 0.77507 31.6015 0.775072 30.4015 0.675072C29.3015 0.575072 28.8015 0.575073 28.2015 0.575073C27.6015 0.575073 27.8515 0.725073 27.8515 1.07507C27.8515 1.42507 27.9515 1.57507 28.2015 1.62507C29.5015 1.77507 30.1015 1.97507 30.8015 2.32507C31.5015 2.67507 32.2515 3.52507 33.1515 4.82507L39.7515 14.4751L33.5015 22.6751C32.6015 23.8751 31.7515 24.6751 31.0515 25.0751C30.3515 25.4751 29.7515 25.7251 28.5515 25.8751C28.2515 25.8751 28.1515 26.1251 28.1515 26.4251C28.1515 26.7251 28.3015 26.9251 28.5015 26.9751C28.9015 26.9751 29.8515 26.9751 30.7515 26.8751C31.5515 26.7751 32.3015 26.7751 32.8515 26.7751C33.4015 26.7751 34.1015 26.7751 35.0515 26.8751C36.1515 26.9751 37.1515 26.9751 38.0015 26.9751C38.8515 26.9751 38.3515 26.8251 38.3515 26.4751C38.3515 26.1251 38.3515 25.9751 38.1015 25.9251C37.0015 25.7251 36.2015 25.6251 35.7015 25.3751C35.2515 25.1251 35.0015 24.7751 35.0015 24.2751C35.0015 23.7751 35.2015 23.2751 35.6015 22.7251L40.5515 15.6751L45.3515 22.7251C45.9515 23.6251 46.3015 24.3251 46.3015 24.7251C46.3015 25.1251 45.4515 25.6751 43.7015 25.9251C43.5015 25.9251 43.4015 26.1251 43.4015 26.4251C43.4015 26.7251 43.5515 26.9751 43.7515 26.9751C44.6015 26.9751 45.6015 26.9751 46.9015 26.8751C48.1015 26.7751 49.0515 26.7751 49.8015 26.7751C50.5515 26.7751 51.4015 26.7751 52.5515 26.8751C53.6015 26.9751 54.2515 26.9751 54.8515 26.9751C55.4515 26.9751 55.2015 26.7751 55.2015 26.4251C55.2015 26.0751 55.1015 25.9251 54.9015 25.9251" fill="white"/>
</svg>
