<svg width="131" height="25" viewBox="0 0 131 25" fill="none" xmlns="http://www.w3.org/2000/svg">
<path d="M79.7262 7.71447C78.9992 8.44145 78.0703 8.80494 76.9395 8.80494C75.8086 8.80494 74.9201 8.44145 74.1931 7.75486C73.4661 7.02788 73.1026 6.13935 73.1026 5.08927C73.1026 4.03919 73.4661 3.06989 74.1931 2.3833C74.9201 1.65632 75.849 1.33321 76.9798 1.33321C78.1107 1.33321 78.9589 1.6967 79.7262 2.42368C80.4532 3.15066 80.8571 4.03919 80.8571 5.08927C80.8571 6.13935 80.4936 7.06827 79.7262 7.79525M80.6148 1.53515C79.6455 0.606235 78.3934 0.121582 76.9395 0.121582C75.4855 0.121582 74.2335 0.606235 73.3045 1.53515C72.3352 2.46407 71.8506 3.63531 71.8506 5.04888C71.8506 6.46245 72.3352 7.59331 73.2642 8.48184C74.2335 9.41076 75.4047 9.85502 76.8587 9.85502C78.3126 9.85502 79.6051 9.41076 80.5744 8.48184C81.5437 7.55292 82.0687 6.38168 82.0687 5.0085C82.0687 3.63532 81.5841 2.42368 80.6148 1.53515Z" fill="#121212"/>
<path d="M83.8853 9.047C84.4507 9.61243 85.2584 9.89514 86.1874 9.89514C87.1163 9.89514 87.3586 9.77398 87.9644 9.57204V8.52196C87.399 8.76429 86.8336 8.88545 86.3893 8.88545C85.7027 8.88545 85.1373 8.68351 84.7334 8.27963C84.3295 7.87575 84.1276 7.35071 84.1276 6.66412C84.1276 5.97753 84.3295 5.49288 84.693 5.089C85.0565 4.68513 85.5815 4.4428 86.147 4.4428C86.7124 4.4428 87.2374 4.60435 87.8433 4.96784V3.83698C87.4798 3.67543 87.1971 3.59466 86.9547 3.51388C86.7124 3.47349 86.4297 3.43311 86.1066 3.43311C85.1777 3.43311 84.4507 3.71582 83.8853 4.32163C83.3198 4.92745 83.0371 5.69482 83.0371 6.66412C83.0371 7.63343 83.3198 8.40079 83.8853 8.96622" fill="#121212"/>
<path d="M89.7824 9.047C90.3478 9.61243 91.1556 9.89514 92.1249 9.89514C93.0942 9.89514 93.2961 9.77398 93.9019 9.57204V8.52196C93.3365 8.76429 92.7711 8.88545 92.3268 8.88545C91.6402 8.88545 91.0748 8.68351 90.6709 8.27963C90.267 7.87575 90.0651 7.35071 90.0651 6.66412C90.0651 5.97753 90.267 5.49288 90.6305 5.089C90.994 4.68513 91.519 4.4428 92.0845 4.4428C92.6499 4.4428 93.175 4.60435 93.7808 4.96784V3.83698C93.4173 3.67543 93.1346 3.59466 92.8922 3.51388C92.6499 3.47349 92.3672 3.43311 92.0441 3.43311C91.1152 3.43311 90.3882 3.71582 89.8228 4.32163C89.2573 4.92745 88.9746 5.69482 88.9746 6.66412C88.9746 7.63343 89.2573 8.40079 89.8228 8.96622" fill="#121212"/>
<path d="M96.4459 3.59473H95.3555V9.77404H96.4459V3.59473Z" fill="#121212"/>
<path d="M96.3662 1.05008C96.245 0.92892 96.0835 0.848145 95.8815 0.848145C95.6796 0.848145 95.5585 0.92892 95.4373 1.05008C95.3161 1.17125 95.2354 1.33279 95.2354 1.49434C95.2354 1.6559 95.3161 1.81745 95.4373 1.979C95.5585 2.10017 95.72 2.18094 95.8815 2.18094C96.0431 2.18094 96.245 2.10017 96.3662 1.979C96.4874 1.85784 96.5681 1.69628 96.5681 1.49434C96.5681 1.29241 96.4874 1.13086 96.3662 1.00969" fill="#121212"/>
<path d="M99.4356 5.00808C99.8394 4.56382 100.364 4.36188 101.011 4.36188C101.657 4.36188 101.859 4.48304 102.263 4.68498H102.303V8.8853H101.213C100.647 8.8853 100.243 8.8853 100.001 8.76414C99.7587 8.68336 99.5567 8.52181 99.3548 8.31987C99.0317 7.95638 98.8297 7.43134 98.8297 6.74475C98.8297 6.05816 99.0317 5.45235 99.3952 5.00808M98.547 8.92569C99.0721 9.49112 99.8394 9.77383 100.728 9.77383H103.353V0.282715H102.263V3.75606H102.142C101.657 3.55412 101.213 3.43296 100.768 3.43296C99.8798 3.43296 99.1528 3.71567 98.5874 4.32149C98.022 4.88691 97.7393 5.65428 97.7393 6.5832C97.7393 7.51212 98.022 8.36026 98.547 8.92569Z" fill="#121212"/>
<path d="M105.735 6.05796C105.816 5.53292 106.018 5.12904 106.341 4.84632C106.664 4.56361 107.028 4.40206 107.512 4.40206C107.997 4.40206 108.361 4.56361 108.643 4.84632C108.926 5.12904 109.088 5.53292 109.128 6.05796H105.735ZM110.057 8.11773C109.33 8.60238 108.563 8.8851 107.836 8.8851C107.109 8.8851 106.705 8.68316 106.301 8.31967C105.897 7.95618 105.695 7.43114 105.655 6.78494V6.70416H110.138V6.62339C110.138 5.65408 109.895 4.88671 109.411 4.32128C108.926 3.75585 108.28 3.47314 107.472 3.47314C106.664 3.47314 105.937 3.75586 105.412 4.36167C104.887 4.96749 104.604 5.73485 104.604 6.66377C104.604 7.59269 104.726 7.83502 104.968 8.31967C105.21 8.80432 105.574 9.16781 105.978 9.45053C106.382 9.73324 106.947 9.85441 107.634 9.85441C108.32 9.85441 108.563 9.81401 108.966 9.69285C109.33 9.57169 109.693 9.41014 110.057 9.16781V8.11773Z" fill="#121212"/>
<path d="M114.217 4.44245C114.742 4.44245 115.106 4.56361 115.307 4.84632C115.509 5.12904 115.631 5.57331 115.631 6.21951V9.77362H116.721V6.21951C116.721 5.45214 116.64 4.88671 116.479 4.56361C116.317 4.24051 116.075 3.9578 115.752 3.75586C115.429 3.55392 115.065 3.47314 114.702 3.47314C114.015 3.47314 113.409 3.75586 112.844 4.36167L112.682 4.52322V3.59431H111.592V9.77362H112.682V5.5733C113.167 4.84633 113.732 4.44245 114.298 4.44245" fill="#121212"/>
<path d="M118.66 8.60252C118.7 8.80446 118.781 8.96601 118.861 9.08717C118.942 9.20833 119.023 9.3295 119.144 9.41027C119.508 9.73337 119.992 9.89492 120.517 9.89492C121.042 9.89492 121.567 9.77376 122.012 9.53144V8.56213C121.527 8.80445 121.083 8.92562 120.679 8.92562C120.033 8.92562 119.669 8.52174 119.669 7.75437V4.52336H121.689V3.55405H119.669V2.38281L117.488 4.52336H118.579V7.43128C118.579 7.99671 118.579 8.40058 118.66 8.60252Z" fill="#121212"/>
<path d="M126.293 8.48157C125.889 8.92583 125.485 9.16816 125.121 9.16816C124.758 9.16816 124.596 9.08739 124.394 8.92584C124.192 8.7239 124.112 8.52196 124.112 8.23925C124.112 7.95653 124.192 7.75459 124.394 7.55265C124.596 7.3911 124.879 7.18917 125.323 7.02762C125.323 7.02762 125.848 6.78529 126.252 6.70451V8.52196L126.293 8.48157ZM128.312 8.84506C128.029 9.00661 127.827 9.08739 127.706 9.08739C127.585 9.08739 127.383 9.08739 127.383 8.7239V6.01792C127.383 5.49288 127.383 5.12939 127.343 4.92745C127.343 4.7659 127.262 4.56397 127.141 4.40241C127.02 4.20048 126.898 4.07931 126.777 3.95815C126.373 3.59466 125.848 3.43311 125.162 3.43311C124.475 3.43311 123.587 3.71582 123.142 4.24086V5.33133C123.788 4.68512 124.435 4.32163 125.081 4.32163C125.727 4.32163 126.333 4.80629 126.333 5.65443V5.97753C126.333 5.97753 124.314 6.50257 123.465 7.35071C123.183 7.63343 123.062 7.99692 123.062 8.36041C123.062 8.7239 123.183 9.12777 123.465 9.41049C123.748 9.6932 124.112 9.81437 124.515 9.81437C124.919 9.81437 125.646 9.61243 126.171 9.20855L126.293 9.12778V9.28932C126.414 9.65281 126.696 9.85476 127.181 9.85476C127.666 9.85476 127.868 9.77398 128.312 9.45088V8.80467V8.84506Z" fill="#121212"/>
<path d="M130.614 0.282227H129.523V9.77334H130.614V0.282227Z" fill="#121212"/>
<path d="M72.5368 19.5072C72.9811 20.2745 73.5465 20.84 74.2735 21.2842C75.0005 21.7285 75.9294 21.9304 77.0199 21.9304C78.1104 21.9304 79.4836 21.6477 80.4529 21.1227V19.8303C79.3624 20.5169 78.2315 20.84 77.1007 20.84C75.9698 20.84 75.0005 20.4765 74.2331 19.7899C73.5061 19.1033 73.1427 18.1744 73.1427 17.0839C73.1427 15.9934 73.5061 15.1049 74.2735 14.3779C75.0409 13.6509 76.0102 13.2875 77.1411 13.2875C78.2719 13.2875 79.2816 13.6106 80.3721 14.176V12.8836C79.1604 12.3585 78.0296 12.1162 77.0603 12.1162C75.6063 12.1162 74.3543 12.6009 73.385 13.5298C72.4157 14.4587 71.8906 15.6299 71.8906 17.0435C71.8906 18.4571 72.0926 18.7398 72.5368 19.4668" fill="#121212"/>
<path d="M86.3495 20.3152C85.9456 20.7191 85.4206 20.921 84.7744 20.921C84.1281 20.921 83.6031 20.7191 83.1588 20.3152C82.755 19.9113 82.553 19.3863 82.553 18.7401C82.553 18.0939 82.755 17.5688 83.1588 17.165C83.5627 16.7611 84.0878 16.5591 84.734 16.5591C85.3802 16.5591 85.9052 16.7611 86.3495 17.165C86.7937 17.5688 86.9957 18.0939 86.9957 18.7401C86.9957 19.3863 86.7937 19.9113 86.3899 20.3152M87.1572 16.5188C86.5514 15.9129 85.7437 15.5898 84.8147 15.5898C83.8858 15.5898 83.0781 15.9129 82.4319 16.4784C81.7856 17.0842 81.5029 17.8516 81.5029 18.7401C81.5029 19.6286 81.826 20.396 82.4319 21.0018C83.0377 21.6076 83.8454 21.8903 84.7744 21.8903C85.7033 21.8903 86.5514 21.6076 87.1572 21.0018C87.8034 20.396 88.0862 19.669 88.0862 18.7805C88.0862 17.8919 87.7631 17.0842 87.1572 16.4784" fill="#121212"/>
<path d="M90.5098 12.3179H89.3789V21.809H90.5098V12.3179Z" fill="#121212"/>
<path d="M93.377 12.3179H92.2461V21.809H93.377V12.3179Z" fill="#121212"/>
<path d="M95.8004 18.0534C95.8812 17.5283 96.0832 17.1244 96.4063 16.8417C96.7294 16.559 97.0929 16.3975 97.5775 16.3975C98.0622 16.3975 98.4256 16.559 98.7084 16.8417C98.9911 17.1244 99.1526 17.5283 99.193 18.0534H95.8004ZM100.162 20.2343C99.4757 20.6786 98.7488 20.9613 97.941 20.9613C97.1332 20.9613 96.8101 20.7593 96.4063 20.3958C96.0024 20.0324 95.8004 19.5073 95.76 18.8611V18.7803H100.243V18.6996C100.243 17.7303 100.001 16.9629 99.5161 16.3975C99.0315 15.832 98.3853 15.5493 97.5775 15.5493C96.7697 15.5493 96.0428 15.832 95.5177 16.4378C94.9927 17.0437 94.71 17.811 94.71 18.7399C94.71 19.6689 94.8311 19.9112 95.0734 20.3958C95.3158 20.8805 95.6793 21.244 96.0831 21.5267C96.487 21.8094 97.0525 21.9306 97.7391 21.9306C98.4256 21.9306 98.668 21.8902 99.0719 21.769C99.4354 21.6479 99.7988 21.4863 100.162 21.244V20.2343Z" fill="#121212"/>
<path d="M105.05 23.9905C104.727 24.152 104.282 24.2328 103.717 24.2328C102.465 24.2328 101.859 23.8693 101.859 23.1423C101.859 22.4154 102.021 22.5769 102.303 22.375C102.586 22.173 102.95 22.0923 103.394 22.0923C104.04 22.0923 104.525 22.173 104.929 22.375C105.332 22.5769 105.575 22.8596 105.575 23.1827C105.575 23.5058 105.413 23.7885 105.05 23.9501M102.748 18.6997C102.505 18.4574 102.344 18.1747 102.344 17.8112C102.344 17.4477 102.465 17.165 102.748 16.9226C102.99 16.6803 103.313 16.5591 103.676 16.5591C104.04 16.5591 104.403 16.6803 104.646 16.9226C104.888 17.165 105.05 17.4477 105.05 17.8112C105.05 18.1747 104.929 18.4574 104.646 18.6997C104.403 18.942 104.08 19.0632 103.676 19.0632C103.273 19.0632 102.99 18.942 102.707 18.6997M106.625 23.1827C106.625 22.7385 106.463 22.375 106.181 22.0923C106.019 21.9307 105.817 21.7692 105.615 21.6884C105.413 21.6076 104.888 21.4461 104.121 21.2845C103.636 21.1633 103.313 21.0826 103.111 20.9614C102.909 20.8402 102.788 20.7191 102.788 20.5171C102.788 20.194 103.071 19.9921 103.596 19.9517C104.242 19.8709 104.727 19.7094 105.009 19.5478C105.292 19.3863 105.979 19.0228 105.979 17.8919C105.979 16.7611 105.211 16.3976 105.211 16.3976H106.463V15.5898H104.04C103.192 15.5898 102.546 15.7918 102.061 16.1553C101.576 16.5188 101.334 17.0438 101.334 17.69C101.334 19.3863 102.869 19.7094 102.869 19.7094C102.869 19.7094 101.738 20.0325 101.738 20.6383C101.738 21.2441 102.505 21.4864 102.505 21.4864H102.303C101.294 21.7692 100.769 22.2942 100.769 23.102C100.769 23.9097 101.011 24.152 101.536 24.4751C102.061 24.8386 102.788 25.0002 103.676 25.0002C104.565 25.0002 105.252 24.8386 105.777 24.4751C106.302 24.1116 106.544 23.6674 106.544 23.102" fill="#121212"/>
<path d="M108.442 18.0534C108.523 17.5283 108.725 17.1244 109.048 16.8417C109.371 16.559 109.734 16.3975 110.219 16.3975C110.704 16.3975 111.067 16.559 111.35 16.8417C111.633 17.1244 111.794 17.5283 111.835 18.0534H108.442ZM112.804 20.2343C112.117 20.6786 111.39 20.9613 110.583 20.9613C109.775 20.9613 109.452 20.7593 109.048 20.3958C108.644 20.0324 108.442 19.5073 108.402 18.8611V18.7803H112.885V18.6996C112.885 17.7303 112.642 16.9629 112.158 16.3975C111.673 15.832 111.027 15.5493 110.219 15.5493C109.411 15.5493 108.684 15.832 108.159 16.4378C107.634 17.0437 107.352 17.811 107.352 18.7399C107.352 19.6689 107.473 19.9112 107.715 20.3958C107.957 20.8805 108.321 21.244 108.725 21.5267C109.129 21.8094 109.694 21.9306 110.381 21.9306C111.067 21.9306 111.31 21.8902 111.713 21.769C112.077 21.6479 112.44 21.4863 112.804 21.244V20.2343Z" fill="#121212"/>
<path d="M66.4792 0.484863C65.9541 0.484863 65.6714 0.525256 64.9848 0.565644C64.4194 0.565644 63.8539 0.646418 63.3693 0.646418C62.8846 0.646418 62.1173 0.646419 61.2691 0.565644C60.3402 0.525256 59.6536 0.484863 59.0882 0.484863C58.5227 0.484863 58.8458 0.606026 58.8458 0.88874C58.8458 1.17145 58.9266 1.29262 59.0882 1.33301C59.9363 1.45417 60.5017 1.61572 60.8652 1.81766C61.2287 2.0196 61.3903 2.30231 61.3903 2.70619C61.3903 3.11006 61.2287 3.47356 60.9056 3.95821L56.3418 10.9049L51.9395 3.9986C51.5356 3.3524 51.3337 2.82735 51.3337 2.42347C51.3337 2.0196 52.0203 1.57534 53.3127 1.3734C53.5146 1.3734 53.555 1.21185 53.555 0.969521C53.555 0.686807 53.4339 0.525253 53.2723 0.525253C52.5857 0.525253 51.7376 0.525252 50.6471 0.606028C49.7586 0.686803 49.0316 0.686802 48.5065 0.686802C47.9815 0.686802 47.2545 0.686803 46.366 0.606028C45.5582 0.525252 45.2351 0.525253 44.7908 0.525253C44.3466 0.525253 44.5081 0.686804 44.5081 0.929131C44.5081 1.17146 44.5485 1.33301 44.7505 1.3734C45.6794 1.49456 46.0833 1.65611 46.6487 1.97921C47.1737 2.30232 47.8199 2.94852 48.5469 3.9986L53.7974 12.3185V18.417C53.7974 19.3863 53.5954 19.9921 53.1511 20.3152C52.7069 20.6383 51.9799 20.8807 50.7683 21.0018C50.6067 21.0018 50.5259 21.1634 50.5259 21.4057C50.5259 21.648 50.6471 21.85 50.8086 21.85C51.4952 21.85 52.1414 21.85 53.1108 21.7692C53.9993 21.6884 54.7667 21.6884 55.3725 21.6884C55.9783 21.6884 56.7053 21.6884 57.513 21.7692C58.3612 21.85 59.0882 21.85 59.7748 21.85C60.4614 21.85 60.0575 21.7288 60.0575 21.4057C60.0575 21.0826 59.9767 21.0018 59.8152 21.0018C58.967 20.8807 58.3208 20.7595 57.9169 20.598C57.513 20.4364 57.2303 20.1941 57.1092 19.9114C56.988 19.6286 56.9476 19.144 56.9476 18.4574V12.2781L62.6019 4.03898C63.2885 3.02929 63.8943 2.3427 64.4194 2.0196C64.9444 1.6965 65.5502 1.49456 66.5599 1.3734C66.883 1.3734 66.883 1.0503 66.883 0.969521C66.883 0.686807 66.7619 0.525253 66.6003 0.525253" fill="#E35F2B"/>
<path d="M17.0841 18.538C15.6301 20.3958 13.7319 21.3247 11.3086 21.3247C8.88534 21.3247 6.98711 20.3958 5.53314 18.538C4.07918 16.6801 3.39258 14.2569 3.39258 11.2682C3.39258 8.27949 4.11957 5.77545 5.57353 3.87722C7.0275 1.979 8.92573 1.00969 11.3086 1.00969C13.6915 1.00969 15.5897 1.979 17.0437 3.87722C18.4977 5.77545 19.2246 8.2391 19.2246 11.2682C19.2246 14.2973 18.4977 16.6801 17.0437 18.538M11.3086 0C7.95642 0 5.25043 1.05008 3.15026 3.19063C1.05009 5.33118 0 7.99677 0 11.2682C0 14.5396 1.05008 17.1648 3.10987 19.2246C5.21004 21.2843 7.91603 22.3344 11.2682 22.3344C14.6204 22.3344 17.3668 21.2843 19.4266 19.2246C21.5268 17.1648 22.5365 14.4992 22.5365 11.2682C22.5365 8.03716 21.4864 5.33118 19.3862 3.19063C17.286 1.05008 14.58 0 11.2278 0" fill="#E35F2B"/>
<path d="M43.8209 20.9613C42.69 20.8401 41.963 20.6382 41.4784 20.3555C40.9937 20.1132 40.3475 19.4266 39.6205 18.3361L34.1278 10.2586L38.8935 3.91768C39.6205 2.98876 40.2667 2.34256 40.8321 1.97907C41.3976 1.61558 42.0842 1.41364 43.1746 1.29247C43.2958 1.29247 43.3766 1.29248 43.417 1.17132C43.4977 1.09054 43.4978 0.969376 43.4978 0.848213C43.4978 0.565499 43.3766 0.444336 43.215 0.444336C42.5284 0.444336 41.963 0.444337 41.1956 0.5655C40.5494 0.605888 40.0244 0.646275 39.5397 0.646275C39.0551 0.646275 38.2473 0.646276 37.4799 0.5655C36.6722 0.484725 35.9452 0.48472 35.2586 0.48472C34.572 0.48472 35.0163 0.646271 35.0163 0.888597C35.0163 1.13092 35.0163 1.29247 35.1778 1.29247C36.1068 1.41364 36.753 1.57519 37.1568 1.77713C37.5607 1.97907 37.7627 2.26178 37.7627 2.62527C37.7627 2.98876 37.6011 3.31186 37.2376 3.87729L33.5219 9.24886L29.8466 3.87729C29.3216 3.15031 29.0793 2.58489 29.0793 2.26178C29.0793 1.93868 29.2408 1.81752 29.5235 1.65597C29.8062 1.49442 30.3717 1.37325 31.2198 1.25209C31.3814 1.2117 31.4622 1.13093 31.4622 0.848213C31.4622 0.565499 31.3814 0.444336 31.1794 0.444336C30.4928 0.444336 29.6851 0.444335 28.6754 0.52511C27.7061 0.605886 26.9387 0.605884 26.3329 0.605884C25.7271 0.605884 25.1616 0.605886 24.1923 0.52511C23.3038 0.444335 22.8999 0.444336 22.4153 0.444336C21.9306 0.444336 22.1325 0.565499 22.1325 0.848213C22.1325 1.13093 22.2133 1.25209 22.4153 1.29247C23.4653 1.41364 23.95 1.57519 24.5154 1.85791C25.0809 2.14062 25.6867 2.82721 26.4137 3.87729L31.7449 11.6721L26.6964 18.2957C25.9694 19.265 25.2828 19.9112 24.7174 20.2343C24.1519 20.5574 23.6673 20.7594 22.698 20.8805C22.4556 20.8805 22.3749 21.0825 22.3749 21.3248C22.3749 21.5671 22.496 21.7287 22.6576 21.7691C22.9807 21.7691 23.7481 21.769 24.475 21.6883C25.1212 21.6075 25.7271 21.6075 26.1713 21.6075C26.6156 21.6075 27.181 21.6075 27.9484 21.6883C28.8369 21.769 29.6447 21.7691 30.3313 21.7691C31.0179 21.7691 30.614 21.6479 30.614 21.3652C30.614 21.0825 30.614 20.9613 30.4121 20.9209C29.5235 20.7594 28.8773 20.6786 28.4734 20.4766C28.11 20.2747 27.908 19.992 27.908 19.5881C27.908 19.1842 28.0696 18.7804 28.3927 18.3361L32.3911 12.6414L36.2683 18.3361C36.753 19.0631 37.0357 19.6285 37.0357 19.9516C37.0357 20.2747 36.3491 20.719 34.9355 20.9209C34.774 20.9209 34.6932 21.0825 34.6932 21.3248C34.6932 21.5671 34.8143 21.7691 34.9759 21.7691C35.6625 21.7691 36.4703 21.769 37.5203 21.6883C38.4896 21.6075 39.257 21.6075 39.8628 21.6075C40.4687 21.6075 41.1553 21.6075 42.0842 21.6883C42.9323 21.769 43.4574 21.7691 43.942 21.7691C44.4267 21.7691 44.2247 21.6075 44.2247 21.3248C44.2247 21.0421 44.144 20.9209 43.9824 20.9209" fill="#E35F2B"/>
</svg>
