<svg width="21" height="17" viewBox="0 0 21 17" fill="none" xmlns="http://www.w3.org/2000/svg">
<path d="M8.40001 12.12C8.40001 14.28 6.66 16.02 4.5 16.02C1.5 16.02 0 13.68 0 10.92C0 7.62 1.92001 3.9 6.48001 0L8.40001 1.92C6.18001 4.02 4.97999 6.3 4.67999 8.04C6.59999 8.22 8.40001 9.96 8.40001 12.12ZM20.4 12.12C20.4 14.28 18.66 16.02 16.5 16.02C13.5 16.02 12 13.68 12 10.92C12 7.62 13.92 3.9 18.48 0L20.4 1.92C18.18 4.02 16.98 6.3 16.68 8.04C18.6 8.22 20.4 9.96 20.4 12.12Z" fill="black" fill-opacity="0.1"/>
</svg>
