<svg width="85" height="34" viewBox="0 0 85 34" fill="none" xmlns="http://www.w3.org/2000/svg">
<circle cx="17" cy="17" r="17" fill="white"/>
<path d="M11.6667 17C11.6667 19.9455 14.0545 22.3333 17 22.3333C19.9455 22.3333 22.3333 19.9455 22.3333 17C22.3333 14.0545 19.9455 11.6667 17 11.6667C14.0545 11.6667 11.6667 14.0545 11.6667 17ZM84.7071 17.7071C85.0976 17.3166 85.0976 16.6834 84.7071 16.2929L78.3431 9.92894C77.9526 9.53841 77.3195 9.53841 76.9289 9.92894C76.5384 10.3195 76.5384 10.9526 76.9289 11.3432L82.5858 17L76.9289 22.6569C76.5384 23.0474 76.5384 23.6805 76.9289 24.0711C77.3195 24.4616 77.9526 24.4616 78.3431 24.0711L84.7071 17.7071ZM17 18L84 18L84 16L17 16L17 18Z" fill="#ECAE54"/>
</svg>
